  0
SECTION
  2
HEADER
  9
$ANGBASE
  50
0.0
  9
$ANGDIR
  70
1
  9
$MEASUREMENT
  70
1
  0
ENDSEC
  0
SECTION
  2
TABLES
  0
TABLE
  2
LTYPE
  70
4
  0
LTYPE
  5
40F
  2
CONTINUOUS
  70
0
  3
Solid line
  72
65
  73
0
  40
0.0
  0
LTYPE
  5
410
  2
DASHDOT
 70
0
  3
Dash Dot ____ _ ____ _
 72
65
 73
4
 40
2.0
 49
1.25
 49
-0.25
 49
0.25
 49
-0.25
  0
LTYPE
  5
411
  2
DASHED
 70
0
  3
Dashed __ __ __ __ __
 72
65
 73
2
 40
0.75
 49
0.5
 49
-0.25
  0
LTYPE
  5
43B
  2
DOTTED
 70
0
  3
Dotted .  .  .  .
 72
65
 73
2
 40
0.2
 49
0.0
 49
-0.2
  0
ENDTAB
  0
TABLE
  2
STYLE
  70
4
  0
STYLE
  2
KICAD
  70
0
  40
0
  41
1
  42
1
  50
0
  71
0
  3
isocp.shx
  0
STYLE
  2
KICADB
  70
0
  40
0
  41
1
  42
1
  50
0
  71
0
  3
isocp.shx
  0
STYLE
  2
KICADI
  70
0
  40
0
  41
1
  42
1
  50
15
  71
0
  3
isocp.shx
  0
STYLE
  2
KICADBI
  70
0
  40
0
  41
1
  42
1
  50
15
  71
0
  3
isocp.shx
  0
ENDTAB
  0
TABLE
  2
LAYER
  70
1
  0
LAYER
  2
BLACK
  70
0
  62
7
  6
CONTINUOUS
  0
ENDTAB
  0
ENDSEC
  0
SECTION
  2
ENTITIES
0
LINE
8
BLACK
6
CONTINUOUS
10
172.524
20
-92.1329
11
172.524
21
-92.1325
0
LINE
8
BLACK
6
CONTINUOUS
10
172.524
20
-92.1333
11
172.524
21
-92.1329
0
LINE
8
BLACK
6
CONTINUOUS
10
172.531
20
-92.124
11
172.524
21
-92.1332
0
LINE
8
BLACK
6
CONTINUOUS
10
172.524
20
-92.1325
11
172.531
21
-92.124
0
LINE
8
BLACK
6
CONTINUOUS
10
172.519
20
-92.1402
11
172.524
21
-92.1333
0
LINE
8
BLACK
6
CONTINUOUS
10
172.524
20
-92.1332
11
172.53
21
-92.1298
0
LINE
8
BLACK
6
CONTINUOUS
10
172.53
20
-92.1298
11
172.538
21
-92.1116
0
LINE
8
BLACK
6
CONTINUOUS
10
171.733
20
-88.106
11
171.514
21
-88.1009
0
LINE
8
BLACK
6
CONTINUOUS
10
169.519
20
-91.7278
11
169.583
21
-91.6295
0
LINE
8
BLACK
6
CONTINUOUS
10
168.853
20
-89.08
11
169.151
21
-88.6643
0
LINE
8
BLACK
6
CONTINUOUS
10
171.514
20
-88.1009
11
171.414
21
-88.1836
0
LINE
8
BLACK
6
CONTINUOUS
10
169.242
20
-91.4566
11
168.996
21
-91.4538
0
LINE
8
BLACK
6
CONTINUOUS
10
170.682
20
-90.4681
11
169.115
21
-89.64
0
LINE
8
BLACK
6
CONTINUOUS
10
170.053
20
-92.3047
11
169.843
21
-92.2406
0
LINE
8
BLACK
6
CONTINUOUS
10
168.989
20
-90.2761
11
168.884
21
-90.3354
0
LINE
8
BLACK
6
CONTINUOUS
10
170.549
20
-92.0731
11
170.259
21
-92.1844
0
LINE
8
BLACK
6
CONTINUOUS
10
170.604
20
-88.8636
11
170.742
21
-88.8182
0
LINE
8
BLACK
6
CONTINUOUS
10
169.583
20
-91.6295
11
169.632
21
-91.5589
0
LINE
8
BLACK
6
CONTINUOUS
10
170.259
20
-92.1844
11
170.053
21
-92.3047
0
LINE
8
BLACK
6
CONTINUOUS
10
169.632
20
-91.5589
11
169.571
21
-91.4966
0
LINE
8
BLACK
6
CONTINUOUS
10
169.011
20
-89.9877
11
168.989
21
-90.2761
0
LINE
8
BLACK
6
CONTINUOUS
10
168.884
20
-90.3354
11
168.778
21
-90.2521
0
LINE
8
BLACK
6
CONTINUOUS
10
168.758
20
-89.7955
11
168.853
21
-89.08
0
LINE
8
BLACK
6
CONTINUOUS
10
168.886
20
-91.287
11
168.838
21
-91.0894
0
LINE
8
BLACK
6
CONTINUOUS
10
170.817
20
-90.7004
11
170.75
21
-90.548
0
LINE
8
BLACK
6
CONTINUOUS
10
169.339
20
-88.5762
11
169.447
21
-88.7391
0
LINE
8
BLACK
6
CONTINUOUS
10
169.843
20
-92.2406
11
169.672
21
-92.1224
0
LINE
8
BLACK
6
CONTINUOUS
10
170.774
20
-88.4627
11
170.768
21
-88.1823
0
LINE
8
BLACK
6
CONTINUOUS
10
170.49
20
-88.0297
11
170.239
21
-87.8913
0
LINE
8
BLACK
6
CONTINUOUS
10
171.533
20
-87.7278
11
171.596
21
-87.6905
0
LINE
8
BLACK
6
CONTINUOUS
10
169.074
20
-90.6527
11
169.242
21
-90.5091
0
LINE
8
BLACK
6
CONTINUOUS
10
170.907
20
-88.7549
11
170.813
21
-88.6917
0
LINE
8
BLACK
6
CONTINUOUS
10
169.151
20
-88.6643
11
169.339
21
-88.5762
0
LINE
8
BLACK
6
CONTINUOUS
10
170.621
20
-89.1725
11
170.604
21
-88.8636
0
LINE
8
BLACK
6
CONTINUOUS
10
169.031
20
-89.7087
11
169.011
21
-89.9877
0
LINE
8
BLACK
6
CONTINUOUS
10
168.939
20
-90.9032
11
169.074
21
-90.6527
0
LINE
8
BLACK
6
CONTINUOUS
10
170.785
20
-87.6135
11
171.131
21
-87.4889
0
LINE
8
BLACK
6
CONTINUOUS
10
171.971
20
-87.8946
11
171.991
21
-88.1406
0
LINE
8
BLACK
6
CONTINUOUS
10
168.838
20
-91.0894
11
168.939
21
-90.9032
0
LINE
8
BLACK
6
CONTINUOUS
10
169.571
20
-91.4966
11
169.242
21
-91.4566
0
LINE
8
BLACK
6
CONTINUOUS
10
170.176
20
-91.2766
11
170.493
21
-90.9871
0
LINE
8
BLACK
6
CONTINUOUS
10
169.115
20
-89.64
11
169.031
21
-89.7087
0
LINE
8
BLACK
6
CONTINUOUS
10
168.778
20
-90.2521
11
168.758
21
-89.7955
0
LINE
8
BLACK
6
CONTINUOUS
10
169.388
20
-90.4651
11
169.465
21
-90.5263
0
LINE
8
BLACK
6
CONTINUOUS
10
169.447
20
-88.7391
11
170.093
21
-89.2199
0
LINE
8
BLACK
6
CONTINUOUS
10
170.239
20
-87.8913
11
170.434
21
-87.7791
0
LINE
8
BLACK
6
CONTINUOUS
10
170.761
20
-92.3248
11
170.549
21
-92.0731
0
LINE
8
BLACK
6
CONTINUOUS
10
170.665
20
-89.5268
11
170.621
21
-89.1725
0
LINE
8
BLACK
6
CONTINUOUS
10
169.672
20
-92.1224
11
169.657
21
-91.9315
0
LINE
8
BLACK
6
CONTINUOUS
10
170.434
20
-87.7791
11
170.785
21
-87.6135
0
LINE
8
BLACK
6
CONTINUOUS
10
170.093
20
-89.2199
11
170.665
21
-89.5268
0
LINE
8
BLACK
6
CONTINUOUS
10
171.131
20
-87.4889
11
171.443
21
-87.6328
0
LINE
8
BLACK
6
CONTINUOUS
10
171.443
20
-87.6328
11
171.533
21
-87.7278
0
LINE
8
BLACK
6
CONTINUOUS
10
169.465
20
-90.5263
11
169.724
21
-90.9632
0
LINE
8
BLACK
6
CONTINUOUS
10
170.768
20
-88.1823
11
170.49
21
-88.0297
0
LINE
8
BLACK
6
CONTINUOUS
10
170.493
20
-90.9871
11
170.817
21
-90.7004
0
LINE
8
BLACK
6
CONTINUOUS
10
171.596
20
-87.6905
11
171.8
21
-87.6273
0
LINE
8
BLACK
6
CONTINUOUS
10
169.599
20
-91.7538
11
169.519
21
-91.7278
0
LINE
8
BLACK
6
CONTINUOUS
10
171.8
20
-87.6273
11
171.926
21
-87.6911
0
LINE
8
BLACK
6
CONTINUOUS
10
171.926
20
-87.6911
11
171.971
21
-87.8946
0
LINE
8
BLACK
6
CONTINUOUS
10
169.724
20
-90.9632
11
170.067
21
-91.3159
0
LINE
8
BLACK
6
CONTINUOUS
10
171.991
20
-88.1406
11
171.733
21
-88.106
0
LINE
8
BLACK
6
CONTINUOUS
10
170.067
20
-91.3159
11
170.176
21
-91.2766
0
LINE
8
BLACK
6
CONTINUOUS
10
169.242
20
-90.5091
11
169.388
21
-90.4651
0
LINE
8
BLACK
6
CONTINUOUS
10
170.742
20
-88.8182
11
170.907
21
-88.7549
0
LINE
8
BLACK
6
CONTINUOUS
10
170.725
20
-88.6695
11
170.774
21
-88.4627
0
LINE
8
BLACK
6
CONTINUOUS
10
169.657
20
-91.9315
11
169.599
21
-91.7538
0
LINE
8
BLACK
6
CONTINUOUS
10
168.996
20
-91.4538
11
168.886
21
-91.287
0
LINE
8
BLACK
6
CONTINUOUS
10
170.75
20
-90.548
11
170.682
21
-90.4681
0
LINE
8
BLACK
6
CONTINUOUS
10
170.813
20
-88.6917
11
170.725
21
-88.6695
0
LINE
8
BLACK
6
CONTINUOUS
10
172.899
20
-89.4204
11
172.614
21
-89.6009
0
LINE
8
BLACK
6
CONTINUOUS
10
173.379
20
-90.3719
11
173.119
21
-90.5707
0
LINE
8
BLACK
6
CONTINUOUS
10
171.422
20
-92.327
11
171.316
21
-92.5121
0
LINE
8
BLACK
6
CONTINUOUS
10
170.929
20
-91.4259
11
170.863
21
-91.0955
0
LINE
8
BLACK
6
CONTINUOUS
10
171.575
20
-88.8697
11
171.561
21
-89.2133
0
LINE
8
BLACK
6
CONTINUOUS
10
172.719
20
-90.5678
11
172.751
21
-90.0615
0
LINE
8
BLACK
6
CONTINUOUS
10
170.193
20
-91.4766
11
170.89
21
-91.7232
0
LINE
8
BLACK
6
CONTINUOUS
10
172.886
20
-89.5536
11
173.321
21
-89.658
0
LINE
8
BLACK
6
CONTINUOUS
10
170.89
20
-91.7232
11
170.929
21
-91.4259
0
LINE
8
BLACK
6
CONTINUOUS
10
171.611
20
-91.6305
11
172.298
21
-91.2831
0
LINE
8
BLACK
6
CONTINUOUS
10
171.828
20
-91.0156
11
171.358
21
-90.7831
0
LINE
8
BLACK
6
CONTINUOUS
10
171.358
20
-90.7831
11
171.317
21
-91.144
0
LINE
8
BLACK
6
CONTINUOUS
10
171.282
20
-91.7196
11
171.611
21
-91.6305
0
LINE
8
BLACK
6
CONTINUOUS
10
171.799
20
-90.1107
11
172.242
21
-90.3563
0
LINE
8
BLACK
6
CONTINUOUS
10
171.317
20
-91.144
11
171.246
21
-91.6155
0
LINE
8
BLACK
6
CONTINUOUS
10
171.611
20
-91.6305
11
171.611
21
-91.6305
0
LINE
8
BLACK
6
CONTINUOUS
10
172.942
20
-88.8946
11
173.468
21
-88.913
0
LINE
8
BLACK
6
CONTINUOUS
10
173.119
20
-90.5707
11
173.103
21
-90.9667
0
LINE
8
BLACK
6
CONTINUOUS
10
172.186
20
-92.3166
11
171.959
21
-92.194
0
LINE
8
BLACK
6
CONTINUOUS
10
172.581
20
-91.5226
11
172.533
21
-91.8655
0
LINE
8
BLACK
6
CONTINUOUS
10
173.064
20
-91.2978
11
172.832
21
-91.4101
0
LINE
8
BLACK
6
CONTINUOUS
10
171.316
20
-92.5121
11
171.105
21
-92.548
0
LINE
8
BLACK
6
CONTINUOUS
10
173.057
20
-91.0334
11
172.971
21
-90.8554
0
LINE
8
BLACK
6
CONTINUOUS
10
172.971
20
-90.8554
11
172.589
21
-90.6213
0
LINE
8
BLACK
6
CONTINUOUS
10
172.614
20
-89.6009
11
172.064
21
-89.946
0
LINE
8
BLACK
6
CONTINUOUS
10
172.089
20
-89.1437
11
172.417
21
-88.8761
0
LINE
8
BLACK
6
CONTINUOUS
10
171.959
20
-92.194
11
171.622
21
-92.0778
0
LINE
8
BLACK
6
CONTINUOUS
10
172.242
20
-90.3563
11
172.719
21
-90.5678
0
LINE
8
BLACK
6
CONTINUOUS
10
171.622
20
-92.0778
11
171.422
21
-92.327
0
LINE
8
BLACK
6
CONTINUOUS
10
170.863
20
-91.0955
11
170.49
21
-91.2472
0
LINE
8
BLACK
6
CONTINUOUS
10
173.576
20
-89.8128
11
173.623
21
-90.0356
0
LINE
8
BLACK
6
CONTINUOUS
10
171.383
20
-88.6917
11
171.287
21
-88.7549
0
LINE
8
BLACK
6
CONTINUOUS
10
171.641
20
-89.5098
11
172.089
21
-89.1437
0
LINE
8
BLACK
6
CONTINUOUS
10
172.649
20
-89.3879
11
172.899
21
-89.4204
0
LINE
8
BLACK
6
CONTINUOUS
10
173.623
20
-90.0356
11
173.587
21
-90.2516
0
LINE
8
BLACK
6
CONTINUOUS
10
173.587
20
-90.2516
11
173.379
21
-90.3719
0
LINE
8
BLACK
6
CONTINUOUS
10
172.751
20
-90.0615
11
172.771
21
-89.658
0
LINE
8
BLACK
6
CONTINUOUS
10
173.468
20
-88.913
11
172.934
21
-89.1343
0
LINE
8
BLACK
6
CONTINUOUS
10
171.437
20
-88.5179
11
171.383
21
-88.6917
0
LINE
8
BLACK
6
CONTINUOUS
10
171.287
20
-88.7549
11
171.444
21
-88.8182
0
LINE
8
BLACK
6
CONTINUOUS
10
171.414
20
-88.1836
11
171.375
21
-88.3199
0
LINE
8
BLACK
6
CONTINUOUS
10
171.561
20
-89.2133
11
171.543
21
-89.5408
0
LINE
8
BLACK
6
CONTINUOUS
10
172.064
20
-89.946
11
171.799
21
-90.1107
0
LINE
8
BLACK
6
CONTINUOUS
10
173.321
20
-89.658
11
173.576
21
-89.8128
0
LINE
8
BLACK
6
CONTINUOUS
10
172.832
20
-91.4101
11
172.581
21
-91.5226
0
LINE
8
BLACK
6
CONTINUOUS
10
172.533
20
-91.8655
11
172.529
21
-92.1112
0
LINE
8
BLACK
6
CONTINUOUS
10
170.761
20
-92.3248
11
170.761
21
-92.3248
0
LINE
8
BLACK
6
CONTINUOUS
10
171.246
20
-91.6155
11
171.282
21
-91.7196
0
LINE
8
BLACK
6
CONTINUOUS
10
172.981
20
-91.271
11
173.057
21
-91.0334
0
LINE
8
BLACK
6
CONTINUOUS
10
172.417
20
-88.8761
11
172.942
21
-88.8946
0
LINE
8
BLACK
6
CONTINUOUS
10
172.4
20
-89.3555
11
172.649
21
-89.3879
0
LINE
8
BLACK
6
CONTINUOUS
10
170.49
20
-91.2472
11
170.193
21
-91.4766
0
LINE
8
BLACK
6
CONTINUOUS
10
172.298
20
-91.2831
11
171.828
21
-91.0156
0
LINE
8
BLACK
6
CONTINUOUS
10
171.444
20
-88.8182
11
171.575
21
-88.8697
0
LINE
8
BLACK
6
CONTINUOUS
10
172.934
20
-89.1343
11
172.4
21
-89.3555
0
LINE
8
BLACK
6
CONTINUOUS
10
172.771
20
-89.658
11
172.886
21
-89.5536
0
LINE
8
BLACK
6
CONTINUOUS
10
171.543
20
-89.5408
11
171.641
21
-89.5098
0
LINE
8
BLACK
6
CONTINUOUS
10
173.103
20
-90.9667
11
173.064
21
-91.2978
0
LINE
8
BLACK
6
CONTINUOUS
10
172.529
20
-92.1112
11
172.378
21
-92.245
0
LINE
8
BLACK
6
CONTINUOUS
10
171.105
20
-92.548
11
170.89
21
-92.5102
0
LINE
8
BLACK
6
CONTINUOUS
10
172.378
20
-92.245
11
172.186
21
-92.3166
0
LINE
8
BLACK
6
CONTINUOUS
10
170.89
20
-92.5102
11
170.761
21
-92.3248
0
LINE
8
BLACK
6
CONTINUOUS
10
171.375
20
-88.3199
11
171.437
21
-88.5179
0
LINE
8
BLACK
6
CONTINUOUS
10
170.832
20
-90.4302
11
171.067
21
-90.4618
0
LINE
8
BLACK
6
CONTINUOUS
10
169.199
20
-89.1368
11
169.322
21
-88.8011
0
LINE
8
BLACK
6
CONTINUOUS
10
169.322
20
-88.8011
11
169.248
21
-88.7071
0
LINE
8
BLACK
6
CONTINUOUS
10
171.799
20
-90.522
11
171.477
21
-90.7097
0
LINE
8
BLACK
6
CONTINUOUS
10
169.248
20
-88.7071
11
169.024
21
-88.9507
0
LINE
8
BLACK
6
CONTINUOUS
10
169.024
20
-88.9507
11
168.884
21
-89.27
0
LINE
8
BLACK
6
CONTINUOUS
10
171.302
20
-90.4934
11
170.789
21
-90.8603
0
LINE
8
BLACK
6
CONTINUOUS
10
172.589
20
-90.6213
11
172.122
21
-90.3709
0
LINE
8
BLACK
6
CONTINUOUS
10
171.375
20
-90.0509
11
170.832
21
-90.4302
0
LINE
8
BLACK
6
CONTINUOUS
10
172.03
20
-91.0448
11
172.665
21
-91.3228
0
LINE
8
BLACK
6
CONTINUOUS
10
168.884
20
-89.27
11
168.915
21
-89.3718
0
LINE
8
BLACK
6
CONTINUOUS
10
168.915
20
-89.3718
11
168.992
21
-89.3773
0
LINE
8
BLACK
6
CONTINUOUS
10
168.992
20
-89.3773
11
169.199
21
-89.1368
0
LINE
8
BLACK
6
CONTINUOUS
10
171.508
20
-90.6024
11
171.951
21
-90.367
0
LINE
8
BLACK
6
CONTINUOUS
10
171.067
20
-90.4618
11
171.302
21
-90.4934
0
LINE
8
BLACK
6
CONTINUOUS
10
171.508
20
-90.6024
11
171.508
21
-90.6024
0
LINE
8
BLACK
6
CONTINUOUS
10
172.981
20
-91.271
11
172.981
21
-91.271
0
LINE
8
BLACK
6
CONTINUOUS
10
172.665
20
-91.3228
11
172.981
21
-91.271
0
LINE
8
BLACK
6
CONTINUOUS
10
172.122
20
-90.3709
11
171.799
21
-90.522
0
LINE
8
BLACK
6
CONTINUOUS
10
171.918
20
-89.6288
11
171.375
21
-90.0509
0
LINE
8
BLACK
6
CONTINUOUS
10
170.789
20
-90.8603
11
170.275
21
-91.2548
0
LINE
8
BLACK
6
CONTINUOUS
10
170.67
20
-91.0602
11
171.508
21
-90.6024
0
LINE
8
BLACK
6
CONTINUOUS
10
170.275
20
-91.2548
11
170.67
21
-91.0602
0
LINE
8
BLACK
6
CONTINUOUS
10
171.477
20
-90.7097
11
172.03
21
-91.0448
0
LINE
8
BLACK
6
CONTINUOUS
10
169.199
20
-89.1368
11
169.199
21
-89.1368
0
LINE
8
BLACK
6
CONTINUOUS
10
167.732
20
-91.0308
11
166.981
21
-91.0308
0
LINE
8
BLACK
6
CONTINUOUS
10
178.051
20
-90.0193
11
178.051
21
-86.2262
0
LINE
8
BLACK
6
CONTINUOUS
10
185.321
20
-86.4001
11
185.06
21
-87.3167
0
LINE
8
BLACK
6
CONTINUOUS
10
166.981
20
-91.0308
11
166.229
21
-91.0308
0
LINE
8
BLACK
6
CONTINUOUS
10
167.226
20
-88.0595
11
166.229
21
-88.0595
0
LINE
8
BLACK
6
CONTINUOUS
10
166.229
20
-88.0595
11
166.229
21
-88.5969
0
LINE
8
BLACK
6
CONTINUOUS
10
181.686
20
-86.2262
11
185.321
21
-86.2262
0
LINE
8
BLACK
6
CONTINUOUS
10
185.321
20
-86.2262
11
185.321
21
-86.4001
0
LINE
8
BLACK
6
CONTINUOUS
10
166.229
20
-88.5969
11
166.229
21
-89.1342
0
LINE
8
BLACK
6
CONTINUOUS
10
185.06
20
-87.3167
11
184.798
21
-88.0595
0
LINE
8
BLACK
6
CONTINUOUS
10
184.798
20
-88.0595
11
182.341
21
-88.0595
0
LINE
8
BLACK
6
CONTINUOUS
10
182.341
20
-88.0595
11
179.884
21
-88.0595
0
LINE
8
BLACK
6
CONTINUOUS
10
179.884
20
-88.0595
11
179.884
21
-88.5969
0
LINE
8
BLACK
6
CONTINUOUS
10
166.229
20
-91.5365
11
166.229
21
-92.0423
0
LINE
8
BLACK
6
CONTINUOUS
10
179.884
20
-88.5969
11
179.884
21
-89.1342
0
LINE
8
BLACK
6
CONTINUOUS
10
166.229
20
-89.1342
11
166.972
21
-89.1336
0
LINE
8
BLACK
6
CONTINUOUS
10
166.972
20
-89.1336
11
167.715
21
-89.133
0
LINE
8
BLACK
6
CONTINUOUS
10
178.051
20
-86.2262
11
181.686
21
-86.2262
0
LINE
8
BLACK
6
CONTINUOUS
10
167.233
20
-92.0423
11
168.236
21
-92.0423
0
LINE
8
BLACK
6
CONTINUOUS
10
166.229
20
-91.0308
11
166.229
21
-91.5365
0
LINE
8
BLACK
6
CONTINUOUS
10
166.229
20
-92.0423
11
167.233
21
-92.0423
0
LINE
8
BLACK
6
CONTINUOUS
10
168.223
20
-88.0595
11
167.226
21
-88.0595
0
LINE
8
BLACK
6
CONTINUOUS
10
167.424
20
-86.103
11
166.962
21
-85.6114
0
LINE
8
BLACK
6
CONTINUOUS
10
166.334
20
-84.9224
11
166.168
21
-84.7248
0
LINE
8
BLACK
6
CONTINUOUS
10
166.72
20
-84.3313
11
168.062
21
-83.5535
0
LINE
8
BLACK
6
CONTINUOUS
10
171.992
20
-82.9132
11
172.84
21
-83.0577
0
LINE
8
BLACK
6
CONTINUOUS
10
183.732
20
-90.9201
11
183.383
21
-91.0136
0
LINE
8
BLACK
6
CONTINUOUS
10
170.181
20
-84.7747
11
169.58
21
-84.9241
0
LINE
8
BLACK
6
CONTINUOUS
10
172.84
20
-83.0577
11
173.674
21
-83.3308
0
LINE
8
BLACK
6
CONTINUOUS
10
173.674
20
-83.3308
11
174.613
21
-83.7614
0
LINE
8
BLACK
6
CONTINUOUS
10
174.613
20
-83.7614
11
175.442
21
-84.1794
0
LINE
8
BLACK
6
CONTINUOUS
10
175.716
20
-83.8241
11
176.393
21
-86.0524
0
LINE
8
BLACK
6
CONTINUOUS
10
179.821
20
-92.4216
11
179.821
21
-93.8124
0
LINE
8
BLACK
6
CONTINUOUS
10
171.949
20
-84.7764
11
171.065
21
-84.7477
0
LINE
8
BLACK
6
CONTINUOUS
10
178.051
20
-93.8124
11
178.051
21
-90.0193
0
LINE
8
BLACK
6
CONTINUOUS
10
175.561
20
-84.0018
11
175.716
21
-83.8241
0
LINE
8
BLACK
6
CONTINUOUS
10
166.168
20
-84.7248
11
166.72
21
-84.3313
0
LINE
8
BLACK
6
CONTINUOUS
10
171.065
20
-84.7477
11
170.181
21
-84.7747
0
LINE
8
BLACK
6
CONTINUOUS
10
176.393
20
-86.0524
11
176.228
21
-86.1461
0
LINE
8
BLACK
6
CONTINUOUS
10
176.228
20
-86.1461
11
175.174
21
-86.163
0
LINE
8
BLACK
6
CONTINUOUS
10
175.442
20
-84.1794
11
175.561
21
-84.0018
0
LINE
8
BLACK
6
CONTINUOUS
10
175.174
20
-86.163
11
173.927
21
-86.163
0
LINE
8
BLACK
6
CONTINUOUS
10
182.129
20
-89.1342
11
184.373
21
-89.1852
0
LINE
8
BLACK
6
CONTINUOUS
10
174.258
20
-85.729
11
174.084
21
-85.6063
0
LINE
8
BLACK
6
CONTINUOUS
10
173.927
20
-86.163
11
174.092
21
-85.946
0
LINE
8
BLACK
6
CONTINUOUS
10
179.821
20
-93.8124
11
178.936
21
-93.8124
0
LINE
8
BLACK
6
CONTINUOUS
10
174.084
20
-85.6063
11
173.414
21
-85.2404
0
LINE
8
BLACK
6
CONTINUOUS
10
181.747
20
-91.0308
11
179.821
21
-91.0308
0
LINE
8
BLACK
6
CONTINUOUS
10
183.383
20
-91.0136
11
181.747
21
-91.0308
0
LINE
8
BLACK
6
CONTINUOUS
10
168.598
20
-85.3363
11
167.759
21
-85.8482
0
LINE
8
BLACK
6
CONTINUOUS
10
171.015
20
-82.8683
11
171.992
21
-82.9132
0
LINE
8
BLACK
6
CONTINUOUS
10
170.111
20
-82.8932
11
171.015
21
-82.8683
0
LINE
8
BLACK
6
CONTINUOUS
10
167.759
20
-85.8482
11
167.424
21
-86.103
0
LINE
8
BLACK
6
CONTINUOUS
10
168.062
20
-83.5535
11
169.422
21
-83.0279
0
LINE
8
BLACK
6
CONTINUOUS
10
173.414
20
-85.2404
11
172.57
21
-84.919
0
LINE
8
BLACK
6
CONTINUOUS
10
169.58
20
-84.9241
11
168.598
21
-85.3363
0
LINE
8
BLACK
6
CONTINUOUS
10
174.092
20
-85.946
11
174.258
21
-85.729
0
LINE
8
BLACK
6
CONTINUOUS
10
179.821
20
-91.0308
11
179.821
21
-92.4216
0
LINE
8
BLACK
6
CONTINUOUS
10
166.962
20
-85.6114
11
166.334
21
-84.9224
0
LINE
8
BLACK
6
CONTINUOUS
10
169.422
20
-83.0279
11
170.111
21
-82.8932
0
LINE
8
BLACK
6
CONTINUOUS
10
178.936
20
-93.8124
11
178.051
21
-93.8124
0
LINE
8
BLACK
6
CONTINUOUS
10
179.884
20
-89.1342
11
182.129
21
-89.1342
0
LINE
8
BLACK
6
CONTINUOUS
10
184.373
20
-89.1852
11
183.732
21
-90.9201
0
LINE
8
BLACK
6
CONTINUOUS
10
172.57
20
-84.919
11
171.949
21
-84.7764
0
LINE
8
BLACK
6
CONTINUOUS
10
156.873
20
-97.2554
11
185.321
21
-97.2554
0
CIRCLE
8
BLACK
10
171.13
20
-89.9795
40
3.43135
0
LINE
8
BLACK
6
CONTINUOUS
10
185.321
20
-97.2554
11
185.321
21
-82.8682
0
LINE
8
BLACK
6
CONTINUOUS
10
171.543
20
-89.5408
11
171.918
21
-89.6288
0
LINE
8
BLACK
6
CONTINUOUS
10
156.873
20
-82.8682
11
156.873
21
-97.2554
0
LINE
8
BLACK
6
CONTINUOUS
10
185.321
20
-82.8682
11
156.873
21
-82.8682
0
LINE
8
BLACK
6
CONTINUOUS
10
169.115
20
-89.64
11
169.481
21
-88.8365
0
LINE
8
BLACK
6
CONTINUOUS
10
169.115
20
-89.64
11
170.498
21
-89.4715
0
LINE
8
BLACK
6
CONTINUOUS
10
171.951
20
-90.367
11
172.085
21
-90.297
0
LINE
8
BLACK
6
CONTINUOUS
10
175.968
20
-95.2883
11
175.761
21
-95.5039
0
LINE
8
BLACK
6
CONTINUOUS
10
170.749
20
-97.2467
11
170.749
21
-97.2467
0
LINE
8
BLACK
6
CONTINUOUS
10
175.761
20
-95.5039
11
174.957
21
-96.1151
0
LINE
8
BLACK
6
CONTINUOUS
10
165.848
20
-94.2814
11
165.732
21
-93.8756
0
LINE
8
BLACK
6
CONTINUOUS
10
168.182
20
-94.4789
11
169.036
21
-94.8996
0
LINE
8
BLACK
6
CONTINUOUS
10
174.124
20
-94.396
11
174.732
21
-93.9928
0
LINE
8
BLACK
6
CONTINUOUS
10
169.835
20
-97.1208
11
168.929
21
-96.8818
0
LINE
8
BLACK
6
CONTINUOUS
10
167.933
20
-94.3141
11
168.182
21
-94.4789
0
LINE
8
BLACK
6
CONTINUOUS
10
169.036
20
-94.8996
11
169.991
21
-95.2218
0
LINE
8
BLACK
6
CONTINUOUS
10
172.103
20
-95.2735
11
173.112
21
-94.9534
0
LINE
8
BLACK
6
CONTINUOUS
10
175.35
20
-94.6405
11
175.968
21
-95.2883
0
LINE
8
BLACK
6
CONTINUOUS
10
173.112
20
-94.9534
11
174.124
21
-94.396
0
LINE
8
BLACK
6
CONTINUOUS
10
172.886
20
-97.0098
11
171.223
21
-97.2485
0
LINE
8
BLACK
6
CONTINUOUS
10
166.797
20
-95.8764
11
166.608
21
-96.0567
0
LINE
8
BLACK
6
CONTINUOUS
10
168.267
20
-93.8756
11
168.1
21
-94.0948
0
LINE
8
BLACK
6
CONTINUOUS
10
166.397
20
-96.21
11
166.169
21
-95.4351
0
LINE
8
BLACK
6
CONTINUOUS
10
173.975
20
-96.6526
11
172.886
21
-97.0098
0
LINE
8
BLACK
6
CONTINUOUS
10
165.732
20
-93.8756
11
167
21
-93.8756
0
LINE
8
BLACK
6
CONTINUOUS
10
166.169
20
-95.4351
11
165.848
21
-94.2814
0
LINE
8
BLACK
6
CONTINUOUS
10
167
20
-93.8756
11
168.267
21
-93.8756
0
LINE
8
BLACK
6
CONTINUOUS
10
168.1
20
-94.0948
11
167.933
21
-94.3141
0
LINE
8
BLACK
6
CONTINUOUS
10
169.991
20
-95.2218
11
171.071
21
-95.3613
0
LINE
8
BLACK
6
CONTINUOUS
10
174.957
20
-96.1151
11
173.975
21
-96.6526
0
LINE
8
BLACK
6
CONTINUOUS
10
171.223
20
-97.2485
11
170.749
21
-97.2467
0
LINE
8
BLACK
6
CONTINUOUS
10
168.929
20
-96.8818
11
167.098
21
-96.0499
0
LINE
8
BLACK
6
CONTINUOUS
10
167.098
20
-96.0499
11
166.797
21
-95.8764
0
LINE
8
BLACK
6
CONTINUOUS
10
166.608
20
-96.0567
11
166.397
21
-96.21
0
LINE
8
BLACK
6
CONTINUOUS
10
171.071
20
-95.3613
11
172.103
21
-95.2735
0
LINE
8
BLACK
6
CONTINUOUS
10
170.749
20
-97.2467
11
169.835
21
-97.1208
0
LINE
8
BLACK
6
CONTINUOUS
10
174.732
20
-93.9928
11
175.35
21
-94.6405
0
LINE
8
BLACK
6
CONTINUOUS
10
157.744
20
-86.2262
11
158.616
21
-86.2262
0
LINE
8
BLACK
6
CONTINUOUS
10
159.703
20
-87.6414
11
159.72
21
-86.2229
0
LINE
8
BLACK
6
CONTINUOUS
10
161.621
20
-91.9474
11
161.617
21
-92.8799
0
LINE
8
BLACK
6
CONTINUOUS
10
158.616
20
-86.2262
11
159.151
21
-87.6431
0
LINE
8
BLACK
6
CONTINUOUS
10
159.151
20
-87.6431
11
159.686
21
-89.0599
0
LINE
8
BLACK
6
CONTINUOUS
10
160.643
20
-86.2404
11
161.566
21
-86.2578
0
LINE
8
BLACK
6
CONTINUOUS
10
162.325
20
-93.8124
11
161.973
21
-92.8799
0
LINE
8
BLACK
6
CONTINUOUS
10
160.551
20
-93.8124
11
159.487
21
-93.8124
0
LINE
8
BLACK
6
CONTINUOUS
10
159.487
20
-93.8124
11
158.18
21
-90.2248
0
LINE
8
BLACK
6
CONTINUOUS
10
162.274
20
-88.1076
11
162.31
21
-87.185
0
LINE
8
BLACK
6
CONTINUOUS
10
161.614
20
-93.8124
11
160.551
21
-93.8124
0
LINE
8
BLACK
6
CONTINUOUS
10
161.902
20
-87.1646
11
162.274
21
-88.1076
0
LINE
8
BLACK
6
CONTINUOUS
10
161.566
20
-86.2578
11
161.902
21
-87.1646
0
LINE
8
BLACK
6
CONTINUOUS
10
159.686
20
-89.0599
11
159.703
21
-87.6414
0
LINE
8
BLACK
6
CONTINUOUS
10
164.143
20
-93.8124
11
163.234
21
-93.8124
0
LINE
8
BLACK
6
CONTINUOUS
10
161.617
20
-92.8799
11
161.614
21
-93.8124
0
LINE
8
BLACK
6
CONTINUOUS
10
162.31
20
-86.2262
11
163.226
21
-86.2262
0
LINE
8
BLACK
6
CONTINUOUS
10
158.18
20
-90.2248
11
156.873
21
-86.4317
0
LINE
8
BLACK
6
CONTINUOUS
10
163.226
20
-86.2262
11
164.143
21
-86.2262
0
LINE
8
BLACK
6
CONTINUOUS
10
163.234
20
-93.8124
11
162.325
21
-93.8124
0
LINE
8
BLACK
6
CONTINUOUS
10
156.873
20
-86.2262
11
157.744
21
-86.2262
0
LINE
8
BLACK
6
CONTINUOUS
10
164.143
20
-86.2262
11
164.143
21
-90.0193
0
LINE
8
BLACK
6
CONTINUOUS
10
164.143
20
-90.0193
11
164.143
21
-93.8124
0
LINE
8
BLACK
6
CONTINUOUS
10
162.31
20
-87.185
11
162.31
21
-86.2262
0
LINE
8
BLACK
6
CONTINUOUS
10
156.873
20
-86.4317
11
156.873
21
-86.2262
0
LINE
8
BLACK
6
CONTINUOUS
10
159.72
20
-86.2229
11
160.643
21
-86.2404
0
LINE
8
BLACK
6
CONTINUOUS
10
161.973
20
-92.8799
11
161.621
21
-91.9474
0
LINE
8
BLACK
6
CONTINUOUS
10
175.364
20
-86.2262
11
177.798
21
-86.2262
0
LINE
8
BLACK
6
CONTINUOUS
10
169.234
20
-92.9905
11
169.201
21
-93.4014
0
LINE
8
BLACK
6
CONTINUOUS
10
169.201
20
-86.2262
11
169.201
21
-86.6688
0
LINE
8
BLACK
6
CONTINUOUS
10
172.93
20
-93.8124
11
172.93
21
-93.4331
0
LINE
8
BLACK
6
CONTINUOUS
10
164.396
20
-93.8124
11
164.396
21
-90.0193
0
LINE
8
BLACK
6
CONTINUOUS
10
177.798
20
-93.8124
11
175.364
21
-93.8124
0
LINE
8
BLACK
6
CONTINUOUS
10
169.201
20
-93.4014
11
169.201
21
-93.8124
0
LINE
8
BLACK
6
CONTINUOUS
10
166.798
20
-93.8124
11
164.396
21
-93.8124
0
LINE
8
BLACK
6
CONTINUOUS
10
177.798
20
-86.2262
11
177.798
21
-90.0193
0
LINE
8
BLACK
6
CONTINUOUS
10
175.364
20
-93.8124
11
172.93
21
-93.8124
0
LINE
8
BLACK
6
CONTINUOUS
10
164.396
20
-90.0193
11
164.396
21
-86.2262
0
LINE
8
BLACK
6
CONTINUOUS
10
164.396
20
-86.2262
11
166.798
21
-86.2262
0
LINE
8
BLACK
6
CONTINUOUS
10
169.201
20
-86.6688
11
169.229
21
-87.1113
0
LINE
8
BLACK
6
CONTINUOUS
10
172.93
20
-86.2262
11
175.364
21
-86.2262
0
LINE
8
BLACK
6
CONTINUOUS
10
172.93
20
-86.6439
11
172.93
21
-86.2262
0
LINE
8
BLACK
6
CONTINUOUS
10
177.798
20
-90.0193
11
177.798
21
-93.8124
0
LINE
8
BLACK
6
CONTINUOUS
10
172.93
20
-93.4331
11
172.907
21
-93.0538
0
LINE
8
BLACK
6
CONTINUOUS
10
166.798
20
-86.2262
11
169.201
21
-86.2262
0
LINE
8
BLACK
6
CONTINUOUS
10
172.851
20
-87.0268
11
172.93
21
-86.6439
0
LINE
8
BLACK
6
CONTINUOUS
10
169.201
20
-93.8124
11
166.798
21
-93.8124
0
LINE
8
BLACK
6
CONTINUOUS
10
175.902
20
-92.0423
11
175.902
21
-91.5049
0
LINE
8
BLACK
6
CONTINUOUS
10
175.209
20
-90.9676
11
174.629
21
-90.9875
0
LINE
8
BLACK
6
CONTINUOUS
10
174.952
20
-92.0423
11
175.902
21
-92.0423
0
LINE
8
BLACK
6
CONTINUOUS
10
174.003
20
-92.0423
11
174.952
21
-92.0423
0
LINE
8
BLACK
6
CONTINUOUS
10
175.902
20
-91.5049
11
175.902
21
-90.9676
0
LINE
8
BLACK
6
CONTINUOUS
10
174.629
20
-90.9875
11
174.446
21
-91.0782
0
LINE
8
BLACK
6
CONTINUOUS
10
174.446
20
-91.0782
11
174.396
21
-91.1399
0
LINE
8
BLACK
6
CONTINUOUS
10
174.519
20
-89.1343
11
175.21
21
-89.1342
0
LINE
8
BLACK
6
CONTINUOUS
10
175.902
20
-90.9676
11
175.209
21
-90.9676
0
LINE
8
BLACK
6
CONTINUOUS
10
175.902
20
-88.5969
11
175.902
21
-88.0595
0
LINE
8
BLACK
6
CONTINUOUS
10
174.952
20
-88.0595
11
174.002
21
-88.0595
0
LINE
8
BLACK
6
CONTINUOUS
10
175.902
20
-88.0595
11
174.952
21
-88.0595
0
LINE
8
BLACK
6
CONTINUOUS
10
175.902
20
-89.1342
11
175.902
21
-88.5969
0
LINE
8
BLACK
6
CONTINUOUS
10
175.21
20
-89.1342
11
175.902
21
-89.1342
0
LINE
8
BLACK
6
CONTINUOUS
10
38.1
20
-127
11
127
21
-127
0
LINE
8
BLACK
6
CONTINUOUS
10
127
20
-127
11
127
21
-139.7
0
LINE
8
BLACK
6
CONTINUOUS
10
38.1
20
-139.7
11
38.1
21
-127
0
LINE
8
BLACK
6
CONTINUOUS
10
127
20
-139.7
11
38.1
21
-139.7
0
LINE
8
BLACK
6
CONTINUOUS
10
49.165
20
-80.883
11
49.165
21
-61.103
0
LINE
8
BLACK
6
CONTINUOUS
10
112.125
20
-80.883
11
49.165
21
-80.883
0
LINE
8
BLACK
6
CONTINUOUS
10
112.125
20
-61.103
11
112.125
21
-80.883
0
LINE
8
BLACK
6
CONTINUOUS
10
49.165
20
-61.103
11
112.125
21
-61.103
0
LINE
8
BLACK
6
CONTINUOUS
10
50.165
20
-62.103
11
50.165
21
-79.883
0
LINE
8
BLACK
6
CONTINUOUS
10
111.125
20
-62.103
11
50.165
21
-62.103
0
LINE
8
BLACK
6
CONTINUOUS
10
111.125
20
-79.883
11
111.125
21
-62.103
0
LINE
8
BLACK
6
CONTINUOUS
10
50.165
20
-79.883
11
111.125
21
-79.883
  0
ENDSEC
  0
EOF
