<?xml version="1.0" standalone="no"?>
 <!DOCTYPE svg PUBLIC "-//W3C//DTD SVG 1.1//EN" 
 "http://www.w3.org/Graphics/SVG/1.1/DTD/svg11.dtd"> 
<svg
  xmlns:svg="http://www.w3.org/2000/svg"
  xmlns="http://www.w3.org/2000/svg"
  xmlns:xlink="http://www.w3.org/1999/xlink"
  version="1.1"
  width="29.700220cm" height="21.000720cm" viewBox="0 0 116930 82680">
<title>SVG Picture created as OCE_L-Dwgs_User.svg date 2022/01/01 18:07:41 </title>
  <desc>Picture generated by PCBNEW </desc>
<g style="fill:#000000; fill-opacity:1;stroke:#000000; stroke-opacity:1;
stroke-linecap:round; stroke-linejoin:round;"
 transform="translate(0 0) scale(1 1)">
</g>
<g style="fill:#000000; fill-opacity:0.0; 
stroke:#000000; stroke-width:-0.000393701; stroke-opacity:1; 
stroke-linecap:round; stroke-linejoin:round;">
</g>
<g style="fill:#000000; fill-opacity:0.0; 
stroke:#000000; stroke-width:39.3701; stroke-opacity:1; 
stroke-linecap:round; stroke-linejoin:round;">
</g>
<g style="fill:#000000; fill-opacity:0.0; 
stroke:#000000; stroke-width:59.0551; stroke-opacity:1; 
stroke-linecap:round; stroke-linejoin:round;">
<rect x="69685.9" y="65357.2" width="42519.7" height="12598.4" rx="0" />
</g>
<g style="fill:#000000; fill-opacity:0.0; 
stroke:#000000; stroke-width:39.3701; stroke-opacity:1; 
stroke-linecap:round; stroke-linejoin:round;">
</g>
<g style="fill:#000000; fill-opacity:0.0; 
stroke:#000000; stroke-width:59.0551; stroke-opacity:1; 
stroke-linecap:round; stroke-linejoin:round;">
<rect x="3937.01" y="3937.01" width="109056" height="74806" rx="0" />
</g>
<g style="fill:#000000; fill-opacity:0.0; 
stroke:#000000; stroke-width:39.3701; stroke-opacity:1; 
stroke-linecap:round; stroke-linejoin:round;">
</g>
<g style="fill:#000000; fill-opacity:0.0; 
stroke:#000000; stroke-width:59.0551; stroke-opacity:1; 
stroke-linecap:round; stroke-linejoin:round;">
<rect x="4724.41" y="4724.41" width="107481" height="73231.2" rx="0" />
</g>
<g style="fill:#000000; fill-opacity:0.0; 
stroke:#000000; stroke-width:39.3701; stroke-opacity:1; 
stroke-linecap:round; stroke-linejoin:round;">
</g>
<g style="fill:#000000; fill-opacity:0.0; 
stroke:#000000; stroke-width:59.0551; stroke-opacity:1; 
stroke-linecap:round; stroke-linejoin:round;">
<path d="M23622 4724
L23622 3937
" />
</g>
<g style="fill:#000000; fill-opacity:0.0; 
stroke:#000000; stroke-width:39.3701; stroke-opacity:1; 
stroke-linecap:round; stroke-linejoin:round;">
</g>
<g style="fill:#000000; fill-opacity:0.0; 
stroke:#000000; stroke-width:59.0551; stroke-opacity:1; 
stroke-linecap:round; stroke-linejoin:round;">
<path d="M43307 4724
L43307 3937
" />
</g>
<g style="fill:#000000; fill-opacity:0.0; 
stroke:#000000; stroke-width:39.3701; stroke-opacity:1; 
stroke-linecap:round; stroke-linejoin:round;">
</g>
<g style="fill:#000000; fill-opacity:0.0; 
stroke:#000000; stroke-width:59.0551; stroke-opacity:1; 
stroke-linecap:round; stroke-linejoin:round;">
<path d="M62992 4724
L62992 3937
" />
</g>
<g style="fill:#000000; fill-opacity:0.0; 
stroke:#000000; stroke-width:39.3701; stroke-opacity:1; 
stroke-linecap:round; stroke-linejoin:round;">
</g>
<g style="fill:#000000; fill-opacity:0.0; 
stroke:#000000; stroke-width:59.0551; stroke-opacity:1; 
stroke-linecap:round; stroke-linejoin:round;">
<path d="M82677 4724
L82677 3937
" />
</g>
<g style="fill:#000000; fill-opacity:0.0; 
stroke:#000000; stroke-width:39.3701; stroke-opacity:1; 
stroke-linecap:round; stroke-linejoin:round;">
</g>
<g style="fill:#000000; fill-opacity:0.0; 
stroke:#000000; stroke-width:59.0551; stroke-opacity:1; 
stroke-linecap:round; stroke-linejoin:round;">
<path d="M102362 4724
L102362 3937
" />
</g>
<g style="fill:#000000; fill-opacity:0.0; 
stroke:#000000; stroke-width:39.3701; stroke-opacity:1; 
stroke-linecap:round; stroke-linejoin:round;">
</g>
<g style="fill:#000000; fill-opacity:0.0; 
stroke:#000000; stroke-width:59.0551; stroke-opacity:1; 
stroke-linecap:round; stroke-linejoin:round;">
<text x="13779.5" y="4586.61"
textLength="564.211" font-size="682.415" lengthAdjust="spacingAndGlyphs"
text-anchor="start" opacity="0">1</text>
<path d="M14199 4562
L13906 4562
" />
<path d="M14052 4562
L14052 4050
L14004 4123
L13955 4172
L13906 4196
" />
</g>
<g style="fill:#000000; fill-opacity:0.0; 
stroke:#000000; stroke-width:39.3701; stroke-opacity:1; 
stroke-linecap:round; stroke-linejoin:round;">
</g>
<g style="fill:#000000; fill-opacity:0.0; 
stroke:#000000; stroke-width:59.0551; stroke-opacity:1; 
stroke-linecap:round; stroke-linejoin:round;">
<text x="33464.6" y="4586.61"
textLength="546.494" font-size="682.415" lengthAdjust="spacingAndGlyphs"
text-anchor="start" opacity="0">2</text>
<path d="M33591 4099
L33615 4074
L33664 4050
L33786 4050
L33835 4074
L33859 4099
L33884 4147
L33884 4196
L33859 4269
L33567 4562
L33884 4562
" />
</g>
<g style="fill:#000000; fill-opacity:0.0; 
stroke:#000000; stroke-width:39.3701; stroke-opacity:1; 
stroke-linecap:round; stroke-linejoin:round;">
</g>
<g style="fill:#000000; fill-opacity:0.0; 
stroke:#000000; stroke-width:59.0551; stroke-opacity:1; 
stroke-linecap:round; stroke-linejoin:round;">
<text x="53149.6" y="4586.61"
textLength="546.494" font-size="682.415" lengthAdjust="spacingAndGlyphs"
text-anchor="start" opacity="0">3</text>
<path d="M53252 4050
L53569 4050
L53398 4245
L53471 4245
L53520 4269
L53544 4294
L53569 4342
L53569 4464
L53544 4513
L53520 4537
L53471 4562
L53325 4562
L53276 4537
L53252 4513
" />
</g>
<g style="fill:#000000; fill-opacity:0.0; 
stroke:#000000; stroke-width:39.3701; stroke-opacity:1; 
stroke-linecap:round; stroke-linejoin:round;">
</g>
<g style="fill:#000000; fill-opacity:0.0; 
stroke:#000000; stroke-width:59.0551; stroke-opacity:1; 
stroke-linecap:round; stroke-linejoin:round;">
<text x="72834.6" y="4586.61"
textLength="546.494" font-size="682.415" lengthAdjust="spacingAndGlyphs"
text-anchor="start" opacity="0">4</text>
<path d="M73205 4221
L73205 4562
" />
<path d="M73083 4026
L72961 4391
L73278 4391
" />
</g>
<g style="fill:#000000; fill-opacity:0.0; 
stroke:#000000; stroke-width:39.3701; stroke-opacity:1; 
stroke-linecap:round; stroke-linejoin:round;">
</g>
<g style="fill:#000000; fill-opacity:0.0; 
stroke:#000000; stroke-width:59.0551; stroke-opacity:1; 
stroke-linecap:round; stroke-linejoin:round;">
<text x="92519.7" y="4586.61"
textLength="546.494" font-size="682.415" lengthAdjust="spacingAndGlyphs"
text-anchor="start" opacity="0">5</text>
<path d="M92914 4050
L92671 4050
L92646 4294
L92671 4269
L92719 4245
L92841 4245
L92890 4269
L92914 4294
L92939 4342
L92939 4464
L92914 4513
L92890 4537
L92841 4562
L92719 4562
L92671 4537
L92646 4513
" />
</g>
<g style="fill:#000000; fill-opacity:0.0; 
stroke:#000000; stroke-width:39.3701; stroke-opacity:1; 
stroke-linecap:round; stroke-linejoin:round;">
</g>
<g style="fill:#000000; fill-opacity:0.0; 
stroke:#000000; stroke-width:59.0551; stroke-opacity:1; 
stroke-linecap:round; stroke-linejoin:round;">
<text x="112205" y="4586.61"
textLength="546.494" font-size="682.415" lengthAdjust="spacingAndGlyphs"
text-anchor="start" opacity="0">6</text>
<path d="M112575 4050
L112477 4050
L112429 4074
L112404 4099
L112356 4172
L112331 4269
L112331 4464
L112356 4513
L112380 4537
L112429 4562
L112526 4562
L112575 4537
L112599 4513
L112624 4464
L112624 4342
L112599 4294
L112575 4269
L112526 4245
L112429 4245
L112380 4269
L112356 4294
L112331 4342
" />
</g>
<g style="fill:#000000; fill-opacity:0.0; 
stroke:#000000; stroke-width:39.3701; stroke-opacity:1; 
stroke-linecap:round; stroke-linejoin:round;">
</g>
<g style="fill:#000000; fill-opacity:0.0; 
stroke:#000000; stroke-width:59.0551; stroke-opacity:1; 
stroke-linecap:round; stroke-linejoin:round;">
<path d="M23622 77955
L23622 78742
" />
</g>
<g style="fill:#000000; fill-opacity:0.0; 
stroke:#000000; stroke-width:39.3701; stroke-opacity:1; 
stroke-linecap:round; stroke-linejoin:round;">
</g>
<g style="fill:#000000; fill-opacity:0.0; 
stroke:#000000; stroke-width:59.0551; stroke-opacity:1; 
stroke-linecap:round; stroke-linejoin:round;">
<path d="M43307 77955
L43307 78742
" />
</g>
<g style="fill:#000000; fill-opacity:0.0; 
stroke:#000000; stroke-width:39.3701; stroke-opacity:1; 
stroke-linecap:round; stroke-linejoin:round;">
</g>
<g style="fill:#000000; fill-opacity:0.0; 
stroke:#000000; stroke-width:59.0551; stroke-opacity:1; 
stroke-linecap:round; stroke-linejoin:round;">
<path d="M62992 77955
L62992 78742
" />
</g>
<g style="fill:#000000; fill-opacity:0.0; 
stroke:#000000; stroke-width:39.3701; stroke-opacity:1; 
stroke-linecap:round; stroke-linejoin:round;">
</g>
<g style="fill:#000000; fill-opacity:0.0; 
stroke:#000000; stroke-width:59.0551; stroke-opacity:1; 
stroke-linecap:round; stroke-linejoin:round;">
<path d="M82677 77955
L82677 78742
" />
</g>
<g style="fill:#000000; fill-opacity:0.0; 
stroke:#000000; stroke-width:39.3701; stroke-opacity:1; 
stroke-linecap:round; stroke-linejoin:round;">
</g>
<g style="fill:#000000; fill-opacity:0.0; 
stroke:#000000; stroke-width:59.0551; stroke-opacity:1; 
stroke-linecap:round; stroke-linejoin:round;">
<path d="M102362 77955
L102362 78742
" />
</g>
<g style="fill:#000000; fill-opacity:0.0; 
stroke:#000000; stroke-width:39.3701; stroke-opacity:1; 
stroke-linecap:round; stroke-linejoin:round;">
</g>
<g style="fill:#000000; fill-opacity:0.0; 
stroke:#000000; stroke-width:59.0551; stroke-opacity:1; 
stroke-linecap:round; stroke-linejoin:round;">
<text x="13779.5" y="78605.2"
textLength="546.494" font-size="682.415" lengthAdjust="spacingAndGlyphs"
text-anchor="start" opacity="0">1</text>
<path d="M14199 78580
L13906 78580
" />
<path d="M14052 78580
L14052 78069
L14004 78142
L13955 78190
L13906 78215
" />
</g>
<g style="fill:#000000; fill-opacity:0.0; 
stroke:#000000; stroke-width:39.3701; stroke-opacity:1; 
stroke-linecap:round; stroke-linejoin:round;">
</g>
<g style="fill:#000000; fill-opacity:0.0; 
stroke:#000000; stroke-width:59.0551; stroke-opacity:1; 
stroke-linecap:round; stroke-linejoin:round;">
<text x="33464.6" y="78605.2"
textLength="546.494" font-size="682.415" lengthAdjust="spacingAndGlyphs"
text-anchor="start" opacity="0">2</text>
<path d="M33591 78117
L33615 78093
L33664 78069
L33786 78069
L33835 78093
L33859 78117
L33884 78166
L33884 78215
L33859 78288
L33567 78580
L33884 78580
" />
</g>
<g style="fill:#000000; fill-opacity:0.0; 
stroke:#000000; stroke-width:39.3701; stroke-opacity:1; 
stroke-linecap:round; stroke-linejoin:round;">
</g>
<g style="fill:#000000; fill-opacity:0.0; 
stroke:#000000; stroke-width:59.0551; stroke-opacity:1; 
stroke-linecap:round; stroke-linejoin:round;">
<text x="53149.6" y="78605.2"
textLength="546.494" font-size="682.415" lengthAdjust="spacingAndGlyphs"
text-anchor="start" opacity="0">3</text>
<path d="M53252 78069
L53569 78069
L53398 78263
L53471 78263
L53520 78288
L53544 78312
L53569 78361
L53569 78483
L53544 78532
L53520 78556
L53471 78580
L53325 78580
L53276 78556
L53252 78532
" />
</g>
<g style="fill:#000000; fill-opacity:0.0; 
stroke:#000000; stroke-width:39.3701; stroke-opacity:1; 
stroke-linecap:round; stroke-linejoin:round;">
</g>
<g style="fill:#000000; fill-opacity:0.0; 
stroke:#000000; stroke-width:59.0551; stroke-opacity:1; 
stroke-linecap:round; stroke-linejoin:round;">
<text x="72834.6" y="78605.2"
textLength="546.494" font-size="682.415" lengthAdjust="spacingAndGlyphs"
text-anchor="start" opacity="0">4</text>
<path d="M73205 78239
L73205 78580
" />
<path d="M73083 78044
L72961 78410
L73278 78410
" />
</g>
<g style="fill:#000000; fill-opacity:0.0; 
stroke:#000000; stroke-width:39.3701; stroke-opacity:1; 
stroke-linecap:round; stroke-linejoin:round;">
</g>
<g style="fill:#000000; fill-opacity:0.0; 
stroke:#000000; stroke-width:59.0551; stroke-opacity:1; 
stroke-linecap:round; stroke-linejoin:round;">
<text x="92519.7" y="78605.2"
textLength="546.494" font-size="682.415" lengthAdjust="spacingAndGlyphs"
text-anchor="start" opacity="0">5</text>
<path d="M92914 78069
L92671 78069
L92646 78312
L92671 78288
L92719 78263
L92841 78263
L92890 78288
L92914 78312
L92939 78361
L92939 78483
L92914 78532
L92890 78556
L92841 78580
L92719 78580
L92671 78556
L92646 78532
" />
</g>
<g style="fill:#000000; fill-opacity:0.0; 
stroke:#000000; stroke-width:39.3701; stroke-opacity:1; 
stroke-linecap:round; stroke-linejoin:round;">
</g>
<g style="fill:#000000; fill-opacity:0.0; 
stroke:#000000; stroke-width:59.0551; stroke-opacity:1; 
stroke-linecap:round; stroke-linejoin:round;">
<text x="112205" y="78605.2"
textLength="546.494" font-size="682.415" lengthAdjust="spacingAndGlyphs"
text-anchor="start" opacity="0">6</text>
<path d="M112575 78069
L112477 78069
L112429 78093
L112404 78117
L112356 78190
L112331 78288
L112331 78483
L112356 78532
L112380 78556
L112429 78580
L112526 78580
L112575 78556
L112599 78532
L112624 78483
L112624 78361
L112599 78312
L112575 78288
L112526 78263
L112429 78263
L112380 78288
L112356 78312
L112331 78361
" />
</g>
<g style="fill:#000000; fill-opacity:0.0; 
stroke:#000000; stroke-width:39.3701; stroke-opacity:1; 
stroke-linecap:round; stroke-linejoin:round;">
</g>
<g style="fill:#000000; fill-opacity:0.0; 
stroke:#000000; stroke-width:59.0551; stroke-opacity:1; 
stroke-linecap:round; stroke-linejoin:round;">
<path d="M3937 23622
L4724 23622
" />
</g>
<g style="fill:#000000; fill-opacity:0.0; 
stroke:#000000; stroke-width:39.3701; stroke-opacity:1; 
stroke-linecap:round; stroke-linejoin:round;">
</g>
<g style="fill:#000000; fill-opacity:0.0; 
stroke:#000000; stroke-width:59.0551; stroke-opacity:1; 
stroke-linecap:round; stroke-linejoin:round;">
<path d="M3937 43307
L4724 43307
" />
</g>
<g style="fill:#000000; fill-opacity:0.0; 
stroke:#000000; stroke-width:39.3701; stroke-opacity:1; 
stroke-linecap:round; stroke-linejoin:round;">
</g>
<g style="fill:#000000; fill-opacity:0.0; 
stroke:#000000; stroke-width:59.0551; stroke-opacity:1; 
stroke-linecap:round; stroke-linejoin:round;">
<path d="M3937 62992
L4724 62992
" />
</g>
<g style="fill:#000000; fill-opacity:0.0; 
stroke:#000000; stroke-width:39.3701; stroke-opacity:1; 
stroke-linecap:round; stroke-linejoin:round;">
</g>
<g style="fill:#000000; fill-opacity:0.0; 
stroke:#000000; stroke-width:59.0551; stroke-opacity:1; 
stroke-linecap:round; stroke-linejoin:round;">
<text x="4330.71" y="14035.4"
textLength="497.75" font-size="682.415" lengthAdjust="spacingAndGlyphs"
text-anchor="middle" opacity="0">A</text>
<path d="M4208 13864
L4452 13864
" />
<path d="M4160 14011
L4330 13499
L4501 14011
" />
</g>
<g style="fill:#000000; fill-opacity:0.0; 
stroke:#000000; stroke-width:39.3701; stroke-opacity:1; 
stroke-linecap:round; stroke-linejoin:round;">
</g>
<g style="fill:#000000; fill-opacity:0.0; 
stroke:#000000; stroke-width:59.0551; stroke-opacity:1; 
stroke-linecap:round; stroke-linejoin:round;">
<text x="4330.71" y="33720.5"
textLength="570.866" font-size="682.415" lengthAdjust="spacingAndGlyphs"
text-anchor="middle" opacity="0">B</text>
<path d="M4367 33428
L4440 33452
L4464 33476
L4489 33525
L4489 33598
L4464 33647
L4440 33671
L4391 33696
L4196 33696
L4196 33184
L4367 33184
L4416 33208
L4440 33233
L4464 33281
L4464 33330
L4440 33379
L4416 33403
L4367 33428
L4196 33428
" />
</g>
<g style="fill:#000000; fill-opacity:0.0; 
stroke:#000000; stroke-width:39.3701; stroke-opacity:1; 
stroke-linecap:round; stroke-linejoin:round;">
</g>
<g style="fill:#000000; fill-opacity:0.0; 
stroke:#000000; stroke-width:59.0551; stroke-opacity:1; 
stroke-linecap:round; stroke-linejoin:round;">
<text x="4330.71" y="53405.5"
textLength="570.866" font-size="682.415" lengthAdjust="spacingAndGlyphs"
text-anchor="middle" opacity="0">C</text>
<path d="M4489 53332
L4464 53356
L4391 53381
L4342 53381
L4269 53356
L4221 53308
L4196 53259
L4172 53161
L4172 53088
L4196 52991
L4221 52942
L4269 52893
L4342 52869
L4391 52869
L4464 52893
L4489 52918
" />
</g>
<g style="fill:#000000; fill-opacity:0.0; 
stroke:#000000; stroke-width:39.3701; stroke-opacity:1; 
stroke-linecap:round; stroke-linejoin:round;">
</g>
<g style="fill:#000000; fill-opacity:0.0; 
stroke:#000000; stroke-width:59.0551; stroke-opacity:1; 
stroke-linecap:round; stroke-linejoin:round;">
<text x="4330.71" y="73090.6"
textLength="570.866" font-size="682.415" lengthAdjust="spacingAndGlyphs"
text-anchor="middle" opacity="0">D</text>
<path d="M4196 73066
L4196 72554
L4318 72554
L4391 72578
L4440 72627
L4464 72676
L4489 72773
L4489 72846
L4464 72944
L4440 72993
L4391 73041
L4318 73066
L4196 73066
" />
</g>
<g style="fill:#000000; fill-opacity:0.0; 
stroke:#000000; stroke-width:39.3701; stroke-opacity:1; 
stroke-linecap:round; stroke-linejoin:round;">
</g>
<g style="fill:#000000; fill-opacity:0.0; 
stroke:#000000; stroke-width:59.0551; stroke-opacity:1; 
stroke-linecap:round; stroke-linejoin:round;">
<path d="M112992 23622
L112205 23622
" />
</g>
<g style="fill:#000000; fill-opacity:0.0; 
stroke:#000000; stroke-width:39.3701; stroke-opacity:1; 
stroke-linecap:round; stroke-linejoin:round;">
</g>
<g style="fill:#000000; fill-opacity:0.0; 
stroke:#000000; stroke-width:59.0551; stroke-opacity:1; 
stroke-linecap:round; stroke-linejoin:round;">
<path d="M112992 43307
L112205 43307
" />
</g>
<g style="fill:#000000; fill-opacity:0.0; 
stroke:#000000; stroke-width:39.3701; stroke-opacity:1; 
stroke-linecap:round; stroke-linejoin:round;">
</g>
<g style="fill:#000000; fill-opacity:0.0; 
stroke:#000000; stroke-width:59.0551; stroke-opacity:1; 
stroke-linecap:round; stroke-linejoin:round;">
<path d="M112992 62992
L112205 62992
" />
</g>
<g style="fill:#000000; fill-opacity:0.0; 
stroke:#000000; stroke-width:39.3701; stroke-opacity:1; 
stroke-linecap:round; stroke-linejoin:round;">
</g>
<g style="fill:#000000; fill-opacity:0.0; 
stroke:#000000; stroke-width:59.0551; stroke-opacity:1; 
stroke-linecap:round; stroke-linejoin:round;">
<text x="112599" y="14035.4"
textLength="497.75" font-size="682.415" lengthAdjust="spacingAndGlyphs"
text-anchor="middle" opacity="0">A</text>
<path d="M112477 13864
L112721 13864
" />
<path d="M112428 14011
L112599 13499
L112769 14011
" />
</g>
<g style="fill:#000000; fill-opacity:0.0; 
stroke:#000000; stroke-width:39.3701; stroke-opacity:1; 
stroke-linecap:round; stroke-linejoin:round;">
</g>
<g style="fill:#000000; fill-opacity:0.0; 
stroke:#000000; stroke-width:59.0551; stroke-opacity:1; 
stroke-linecap:round; stroke-linejoin:round;">
<text x="112599" y="33720.5"
textLength="570.866" font-size="682.415" lengthAdjust="spacingAndGlyphs"
text-anchor="middle" opacity="0">B</text>
<path d="M112635 33428
L112708 33452
L112733 33476
L112757 33525
L112757 33598
L112733 33647
L112708 33671
L112660 33696
L112465 33696
L112465 33184
L112635 33184
L112684 33208
L112708 33233
L112733 33281
L112733 33330
L112708 33379
L112684 33403
L112635 33428
L112465 33428
" />
</g>
<g style="fill:#000000; fill-opacity:0.0; 
stroke:#000000; stroke-width:39.3701; stroke-opacity:1; 
stroke-linecap:round; stroke-linejoin:round;">
</g>
<g style="fill:#000000; fill-opacity:0.0; 
stroke:#000000; stroke-width:59.0551; stroke-opacity:1; 
stroke-linecap:round; stroke-linejoin:round;">
<text x="112599" y="53405.5"
textLength="570.866" font-size="682.415" lengthAdjust="spacingAndGlyphs"
text-anchor="middle" opacity="0">C</text>
<path d="M112757 53332
L112733 53356
L112660 53381
L112611 53381
L112538 53356
L112489 53308
L112465 53259
L112440 53161
L112440 53088
L112465 52991
L112489 52942
L112538 52893
L112611 52869
L112660 52869
L112733 52893
L112757 52918
" />
</g>
<g style="fill:#000000; fill-opacity:0.0; 
stroke:#000000; stroke-width:39.3701; stroke-opacity:1; 
stroke-linecap:round; stroke-linejoin:round;">
</g>
<g style="fill:#000000; fill-opacity:0.0; 
stroke:#000000; stroke-width:59.0551; stroke-opacity:1; 
stroke-linecap:round; stroke-linejoin:round;">
<text x="112599" y="73090.6"
textLength="570.866" font-size="682.415" lengthAdjust="spacingAndGlyphs"
text-anchor="middle" opacity="0">D</text>
<path d="M112465 73066
L112465 72554
L112587 72554
L112660 72578
L112708 72627
L112733 72676
L112757 72773
L112757 72846
L112733 72944
L112708 72993
L112660 73041
L112587 73066
L112465 73066
" />
</g>
<g style="fill:#000000; fill-opacity:0.0; 
stroke:#000000; stroke-width:39.3701; stroke-opacity:1; 
stroke-linecap:round; stroke-linejoin:round;">
</g>
<g style="fill:#000000; fill-opacity:0.0; 
stroke:#000000; stroke-width:59.0551; stroke-opacity:1; 
stroke-linecap:round; stroke-linejoin:round;">
<text x="78741" y="76321.7"
textLength="2758.72" font-size="787.402" lengthAdjust="spacingAndGlyphs"
text-anchor="start" opacity="0">Date: </text>
<path d="M78911 76293
L78911 75703
L79051 75703
L79136 75731
L79192 75787
L79220 75843
L79248 75956
L79248 76040
L79220 76153
L79192 76209
L79136 76265
L79051 76293
L78911 76293
" />
<path d="M79754 76293
L79754 75984
L79726 75928
L79670 75899
L79557 75899
L79501 75928
" />
<path d="M79754 76265
L79698 76293
L79557 76293
L79501 76265
L79473 76209
L79473 76153
L79501 76096
L79557 76068
L79698 76068
L79754 76040
" />
<path d="M79951 75899
L80176 75899
" />
<path d="M80036 75703
L80036 76209
L80064 76265
L80120 76293
L80176 76293
" />
<path d="M80598 76265
L80542 76293
L80429 76293
L80373 76265
L80345 76209
L80345 75984
L80373 75928
L80429 75899
L80542 75899
L80598 75928
L80626 75984
L80626 76040
L80345 76096
" />
<path d="M80879 76237
L80907 76265
L80879 76293
L80851 76265
L80879 76237
L80879 76293
" />
<path d="M80879 75928
L80907 75956
L80879 75984
L80851 75956
L80879 75928
L80879 75984
" />
</g>
<g style="fill:#000000; fill-opacity:0.0; 
stroke:#000000; stroke-width:39.3701; stroke-opacity:1; 
stroke-linecap:round; stroke-linejoin:round;">
</g>
<g style="fill:#000000; fill-opacity:0.0; 
stroke:#000000; stroke-width:59.0551; stroke-opacity:1; 
stroke-linecap:round; stroke-linejoin:round;">
<path d="M69685 76577
L112205 76577
" />
</g>
<g style="fill:#000000; fill-opacity:0.0; 
stroke:#000000; stroke-width:39.3701; stroke-opacity:1; 
stroke-linecap:round; stroke-linejoin:round;">
</g>
<g style="fill:#000000; fill-opacity:0.0; 
stroke:#000000; stroke-width:59.0551; stroke-opacity:1; 
stroke-linecap:round; stroke-linejoin:round;">
<text x="70079.6" y="77424.1"
textLength="13529.2" font-size="787.402" lengthAdjust="spacingAndGlyphs"
text-anchor="start" opacity="0">KiCad E.D.A.  kicad (5.1.8)-1</text>
<path d="M70249 77395
L70249 76805
" />
<path d="M70587 77395
L70334 77058
" />
<path d="M70587 76805
L70249 77142
" />
<path d="M70840 77395
L70840 77002
" />
<path d="M70840 76805
L70812 76833
L70840 76861
L70868 76833
L70840 76805
L70840 76861
" />
<path d="M71458 77339
L71430 77367
L71346 77395
L71290 77395
L71205 77367
L71149 77311
L71121 77255
L71093 77142
L71093 77058
L71121 76946
L71149 76889
L71205 76833
L71290 76805
L71346 76805
L71430 76833
L71458 76861
" />
<path d="M71965 77395
L71965 77086
L71937 77030
L71880 77002
L71768 77002
L71712 77030
" />
<path d="M71965 77367
L71908 77395
L71768 77395
L71712 77367
L71683 77311
L71683 77255
L71712 77199
L71768 77171
L71908 77171
L71965 77142
" />
<path d="M72499 77395
L72499 76805
" />
<path d="M72499 77367
L72443 77395
L72330 77395
L72274 77367
L72246 77339
L72218 77283
L72218 77114
L72246 77058
L72274 77030
L72330 77002
L72443 77002
L72499 77030
" />
<path d="M73230 77086
L73427 77086
" />
<path d="M73511 77395
L73230 77395
L73230 76805
L73511 76805
" />
<path d="M73764 77339
L73793 77367
L73764 77395
L73736 77367
L73764 77339
L73764 77395
" />
<path d="M74046 77395
L74046 76805
L74186 76805
L74271 76833
L74327 76889
L74355 76946
L74383 77058
L74383 77142
L74355 77255
L74327 77311
L74271 77367
L74186 77395
L74046 77395
" />
<path d="M74636 77339
L74664 77367
L74636 77395
L74608 77367
L74636 77339
L74636 77395
" />
<path d="M74889 77227
L75171 77227
" />
<path d="M74833 77395
L75030 76805
L75227 77395
" />
<path d="M75424 77339
L75452 77367
L75424 77395
L75395 77367
L75424 77339
L75424 77395
" />
<path d="M76605 77395
L76605 76805
" />
<path d="M76661 77171
L76830 77395
" />
<path d="M76830 77002
L76605 77227
" />
<path d="M77083 77395
L77083 77002
" />
<path d="M77083 76805
L77055 76833
L77083 76861
L77111 76833
L77083 76805
L77083 76861
" />
<path d="M77617 77367
L77561 77395
L77448 77395
L77392 77367
L77364 77339
L77336 77283
L77336 77114
L77364 77058
L77392 77030
L77448 77002
L77561 77002
L77617 77030
" />
<path d="M78123 77395
L78123 77086
L78095 77030
L78039 77002
L77926 77002
L77870 77030
" />
<path d="M78123 77367
L78067 77395
L77926 77395
L77870 77367
L77842 77311
L77842 77255
L77870 77199
L77926 77171
L78067 77171
L78123 77142
" />
<path d="M78658 77395
L78658 76805
" />
<path d="M78658 77367
L78601 77395
L78489 77395
L78433 77367
L78404 77339
L78376 77283
L78376 77114
L78404 77058
L78433 77030
L78489 77002
L78601 77002
L78658 77030
" />
<path d="M79557 77620
L79529 77592
L79473 77508
L79445 77452
L79417 77367
L79389 77227
L79389 77114
L79417 76974
L79445 76889
L79473 76833
L79529 76749
L79557 76721
" />
<path d="M80064 76805
L79782 76805
L79754 77086
L79782 77058
L79839 77030
L79979 77030
L80036 77058
L80064 77086
L80092 77142
L80092 77283
L80064 77339
L80036 77367
L79979 77395
L79839 77395
L79782 77367
L79754 77339
" />
<path d="M80345 77339
L80373 77367
L80345 77395
L80317 77367
L80345 77339
L80345 77395
" />
<path d="M80935 77395
L80598 77395
" />
<path d="M80767 77395
L80767 76805
L80710 76889
L80654 76946
L80598 76974
" />
<path d="M81188 77339
L81217 77367
L81188 77395
L81160 77367
L81188 77339
L81188 77395
" />
<path d="M81554 77058
L81498 77030
L81470 77002
L81442 76946
L81442 76917
L81470 76861
L81498 76833
L81554 76805
L81667 76805
L81723 76833
L81751 76861
L81779 76917
L81779 76946
L81751 77002
L81723 77030
L81667 77058
L81554 77058
L81498 77086
L81470 77114
L81442 77171
L81442 77283
L81470 77339
L81498 77367
L81554 77395
L81667 77395
L81723 77367
L81751 77339
L81779 77283
L81779 77171
L81751 77114
L81723 77086
L81667 77058
" />
<path d="M81976 77620
L82004 77592
L82060 77508
L82088 77452
L82117 77367
L82145 77227
L82145 77114
L82117 76974
L82088 76889
L82060 76833
L82004 76749
L81976 76721
" />
<path d="M82426 77171
L82876 77171
" />
<path d="M83466 77395
L83129 77395
" />
<path d="M83298 77395
L83298 76805
L83241 76889
L83185 76946
L83129 76974
" />
</g>
<g style="fill:#000000; fill-opacity:0.0; 
stroke:#000000; stroke-width:39.3701; stroke-opacity:1; 
stroke-linecap:round; stroke-linejoin:round;">
</g>
<g style="fill:#000000; fill-opacity:0.0; 
stroke:#000000; stroke-width:59.0551; stroke-opacity:1; 
stroke-linecap:round; stroke-linejoin:round;">
<path d="M69685 75396
L112205 75396
" />
</g>
<g style="fill:#000000; fill-opacity:0.0; 
stroke:#000000; stroke-width:39.3701; stroke-opacity:1; 
stroke-linecap:round; stroke-linejoin:round;">
</g>
<g style="fill:#000000; fill-opacity:0.0; 
stroke:#000000; stroke-width:118.11; stroke-opacity:1; 
stroke-linecap:round; stroke-linejoin:round;">
<text x="103544" y="76321.7"
textLength="2336.9" font-size="787.402" lengthAdjust="spacingAndGlyphs"
text-anchor="start" opacity="0">Rev: </text>
<path d="M104099 76293
L103902 76012
" />
<path d="M103761 76293
L103761 75703
L103986 75703
L104042 75731
L104070 75759
L104099 75815
L104099 75899
L104070 75956
L104042 75984
L103986 76012
L103761 76012
" />
<path d="M104577 76265
L104520 76293
L104408 76293
L104352 76265
L104323 76209
L104323 75984
L104352 75928
L104408 75899
L104520 75899
L104577 75928
L104605 75984
L104605 76040
L104323 76096
" />
<path d="M104802 75899
L104942 76293
L105083 75899
" />
<path d="M105308 76237
L105336 76265
L105308 76293
L105280 76265
L105308 76237
L105308 76293
" />
<path d="M105308 75928
L105336 75956
L105308 75984
L105280 75956
L105308 75928
L105308 75984
" />
</g>
<g style="fill:#000000; fill-opacity:0.0; 
stroke:#000000; stroke-width:39.3701; stroke-opacity:1; 
stroke-linecap:round; stroke-linejoin:round;">
</g>
<g style="fill:#000000; fill-opacity:0.0; 
stroke:#000000; stroke-width:59.0551; stroke-opacity:1; 
stroke-linecap:round; stroke-linejoin:round;">
<text x="70079.6" y="76321.7"
textLength="3781.21" font-size="787.402" lengthAdjust="spacingAndGlyphs"
text-anchor="start" opacity="0">Size: A4</text>
<path d="M70221 76265
L70305 76293
L70446 76293
L70502 76265
L70530 76237
L70559 76181
L70559 76124
L70530 76068
L70502 76040
L70446 76012
L70334 75984
L70277 75956
L70249 75928
L70221 75871
L70221 75815
L70249 75759
L70277 75731
L70334 75703
L70474 75703
L70559 75731
" />
<path d="M70812 76293
L70812 75899
" />
<path d="M70812 75703
L70784 75731
L70812 75759
L70840 75731
L70812 75703
L70812 75759
" />
<path d="M71037 75899
L71346 75899
L71037 76293
L71346 76293
" />
<path d="M71796 76265
L71740 76293
L71627 76293
L71571 76265
L71543 76209
L71543 75984
L71571 75928
L71627 75899
L71740 75899
L71796 75928
L71824 75984
L71824 76040
L71543 76096
" />
<path d="M72077 76237
L72105 76265
L72077 76293
L72049 76265
L72077 76237
L72077 76293
" />
<path d="M72077 75928
L72105 75956
L72077 75984
L72049 75956
L72077 75928
L72077 75984
" />
<path d="M72780 76124
L73061 76124
" />
<path d="M72724 76293
L72921 75703
L73118 76293
" />
<path d="M73568 75899
L73568 76293
" />
<path d="M73427 75674
L73286 76096
L73652 76096
" />
</g>
<g style="fill:#000000; fill-opacity:0.0; 
stroke:#000000; stroke-width:39.3701; stroke-opacity:1; 
stroke-linecap:round; stroke-linejoin:round;">
</g>
<g style="fill:#000000; fill-opacity:0.0; 
stroke:#000000; stroke-width:59.0551; stroke-opacity:1; 
stroke-linecap:round; stroke-linejoin:round;">
<text x="103544" y="77424.1"
textLength="3349.27" font-size="787.402" lengthAdjust="spacingAndGlyphs"
text-anchor="start" opacity="0">Id: 1/1</text>
<path d="M103714 77395
L103714 76805
" />
<path d="M104248 77395
L104248 76805
" />
<path d="M104248 77367
L104192 77395
L104079 77395
L104023 77367
L103995 77339
L103967 77283
L103967 77114
L103995 77058
L104023 77030
L104079 77002
L104192 77002
L104248 77030
" />
<path d="M104529 77339
L104557 77367
L104529 77395
L104501 77367
L104529 77339
L104529 77395
" />
<path d="M104529 77030
L104557 77058
L104529 77086
L104501 77058
L104529 77030
L104529 77086
" />
<path d="M105570 77395
L105232 77395
" />
<path d="M105401 77395
L105401 76805
L105345 76889
L105289 76946
L105232 76974
" />
<path d="M106245 76777
L105739 77536
" />
<path d="M106751 77395
L106413 77395
" />
<path d="M106582 77395
L106582 76805
L106526 76889
L106470 76946
L106413 76974
" />
</g>
<g style="fill:#000000; fill-opacity:0.0; 
stroke:#000000; stroke-width:39.3701; stroke-opacity:1; 
stroke-linecap:round; stroke-linejoin:round;">
</g>
<g style="fill:#000000; fill-opacity:0.0; 
stroke:#000000; stroke-width:59.0551; stroke-opacity:1; 
stroke-linecap:round; stroke-linejoin:round;">
<path d="M69685 73821
L112205 73821
" />
</g>
<g style="fill:#000000; fill-opacity:0.0; 
stroke:#000000; stroke-width:39.3701; stroke-opacity:1; 
stroke-linecap:round; stroke-linejoin:round;">
</g>
<g style="fill:#000000; fill-opacity:0.0; 
stroke:#000000; stroke-width:157.48; stroke-opacity:1; 
stroke-linecap:round; stroke-linejoin:round;">
<text x="70079.6" y="74924.1"
textLength="3701.14" font-size="1049.87" lengthAdjust="spacingAndGlyphs"
text-anchor="start" opacity="0">Title: </text>
<path d="M70360 74099
L70810 74099
" />
<path d="M70486 74886
L70585 74099
" />
<path d="M70974 74886
L71039 74361
" />
<path d="M71072 74099
L71030 74136
L71063 74174
L71105 74136
L71072 74099
L71063 74174
" />
<path d="M71302 74361
L71602 74361
" />
<path d="M71447 74099
L71363 74774
L71391 74849
L71461 74886
L71536 74886
" />
<path d="M71911 74886
L71841 74849
L71813 74774
L71897 74099
" />
<path d="M72516 74849
L72436 74886
L72286 74886
L72216 74849
L72187 74774
L72225 74474
L72272 74399
L72352 74361
L72501 74361
L72572 74399
L72600 74474
L72591 74549
L72206 74624
" />
<path d="M72895 74811
L72928 74849
L72886 74886
L72853 74849
L72895 74811
L72886 74886
" />
<path d="M72947 74399
L72980 74436
L72937 74474
L72905 74436
L72947 74399
L72937 74474
" />
</g>
<g style="fill:#000000; fill-opacity:0.0; 
stroke:#000000; stroke-width:39.3701; stroke-opacity:1; 
stroke-linecap:round; stroke-linejoin:round;">
</g>
<g style="fill:#000000; fill-opacity:0.0; 
stroke:#000000; stroke-width:59.0551; stroke-opacity:1; 
stroke-linecap:round; stroke-linejoin:round;">
<text x="70079.6" y="73408.3"
textLength="9850.39" font-size="787.402" lengthAdjust="spacingAndGlyphs"
text-anchor="start" opacity="0">File: OCE_L.kicad_pcb</text>
<path d="M70446 73070
L70249 73070
" />
<path d="M70249 73380
L70249 72789
L70530 72789
" />
<path d="M70755 73380
L70755 72986
" />
<path d="M70755 72789
L70727 72817
L70755 72845
L70784 72817
L70755 72789
L70755 72845
" />
<path d="M71121 73380
L71065 73352
L71037 73295
L71037 72789
" />
<path d="M71571 73352
L71515 73380
L71402 73380
L71346 73352
L71318 73295
L71318 73070
L71346 73014
L71402 72986
L71515 72986
L71571 73014
L71599 73070
L71599 73127
L71318 73183
" />
<path d="M71852 73323
L71880 73352
L71852 73380
L71824 73352
L71852 73323
L71852 73380
" />
<path d="M71852 73014
L71880 73042
L71852 73070
L71824 73042
L71852 73014
L71852 73070
" />
<path d="M72696 72789
L72808 72789
L72865 72817
L72921 72874
L72949 72986
L72949 73183
L72921 73295
L72865 73352
L72808 73380
L72696 73380
L72640 73352
L72583 73295
L72555 73183
L72555 72986
L72583 72874
L72640 72817
L72696 72789
" />
<path d="M73539 73323
L73511 73352
L73427 73380
L73371 73380
L73286 73352
L73230 73295
L73202 73239
L73174 73127
L73174 73042
L73202 72930
L73230 72874
L73286 72817
L73371 72789
L73427 72789
L73511 72817
L73539 72845
" />
<path d="M73793 73070
L73989 73070
" />
<path d="M74074 73380
L73793 73380
L73793 72789
L74074 72789
" />
<path d="M74186 73436
L74636 73436
" />
<path d="M75058 73380
L74777 73380
L74777 72789
" />
<path d="M75255 73323
L75283 73352
L75255 73380
L75227 73352
L75255 73323
L75255 73380
" />
<path d="M75536 73380
L75536 72789
" />
<path d="M75592 73155
L75761 73380
" />
<path d="M75761 72986
L75536 73211
" />
<path d="M76014 73380
L76014 72986
" />
<path d="M76014 72789
L75986 72817
L76014 72845
L76042 72817
L76014 72789
L76014 72845
" />
<path d="M76548 73352
L76492 73380
L76380 73380
L76323 73352
L76295 73323
L76267 73267
L76267 73099
L76295 73042
L76323 73014
L76380 72986
L76492 72986
L76548 73014
" />
<path d="M77055 73380
L77055 73070
L77027 73014
L76970 72986
L76858 72986
L76802 73014
" />
<path d="M77055 73352
L76998 73380
L76858 73380
L76802 73352
L76773 73295
L76773 73239
L76802 73183
L76858 73155
L76998 73155
L77055 73127
" />
<path d="M77589 73380
L77589 72789
" />
<path d="M77589 73352
L77533 73380
L77420 73380
L77364 73352
L77336 73323
L77308 73267
L77308 73099
L77336 73042
L77364 73014
L77420 72986
L77533 72986
L77589 73014
" />
<path d="M77730 73436
L78180 73436
" />
<path d="M78320 72986
L78320 73577
" />
<path d="M78320 73014
L78376 72986
L78489 72986
L78545 73014
L78573 73042
L78601 73099
L78601 73267
L78573 73323
L78545 73352
L78489 73380
L78376 73380
L78320 73352
" />
<path d="M79108 73352
L79051 73380
L78939 73380
L78883 73352
L78854 73323
L78826 73267
L78826 73099
L78854 73042
L78883 73014
L78939 72986
L79051 72986
L79108 73014
" />
<path d="M79361 73380
L79361 72789
" />
<path d="M79361 73014
L79417 72986
L79529 72986
L79586 73014
L79614 73042
L79642 73099
L79642 73267
L79614 73323
L79586 73352
L79529 73380
L79417 73380
L79361 73352
" />
</g>
<g style="fill:#000000; fill-opacity:0.0; 
stroke:#000000; stroke-width:39.3701; stroke-opacity:1; 
stroke-linecap:round; stroke-linejoin:round;">
</g>
<g style="fill:#000000; fill-opacity:0.0; 
stroke:#000000; stroke-width:59.0551; stroke-opacity:1; 
stroke-linecap:round; stroke-linejoin:round;">
<path d="M69685 71459
L112205 71459
" />
</g>
<g style="fill:#000000; fill-opacity:0.0; 
stroke:#000000; stroke-width:39.3701; stroke-opacity:1; 
stroke-linecap:round; stroke-linejoin:round;">
</g>
<g style="fill:#000000; fill-opacity:0.0; 
stroke:#000000; stroke-width:59.0551; stroke-opacity:1; 
stroke-linecap:round; stroke-linejoin:round;">
<text x="70079.6" y="72345.4"
textLength="3236.78" font-size="787.402" lengthAdjust="spacingAndGlyphs"
text-anchor="start" opacity="0">Sheet: </text>
<path d="M70221 72289
L70305 72317
L70446 72317
L70502 72289
L70530 72260
L70559 72204
L70559 72148
L70530 72092
L70502 72064
L70446 72036
L70334 72007
L70277 71979
L70249 71951
L70221 71895
L70221 71839
L70249 71782
L70277 71754
L70334 71726
L70474 71726
L70559 71754
" />
<path d="M70812 72317
L70812 71726
" />
<path d="M71065 72317
L71065 72007
L71037 71951
L70980 71923
L70896 71923
L70840 71951
L70812 71979
" />
<path d="M71571 72289
L71515 72317
L71402 72317
L71346 72289
L71318 72232
L71318 72007
L71346 71951
L71402 71923
L71515 71923
L71571 71951
L71599 72007
L71599 72064
L71318 72120
" />
<path d="M72077 72289
L72021 72317
L71908 72317
L71852 72289
L71824 72232
L71824 72007
L71852 71951
L71908 71923
L72021 71923
L72077 71951
L72105 72007
L72105 72064
L71824 72120
" />
<path d="M72274 71923
L72499 71923
" />
<path d="M72358 71726
L72358 72232
L72386 72289
L72443 72317
L72499 72317
" />
<path d="M72696 72260
L72724 72289
L72696 72317
L72668 72289
L72696 72260
L72696 72317
" />
<path d="M72696 71951
L72724 71979
L72696 72007
L72668 71979
L72696 71951
L72696 72007
" />
</g>
<g style="fill:#000000; fill-opacity:0.0; 
stroke:#000000; stroke-width:39.3701; stroke-opacity:1; 
stroke-linecap:round; stroke-linejoin:round;">
</g>
<g style="fill:#000000; fill-opacity:0.0; 
stroke:#000000; stroke-width:59.0551; stroke-opacity:1; 
stroke-linecap:round; stroke-linejoin:round;">
<path d="M77559 75396
L77559 76577
" />
</g>
<g style="fill:#000000; fill-opacity:0.0; 
stroke:#000000; stroke-width:39.3701; stroke-opacity:1; 
stroke-linecap:round; stroke-linejoin:round;">
</g>
<g style="fill:#000000; fill-opacity:0.0; 
stroke:#000000; stroke-width:59.0551; stroke-opacity:1; 
stroke-linecap:round; stroke-linejoin:round;">
<path d="M102756 75396
L102756 77955
" />
</g>
<g style="fill:#C2C2C2; fill-opacity:0.0; 
stroke:#C2C2C2; stroke-width:59.0551; stroke-opacity:1; 
stroke-linecap:round; stroke-linejoin:round;">
<text x="16450" y="46497.4"
textLength="1727.6" font-size="524.934" lengthAdjust="spacingAndGlyphs"
text-anchor="start" opacity="0">DRIVE</text>
<path d="M16582 46478
L16582 46084
L16675 46084
L16732 46103
L16769 46141
L16788 46178
L16807 46253
L16807 46309
L16788 46384
L16769 46422
L16732 46459
L16675 46478
L16582 46478
" />
<path d="M17200 46478
L17069 46291
" />
<path d="M16975 46478
L16975 46084
L17125 46084
L17163 46103
L17182 46122
L17200 46159
L17200 46216
L17182 46253
L17163 46272
L17125 46291
L16975 46291
" />
<path d="M17369 46478
L17369 46084
" />
<path d="M17500 46084
L17631 46478
L17763 46084
" />
<path d="M17894 46272
L18025 46272
" />
<path d="M18081 46478
L17894 46478
L17894 46084
L18081 46084
" />
<text x="16450" y="47147"
textLength="582.958" font-size="524.934" lengthAdjust="spacingAndGlyphs"
text-anchor="start" opacity="0">IL</text>
<path d="M16582 47128
L16582 46734
" />
<path d="M16957 47128
L16769 47128
L16769 46734
" />
<text x="16450" y="47796.7"
textLength="1070.4" font-size="524.934" lengthAdjust="spacingAndGlyphs"
text-anchor="start" opacity="0">IRO</text>
<path d="M16582 47777
L16582 47384
" />
<path d="M16994 47777
L16863 47590
" />
<path d="M16769 47777
L16769 47384
L16919 47384
L16957 47402
L16975 47421
L16994 47459
L16994 47515
L16975 47552
L16957 47571
L16919 47590
L16769 47590
" />
<path d="M17238 47384
L17313 47384
L17350 47402
L17388 47440
L17407 47515
L17407 47646
L17388 47721
L17350 47759
L17313 47777
L17238 47777
L17200 47759
L17163 47721
L17144 47646
L17144 47515
L17163 47440
L17200 47402
L17238 47384
" />
<text x="16450" y="48446.3"
textLength="1182.88" font-size="524.934" lengthAdjust="spacingAndGlyphs"
text-anchor="start" opacity="0">HTR</text>
<path d="M16582 48427
L16582 48033
" />
<path d="M16582 48221
L16807 48221
" />
<path d="M16807 48427
L16807 48033
" />
<path d="M16938 48033
L17163 48033
" />
<path d="M17050 48427
L17050 48033
" />
<path d="M17519 48427
L17388 48240
" />
<path d="M17294 48427
L17294 48033
L17444 48033
L17482 48052
L17500 48071
L17519 48108
L17519 48165
L17500 48202
L17482 48221
L17444 48240
L17294 48240
" />
<g transform="rotate(-90 16700.2 31775)">
<text x="16700.2" y="31971.9"
textLength="676.697" font-size="524.934" lengthAdjust="spacingAndGlyphs"
text-anchor="start" opacity="0">UI</text>
</g>
<path d="M16484 31642
L16803 31642
L16840 31624
L16859 31605
L16878 31567
L16878 31492
L16859 31455
L16840 31436
L16803 31417
L16484 31417
" />
<path d="M16878 31230
L16484 31230
" />
<g transform="rotate(-90 17349.8 31775)">
<text x="17349.8" y="31971.9"
textLength="5476.1" font-size="524.934" lengthAdjust="spacingAndGlyphs"
text-anchor="start" opacity="0">I2C DISP LED SW </text>
</g>
<path d="M17527 31642
L17134 31642
" />
<path d="M17171 31474
L17152 31455
L17134 31417
L17134 31324
L17152 31286
L17171 31267
L17209 31249
L17246 31249
L17302 31267
L17527 31492
L17527 31249
" />
<path d="M17490 30855
L17509 30874
L17527 30930
L17527 30967
L17509 31024
L17471 31061
L17434 31080
L17359 31099
L17302 31099
L17227 31080
L17190 31061
L17152 31024
L17134 30967
L17134 30930
L17152 30874
L17171 30855
" />
<path d="M17527 30386
L17134 30386
L17134 30293
L17152 30236
L17190 30199
L17227 30180
L17302 30161
L17359 30161
L17434 30180
L17471 30199
L17509 30236
L17527 30293
L17527 30386
" />
<path d="M17527 29993
L17134 29993
" />
<path d="M17509 29824
L17527 29768
L17527 29674
L17509 29636
L17490 29618
L17452 29599
L17415 29599
L17377 29618
L17359 29636
L17340 29674
L17321 29749
L17302 29786
L17284 29805
L17246 29824
L17209 29824
L17171 29805
L17152 29786
L17134 29749
L17134 29655
L17152 29599
" />
<path d="M17527 29430
L17134 29430
L17134 29280
L17152 29243
L17171 29224
L17209 29205
L17265 29205
L17302 29224
L17321 29243
L17340 29280
L17340 29430
" />
<path d="M17527 28549
L17527 28736
L17134 28736
" />
<path d="M17321 28418
L17321 28287
" />
<path d="M17527 28230
L17527 28418
L17134 28418
L17134 28230
" />
<path d="M17527 28062
L17134 28062
L17134 27968
L17152 27912
L17190 27874
L17227 27855
L17302 27837
L17359 27837
L17434 27855
L17471 27874
L17509 27912
L17527 27968
L17527 28062
" />
<path d="M17509 27387
L17527 27330
L17527 27237
L17509 27199
L17490 27180
L17452 27162
L17415 27162
L17377 27180
L17359 27199
L17340 27237
L17321 27312
L17302 27349
L17284 27368
L17246 27387
L17209 27387
L17171 27368
L17152 27349
L17134 27312
L17134 27218
L17152 27162
" />
<path d="M17134 27030
L17527 26937
L17246 26862
L17527 26787
L17134 26693
" />
<text x="38025" y="18422.2"
textLength="3657.57" font-size="524.934" lengthAdjust="spacingAndGlyphs"
text-anchor="start" opacity="0">THERMISTOR</text>
<path d="M38100 18009
L38325 18009
" />
<path d="M38213 18403
L38213 18009
" />
<path d="M38457 18403
L38457 18009
" />
<path d="M38457 18197
L38682 18197
" />
<path d="M38682 18403
L38682 18009
" />
<path d="M38869 18197
L39000 18197
" />
<path d="M39057 18403
L38869 18403
L38869 18009
L39057 18009
" />
<path d="M39450 18403
L39319 18216
" />
<path d="M39225 18403
L39225 18009
L39375 18009
L39413 18028
L39431 18047
L39450 18084
L39450 18141
L39431 18178
L39413 18197
L39375 18216
L39225 18216
" />
<path d="M39619 18403
L39619 18009
L39750 18291
L39881 18009
L39881 18403
" />
<path d="M40069 18403
L40069 18009
" />
<path d="M40238 18384
L40294 18403
L40388 18403
L40425 18384
L40444 18366
L40463 18328
L40463 18291
L40444 18253
L40425 18234
L40388 18216
L40313 18197
L40275 18178
L40256 18159
L40238 18122
L40238 18084
L40256 18047
L40275 18028
L40313 18009
L40406 18009
L40463 18028
" />
<path d="M40575 18009
L40800 18009
" />
<path d="M40688 18403
L40688 18009
" />
<path d="M41006 18009
L41081 18009
L41119 18028
L41156 18066
L41175 18141
L41175 18272
L41156 18347
L41119 18384
L41081 18403
L41006 18403
L40969 18384
L40931 18347
L40913 18272
L40913 18141
L40931 18066
L40969 18028
L41006 18009
" />
<path d="M41569 18403
L41437 18216
" />
<path d="M41344 18403
L41344 18009
L41494 18009
L41531 18028
L41550 18047
L41569 18084
L41569 18141
L41550 18178
L41531 18197
L41494 18216
L41344 18216
" />
<text x="38025" y="19071.9"
textLength="2626.45" font-size="524.934" lengthAdjust="spacingAndGlyphs"
text-anchor="start" opacity="0">NTC 10K</text>
<path d="M38157 19053
L38157 18659
L38382 19053
L38382 18659
" />
<path d="M38513 18659
L38738 18659
" />
<path d="M38625 19053
L38625 18659
" />
<path d="M39094 19015
L39075 19034
L39019 19053
L38982 19053
L38925 19034
L38888 18996
L38869 18959
L38850 18884
L38850 18828
L38869 18753
L38888 18715
L38925 18678
L38982 18659
L39019 18659
L39075 18678
L39094 18696
" />
<path d="M39769 19053
L39544 19053
" />
<path d="M39656 19053
L39656 18659
L39619 18715
L39581 18753
L39544 18771
" />
<path d="M40013 18659
L40050 18659
L40088 18678
L40106 18696
L40125 18734
L40144 18809
L40144 18903
L40125 18978
L40106 19015
L40088 19034
L40050 19053
L40013 19053
L39975 19034
L39956 19015
L39938 18978
L39919 18903
L39919 18809
L39938 18734
L39956 18696
L39975 18678
L40013 18659
" />
<path d="M40313 19053
L40313 18659
" />
<path d="M40538 19053
L40369 18828
" />
<path d="M40538 18659
L40313 18884
" />
<text x="38025" y="19721.5"
textLength="4088.77" font-size="524.934" lengthAdjust="spacingAndGlyphs"
text-anchor="start" opacity="0">TH12 - TH01</text>
<path d="M38100 19309
L38325 19309
" />
<path d="M38213 19702
L38213 19309
" />
<path d="M38457 19702
L38457 19309
" />
<path d="M38457 19496
L38682 19496
" />
<path d="M38682 19702
L38682 19309
" />
<path d="M39075 19702
L38850 19702
" />
<path d="M38963 19702
L38963 19309
L38925 19365
L38888 19402
L38850 19421
" />
<path d="M39225 19346
L39244 19327
L39281 19309
L39375 19309
L39413 19327
L39431 19346
L39450 19383
L39450 19421
L39431 19477
L39206 19702
L39450 19702
" />
<path d="M39919 19552
L40219 19552
" />
<path d="M40650 19309
L40875 19309
" />
<path d="M40763 19702
L40763 19309
" />
<path d="M41006 19702
L41006 19309
" />
<path d="M41006 19496
L41231 19496
" />
<path d="M41231 19702
L41231 19309
" />
<path d="M41494 19309
L41531 19309
L41569 19327
L41587 19346
L41606 19383
L41625 19458
L41625 19552
L41606 19627
L41587 19665
L41569 19683
L41531 19702
L41494 19702
L41456 19683
L41437 19665
L41419 19627
L41400 19552
L41400 19458
L41419 19383
L41437 19346
L41456 19327
L41494 19309
" />
<path d="M42000 19702
L41775 19702
" />
<path d="M41887 19702
L41887 19309
L41850 19365
L41812 19402
L41775 19421
" />
<text x="45100" y="15822"
textLength="4126.27" font-size="524.934" lengthAdjust="spacingAndGlyphs"
text-anchor="end" opacity="0">USER ANALOG</text>
<path d="M41105 15409
L41105 15728
L41124 15765
L41143 15784
L41180 15803
L41255 15803
L41293 15784
L41312 15765
L41330 15728
L41330 15409
" />
<path d="M41499 15784
L41555 15803
L41649 15803
L41687 15784
L41705 15765
L41724 15728
L41724 15690
L41705 15653
L41687 15634
L41649 15615
L41574 15597
L41537 15578
L41518 15559
L41499 15522
L41499 15484
L41518 15447
L41537 15428
L41574 15409
L41668 15409
L41724 15428
" />
<path d="M41893 15597
L42024 15597
" />
<path d="M42080 15803
L41893 15803
L41893 15409
L42080 15409
" />
<path d="M42474 15803
L42343 15615
" />
<path d="M42249 15803
L42249 15409
L42399 15409
L42436 15428
L42455 15447
L42474 15484
L42474 15540
L42455 15578
L42436 15597
L42399 15615
L42249 15615
" />
<path d="M42924 15690
L43111 15690
" />
<path d="M42886 15803
L43018 15409
L43149 15803
" />
<path d="M43280 15803
L43280 15409
L43505 15803
L43505 15409
" />
<path d="M43674 15690
L43861 15690
" />
<path d="M43636 15803
L43768 15409
L43899 15803
" />
<path d="M44217 15803
L44030 15803
L44030 15409
" />
<path d="M44424 15409
L44499 15409
L44536 15428
L44574 15465
L44592 15540
L44592 15672
L44574 15747
L44536 15784
L44499 15803
L44424 15803
L44386 15784
L44349 15747
L44330 15672
L44330 15540
L44349 15465
L44386 15428
L44424 15409
" />
<path d="M44967 15428
L44930 15409
L44874 15409
L44817 15428
L44780 15465
L44761 15503
L44742 15578
L44742 15634
L44761 15709
L44780 15747
L44817 15784
L44874 15803
L44911 15803
L44967 15784
L44986 15765
L44986 15634
L44911 15634
" />
<text x="45100" y="16471.7"
textLength="5776.06" font-size="524.934" lengthAdjust="spacingAndGlyphs"
text-anchor="end" opacity="0"> UA3 UA4 UA2 UA1</text>
<path d="M39756 16059
L39756 16377
L39774 16415
L39793 16434
L39831 16452
L39906 16452
L39943 16434
L39962 16415
L39980 16377
L39980 16059
" />
<path d="M40149 16340
L40337 16340
" />
<path d="M40112 16452
L40243 16059
L40374 16452
" />
<path d="M40468 16059
L40712 16059
L40580 16209
L40637 16209
L40674 16227
L40693 16246
L40712 16284
L40712 16377
L40693 16415
L40674 16434
L40637 16452
L40524 16452
L40487 16434
L40468 16415
" />
<path d="M41180 16059
L41180 16377
L41199 16415
L41218 16434
L41255 16452
L41330 16452
L41368 16434
L41387 16415
L41405 16377
L41405 16059
" />
<path d="M41574 16340
L41762 16340
" />
<path d="M41537 16452
L41668 16059
L41799 16452
" />
<path d="M42099 16190
L42099 16452
" />
<path d="M42005 16040
L41912 16321
L42155 16321
" />
<path d="M42605 16059
L42605 16377
L42624 16415
L42643 16434
L42680 16452
L42755 16452
L42793 16434
L42811 16415
L42830 16377
L42830 16059
" />
<path d="M42999 16340
L43186 16340
" />
<path d="M42961 16452
L43093 16059
L43224 16452
" />
<path d="M43336 16096
L43355 16077
L43393 16059
L43486 16059
L43524 16077
L43543 16096
L43561 16134
L43561 16171
L43543 16227
L43318 16452
L43561 16452
" />
<path d="M44030 16059
L44030 16377
L44049 16415
L44067 16434
L44105 16452
L44180 16452
L44217 16434
L44236 16415
L44255 16377
L44255 16059
" />
<path d="M44424 16340
L44611 16340
" />
<path d="M44386 16452
L44517 16059
L44649 16452
" />
<path d="M44986 16452
L44761 16452
" />
<path d="M44874 16452
L44874 16059
L44836 16115
L44799 16152
L44761 16171
" />
<text x="56950" y="16246.9"
textLength="4032.53" font-size="524.934" lengthAdjust="spacingAndGlyphs"
text-anchor="middle" opacity="0">CAN - G H L</text>
<path d="M55290 16190
L55272 16209
L55215 16228
L55178 16228
L55122 16209
L55084 16171
L55065 16134
L55047 16059
L55047 16003
L55065 15928
L55084 15890
L55122 15853
L55178 15834
L55215 15834
L55272 15853
L55290 15871
" />
<path d="M55440 16115
L55628 16115
" />
<path d="M55403 16228
L55534 15834
L55665 16228
" />
<path d="M55797 16228
L55797 15834
L56021 16228
L56021 15834
" />
<path d="M56509 16078
L56809 16078
" />
<path d="M57503 15853
L57465 15834
L57409 15834
L57353 15853
L57315 15890
L57296 15928
L57278 16003
L57278 16059
L57296 16134
L57315 16171
L57353 16209
L57409 16228
L57446 16228
L57503 16209
L57521 16190
L57521 16059
L57446 16059
" />
<path d="M57990 16228
L57990 15834
" />
<path d="M57990 16021
L58215 16021
" />
<path d="M58215 16228
L58215 15834
" />
<path d="M58890 16228
L58702 16228
L58702 15834
" />
</g>
<g style="fill:#C2C2C2; fill-opacity:0.0; 
stroke:#C2C2C2; stroke-width:43.3071; stroke-opacity:1; 
stroke-linecap:round; stroke-linejoin:round;">
<path d="M59480 34666
L60025 34600
" />
<path d="M59480 34666
L59625 34350
" />
</g>
<g style="fill:#C2C2C2; fill-opacity:0.0; 
stroke:#C2C2C2; stroke-width:47.2441; stroke-opacity:1; 
stroke-linecap:round; stroke-linejoin:round;">
<path d="M60597 34952
L60650 34925
" />
</g>
<g style="fill:#C2C2C2; fill-opacity:0.0; 
stroke:#C2C2C2; stroke-width:43.3071; stroke-opacity:1; 
stroke-linecap:round; stroke-linejoin:round;">
<path d="M60436 34627
L60584 34661
" />
</g>
<g style="fill:#C2C2C2; fill-opacity:0.0; 
stroke:#C2C2C2; stroke-width:59.0551; stroke-opacity:1; 
stroke-linecap:round; stroke-linejoin:round;">
<circle cx="60274.1" cy="34800" r="1350.93" /> 
</g>
<g style="fill:#C2C2C2; fill-opacity:0.0; 
stroke:#C2C2C2; stroke-width:38.5823; stroke-opacity:1; 
stroke-linecap:round; stroke-linejoin:round;">
<path d="M59371 35236
L59411 35163
" />
<path d="M60822 35647
L60825 35644
" />
<path d="M60820 35650
L60822 35647
" />
<path d="M60822 35647
L60825 35646
" />
<path d="M60825 35646
L60828 35639
" />
<path d="M60824 35639
L60765 35691
" />
<path d="M59850 35715
L59767 35690
" />
<path d="M59767 35690
L59700 35643
" />
<path d="M55004 33322
L55347 33322
" />
<path d="M61880 34467
L62152 34467
" />
<path d="M62152 34467
L62152 34255
" />
<path d="M62152 34044
L61778 34044
" />
<path d="M61778 34044
L61404 34044
" />
<path d="M62152 34255
L62152 34044
" />
<path d="M62152 35189
L61880 35189
" />
<path d="M61608 34467
L61880 34467
" />
<path d="M61579 35232
L61559 35256
" />
<path d="M61651 35196
L61579 35232
" />
<path d="M62152 35400
L62152 35189
" />
<path d="M61405 35612
L61778 35612
" />
<path d="M61778 35612
L62152 35612
" />
<path d="M61880 35189
L61651 35196
" />
<path d="M62152 35612
L62152 35400
" />
<path d="M59514 36308
L58568 36308
" />
<path d="M60951 33637
L60982 33486
" />
<path d="M58568 33322
L59514 33322
" />
<path d="M60982 36159
L60973 36010
" />
<path d="M62899 34815
L62899 36308
" />
<path d="M60982 33486
L60982 33322
" />
<path d="M60982 33322
L61941 33322
" />
<path d="M59514 33496
L59525 33670
" />
<path d="M57622 33322
L58568 33322
" />
<path d="M57622 34815
L57622 33322
" />
<path d="M61941 36308
L60982 36308
" />
<path d="M62899 33322
L62899 34815
" />
<path d="M58568 36308
L57622 36308
" />
<path d="M59514 36147
L59514 36308
" />
<path d="M62899 36308
L61941 36308
" />
<path d="M57622 36308
L57622 34815
" />
<path d="M60982 36308
L60982 36159
" />
<path d="M59514 33322
L59514 33496
" />
<path d="M59527 35985
L59514 36147
" />
<path d="M61941 33322
L62899 33322
" />
<path d="M56668 35941
L56530 35574
" />
<path d="M55781 33321
L56145 33327
" />
<path d="M54660 33403
L54661 33322
" />
<path d="M56801 33699
L56801 33322
" />
<path d="M57523 34815
L57523 36308
" />
<path d="M57523 33322
L57523 34815
" />
<path d="M54661 33322
L55004 33322
" />
<path d="M57165 36308
L56807 36308
" />
<path d="M57162 33322
L57523 33322
" />
<path d="M55175 34896
L54660 33403
" />
<path d="M56801 33322
L57162 33322
" />
<path d="M56528 35941
L56527 36308
" />
<path d="M57523 36308
L57165 36308
" />
<path d="M55768 34437
L55775 33879
" />
<path d="M56508 33334
L56640 33691
" />
<path d="M56640 33691
L56787 34063
" />
<path d="M56527 36308
L56108 36308
" />
<path d="M56787 34063
L56801 33699
" />
<path d="M55690 36308
L55175 34896
" />
<path d="M56108 36308
L55690 36308
" />
<path d="M56807 36308
L56668 35941
" />
<path d="M56145 33327
L56508 33334
" />
<path d="M55557 33880
L55768 34437
" />
<path d="M55347 33322
L55557 33880
" />
<path d="M56530 35574
L56528 35941
" />
<path d="M55775 33879
L55781 33321
" />
<path d="M61692 36380
L61935 36635
" />
<path d="M60124 37661
L59764 37611
" />
<path d="M60250 36918
L60657 36884
" />
<path d="M58493 37192
L58410 37252
" />
<path d="M58686 37189
L58567 37121
" />
<path d="M59407 37517
L58686 37189
" />
<path d="M60310 37661
L60124 37661
" />
<path d="M61780 37215
L61393 37427
" />
<path d="M59825 36863
L60250 36918
" />
<path d="M59081 36420
L59015 36506
" />
<path d="M58647 36333
L59146 36333
" />
<path d="M58321 36947
L58194 36493
" />
<path d="M58148 36333
L58647 36333
" />
<path d="M61393 37427
L60965 37567
" />
<path d="M58410 37252
L58321 36947
" />
<path d="M59146 36333
L59081 36420
" />
<path d="M58567 37121
L58493 37192
" />
<path d="M60965 37567
L60310 37661
" />
<path d="M61054 36758
L61452 36538
" />
<path d="M61935 36635
L62178 36890
" />
<path d="M60657 36884
L61054 36758
" />
<path d="M59449 36737
L59825 36863
" />
<path d="M59015 36506
L59113 36571
" />
<path d="M59764 37611
L59407 37517
" />
<path d="M61452 36538
L61692 36380
" />
<path d="M59113 36571
L59449 36737
" />
<path d="M58194 36493
L58148 36333
" />
<path d="M62097 36974
L61780 37215
" />
<path d="M60124 37661
L60124 37661
" />
<path d="M62178 36890
L62097 36974
" />
</g>
<g style="fill:#C2C2C2; fill-opacity:0.0; 
stroke:#C2C2C2; stroke-width:59.0551; stroke-opacity:1; 
stroke-linecap:round; stroke-linejoin:round;">
<path d="M65861 32000
L54660 32000
" />
<path d="M54660 32000
L54660 37664
" />
<path d="M65861 37664
L65861 32000
" />
<path d="M54660 37664
L65861 37664
" />
</g>
<g style="fill:#C2C2C2; fill-opacity:0.0; 
stroke:#C2C2C2; stroke-width:38.5823; stroke-opacity:1; 
stroke-linecap:round; stroke-linejoin:round;">
<path d="M60840 32807
L60596 32751
" />
<path d="M65487 34487
L65235 35170
" />
<path d="M63720 34467
L64604 34467
" />
<path d="M63347 36308
L62998 36308
" />
<path d="M59601 32063
L59872 32010
" />
<path d="M58632 33080
L58385 32809
" />
<path d="M63695 35213
L63695 35761
" />
<path d="M61440 33212
L61505 33126
" />
<path d="M59663 32809
L59277 32971
" />
<path d="M61173 32934
L60840 32807
" />
<path d="M59066 32270
L59601 32063
" />
<path d="M58946 33173
L58814 33273
" />
<path d="M59872 32010
L60228 32000
" />
<path d="M60228 32000
L60613 32018
" />
<path d="M59277 32971
L58946 33173
" />
<path d="M65097 35207
L64453 35213
" />
<path d="M64453 35213
L63695 35213
" />
<path d="M61437 33078
L61173 32934
" />
<path d="M63695 36308
L63347 36308
" />
<path d="M61375 33297
L61440 33212
" />
<path d="M61505 33126
L61437 33078
" />
<path d="M64604 34467
L65487 34487
" />
<path d="M61866 33297
L61375 33297
" />
<path d="M61971 32516
L62018 32446
" />
<path d="M62281 33290
L61866 33297
" />
<path d="M62345 33253
L62281 33290
" />
<path d="M60248 32740
L59900 32750
" />
<path d="M58320 32731
L58537 32576
" />
<path d="M62018 32446
L62079 32376
" />
<path d="M62998 36308
L62998 34815
" />
<path d="M60596 32751
L60248 32740
" />
<path d="M63695 35761
L63695 36308
" />
<path d="M62079 32376
L62345 33253
" />
<path d="M61645 32351
L61971 32516
" />
<path d="M61275 32182
L61645 32351
" />
<path d="M60947 32074
L61275 32182
" />
<path d="M59900 32750
L59663 32809
" />
<path d="M65235 35170
L65097 35207
" />
<path d="M60613 32018
L60947 32074
" />
<path d="M58537 32576
L59066 32270
" />
<path d="M58385 32809
L58320 32731
" />
<path d="M58814 33273
L58632 33080
" />
<path d="M59129 34044
L58737 34044
" />
<path d="M58344 35612
L58739 35612
" />
<path d="M58344 35213
L58344 35412
" />
<path d="M58739 35612
L59134 35612
" />
<path d="M62998 33322
L64429 33322
" />
<path d="M58637 34466
L58929 34466
" />
<path d="M58344 34467
L58637 34466
" />
<path d="M63720 34255
L63720 34467
" />
<path d="M58344 35412
L58344 35612
" />
<path d="M63720 34044
L63720 34255
" />
<path d="M64687 34044
L63720 34044
" />
<path d="M65655 34044
L64687 34044
" />
<path d="M65758 33751
L65655 34044
" />
<path d="M58344 34255
L58344 34467
" />
<path d="M65861 33322
L65861 33390
" />
<path d="M64429 33322
L65861 33322
" />
<path d="M58344 34044
L58344 34255
" />
<path d="M58737 34044
L58344 34044
" />
<path d="M58640 35213
L58344 35213
" />
<path d="M65861 33390
L65758 33751
" />
<path d="M62998 34815
L62998 33322
" />
<path d="M58936 35213
L58640 35213
" />
<path d="M59513 34468
L59513 34468
" />
<path d="M60410 35087
L60628 35219
" />
<path d="M59937 35302
L60093 35225
" />
<path d="M60093 35225
L60422 35045
" />
<path d="M60139 35146
L59937 35302
" />
<path d="M60584 34661
L60370 34828
" />
<path d="M60664 34954
L60537 35013
" />
<path d="M60878 35328
L61002 35308
" />
<path d="M61002 35308
L61002 35308
" />
<path d="M60422 35045
L60422 35045
" />
<path d="M60249 34989
L60341 35002
" />
<path d="M60422 35045
L60597 34952
" />
<path d="M59432 34562
L59513 34468
" />
<path d="M59401 34560
L59432 34562
" />
<path d="M59389 34520
L59401 34560
" />
<path d="M60628 35219
L60878 35328
" />
<path d="M60370 34828
L60156 34977
" />
<path d="M60848 35052
L60664 34954
" />
<path d="M60341 35002
L60139 35146
" />
<path d="M59444 34394
L59389 34520
" />
<path d="M59533 34299
L59444 34394
" />
<path d="M60537 35013
L60410 35087
" />
<path d="M59562 34336
L59533 34299
" />
<path d="M59513 34468
L59562 34336
" />
<path d="M60156 34977
L60249 34989
" />
<path d="M60370 34146
L60394 34224
" />
<path d="M60179 35796
L60128 35723
" />
<path d="M60765 35691
L60689 35720
" />
<path d="M60264 35811
L60179 35796
" />
<path d="M61050 35188
L61035 35319
" />
<path d="M60436 34627
L60475 34615
" />
<path d="M60920 34673
L60965 34632
" />
<path d="M60984 34467
L60774 34554
" />
<path d="M60397 34342
L60449 34363
" />
<path d="M60733 35313
L60548 35207
" />
<path d="M60021 35299
L59905 35389
" />
<path d="M60774 34554
L60872 34567
" />
<path d="M60780 34365
L60987 34372
" />
<path d="M61002 35308
L61032 35214
" />
<path d="M60319 35444
L60333 35485
" />
<path d="M60128 35723
L60128 35723
" />
<path d="M60826 35542
L60824 35639
" />
<path d="M60944 35363
L60845 35407
" />
<path d="M61136 34673
L61236 34734
" />
<path d="M60641 34786
L60537 34851
" />
<path d="M60443 34498
L60436 34627
" />
<path d="M60386 34092
L60370 34146
" />
<path d="M60335 34317
L60397 34342
" />
<path d="M60394 34224
L60373 34293
" />
<path d="M61194 34380
L60984 34467
" />
<path d="M60912 34832
L60920 34673
" />
<path d="M61241 34907
L61159 34954
" />
<path d="M61255 34822
L61241 34907
" />
<path d="M60872 34567
L60970 34579
" />
<path d="M60475 34615
L60651 34470
" />
<path d="M60373 34293
L60335 34317
" />
</g>
<g style="fill:#C2C2C2; fill-opacity:1.0; 
stroke:#C2C2C2; stroke-width:0; stroke-opacity:1; 
stroke-linecap:round; stroke-linejoin:round;">
<circle cx="60194.9" cy="35369.4" r="19.2911" /> 
</g>
<g style="fill:#C2C2C2; fill-opacity:1.0; 
stroke:#C2C2C2; stroke-width:38.5823; stroke-opacity:1; 
stroke-linecap:round; stroke-linejoin:round;">
</g>
<g style="fill:#C2C2C2; fill-opacity:0.0; 
stroke:#C2C2C2; stroke-width:38.5823; stroke-opacity:1; 
stroke-linecap:round; stroke-linejoin:round;">
<path d="M61236 34734
L61255 34822
" />
<path d="M60168 35239
L60021 35299
" />
<path d="M60467 35626
L60388 35724
" />
<path d="M60711 34948
L60899 35031
" />
<path d="M60600 35671
L60467 35626
" />
<path d="M60651 34470
L60780 34365
" />
<path d="M60858 34650
L60641 34786
" />
<path d="M60998 35144
L60848 35052
" />
<path d="M61032 35214
L60998 35144
" />
<path d="M60347 35797
L60264 35811
" />
<path d="M61035 35319
L60944 35363
" />
<path d="M60845 35407
L60826 35542
" />
<path d="M60689 35720
L60600 35671
" />
<path d="M61057 35032
L61050 35188
" />
<path d="M60987 34372
L61194 34380
" />
<path d="M60463 35450
L60463 35450
" />
<path d="M60347 35258
L60319 35444
" />
<path d="M60537 34851
L60711 34948
" />
<path d="M60333 35485
L60463 35450
" />
<path d="M60363 35116
L60347 35258
" />
<path d="M60548 35207
L60363 35116
" />
<path d="M60463 35450
L60733 35313
" />
<path d="M60179 35486
L60194 35369
" />
<path d="M60965 34632
L61136 34673
" />
<path d="M59905 35389
L60179 35486
" />
<path d="M60899 35031
L60912 34832
" />
<path d="M60449 34363
L60443 34498
" />
<path d="M60194 35369
L60168 35239
" />
<path d="M60388 35724
L60347 35797
" />
<path d="M61159 34954
L61057 35032
" />
<path d="M60970 34579
L60858 34650
" />
<path d="M60149 34293
L60114 34284
" />
<path d="M60124 35023
L60097 34992
" />
<path d="M59434 35380
L59390 35314
" />
<path d="M59694 35568
L59671 35498
" />
<path d="M60114 34284
L60133 34202
" />
<path d="M60121 34342
L60186 34317
" />
<path d="M59530 35008
L59588 34991
" />
<path d="M59855 35326
L59898 35310
" />
<path d="M60612 34076
L60511 34062
" />
<path d="M59720 35187
L59855 35326
" />
<path d="M60587 33899
L60604 33979
" />
<path d="M60537 33873
L60587 33899
" />
<path d="M59671 35498
L59639 35488
" />
<path d="M60457 33898
L60537 33873
" />
<path d="M60023 35196
L60150 35083
" />
<path d="M60131 34092
L60021 34032
" />
<path d="M59618 35015
L59720 35187
" />
<path d="M60397 33876
L60432 33913
" />
<path d="M60274 33819
L60397 33876
" />
<path d="M59865 34500
L60091 34621
" />
<path d="M60000 33933
L60138 33868
" />
<path d="M59700 35643
L59694 35568
" />
<path d="M60091 34621
L60073 34482
" />
<path d="M60128 35723
L60045 35624
" />
<path d="M59923 33977
L60000 33933
" />
<path d="M59611 34311
L59865 34500
" />
<path d="M59588 34991
L59618 35015
" />
<path d="M59347 34907
L59340 34727
" />
<path d="M59480 34666
L59447 34693
" />
<path d="M59898 35310
L60023 35196
" />
<path d="M59660 35397
L59530 35381
" />
<path d="M60604 33979
L60612 34076
" />
<path d="M60138 33868
L60274 33819
" />
<path d="M59411 35163
L59464 35065
" />
<path d="M59447 34693
L59439 34803
" />
<path d="M60073 34482
L60066 34360
" />
<path d="M59494 34282
L59568 34247
" />
<path d="M60186 34317
L60149 34293
" />
<path d="M59464 35065
L59530 35008
" />
<path d="M60432 33913
L60457 33898
" />
<path d="M60021 34032
L59923 33977
" />
<path d="M60133 34202
L60131 34092
" />
<path d="M59568 34247
L59611 34311
" />
<path d="M60150 35083
L60124 35023
" />
<path d="M59390 35314
L59371 35236
" />
<path d="M59340 34727
L59377 34445
" />
<path d="M59389 34940
L59347 34907
" />
<path d="M59439 34803
L59431 34916
" />
<path d="M59684 35421
L59660 35397
" />
<path d="M59931 35668
L59850 35715
" />
<path d="M59664 35449
L59684 35421
" />
<path d="M60066 34360
L60121 34342
" />
<path d="M60045 35624
L59931 35668
" />
<path d="M59431 34916
L59389 34940
" />
<path d="M60097 34992
L59480 34666
" />
<path d="M59530 35381
L59434 35380
" />
<path d="M60425 34060
L60386 34092
" />
<path d="M59377 34445
L59494 34282
" />
<path d="M59639 35488
L59664 35449
" />
<path d="M60511 34062
L60425 34060
" />
<path d="M60825 35644
L60822 35647
" />
<path d="M60822 35647
L60822 35647
" />
<path d="M60822 35647
L60822 35647
" />
</g>
<g style="fill:#C2C2C2; fill-opacity:0.0; 
stroke:#C2C2C2; stroke-width:59.0551; stroke-opacity:1; 
stroke-linecap:round; stroke-linejoin:round;">
<path d="M15000 50000
L50000 50000
" />
<path d="M50000 50000
L50000 55000
" />
<path d="M15000 55000
L15000 50000
" />
<path d="M50000 55000
L15000 55000
" />
<text x="45100" y="51496.9"
textLength="6994.66" font-size="524.934" lengthAdjust="spacingAndGlyphs"
text-anchor="middle" opacity="0">HV - DANGER 120 VAC</text>
<path d="M41734 51478
L41734 51084
" />
<path d="M41734 51271
L41959 51271
" />
<path d="M41959 51478
L41959 51084
" />
<path d="M42091 51084
L42222 51478
L42353 51084
" />
<path d="M42784 51328
L43084 51328
" />
<path d="M43572 51478
L43572 51084
L43665 51084
L43722 51103
L43759 51140
L43778 51178
L43797 51253
L43797 51309
L43778 51384
L43759 51421
L43722 51459
L43665 51478
L43572 51478
" />
<path d="M43947 51365
L44134 51365
" />
<path d="M43909 51478
L44040 51084
L44171 51478
" />
<path d="M44303 51478
L44303 51084
L44528 51478
L44528 51084
" />
<path d="M44921 51103
L44884 51084
L44828 51084
L44771 51103
L44734 51140
L44715 51178
L44696 51253
L44696 51309
L44715 51384
L44734 51421
L44771 51459
L44828 51478
L44865 51478
L44921 51459
L44940 51440
L44940 51309
L44865 51309
" />
<path d="M45109 51271
L45240 51271
" />
<path d="M45296 51478
L45109 51478
L45109 51084
L45296 51084
" />
<path d="M45690 51478
L45559 51290
" />
<path d="M45465 51478
L45465 51084
L45615 51084
L45653 51103
L45671 51121
L45690 51159
L45690 51215
L45671 51253
L45653 51271
L45615 51290
L45465 51290
" />
<path d="M46365 51478
L46140 51478
" />
<path d="M46252 51478
L46252 51084
L46215 51140
L46177 51178
L46140 51196
" />
<path d="M46515 51121
L46534 51103
L46571 51084
L46665 51084
L46702 51103
L46721 51121
L46740 51159
L46740 51196
L46721 51253
L46496 51478
L46740 51478
" />
<path d="M46984 51084
L47021 51084
L47059 51103
L47077 51121
L47096 51159
L47115 51234
L47115 51328
L47096 51403
L47077 51440
L47059 51459
L47021 51478
L46984 51478
L46946 51459
L46927 51440
L46909 51403
L46890 51328
L46890 51234
L46909 51159
L46927 51121
L46946 51103
L46984 51084
" />
<path d="M47527 51084
L47659 51478
L47790 51084
" />
<path d="M47902 51365
L48090 51365
" />
<path d="M47865 51478
L47996 51084
L48127 51478
" />
<path d="M48483 51440
L48465 51459
L48408 51478
L48371 51478
L48315 51459
L48277 51421
L48258 51384
L48240 51309
L48240 51253
L48258 51178
L48277 51140
L48315 51103
L48371 51084
L48408 51084
L48465 51103
L48483 51121
" />
</g>
<g style="fill:#C2C2C2; fill-opacity:0.0; 
stroke:#C2C2C2; stroke-width:39.3701; stroke-opacity:1; 
stroke-linecap:round; stroke-linejoin:round;">
<path d="M19356 31843
L19356 24056
" />
<path d="M44143 31843
L19356 31843
" />
<path d="M44143 24056
L44143 31843
" />
<path d="M19356 24056
L44143 24056
" />
<path d="M19750 24450
L19750 31450
" />
<path d="M43750 24450
L19750 24450
" />
<path d="M43750 31450
L43750 24450
" />
<path d="M19750 31450
L43750 31450
" />
<g >
</g>
<g >
</g>
<g >
</g>
<g >
</g>
<g >
</g>
<g >
</g>
<g >
</g>
<g >
</g>
<g >
</g>
<g >
</g>
<g >
</g>
<g >
</g>
<g >
</g>
<g >
</g>
<g >
</g>
<g >
</g>
<g >
</g>
<g >
</g>
<g >
</g>
<g >
</g>
<g >
</g>
<g >
</g>
<g >
</g>
<g >
</g>
<g >
</g>
<g >
</g>
<g >
</g>
<g >
</g>
<g >
</g>
<g >
</g>
<g >
</g>
<g >
</g>
<g >
</g>
<g >
</g>
<g >
</g>
<g >
</g>
<g >
</g>
<g >
</g>
<g >
</g>
<g >
</g>
<g >
</g>
<g >
</g>
<g >
</g>
<g >
</g>
<g >
</g>
<g >
</g>
<g >
</g>
<g >
</g>
<g >
</g>
<g >
</g>
<g >
</g>
<g >
</g>
<g >
</g>
<g >
</g>
<g >
</g>
<g >
</g>
<g >
</g>
<g >
</g>
<g >
</g>
<g >
</g>
<g >
</g>
<g >
</g>
<g >
</g>
<g >
</g>
<g >
</g>
<g >
</g>
<g >
</g>
<g >
</g>
<g >
</g>
<g >
</g>
<g >
</g>
<g >
</g>
<g >
</g>
<g >
</g>
<g >
</g>
<g >
</g>
<g >
</g>
<g >
</g>
<g >
</g>
<g >
</g>
<g >
</g>
<g >
</g>
<g >
</g>
<g >
</g>
<g >
</g>
<g >
</g>
</g>
<g style="fill:#000000; fill-opacity:0.0; 
stroke:#000000; stroke-width:39.3701; stroke-opacity:1; 
stroke-linecap:round; stroke-linejoin:round;">
</g>
<g style="fill:#C2C200; fill-opacity:0.0; 
stroke:#C2C200; stroke-width:39.3701; stroke-opacity:1; 
stroke-linecap:round; stroke-linejoin:round;">
</g>
<g style="fill:#C2C200; fill-opacity:0.0; 
stroke:#C2C200; stroke-width:19.685; stroke-opacity:1; 
stroke-linecap:round; stroke-linejoin:round;">
<path d="M15000 15000
L60000 15000
" />
<path d="M60000 55000
L15000 55000
" />
<path d="M60000 15000
L60000 55000
" />
</g>
<g style="fill:#C2C200; fill-opacity:0.0; 
stroke:#C2C200; stroke-width:59.0551; stroke-opacity:1; 
stroke-linecap:round; stroke-linejoin:round;">
<path d="M15000 55000
L15000 15000
" />
<g >
</g>
<g >
</g>
<g >
</g>
<g >
</g>
<g >
</g>
<g >
</g>
<g >
</g>
<g >
</g>
<g >
</g>
<g >
</g>
<g >
</g>
<g >
</g>
<g >
</g>
<g >
</g>
<g >
</g>
<g >
</g>
<g >
</g>
<g >
</g>
<g >
</g>
<g >
</g>
<g >
</g>
<g >
</g>
<g >
</g>
<g >
</g>
<g >
</g>
<g >
</g>
<g >
</g>
<g >
</g>
<g >
</g>
<g >
</g>
<g >
</g>
<g >
</g>
<g >
</g>
<g >
</g>
<g >
</g>
<g >
</g>
<g >
</g>
<g >
</g>
<g >
</g>
<g >
</g>
<g >
</g>
<g >
</g>
<g >
</g>
<g >
</g>
<g >
</g>
<g >
</g>
<g >
</g>
<g >
</g>
<g >
</g>
<g >
</g>
<g >
</g>
<g >
</g>
<g >
</g>
<g >
</g>
<g >
</g>
<g >
</g>
<g >
</g>
<g >
</g>
<g >
</g>
<g >
</g>
<g >
</g>
<g >
</g>
<g >
</g>
<g >
</g>
<g >
</g>
<g >
</g>
<g >
</g>
<g >
</g>
<g >
</g>
<g >
</g>
<g >
</g>
<g >
</g>
<g >
</g>
<g >
</g>
<g >
</g>
<g >
</g>
<g >
</g>
<g >
</g>
<g >
</g>
<g >
</g>
<g >
</g>
<g >
</g>
<g >
</g>
<g >
</g>
<g >
</g>
<g >
</g>
</g> 
</svg>
