%TF.GenerationSoftware,KiCad,Pcbnew,(5.1.8)-1*%
%TF.CreationDate,2022-01-07T12:39:40-05:00*%
%TF.ProjectId,OCE_L,4f43455f-4c2e-46b6-9963-61645f706362,rev?*%
%TF.SameCoordinates,Original*%
%TF.FileFunction,Soldermask,Bot*%
%TF.FilePolarity,Negative*%
%FSLAX46Y46*%
G04 Gerber Fmt 4.6, Leading zero omitted, Abs format (unit mm)*
G04 Created by KiCad (PCBNEW (5.1.8)-1) date 2022-01-07 12:39:40*
%MOMM*%
%LPD*%
G01*
G04 APERTURE LIST*
%ADD10O,2.000000X5.000000*%
%ADD11C,1.308000*%
%ADD12C,1.208000*%
%ADD13O,1.700000X1.700000*%
%ADD14R,1.700000X1.700000*%
%ADD15C,1.524000*%
%ADD16C,1.397000*%
%ADD17C,1.549400*%
%ADD18C,3.759200*%
%ADD19C,2.108200*%
%ADD20O,1.600000X1.600000*%
%ADD21R,1.600000X1.600000*%
%ADD22C,1.219200*%
%ADD23C,17.780001*%
%ADD24R,5.080000X2.794000*%
%ADD25C,1.803400*%
G04 APERTURE END LIST*
D10*
%TO.C,J2*%
X137698200Y-134416800D03*
X143898200Y-134416800D03*
G36*
G01*
X142398200Y-130716800D02*
X139398200Y-130716800D01*
G75*
G02*
X138398200Y-129716800I0J1000000D01*
G01*
X138398200Y-129716800D01*
G75*
G02*
X139398200Y-128716800I1000000J0D01*
G01*
X142398200Y-128716800D01*
G75*
G02*
X143398200Y-129716800I0J-1000000D01*
G01*
X143398200Y-129716800D01*
G75*
G02*
X142398200Y-130716800I-1000000J0D01*
G01*
G37*
%TD*%
D11*
%TO.C,IC1*%
X89535000Y-63373000D03*
X92075000Y-63373000D03*
X94615000Y-63373000D03*
X97155000Y-63373000D03*
X99695000Y-63373000D03*
X102235000Y-63373000D03*
X104775000Y-63373000D03*
X107315000Y-63373000D03*
X109855000Y-63373000D03*
X109855000Y-78613000D03*
X107315000Y-78613000D03*
X104775000Y-78613000D03*
X102235000Y-78613000D03*
X99695000Y-78613000D03*
X97155000Y-78613000D03*
X94615000Y-78613000D03*
X92075000Y-78613000D03*
X89535000Y-78613000D03*
X51435000Y-63373000D03*
X53975000Y-63373000D03*
X56515000Y-63373000D03*
X59055000Y-63373000D03*
X61595000Y-63373000D03*
X64135000Y-63373000D03*
X66675000Y-63373000D03*
X69215000Y-63373000D03*
X71755000Y-63373000D03*
X74295000Y-63373000D03*
X76835000Y-63373000D03*
X79375000Y-63373000D03*
X81915000Y-63373000D03*
X84455000Y-63373000D03*
X86995000Y-78613000D03*
X84455000Y-78613000D03*
X81915000Y-78613000D03*
X79375000Y-78613000D03*
X76835000Y-78613000D03*
X74295000Y-78613000D03*
X71755000Y-78613000D03*
X69215000Y-78613000D03*
X66675000Y-78613000D03*
X64135000Y-78613000D03*
X61595000Y-78613000D03*
X59055000Y-78613000D03*
X56515000Y-78613000D03*
D12*
X64405000Y-69823000D03*
X64405000Y-67823000D03*
X66405000Y-69823000D03*
X66405000Y-67823000D03*
X64405000Y-65823000D03*
X66405000Y-65823000D03*
D11*
X86995000Y-63373000D03*
X97155000Y-76073000D03*
X53975000Y-78613000D03*
X51435000Y-78613000D03*
%TD*%
D13*
%TO.C,J6*%
X134874000Y-40767000D03*
X132334000Y-40767000D03*
D14*
X129794000Y-40767000D03*
%TD*%
D13*
%TO.C,J4*%
X62611000Y-40767000D03*
X62611000Y-43307000D03*
X65151000Y-40767000D03*
X65151000Y-43307000D03*
X67691000Y-40767000D03*
X67691000Y-43307000D03*
X70231000Y-40767000D03*
X70231000Y-43307000D03*
X72771000Y-40767000D03*
X72771000Y-43307000D03*
X75311000Y-40767000D03*
X75311000Y-43307000D03*
X77851000Y-40767000D03*
X77851000Y-43307000D03*
X80391000Y-40767000D03*
X80391000Y-43307000D03*
X82931000Y-40767000D03*
X82931000Y-43307000D03*
X85471000Y-40767000D03*
X85471000Y-43307000D03*
X88011000Y-40767000D03*
X88011000Y-43307000D03*
X90551000Y-40767000D03*
D14*
X90551000Y-43307000D03*
%TD*%
D13*
%TO.C,J3*%
X124714000Y-40767000D03*
X122174000Y-40767000D03*
X119634000Y-40767000D03*
X117094000Y-40767000D03*
X124714000Y-43307000D03*
X122174000Y-43307000D03*
X119634000Y-43307000D03*
D14*
X117094000Y-43307000D03*
%TD*%
D15*
%TO.C,K2*%
X64932000Y-136968000D03*
X42932000Y-136968000D03*
X67732000Y-124968000D03*
X40132000Y-124968000D03*
%TD*%
D16*
%TO.C,J9*%
X51308000Y-58908010D03*
X48768000Y-58908010D03*
X46228000Y-58908010D03*
X43688000Y-58908010D03*
X52578000Y-56368010D03*
X50038000Y-56368010D03*
X47498000Y-56368010D03*
X44958000Y-56368010D03*
D17*
X54458000Y-44918010D03*
X51918000Y-46638010D03*
X44348000Y-44938010D03*
X41808000Y-46638010D03*
D18*
X53848000Y-49998010D03*
X42418000Y-49998010D03*
D19*
X56007998Y-53048010D03*
X40258002Y-53048010D03*
%TD*%
D20*
%TO.C,U3*%
X132715000Y-72390000D03*
X117475000Y-62230000D03*
X130175000Y-72390000D03*
X120015000Y-62230000D03*
X127635000Y-72390000D03*
X122555000Y-62230000D03*
X125095000Y-72390000D03*
X125095000Y-62230000D03*
X122555000Y-72390000D03*
X127635000Y-62230000D03*
X120015000Y-72390000D03*
X130175000Y-62230000D03*
X117475000Y-72390000D03*
D21*
X132715000Y-62230000D03*
%TD*%
D15*
%TO.C,K1*%
X98460000Y-136968000D03*
X76460000Y-136968000D03*
X101260000Y-124968000D03*
X73660000Y-124968000D03*
%TD*%
D22*
%TO.C,RV1*%
X127635000Y-60299600D03*
X130175000Y-57759600D03*
X132715000Y-60299600D03*
%TD*%
%TO.C,RV2*%
X121920000Y-57150000D03*
X119380000Y-59690000D03*
X116840000Y-57150000D03*
%TD*%
D13*
%TO.C,J5*%
X40259000Y-105664000D03*
X42799000Y-105664000D03*
X40259000Y-103124000D03*
X42799000Y-103124000D03*
X40259000Y-100584000D03*
X42799000Y-100584000D03*
X40259000Y-98044000D03*
X42799000Y-98044000D03*
X40259000Y-95504000D03*
X42799000Y-95504000D03*
X40259000Y-92964000D03*
X42799000Y-92964000D03*
X40259000Y-90424000D03*
X42799000Y-90424000D03*
X40259000Y-87884000D03*
X42799000Y-87884000D03*
X40259000Y-85344000D03*
X42799000Y-85344000D03*
X40259000Y-82804000D03*
D14*
X42799000Y-82804000D03*
%TD*%
D13*
%TO.C,J10*%
X40259000Y-114300000D03*
X42799000Y-114300000D03*
X40259000Y-111760000D03*
X42799000Y-111760000D03*
X40259000Y-109220000D03*
D14*
X42799000Y-109220000D03*
%TD*%
D13*
%TO.C,J11*%
X147675600Y-40894000D03*
D14*
X145135600Y-40894000D03*
%TD*%
D23*
%TO.C,B1*%
X82043001Y-98933000D03*
D24*
X82043001Y-87948000D03*
X82043001Y-109918000D03*
%TD*%
D25*
%TO.C,J1*%
X127025400Y-134391400D03*
X122025400Y-134391400D03*
%TD*%
D14*
%TO.C,J7*%
X144208500Y-66929000D03*
D13*
X144208500Y-64389000D03*
X144208500Y-61849000D03*
%TD*%
M02*
