%FSLAX45Y45*%
G04 Gerber Fmt 4.5, Leading zero omitted, Abs format (unit mm)*
G04 Created by KiCad (PCBNEW (5.1.8)-1) date 2022-01-07 12:24:24*
%MOMM*%
%LPD*%
G01*
G04 APERTURE LIST*
%TA.AperFunction,Profile*%
%ADD10C,0.050000*%
%TD*%
%TA.AperFunction,Profile*%
%ADD11C,0.150000*%
%TD*%
%ADD12C,0.200000*%
%ADD13C,0.300000*%
G04 APERTURE END LIST*
D10*
X3810000Y-3810000D02*
X15240000Y-3810000D01*
X15240000Y-13970000D02*
X3810000Y-13970000D01*
X15240000Y-3810000D02*
X15240000Y-13970000D01*
D11*
X3810000Y-13970000D02*
X3810000Y-3810000D01*
D12*
X4234500Y-5396951D02*
X4274500Y-5436951D01*
X4274500Y-5396951D02*
X4234500Y-5436951D01*
X4493580Y-7920040D02*
X4533580Y-7960040D01*
X4533580Y-7920040D02*
X4493580Y-7960040D01*
X4493580Y-10170480D02*
X4533580Y-10210480D01*
X4533580Y-10170480D02*
X4493580Y-10210480D01*
X4493580Y-11023920D02*
X4533580Y-11063920D01*
X4533580Y-11023920D02*
X4493580Y-11063920D01*
X4513900Y-12184700D02*
X4553900Y-12224700D01*
X4553900Y-12184700D02*
X4513900Y-12224700D01*
X4704400Y-11564940D02*
X4744400Y-11604940D01*
X4744400Y-11564940D02*
X4704400Y-11604940D01*
X4714560Y-11013760D02*
X4754560Y-11053760D01*
X4754560Y-11013760D02*
X4714560Y-11053760D01*
X4717100Y-12184700D02*
X4757100Y-12224700D01*
X4757100Y-12184700D02*
X4717100Y-12224700D01*
X4854260Y-11013760D02*
X4894260Y-11053760D01*
X4894260Y-11013760D02*
X4854260Y-11053760D01*
X4856800Y-11564940D02*
X4896800Y-11604940D01*
X4896800Y-11564940D02*
X4856800Y-11604940D01*
X5314000Y-5910900D02*
X5354000Y-5950900D01*
X5354000Y-5910900D02*
X5314000Y-5950900D01*
X5314000Y-6012500D02*
X5354000Y-6052500D01*
X5354000Y-6012500D02*
X5314000Y-6052500D01*
X5415600Y-5910900D02*
X5455600Y-5950900D01*
X5455600Y-5910900D02*
X5415600Y-5950900D01*
X5415600Y-6012500D02*
X5455600Y-6052500D01*
X5455600Y-6012500D02*
X5415600Y-6052500D01*
X5466400Y-10533700D02*
X5506400Y-10573700D01*
X5506400Y-10533700D02*
X5466400Y-10573700D01*
X5517200Y-5910900D02*
X5557200Y-5950900D01*
X5557200Y-5910900D02*
X5517200Y-5950900D01*
X5517200Y-6012500D02*
X5557200Y-6052500D01*
X5557200Y-6012500D02*
X5517200Y-6052500D01*
X5809300Y-5453700D02*
X5849300Y-5493700D01*
X5849300Y-5453700D02*
X5809300Y-5493700D01*
X6012500Y-5606100D02*
X6052500Y-5646100D01*
X6052500Y-5606100D02*
X6012500Y-5646100D01*
X6037900Y-4971100D02*
X6077900Y-5011100D01*
X6077900Y-4971100D02*
X6037900Y-5011100D01*
X6342700Y-4971100D02*
X6382700Y-5011100D01*
X6382700Y-4971100D02*
X6342700Y-5011100D01*
X6380800Y-5491800D02*
X6420800Y-5531800D01*
X6420800Y-5491800D02*
X6380800Y-5531800D01*
X6647500Y-4971100D02*
X6687500Y-5011100D01*
X6687500Y-4971100D02*
X6647500Y-5011100D01*
X6736400Y-5479100D02*
X6776400Y-5519100D01*
X6776400Y-5479100D02*
X6736400Y-5519100D01*
X6749100Y-8755700D02*
X6789100Y-8795700D01*
X6789100Y-8755700D02*
X6749100Y-8795700D01*
X6761800Y-8552500D02*
X6801800Y-8592500D01*
X6801800Y-8552500D02*
X6761800Y-8592500D01*
X6812600Y-8654100D02*
X6852600Y-8694100D01*
X6852600Y-8654100D02*
X6812600Y-8694100D01*
X6876100Y-8552500D02*
X6916100Y-8592500D01*
X6916100Y-8552500D02*
X6876100Y-8592500D01*
X6876100Y-8755700D02*
X6916100Y-8795700D01*
X6916100Y-8755700D02*
X6876100Y-8795700D01*
X6939600Y-8654100D02*
X6979600Y-8694100D01*
X6979600Y-8654100D02*
X6939600Y-8694100D01*
X6952300Y-4971100D02*
X6992300Y-5011100D01*
X6992300Y-4971100D02*
X6952300Y-5011100D01*
X6990400Y-8552500D02*
X7030400Y-8592500D01*
X7030400Y-8552500D02*
X6990400Y-8592500D01*
X6990400Y-8755700D02*
X7030400Y-8795700D01*
X7030400Y-8755700D02*
X6990400Y-8795700D01*
X7053900Y-8654100D02*
X7093900Y-8694100D01*
X7093900Y-8654100D02*
X7053900Y-8694100D01*
X7066600Y-5479100D02*
X7106600Y-5519100D01*
X7106600Y-5479100D02*
X7066600Y-5519100D01*
X7104700Y-8552500D02*
X7144700Y-8592500D01*
X7144700Y-8552500D02*
X7104700Y-8592500D01*
X7104700Y-8755700D02*
X7144700Y-8795700D01*
X7144700Y-8755700D02*
X7104700Y-8795700D01*
X7168200Y-8654100D02*
X7208200Y-8694100D01*
X7208200Y-8654100D02*
X7168200Y-8694100D01*
X7219000Y-8552500D02*
X7259000Y-8592500D01*
X7259000Y-8552500D02*
X7219000Y-8592500D01*
X7231700Y-8755700D02*
X7271700Y-8795700D01*
X7271700Y-8755700D02*
X7231700Y-8795700D01*
X7257100Y-4971100D02*
X7297100Y-5011100D01*
X7297100Y-4971100D02*
X7257100Y-5011100D01*
X7384100Y-5479100D02*
X7424100Y-5519100D01*
X7424100Y-5479100D02*
X7384100Y-5519100D01*
X7561900Y-4971100D02*
X7601900Y-5011100D01*
X7601900Y-4971100D02*
X7561900Y-5011100D01*
X7663500Y-5479100D02*
X7703500Y-5519100D01*
X7703500Y-5479100D02*
X7663500Y-5519100D01*
X7866700Y-4971100D02*
X7906700Y-5011100D01*
X7906700Y-4971100D02*
X7866700Y-5011100D01*
X7968300Y-5491800D02*
X8008300Y-5531800D01*
X8008300Y-5491800D02*
X7968300Y-5531800D01*
X8019100Y-12451400D02*
X8059100Y-12491400D01*
X8059100Y-12451400D02*
X8019100Y-12491400D01*
X8044500Y-11816400D02*
X8084500Y-11856400D01*
X8084500Y-11816400D02*
X8044500Y-11856400D01*
X8171500Y-4971100D02*
X8211500Y-5011100D01*
X8211500Y-4971100D02*
X8171500Y-5011100D01*
X8196900Y-11816400D02*
X8236900Y-11856400D01*
X8236900Y-11816400D02*
X8196900Y-11856400D01*
X8196900Y-12451400D02*
X8236900Y-12491400D01*
X8236900Y-12451400D02*
X8196900Y-12491400D01*
X8323900Y-5491800D02*
X8363900Y-5531800D01*
X8363900Y-5491800D02*
X8323900Y-5531800D01*
X8362000Y-11816400D02*
X8402000Y-11856400D01*
X8402000Y-11816400D02*
X8362000Y-11856400D01*
X8362000Y-12451400D02*
X8402000Y-12491400D01*
X8402000Y-12451400D02*
X8362000Y-12491400D01*
X8476300Y-4971100D02*
X8516300Y-5011100D01*
X8516300Y-4971100D02*
X8476300Y-5011100D01*
X8628700Y-5491800D02*
X8668700Y-5531800D01*
X8668700Y-5491800D02*
X8628700Y-5531800D01*
X8628700Y-5936300D02*
X8668700Y-5976300D01*
X8668700Y-5936300D02*
X8628700Y-5976300D01*
X8628700Y-8476300D02*
X8668700Y-8516300D01*
X8668700Y-8476300D02*
X8628700Y-8516300D01*
X8692200Y-5847400D02*
X8732200Y-5887400D01*
X8732200Y-5847400D02*
X8692200Y-5887400D01*
X8755700Y-5936300D02*
X8795700Y-5976300D01*
X8795700Y-5936300D02*
X8755700Y-5976300D01*
X8781100Y-4971100D02*
X8821100Y-5011100D01*
X8821100Y-4971100D02*
X8781100Y-5011100D01*
X8908100Y-5479100D02*
X8948100Y-5519100D01*
X8948100Y-5479100D02*
X8908100Y-5519100D01*
X9085900Y-4971100D02*
X9125900Y-5011100D01*
X9125900Y-4971100D02*
X9085900Y-5011100D01*
X9212900Y-5479100D02*
X9252900Y-5519100D01*
X9252900Y-5479100D02*
X9212900Y-5519100D01*
X9390700Y-4971100D02*
X9430700Y-5011100D01*
X9430700Y-4971100D02*
X9390700Y-5011100D01*
X9644700Y-10350820D02*
X9684700Y-10390820D01*
X9684700Y-10350820D02*
X9644700Y-10390820D01*
X10800400Y-9715820D02*
X10840400Y-9755820D01*
X10840400Y-9715820D02*
X10800400Y-9755820D01*
X10975660Y-7147880D02*
X11015660Y-7187880D01*
X11015660Y-7147880D02*
X10975660Y-7187880D01*
X10975660Y-7358700D02*
X11015660Y-7398700D01*
X11015660Y-7358700D02*
X10975660Y-7398700D01*
X10975660Y-7533960D02*
X11015660Y-7573960D01*
X11015660Y-7533960D02*
X10975660Y-7573960D01*
X11905300Y-10673400D02*
X11945300Y-10713400D01*
X11945300Y-10673400D02*
X11905300Y-10713400D01*
X12103420Y-7643180D02*
X12143420Y-7683180D01*
X12143420Y-7643180D02*
X12103420Y-7683180D01*
X12232960Y-5273360D02*
X12272960Y-5313360D01*
X12272960Y-5273360D02*
X12232960Y-5313360D01*
X12232960Y-5415600D02*
X12272960Y-5455600D01*
X12272960Y-5415600D02*
X12232960Y-5455600D01*
X12461560Y-7965760D02*
X12501560Y-8005760D01*
X12501560Y-7965760D02*
X12461560Y-8005760D01*
X12464100Y-7810820D02*
X12504100Y-7850820D01*
X12504100Y-7810820D02*
X12464100Y-7850820D01*
X12469180Y-7660960D02*
X12509180Y-7700960D01*
X12509180Y-7660960D02*
X12469180Y-7700960D01*
X12766360Y-5128580D02*
X12806360Y-5168580D01*
X12806360Y-5128580D02*
X12766360Y-5168580D01*
X12768900Y-4945700D02*
X12808900Y-4985700D01*
X12808900Y-4945700D02*
X12768900Y-4985700D01*
X12771440Y-4772980D02*
X12811440Y-4812980D01*
X12811440Y-4772980D02*
X12771440Y-4812980D01*
X13289600Y-5453700D02*
X13329600Y-5493700D01*
X13329600Y-5453700D02*
X13289600Y-5493700D01*
X13581700Y-12293920D02*
X13621700Y-12333920D01*
X13621700Y-12293920D02*
X13581700Y-12333920D01*
X13586780Y-12078020D02*
X13626780Y-12118020D01*
X13626780Y-12078020D02*
X13586780Y-12118020D01*
X13694199Y-6458801D02*
X13734199Y-6498801D01*
X13734199Y-6458801D02*
X13694199Y-6498801D01*
X13696000Y-6302060D02*
X13736000Y-6342060D01*
X13736000Y-6302060D02*
X13696000Y-6342060D01*
X13701250Y-6163800D02*
X13741250Y-6203800D01*
X13741250Y-6163800D02*
X13701250Y-6203800D01*
X13713780Y-12286300D02*
X13753780Y-12326300D01*
X13753780Y-12286300D02*
X13713780Y-12326300D01*
X13716320Y-12078020D02*
X13756320Y-12118020D01*
X13756320Y-12078020D02*
X13716320Y-12118020D01*
X13945000Y-11862200D02*
X13985000Y-11902200D01*
X13985000Y-11862200D02*
X13945000Y-11902200D01*
X14026200Y-5453700D02*
X14066200Y-5493700D01*
X14066200Y-5453700D02*
X14026200Y-5493700D01*
X14178600Y-12375200D02*
X14218600Y-12415200D01*
X14218600Y-12375200D02*
X14178600Y-12415200D01*
X15042200Y-11765600D02*
X15082200Y-11805600D01*
X15082200Y-11765600D02*
X15042200Y-11805600D01*
X6475500Y-6582300D02*
G75*
G03*
X6475500Y-6582300I-35000J0D01*
G01*
X6475500Y-6782300D02*
G75*
G03*
X6475500Y-6782300I-35000J0D01*
G01*
X6475500Y-6982300D02*
G75*
G03*
X6475500Y-6982300I-35000J0D01*
G01*
X6675500Y-6582300D02*
G75*
G03*
X6675500Y-6582300I-35000J0D01*
G01*
X6675500Y-6782300D02*
G75*
G03*
X6675500Y-6782300I-35000J0D01*
G01*
X6675500Y-6982300D02*
G75*
G03*
X6675500Y-6982300I-35000J0D01*
G01*
X12763500Y-5994400D02*
X12763500Y-6065520D01*
X12727940Y-6029960D02*
X12799060Y-6029960D01*
X13017500Y-5740400D02*
X13017500Y-5811520D01*
X12981940Y-5775960D02*
X13053060Y-5775960D01*
X13271500Y-5994400D02*
X13271500Y-6065520D01*
X13235940Y-6029960D02*
X13307060Y-6029960D01*
X11684000Y-5679440D02*
X11684000Y-5750560D01*
X11648440Y-5715000D02*
X11719560Y-5715000D01*
X11938000Y-5933440D02*
X11938000Y-6004560D01*
X11902440Y-5969000D02*
X11973560Y-5969000D01*
X12192000Y-5679440D02*
X12192000Y-5750560D01*
X12156440Y-5715000D02*
X12227560Y-5715000D01*
X7392941Y-12523741D02*
X7392941Y-12469859D01*
X7339059Y-12469859D01*
X7339059Y-12523741D01*
X7392941Y-12523741D01*
X7672941Y-13723741D02*
X7672941Y-13669859D01*
X7619059Y-13669859D01*
X7619059Y-13723741D01*
X7672941Y-13723741D01*
X9872941Y-13723741D02*
X9872941Y-13669859D01*
X9819059Y-13669859D01*
X9819059Y-13723741D01*
X9872941Y-13723741D01*
X10152941Y-12523741D02*
X10152941Y-12469859D01*
X10099059Y-12469859D01*
X10099059Y-12523741D01*
X10152941Y-12523741D01*
X4040141Y-12523741D02*
X4040141Y-12469859D01*
X3986259Y-12469859D01*
X3986259Y-12523741D01*
X4040141Y-12523741D01*
X4320141Y-13723741D02*
X4320141Y-13669859D01*
X4266259Y-13669859D01*
X4266259Y-13723741D01*
X4320141Y-13723741D01*
X6520141Y-13723741D02*
X6520141Y-13669859D01*
X6466259Y-13669859D01*
X6466259Y-13723741D01*
X6520141Y-13723741D01*
X6800141Y-12523741D02*
X6800141Y-12469859D01*
X6746259Y-12469859D01*
X6746259Y-12523741D01*
X6800141Y-12523741D01*
X11747500Y-6263000D02*
X11787500Y-6223000D01*
X11747500Y-6183000D01*
X11707500Y-6223000D01*
X11747500Y-6263000D01*
X11747500Y-7279000D02*
X11787500Y-7239000D01*
X11747500Y-7199000D01*
X11707500Y-7239000D01*
X11747500Y-7279000D01*
X12001500Y-6263000D02*
X12041500Y-6223000D01*
X12001500Y-6183000D01*
X11961500Y-6223000D01*
X12001500Y-6263000D01*
X12001500Y-7279000D02*
X12041500Y-7239000D01*
X12001500Y-7199000D01*
X11961500Y-7239000D01*
X12001500Y-7279000D01*
X12255500Y-6263000D02*
X12295500Y-6223000D01*
X12255500Y-6183000D01*
X12215500Y-6223000D01*
X12255500Y-6263000D01*
X12255500Y-7279000D02*
X12295500Y-7239000D01*
X12255500Y-7199000D01*
X12215500Y-7239000D01*
X12255500Y-7279000D01*
X12509500Y-6263000D02*
X12549500Y-6223000D01*
X12509500Y-6183000D01*
X12469500Y-6223000D01*
X12509500Y-6263000D01*
X12509500Y-7279000D02*
X12549500Y-7239000D01*
X12509500Y-7199000D01*
X12469500Y-7239000D01*
X12509500Y-7279000D01*
X12763500Y-6263000D02*
X12803500Y-6223000D01*
X12763500Y-6183000D01*
X12723500Y-6223000D01*
X12763500Y-6263000D01*
X12763500Y-7279000D02*
X12803500Y-7239000D01*
X12763500Y-7199000D01*
X12723500Y-7239000D01*
X12763500Y-7279000D01*
X13017500Y-6263000D02*
X13057500Y-6223000D01*
X13017500Y-6183000D01*
X12977500Y-6223000D01*
X13017500Y-6263000D01*
X13017500Y-7279000D02*
X13057500Y-7239000D01*
X13017500Y-7199000D01*
X12977500Y-7239000D01*
X13017500Y-7279000D01*
X13271500Y-6263000D02*
X13311500Y-6223000D01*
X13271500Y-6183000D01*
X13231500Y-6223000D01*
X13271500Y-6263000D01*
X13271500Y-7279000D02*
X13311500Y-7239000D01*
X13271500Y-7199000D01*
X13231500Y-7239000D01*
X13271500Y-7279000D01*
X5143500Y-6377300D02*
X5183500Y-6337300D01*
X5143500Y-6297300D01*
X5103500Y-6337300D01*
X5143500Y-6377300D01*
X5143500Y-7901300D02*
X5183500Y-7861300D01*
X5143500Y-7821300D01*
X5103500Y-7861300D01*
X5143500Y-7901300D01*
X5397500Y-6377300D02*
X5437500Y-6337300D01*
X5397500Y-6297300D01*
X5357500Y-6337300D01*
X5397500Y-6377300D01*
X5397500Y-7901300D02*
X5437500Y-7861300D01*
X5397500Y-7821300D01*
X5357500Y-7861300D01*
X5397500Y-7901300D01*
X5651500Y-6377300D02*
X5691500Y-6337300D01*
X5651500Y-6297300D01*
X5611500Y-6337300D01*
X5651500Y-6377300D01*
X5651500Y-7901300D02*
X5691500Y-7861300D01*
X5651500Y-7821300D01*
X5611500Y-7861300D01*
X5651500Y-7901300D01*
X5905500Y-6377300D02*
X5945500Y-6337300D01*
X5905500Y-6297300D01*
X5865500Y-6337300D01*
X5905500Y-6377300D01*
X5905500Y-7901300D02*
X5945500Y-7861300D01*
X5905500Y-7821300D01*
X5865500Y-7861300D01*
X5905500Y-7901300D01*
X6159500Y-6377300D02*
X6199500Y-6337300D01*
X6159500Y-6297300D01*
X6119500Y-6337300D01*
X6159500Y-6377300D01*
X6159500Y-7901300D02*
X6199500Y-7861300D01*
X6159500Y-7821300D01*
X6119500Y-7861300D01*
X6159500Y-7901300D01*
X6413500Y-6377300D02*
X6453500Y-6337300D01*
X6413500Y-6297300D01*
X6373500Y-6337300D01*
X6413500Y-6377300D01*
X6413500Y-7901300D02*
X6453500Y-7861300D01*
X6413500Y-7821300D01*
X6373500Y-7861300D01*
X6413500Y-7901300D01*
X6667500Y-6377300D02*
X6707500Y-6337300D01*
X6667500Y-6297300D01*
X6627500Y-6337300D01*
X6667500Y-6377300D01*
X6667500Y-7901300D02*
X6707500Y-7861300D01*
X6667500Y-7821300D01*
X6627500Y-7861300D01*
X6667500Y-7901300D01*
X6921500Y-6377300D02*
X6961500Y-6337300D01*
X6921500Y-6297300D01*
X6881500Y-6337300D01*
X6921500Y-6377300D01*
X6921500Y-7901300D02*
X6961500Y-7861300D01*
X6921500Y-7821300D01*
X6881500Y-7861300D01*
X6921500Y-7901300D01*
X7175500Y-6377300D02*
X7215500Y-6337300D01*
X7175500Y-6297300D01*
X7135500Y-6337300D01*
X7175500Y-6377300D01*
X7175500Y-7901300D02*
X7215500Y-7861300D01*
X7175500Y-7821300D01*
X7135500Y-7861300D01*
X7175500Y-7901300D01*
X7429500Y-6377300D02*
X7469500Y-6337300D01*
X7429500Y-6297300D01*
X7389500Y-6337300D01*
X7429500Y-6377300D01*
X7429500Y-7901300D02*
X7469500Y-7861300D01*
X7429500Y-7821300D01*
X7389500Y-7861300D01*
X7429500Y-7901300D01*
X7683500Y-6377300D02*
X7723500Y-6337300D01*
X7683500Y-6297300D01*
X7643500Y-6337300D01*
X7683500Y-6377300D01*
X7683500Y-7901300D02*
X7723500Y-7861300D01*
X7683500Y-7821300D01*
X7643500Y-7861300D01*
X7683500Y-7901300D01*
X7937500Y-6377300D02*
X7977500Y-6337300D01*
X7937500Y-6297300D01*
X7897500Y-6337300D01*
X7937500Y-6377300D01*
X7937500Y-7901300D02*
X7977500Y-7861300D01*
X7937500Y-7821300D01*
X7897500Y-7861300D01*
X7937500Y-7901300D01*
X8191500Y-6377300D02*
X8231500Y-6337300D01*
X8191500Y-6297300D01*
X8151500Y-6337300D01*
X8191500Y-6377300D01*
X8191500Y-7901300D02*
X8231500Y-7861300D01*
X8191500Y-7821300D01*
X8151500Y-7861300D01*
X8191500Y-7901300D01*
X8445500Y-6377300D02*
X8485500Y-6337300D01*
X8445500Y-6297300D01*
X8405500Y-6337300D01*
X8445500Y-6377300D01*
X8445500Y-7901300D02*
X8485500Y-7861300D01*
X8445500Y-7821300D01*
X8405500Y-7861300D01*
X8445500Y-7901300D01*
X8699500Y-6377300D02*
X8739500Y-6337300D01*
X8699500Y-6297300D01*
X8659500Y-6337300D01*
X8699500Y-6377300D01*
X8699500Y-7901300D02*
X8739500Y-7861300D01*
X8699500Y-7821300D01*
X8659500Y-7861300D01*
X8699500Y-7901300D01*
X8953500Y-6377300D02*
X8993500Y-6337300D01*
X8953500Y-6297300D01*
X8913500Y-6337300D01*
X8953500Y-6377300D01*
X8953500Y-7901300D02*
X8993500Y-7861300D01*
X8953500Y-7821300D01*
X8913500Y-7861300D01*
X8953500Y-7901300D01*
X9207500Y-6377300D02*
X9247500Y-6337300D01*
X9207500Y-6297300D01*
X9167500Y-6337300D01*
X9207500Y-6377300D01*
X9207500Y-7901300D02*
X9247500Y-7861300D01*
X9207500Y-7821300D01*
X9167500Y-7861300D01*
X9207500Y-7901300D01*
X9461500Y-6377300D02*
X9501500Y-6337300D01*
X9461500Y-6297300D01*
X9421500Y-6337300D01*
X9461500Y-6377300D01*
X9461500Y-7901300D02*
X9501500Y-7861300D01*
X9461500Y-7821300D01*
X9421500Y-7861300D01*
X9461500Y-7901300D01*
X9715500Y-6377300D02*
X9755500Y-6337300D01*
X9715500Y-6297300D01*
X9675500Y-6337300D01*
X9715500Y-6377300D01*
X9715500Y-7647300D02*
X9755500Y-7607300D01*
X9715500Y-7567300D01*
X9675500Y-7607300D01*
X9715500Y-7647300D01*
X9715500Y-7901300D02*
X9755500Y-7861300D01*
X9715500Y-7821300D01*
X9675500Y-7861300D01*
X9715500Y-7901300D01*
X9969500Y-6377300D02*
X10009500Y-6337300D01*
X9969500Y-6297300D01*
X9929500Y-6337300D01*
X9969500Y-6377300D01*
X9969500Y-7901300D02*
X10009500Y-7861300D01*
X9969500Y-7821300D01*
X9929500Y-7861300D01*
X9969500Y-7901300D01*
X10223500Y-6377300D02*
X10263500Y-6337300D01*
X10223500Y-6297300D01*
X10183500Y-6337300D01*
X10223500Y-6377300D01*
X10223500Y-7901300D02*
X10263500Y-7861300D01*
X10223500Y-7821300D01*
X10183500Y-7861300D01*
X10223500Y-7901300D01*
X10477500Y-6377300D02*
X10517500Y-6337300D01*
X10477500Y-6297300D01*
X10437500Y-6337300D01*
X10477500Y-6377300D01*
X10477500Y-7901300D02*
X10517500Y-7861300D01*
X10477500Y-7821300D01*
X10437500Y-7861300D01*
X10477500Y-7901300D01*
X10731500Y-6377300D02*
X10771500Y-6337300D01*
X10731500Y-6297300D01*
X10691500Y-6337300D01*
X10731500Y-6377300D01*
X10731500Y-7901300D02*
X10771500Y-7861300D01*
X10731500Y-7821300D01*
X10691500Y-7861300D01*
X10731500Y-7901300D01*
X10985500Y-6377300D02*
X11025500Y-6337300D01*
X10985500Y-6297300D01*
X10945500Y-6337300D01*
X10985500Y-6377300D01*
X10985500Y-7901300D02*
X11025500Y-7861300D01*
X10985500Y-7821300D01*
X10945500Y-7861300D01*
X10985500Y-7901300D01*
X4324350Y-5846351D02*
X4413250Y-5935251D01*
X4413250Y-5846351D02*
X4324350Y-5935251D01*
X4413250Y-5890801D02*
G75*
G03*
X4413250Y-5890801I-44450J0D01*
G01*
X4451350Y-5592351D02*
X4540250Y-5681251D01*
X4540250Y-5592351D02*
X4451350Y-5681251D01*
X4540250Y-5636801D02*
G75*
G03*
X4540250Y-5636801I-44450J0D01*
G01*
X4578350Y-5846351D02*
X4667250Y-5935251D01*
X4667250Y-5846351D02*
X4578350Y-5935251D01*
X4667250Y-5890801D02*
G75*
G03*
X4667250Y-5890801I-44450J0D01*
G01*
X4705350Y-5592351D02*
X4794250Y-5681251D01*
X4794250Y-5592351D02*
X4705350Y-5681251D01*
X4794250Y-5636801D02*
G75*
G03*
X4794250Y-5636801I-44450J0D01*
G01*
X4832350Y-5846351D02*
X4921250Y-5935251D01*
X4921250Y-5846351D02*
X4832350Y-5935251D01*
X4921250Y-5890801D02*
G75*
G03*
X4921250Y-5890801I-44450J0D01*
G01*
X4959350Y-5592351D02*
X5048250Y-5681251D01*
X5048250Y-5592351D02*
X4959350Y-5681251D01*
X5048250Y-5636801D02*
G75*
G03*
X5048250Y-5636801I-44450J0D01*
G01*
X5086350Y-5846351D02*
X5175250Y-5935251D01*
X5175250Y-5846351D02*
X5086350Y-5935251D01*
X5175250Y-5890801D02*
G75*
G03*
X5175250Y-5890801I-44450J0D01*
G01*
X5213350Y-5592351D02*
X5302250Y-5681251D01*
X5302250Y-5592351D02*
X5213350Y-5681251D01*
X5302250Y-5636801D02*
G75*
G03*
X5302250Y-5636801I-44450J0D01*
G01*
X10770400Y-11075200D02*
X10870400Y-11175200D01*
X10870400Y-11075200D02*
X10770400Y-11175200D01*
X10820400Y-11075200D02*
X10820400Y-11175200D01*
X10770400Y-11125200D02*
X10870400Y-11125200D01*
X10770400Y-11291100D02*
X10870400Y-11391100D01*
X10870400Y-11291100D02*
X10770400Y-11391100D01*
X10820400Y-11291100D02*
X10820400Y-11391100D01*
X10770400Y-11341100D02*
X10870400Y-11341100D01*
X10770400Y-11519700D02*
X10870400Y-11619700D01*
X10870400Y-11519700D02*
X10770400Y-11619700D01*
X10820400Y-11519700D02*
X10820400Y-11619700D01*
X10770400Y-11569700D02*
X10870400Y-11569700D01*
X10783100Y-10859300D02*
X10883100Y-10959300D01*
X10883100Y-10859300D02*
X10783100Y-10959300D01*
X10833100Y-10859300D02*
X10833100Y-10959300D01*
X10783100Y-10909300D02*
X10883100Y-10909300D01*
X10935500Y-10973600D02*
X11035500Y-11073600D01*
X11035500Y-10973600D02*
X10935500Y-11073600D01*
X10985500Y-10973600D02*
X10985500Y-11073600D01*
X10935500Y-11023600D02*
X11035500Y-11023600D01*
X10935500Y-11189500D02*
X11035500Y-11289500D01*
X11035500Y-11189500D02*
X10935500Y-11289500D01*
X10985500Y-11189500D02*
X10985500Y-11289500D01*
X10935500Y-11239500D02*
X11035500Y-11239500D01*
X10935500Y-11418100D02*
X11035500Y-11518100D01*
X11035500Y-11418100D02*
X10935500Y-11518100D01*
X10985500Y-11418100D02*
X10985500Y-11518100D01*
X10935500Y-11468100D02*
X11035500Y-11468100D01*
X10948200Y-10757700D02*
X11048200Y-10857700D01*
X11048200Y-10757700D02*
X10948200Y-10857700D01*
X10998200Y-10757700D02*
X10998200Y-10857700D01*
X10948200Y-10807700D02*
X11048200Y-10807700D01*
X11468900Y-10973600D02*
X11568900Y-11073600D01*
X11568900Y-10973600D02*
X11468900Y-11073600D01*
X11518900Y-10973600D02*
X11518900Y-11073600D01*
X11468900Y-11023600D02*
X11568900Y-11023600D01*
X11468900Y-11189500D02*
X11568900Y-11289500D01*
X11568900Y-11189500D02*
X11468900Y-11289500D01*
X11518900Y-11189500D02*
X11518900Y-11289500D01*
X11468900Y-11239500D02*
X11568900Y-11239500D01*
X11468900Y-11418100D02*
X11568900Y-11518100D01*
X11568900Y-11418100D02*
X11468900Y-11518100D01*
X11518900Y-11418100D02*
X11518900Y-11518100D01*
X11468900Y-11468100D02*
X11568900Y-11468100D01*
X11481600Y-10757700D02*
X11581600Y-10857700D01*
X11581600Y-10757700D02*
X11481600Y-10857700D01*
X11531600Y-10757700D02*
X11531600Y-10857700D01*
X11481600Y-10807700D02*
X11581600Y-10807700D01*
X11608600Y-11087900D02*
X11708600Y-11187900D01*
X11708600Y-11087900D02*
X11608600Y-11187900D01*
X11658600Y-11087900D02*
X11658600Y-11187900D01*
X11608600Y-11137900D02*
X11708600Y-11137900D01*
X11608600Y-11303800D02*
X11708600Y-11403800D01*
X11708600Y-11303800D02*
X11608600Y-11403800D01*
X11658600Y-11303800D02*
X11658600Y-11403800D01*
X11608600Y-11353800D02*
X11708600Y-11353800D01*
X11608600Y-11532400D02*
X11708600Y-11632400D01*
X11708600Y-11532400D02*
X11608600Y-11632400D01*
X11658600Y-11532400D02*
X11658600Y-11632400D01*
X11608600Y-11582400D02*
X11708600Y-11582400D01*
X11621300Y-10872000D02*
X11721300Y-10972000D01*
X11721300Y-10872000D02*
X11621300Y-10972000D01*
X11671300Y-10872000D02*
X11671300Y-10972000D01*
X11621300Y-10922000D02*
X11721300Y-10922000D01*
X6211100Y-4026700D02*
X6311100Y-4126700D01*
X6311100Y-4026700D02*
X6211100Y-4126700D01*
X6261100Y-4026700D02*
X6261100Y-4126700D01*
X6211100Y-4076700D02*
X6311100Y-4076700D01*
X6211100Y-4280700D02*
X6311100Y-4380700D01*
X6311100Y-4280700D02*
X6211100Y-4380700D01*
X6261100Y-4280700D02*
X6261100Y-4380700D01*
X6211100Y-4330700D02*
X6311100Y-4330700D01*
X6465100Y-4026700D02*
X6565100Y-4126700D01*
X6565100Y-4026700D02*
X6465100Y-4126700D01*
X6515100Y-4026700D02*
X6515100Y-4126700D01*
X6465100Y-4076700D02*
X6565100Y-4076700D01*
X6465100Y-4280700D02*
X6565100Y-4380700D01*
X6565100Y-4280700D02*
X6465100Y-4380700D01*
X6515100Y-4280700D02*
X6515100Y-4380700D01*
X6465100Y-4330700D02*
X6565100Y-4330700D01*
X6719100Y-4026700D02*
X6819100Y-4126700D01*
X6819100Y-4026700D02*
X6719100Y-4126700D01*
X6769100Y-4026700D02*
X6769100Y-4126700D01*
X6719100Y-4076700D02*
X6819100Y-4076700D01*
X6719100Y-4280700D02*
X6819100Y-4380700D01*
X6819100Y-4280700D02*
X6719100Y-4380700D01*
X6769100Y-4280700D02*
X6769100Y-4380700D01*
X6719100Y-4330700D02*
X6819100Y-4330700D01*
X6973100Y-4026700D02*
X7073100Y-4126700D01*
X7073100Y-4026700D02*
X6973100Y-4126700D01*
X7023100Y-4026700D02*
X7023100Y-4126700D01*
X6973100Y-4076700D02*
X7073100Y-4076700D01*
X6973100Y-4280700D02*
X7073100Y-4380700D01*
X7073100Y-4280700D02*
X6973100Y-4380700D01*
X7023100Y-4280700D02*
X7023100Y-4380700D01*
X6973100Y-4330700D02*
X7073100Y-4330700D01*
X7227100Y-4026700D02*
X7327100Y-4126700D01*
X7327100Y-4026700D02*
X7227100Y-4126700D01*
X7277100Y-4026700D02*
X7277100Y-4126700D01*
X7227100Y-4076700D02*
X7327100Y-4076700D01*
X7227100Y-4280700D02*
X7327100Y-4380700D01*
X7327100Y-4280700D02*
X7227100Y-4380700D01*
X7277100Y-4280700D02*
X7277100Y-4380700D01*
X7227100Y-4330700D02*
X7327100Y-4330700D01*
X7481100Y-4026700D02*
X7581100Y-4126700D01*
X7581100Y-4026700D02*
X7481100Y-4126700D01*
X7531100Y-4026700D02*
X7531100Y-4126700D01*
X7481100Y-4076700D02*
X7581100Y-4076700D01*
X7481100Y-4280700D02*
X7581100Y-4380700D01*
X7581100Y-4280700D02*
X7481100Y-4380700D01*
X7531100Y-4280700D02*
X7531100Y-4380700D01*
X7481100Y-4330700D02*
X7581100Y-4330700D01*
X7735100Y-4026700D02*
X7835100Y-4126700D01*
X7835100Y-4026700D02*
X7735100Y-4126700D01*
X7785100Y-4026700D02*
X7785100Y-4126700D01*
X7735100Y-4076700D02*
X7835100Y-4076700D01*
X7735100Y-4280700D02*
X7835100Y-4380700D01*
X7835100Y-4280700D02*
X7735100Y-4380700D01*
X7785100Y-4280700D02*
X7785100Y-4380700D01*
X7735100Y-4330700D02*
X7835100Y-4330700D01*
X7989100Y-4026700D02*
X8089100Y-4126700D01*
X8089100Y-4026700D02*
X7989100Y-4126700D01*
X8039100Y-4026700D02*
X8039100Y-4126700D01*
X7989100Y-4076700D02*
X8089100Y-4076700D01*
X7989100Y-4280700D02*
X8089100Y-4380700D01*
X8089100Y-4280700D02*
X7989100Y-4380700D01*
X8039100Y-4280700D02*
X8039100Y-4380700D01*
X7989100Y-4330700D02*
X8089100Y-4330700D01*
X8243100Y-4026700D02*
X8343100Y-4126700D01*
X8343100Y-4026700D02*
X8243100Y-4126700D01*
X8293100Y-4026700D02*
X8293100Y-4126700D01*
X8243100Y-4076700D02*
X8343100Y-4076700D01*
X8243100Y-4280700D02*
X8343100Y-4380700D01*
X8343100Y-4280700D02*
X8243100Y-4380700D01*
X8293100Y-4280700D02*
X8293100Y-4380700D01*
X8243100Y-4330700D02*
X8343100Y-4330700D01*
X8497100Y-4026700D02*
X8597100Y-4126700D01*
X8597100Y-4026700D02*
X8497100Y-4126700D01*
X8547100Y-4026700D02*
X8547100Y-4126700D01*
X8497100Y-4076700D02*
X8597100Y-4076700D01*
X8497100Y-4280700D02*
X8597100Y-4380700D01*
X8597100Y-4280700D02*
X8497100Y-4380700D01*
X8547100Y-4280700D02*
X8547100Y-4380700D01*
X8497100Y-4330700D02*
X8597100Y-4330700D01*
X8751100Y-4026700D02*
X8851100Y-4126700D01*
X8851100Y-4026700D02*
X8751100Y-4126700D01*
X8801100Y-4026700D02*
X8801100Y-4126700D01*
X8751100Y-4076700D02*
X8851100Y-4076700D01*
X8751100Y-4280700D02*
X8851100Y-4380700D01*
X8851100Y-4280700D02*
X8751100Y-4380700D01*
X8801100Y-4280700D02*
X8801100Y-4380700D01*
X8751100Y-4330700D02*
X8851100Y-4330700D01*
X9005100Y-4026700D02*
X9105100Y-4126700D01*
X9105100Y-4026700D02*
X9005100Y-4126700D01*
X9055100Y-4026700D02*
X9055100Y-4126700D01*
X9005100Y-4076700D02*
X9105100Y-4076700D01*
X9005100Y-4280700D02*
X9105100Y-4380700D01*
X9105100Y-4280700D02*
X9005100Y-4380700D01*
X9055100Y-4280700D02*
X9055100Y-4380700D01*
X9005100Y-4330700D02*
X9105100Y-4330700D01*
X3975900Y-10872000D02*
X4075900Y-10972000D01*
X4075900Y-10872000D02*
X3975900Y-10972000D01*
X4025900Y-10872000D02*
X4025900Y-10972000D01*
X3975900Y-10922000D02*
X4075900Y-10922000D01*
X3975900Y-11126000D02*
X4075900Y-11226000D01*
X4075900Y-11126000D02*
X3975900Y-11226000D01*
X4025900Y-11126000D02*
X4025900Y-11226000D01*
X3975900Y-11176000D02*
X4075900Y-11176000D01*
X3975900Y-11380000D02*
X4075900Y-11480000D01*
X4075900Y-11380000D02*
X3975900Y-11480000D01*
X4025900Y-11380000D02*
X4025900Y-11480000D01*
X3975900Y-11430000D02*
X4075900Y-11430000D01*
X4229900Y-10872000D02*
X4329900Y-10972000D01*
X4329900Y-10872000D02*
X4229900Y-10972000D01*
X4279900Y-10872000D02*
X4279900Y-10972000D01*
X4229900Y-10922000D02*
X4329900Y-10922000D01*
X4229900Y-11126000D02*
X4329900Y-11226000D01*
X4329900Y-11126000D02*
X4229900Y-11226000D01*
X4279900Y-11126000D02*
X4279900Y-11226000D01*
X4229900Y-11176000D02*
X4329900Y-11176000D01*
X4229900Y-11380000D02*
X4329900Y-11480000D01*
X4329900Y-11380000D02*
X4229900Y-11480000D01*
X4279900Y-11380000D02*
X4279900Y-11480000D01*
X4229900Y-11430000D02*
X4329900Y-11430000D01*
X11659400Y-4026700D02*
X11759400Y-4126700D01*
X11759400Y-4026700D02*
X11659400Y-4126700D01*
X11709400Y-4026700D02*
X11709400Y-4126700D01*
X11659400Y-4076700D02*
X11759400Y-4076700D01*
X11659400Y-4280700D02*
X11759400Y-4380700D01*
X11759400Y-4280700D02*
X11659400Y-4380700D01*
X11709400Y-4280700D02*
X11709400Y-4380700D01*
X11659400Y-4330700D02*
X11759400Y-4330700D01*
X11913400Y-4026700D02*
X12013400Y-4126700D01*
X12013400Y-4026700D02*
X11913400Y-4126700D01*
X11963400Y-4026700D02*
X11963400Y-4126700D01*
X11913400Y-4076700D02*
X12013400Y-4076700D01*
X11913400Y-4280700D02*
X12013400Y-4380700D01*
X12013400Y-4280700D02*
X11913400Y-4380700D01*
X11963400Y-4280700D02*
X11963400Y-4380700D01*
X11913400Y-4330700D02*
X12013400Y-4330700D01*
X12167400Y-4026700D02*
X12267400Y-4126700D01*
X12267400Y-4026700D02*
X12167400Y-4126700D01*
X12217400Y-4026700D02*
X12217400Y-4126700D01*
X12167400Y-4076700D02*
X12267400Y-4076700D01*
X12167400Y-4280700D02*
X12267400Y-4380700D01*
X12267400Y-4280700D02*
X12167400Y-4380700D01*
X12217400Y-4280700D02*
X12217400Y-4380700D01*
X12167400Y-4330700D02*
X12267400Y-4330700D01*
X12421400Y-4026700D02*
X12521400Y-4126700D01*
X12521400Y-4026700D02*
X12421400Y-4126700D01*
X12471400Y-4026700D02*
X12471400Y-4126700D01*
X12421400Y-4076700D02*
X12521400Y-4076700D01*
X12421400Y-4280700D02*
X12521400Y-4380700D01*
X12521400Y-4280700D02*
X12421400Y-4380700D01*
X12471400Y-4280700D02*
X12471400Y-4380700D01*
X12421400Y-4330700D02*
X12521400Y-4330700D01*
X13719820Y-13391680D02*
X13819820Y-13491680D01*
X13819820Y-13391680D02*
X13719820Y-13491680D01*
X13769820Y-13391680D02*
X13769820Y-13491680D01*
X13719820Y-13441680D02*
X13819820Y-13441680D01*
X13809820Y-13566680D02*
X13809820Y-13316680D01*
X13729820Y-13566680D02*
X13729820Y-13316680D01*
X13809820Y-13316680D02*
G75*
G03*
X13729820Y-13316680I-40000J0D01*
G01*
X13729820Y-13566680D02*
G75*
G03*
X13809820Y-13566680I40000J0D01*
G01*
X14039820Y-12921680D02*
X14139820Y-13021680D01*
X14139820Y-12921680D02*
X14039820Y-13021680D01*
X14089820Y-12921680D02*
X14089820Y-13021680D01*
X14039820Y-12971680D02*
X14139820Y-12971680D01*
X13964820Y-13011680D02*
X14214820Y-13011680D01*
X13964820Y-12931680D02*
X14214820Y-12931680D01*
X14214820Y-13011680D02*
G75*
G03*
X14214820Y-12931680I0J40000D01*
G01*
X13964820Y-12931680D02*
G75*
G03*
X13964820Y-13011680I0J-40000D01*
G01*
X14339820Y-13391680D02*
X14439820Y-13491680D01*
X14439820Y-13391680D02*
X14339820Y-13491680D01*
X14389820Y-13391680D02*
X14389820Y-13491680D01*
X14339820Y-13441680D02*
X14439820Y-13441680D01*
X14429820Y-13566680D02*
X14429820Y-13316680D01*
X14349820Y-13566680D02*
X14349820Y-13316680D01*
X14429820Y-13316680D02*
G75*
G03*
X14349820Y-13316680I-40000J0D01*
G01*
X14349820Y-13566680D02*
G75*
G03*
X14429820Y-13566680I40000J0D01*
G01*
X14370850Y-6134900D02*
X14470850Y-6234900D01*
X14470850Y-6134900D02*
X14370850Y-6234900D01*
X14420850Y-6134900D02*
X14420850Y-6234900D01*
X14370850Y-6184900D02*
X14470850Y-6184900D01*
X14370850Y-6388900D02*
X14470850Y-6488900D01*
X14470850Y-6388900D02*
X14370850Y-6488900D01*
X14420850Y-6388900D02*
X14420850Y-6488900D01*
X14370850Y-6438900D02*
X14470850Y-6438900D01*
X14370850Y-6642900D02*
X14470850Y-6742900D01*
X14470850Y-6642900D02*
X14370850Y-6742900D01*
X14420850Y-6642900D02*
X14420850Y-6742900D01*
X14370850Y-6692900D02*
X14470850Y-6692900D01*
X12929400Y-4026700D02*
X13029400Y-4126700D01*
X13029400Y-4026700D02*
X12929400Y-4126700D01*
X12979400Y-4026700D02*
X12979400Y-4126700D01*
X12929400Y-4076700D02*
X13029400Y-4076700D01*
X13183400Y-4026700D02*
X13283400Y-4126700D01*
X13283400Y-4026700D02*
X13183400Y-4126700D01*
X13233400Y-4026700D02*
X13233400Y-4126700D01*
X13183400Y-4076700D02*
X13283400Y-4076700D01*
X13437400Y-4026700D02*
X13537400Y-4126700D01*
X13537400Y-4026700D02*
X13437400Y-4126700D01*
X13487400Y-4026700D02*
X13487400Y-4126700D01*
X13437400Y-4076700D02*
X13537400Y-4076700D01*
X3975900Y-8230400D02*
X4075900Y-8330400D01*
X4075900Y-8230400D02*
X3975900Y-8330400D01*
X4025900Y-8230400D02*
X4025900Y-8330400D01*
X3975900Y-8280400D02*
X4075900Y-8280400D01*
X3975900Y-8484400D02*
X4075900Y-8584400D01*
X4075900Y-8484400D02*
X3975900Y-8584400D01*
X4025900Y-8484400D02*
X4025900Y-8584400D01*
X3975900Y-8534400D02*
X4075900Y-8534400D01*
X3975900Y-8738400D02*
X4075900Y-8838400D01*
X4075900Y-8738400D02*
X3975900Y-8838400D01*
X4025900Y-8738400D02*
X4025900Y-8838400D01*
X3975900Y-8788400D02*
X4075900Y-8788400D01*
X3975900Y-8992400D02*
X4075900Y-9092400D01*
X4075900Y-8992400D02*
X3975900Y-9092400D01*
X4025900Y-8992400D02*
X4025900Y-9092400D01*
X3975900Y-9042400D02*
X4075900Y-9042400D01*
X3975900Y-9246400D02*
X4075900Y-9346400D01*
X4075900Y-9246400D02*
X3975900Y-9346400D01*
X4025900Y-9246400D02*
X4025900Y-9346400D01*
X3975900Y-9296400D02*
X4075900Y-9296400D01*
X3975900Y-9500400D02*
X4075900Y-9600400D01*
X4075900Y-9500400D02*
X3975900Y-9600400D01*
X4025900Y-9500400D02*
X4025900Y-9600400D01*
X3975900Y-9550400D02*
X4075900Y-9550400D01*
X3975900Y-9754400D02*
X4075900Y-9854400D01*
X4075900Y-9754400D02*
X3975900Y-9854400D01*
X4025900Y-9754400D02*
X4025900Y-9854400D01*
X3975900Y-9804400D02*
X4075900Y-9804400D01*
X3975900Y-10008400D02*
X4075900Y-10108400D01*
X4075900Y-10008400D02*
X3975900Y-10108400D01*
X4025900Y-10008400D02*
X4025900Y-10108400D01*
X3975900Y-10058400D02*
X4075900Y-10058400D01*
X3975900Y-10262400D02*
X4075900Y-10362400D01*
X4075900Y-10262400D02*
X3975900Y-10362400D01*
X4025900Y-10262400D02*
X4025900Y-10362400D01*
X3975900Y-10312400D02*
X4075900Y-10312400D01*
X3975900Y-10516400D02*
X4075900Y-10616400D01*
X4075900Y-10516400D02*
X3975900Y-10616400D01*
X4025900Y-10516400D02*
X4025900Y-10616400D01*
X3975900Y-10566400D02*
X4075900Y-10566400D01*
X4229900Y-8230400D02*
X4329900Y-8330400D01*
X4329900Y-8230400D02*
X4229900Y-8330400D01*
X4279900Y-8230400D02*
X4279900Y-8330400D01*
X4229900Y-8280400D02*
X4329900Y-8280400D01*
X4229900Y-8484400D02*
X4329900Y-8584400D01*
X4329900Y-8484400D02*
X4229900Y-8584400D01*
X4279900Y-8484400D02*
X4279900Y-8584400D01*
X4229900Y-8534400D02*
X4329900Y-8534400D01*
X4229900Y-8738400D02*
X4329900Y-8838400D01*
X4329900Y-8738400D02*
X4229900Y-8838400D01*
X4279900Y-8738400D02*
X4279900Y-8838400D01*
X4229900Y-8788400D02*
X4329900Y-8788400D01*
X4229900Y-8992400D02*
X4329900Y-9092400D01*
X4329900Y-8992400D02*
X4229900Y-9092400D01*
X4279900Y-8992400D02*
X4279900Y-9092400D01*
X4229900Y-9042400D02*
X4329900Y-9042400D01*
X4229900Y-9246400D02*
X4329900Y-9346400D01*
X4329900Y-9246400D02*
X4229900Y-9346400D01*
X4279900Y-9246400D02*
X4279900Y-9346400D01*
X4229900Y-9296400D02*
X4329900Y-9296400D01*
X4229900Y-9500400D02*
X4329900Y-9600400D01*
X4329900Y-9500400D02*
X4229900Y-9600400D01*
X4279900Y-9500400D02*
X4279900Y-9600400D01*
X4229900Y-9550400D02*
X4329900Y-9550400D01*
X4229900Y-9754400D02*
X4329900Y-9854400D01*
X4329900Y-9754400D02*
X4229900Y-9854400D01*
X4279900Y-9754400D02*
X4279900Y-9854400D01*
X4229900Y-9804400D02*
X4329900Y-9804400D01*
X4229900Y-10008400D02*
X4329900Y-10108400D01*
X4329900Y-10008400D02*
X4229900Y-10108400D01*
X4279900Y-10008400D02*
X4279900Y-10108400D01*
X4229900Y-10058400D02*
X4329900Y-10058400D01*
X4229900Y-10262400D02*
X4329900Y-10362400D01*
X4329900Y-10262400D02*
X4229900Y-10362400D01*
X4279900Y-10262400D02*
X4279900Y-10362400D01*
X4229900Y-10312400D02*
X4329900Y-10312400D01*
X4229900Y-10516400D02*
X4329900Y-10616400D01*
X4329900Y-10516400D02*
X4229900Y-10616400D01*
X4279900Y-10516400D02*
X4279900Y-10616400D01*
X4229900Y-10566400D02*
X4329900Y-10566400D01*
X14463560Y-4039400D02*
X14563560Y-4139400D01*
X14563560Y-4039400D02*
X14463560Y-4139400D01*
X14513560Y-4039400D02*
X14513560Y-4139400D01*
X14463560Y-4089400D02*
X14563560Y-4089400D01*
X14717560Y-4039400D02*
X14817560Y-4139400D01*
X14817560Y-4039400D02*
X14717560Y-4139400D01*
X14767560Y-4039400D02*
X14767560Y-4139400D01*
X14717560Y-4089400D02*
X14817560Y-4089400D01*
X4128730Y-4611731D02*
X4232870Y-4715871D01*
X4232870Y-4611731D02*
X4128730Y-4715871D01*
X4217619Y-4700620D02*
X4217619Y-4626982D01*
X4143981Y-4626982D01*
X4143981Y-4700620D01*
X4217619Y-4700620D01*
X4382730Y-4441731D02*
X4486870Y-4545871D01*
X4486870Y-4441731D02*
X4382730Y-4545871D01*
X4471619Y-4530620D02*
X4471619Y-4456982D01*
X4397981Y-4456982D01*
X4397981Y-4530620D01*
X4471619Y-4530620D01*
X5139730Y-4611731D02*
X5243870Y-4715871D01*
X5243870Y-4611731D02*
X5139730Y-4715871D01*
X5228619Y-4700620D02*
X5228619Y-4626982D01*
X5154981Y-4626982D01*
X5154981Y-4700620D01*
X5228619Y-4700620D01*
X5393730Y-4439731D02*
X5497870Y-4543871D01*
X5497870Y-4439731D02*
X5393730Y-4543871D01*
X5482619Y-4528620D02*
X5482619Y-4454982D01*
X5408981Y-4454982D01*
X5408981Y-4528620D01*
X5482619Y-4528620D01*
X12137770Y-13374370D02*
X12267310Y-13503910D01*
X12267310Y-13374370D02*
X12137770Y-13503910D01*
X12202540Y-13503910D02*
X12267310Y-13439140D01*
X12202540Y-13374370D01*
X12137770Y-13439140D01*
X12202540Y-13503910D01*
X12637770Y-13374370D02*
X12767310Y-13503910D01*
X12767310Y-13374370D02*
X12637770Y-13503910D01*
X12702540Y-13503910D02*
X12767310Y-13439140D01*
X12702540Y-13374370D01*
X12637770Y-13439140D01*
X12702540Y-13503910D01*
X4025800Y-5224791D02*
X4025800Y-5384811D01*
X3945790Y-5304801D02*
X4105810Y-5304801D01*
X4105810Y-5304801D02*
G75*
G03*
X4105810Y-5304801I-80010J0D01*
G01*
X5600800Y-5224791D02*
X5600800Y-5384811D01*
X5520790Y-5304801D02*
X5680810Y-5304801D01*
X5680810Y-5304801D02*
G75*
G03*
X5680810Y-5304801I-80010J0D01*
G01*
X9993738Y-11728458D02*
X9993738Y-11502182D01*
X9767462Y-11502182D01*
X9767462Y-11728458D01*
X9993738Y-11728458D01*
X10040600Y-11615320D02*
G75*
G03*
X10040600Y-11615320I-160000J0D01*
G01*
X9998638Y-8693358D02*
X9998638Y-8467082D01*
X9772362Y-8467082D01*
X9772362Y-8693358D01*
X9998638Y-8693358D01*
X10045500Y-8580220D02*
G75*
G03*
X10045500Y-8580220I-160000J0D01*
G01*
X4241800Y-5162361D02*
X4404360Y-4999801D01*
X4241800Y-4837241D01*
X4079240Y-4999801D01*
X4241800Y-5162361D01*
X4404360Y-4999801D02*
G75*
G03*
X4404360Y-4999801I-162560J0D01*
G01*
X5384800Y-5162361D02*
X5547360Y-4999801D01*
X5384800Y-4837241D01*
X5222240Y-4999801D01*
X5384800Y-5162361D01*
X5547360Y-4999801D02*
G75*
G03*
X5547360Y-4999801I-162560J0D01*
G01*
D13*
X4088928Y-14443214D02*
X4088928Y-14143214D01*
X4160357Y-14143214D01*
X4203214Y-14157500D01*
X4231786Y-14186071D01*
X4246071Y-14214643D01*
X4260357Y-14271786D01*
X4260357Y-14314643D01*
X4246071Y-14371786D01*
X4231786Y-14400357D01*
X4203214Y-14428929D01*
X4160357Y-14443214D01*
X4088928Y-14443214D01*
X4388928Y-14443214D02*
X4388928Y-14243214D01*
X4388928Y-14300357D02*
X4403214Y-14271786D01*
X4417500Y-14257500D01*
X4446071Y-14243214D01*
X4474643Y-14243214D01*
X4574643Y-14443214D02*
X4574643Y-14243214D01*
X4574643Y-14143214D02*
X4560357Y-14157500D01*
X4574643Y-14171786D01*
X4588928Y-14157500D01*
X4574643Y-14143214D01*
X4574643Y-14171786D01*
X4760357Y-14443214D02*
X4731786Y-14428929D01*
X4717500Y-14400357D01*
X4717500Y-14143214D01*
X4917500Y-14443214D02*
X4888928Y-14428929D01*
X4874643Y-14400357D01*
X4874643Y-14143214D01*
X5260357Y-14443214D02*
X5260357Y-14143214D01*
X5360357Y-14357500D01*
X5460357Y-14143214D01*
X5460357Y-14443214D01*
X5731786Y-14443214D02*
X5731786Y-14286071D01*
X5717500Y-14257500D01*
X5688928Y-14243214D01*
X5631786Y-14243214D01*
X5603214Y-14257500D01*
X5731786Y-14428929D02*
X5703214Y-14443214D01*
X5631786Y-14443214D01*
X5603214Y-14428929D01*
X5588928Y-14400357D01*
X5588928Y-14371786D01*
X5603214Y-14343214D01*
X5631786Y-14328929D01*
X5703214Y-14328929D01*
X5731786Y-14314643D01*
X5874643Y-14243214D02*
X5874643Y-14543214D01*
X5874643Y-14257500D02*
X5903214Y-14243214D01*
X5960357Y-14243214D01*
X5988928Y-14257500D01*
X6003214Y-14271786D01*
X6017500Y-14300357D01*
X6017500Y-14386071D01*
X6003214Y-14414643D01*
X5988928Y-14428929D01*
X5960357Y-14443214D01*
X5903214Y-14443214D01*
X5874643Y-14428929D01*
X6146071Y-14414643D02*
X6160357Y-14428929D01*
X6146071Y-14443214D01*
X6131786Y-14428929D01*
X6146071Y-14414643D01*
X6146071Y-14443214D01*
X6146071Y-14257500D02*
X6160357Y-14271786D01*
X6146071Y-14286071D01*
X6131786Y-14271786D01*
X6146071Y-14257500D01*
X6146071Y-14286071D01*
X3762500Y-14917500D02*
X3802500Y-14957500D01*
X3802500Y-14917500D02*
X3762500Y-14957500D01*
X4146071Y-14773214D02*
X4174643Y-14773214D01*
X4203214Y-14787500D01*
X4217500Y-14801786D01*
X4231786Y-14830357D01*
X4246071Y-14887500D01*
X4246071Y-14958929D01*
X4231786Y-15016071D01*
X4217500Y-15044643D01*
X4203214Y-15058929D01*
X4174643Y-15073214D01*
X4146071Y-15073214D01*
X4117500Y-15058929D01*
X4103214Y-15044643D01*
X4088928Y-15016071D01*
X4074643Y-14958929D01*
X4074643Y-14887500D01*
X4088928Y-14830357D01*
X4103214Y-14801786D01*
X4117500Y-14787500D01*
X4146071Y-14773214D01*
X4374643Y-15044643D02*
X4388928Y-15058929D01*
X4374643Y-15073214D01*
X4360357Y-15058929D01*
X4374643Y-15044643D01*
X4374643Y-15073214D01*
X4646071Y-14873214D02*
X4646071Y-15073214D01*
X4574643Y-14758929D02*
X4503214Y-14973214D01*
X4688928Y-14973214D01*
X4860357Y-14773214D02*
X4888928Y-14773214D01*
X4917500Y-14787500D01*
X4931786Y-14801786D01*
X4946071Y-14830357D01*
X4960357Y-14887500D01*
X4960357Y-14958929D01*
X4946071Y-15016071D01*
X4931786Y-15044643D01*
X4917500Y-15058929D01*
X4888928Y-15073214D01*
X4860357Y-15073214D01*
X4831786Y-15058929D01*
X4817500Y-15044643D01*
X4803214Y-15016071D01*
X4788928Y-14958929D01*
X4788928Y-14887500D01*
X4803214Y-14830357D01*
X4817500Y-14801786D01*
X4831786Y-14787500D01*
X4860357Y-14773214D01*
X5088928Y-15073214D02*
X5088928Y-14873214D01*
X5088928Y-14901786D02*
X5103214Y-14887500D01*
X5131786Y-14873214D01*
X5174643Y-14873214D01*
X5203214Y-14887500D01*
X5217500Y-14916071D01*
X5217500Y-15073214D01*
X5217500Y-14916071D02*
X5231786Y-14887500D01*
X5260357Y-14873214D01*
X5303214Y-14873214D01*
X5331786Y-14887500D01*
X5346071Y-14916071D01*
X5346071Y-15073214D01*
X5488928Y-15073214D02*
X5488928Y-14873214D01*
X5488928Y-14901786D02*
X5503214Y-14887500D01*
X5531786Y-14873214D01*
X5574643Y-14873214D01*
X5603214Y-14887500D01*
X5617500Y-14916071D01*
X5617500Y-15073214D01*
X5617500Y-14916071D02*
X5631786Y-14887500D01*
X5660357Y-14873214D01*
X5703214Y-14873214D01*
X5731786Y-14887500D01*
X5746071Y-14916071D01*
X5746071Y-15073214D01*
X6331786Y-14758929D02*
X6074643Y-15144643D01*
X6717500Y-14773214D02*
X6746071Y-14773214D01*
X6774643Y-14787500D01*
X6788928Y-14801786D01*
X6803214Y-14830357D01*
X6817500Y-14887500D01*
X6817500Y-14958929D01*
X6803214Y-15016071D01*
X6788928Y-15044643D01*
X6774643Y-15058929D01*
X6746071Y-15073214D01*
X6717500Y-15073214D01*
X6688928Y-15058929D01*
X6674643Y-15044643D01*
X6660357Y-15016071D01*
X6646071Y-14958929D01*
X6646071Y-14887500D01*
X6660357Y-14830357D01*
X6674643Y-14801786D01*
X6688928Y-14787500D01*
X6717500Y-14773214D01*
X6946071Y-15044643D02*
X6960357Y-15058929D01*
X6946071Y-15073214D01*
X6931786Y-15058929D01*
X6946071Y-15044643D01*
X6946071Y-15073214D01*
X7146071Y-14773214D02*
X7174643Y-14773214D01*
X7203214Y-14787500D01*
X7217500Y-14801786D01*
X7231786Y-14830357D01*
X7246071Y-14887500D01*
X7246071Y-14958929D01*
X7231786Y-15016071D01*
X7217500Y-15044643D01*
X7203214Y-15058929D01*
X7174643Y-15073214D01*
X7146071Y-15073214D01*
X7117500Y-15058929D01*
X7103214Y-15044643D01*
X7088928Y-15016071D01*
X7074643Y-14958929D01*
X7074643Y-14887500D01*
X7088928Y-14830357D01*
X7103214Y-14801786D01*
X7117500Y-14787500D01*
X7146071Y-14773214D01*
X7531786Y-15073214D02*
X7360357Y-15073214D01*
X7446071Y-15073214D02*
X7446071Y-14773214D01*
X7417500Y-14816071D01*
X7388928Y-14844643D01*
X7360357Y-14858929D01*
X7788928Y-14773214D02*
X7731786Y-14773214D01*
X7703214Y-14787500D01*
X7688928Y-14801786D01*
X7660357Y-14844643D01*
X7646071Y-14901786D01*
X7646071Y-15016071D01*
X7660357Y-15044643D01*
X7674643Y-15058929D01*
X7703214Y-15073214D01*
X7760357Y-15073214D01*
X7788928Y-15058929D01*
X7803214Y-15044643D01*
X7817500Y-15016071D01*
X7817500Y-14944643D01*
X7803214Y-14916071D01*
X7788928Y-14901786D01*
X7760357Y-14887500D01*
X7703214Y-14887500D01*
X7674643Y-14901786D01*
X7660357Y-14916071D01*
X7646071Y-14944643D01*
X7931786Y-14773214D02*
X7931786Y-14830357D01*
X8046071Y-14773214D02*
X8046071Y-14830357D01*
X8488928Y-15187500D02*
X8474643Y-15173214D01*
X8446071Y-15130357D01*
X8431786Y-15101786D01*
X8417500Y-15058929D01*
X8403214Y-14987500D01*
X8403214Y-14930357D01*
X8417500Y-14858929D01*
X8431786Y-14816071D01*
X8446071Y-14787500D01*
X8474643Y-14744643D01*
X8488928Y-14730357D01*
X8617500Y-15073214D02*
X8674643Y-15073214D01*
X8703214Y-15058929D01*
X8717500Y-15044643D01*
X8746071Y-15001786D01*
X8760357Y-14944643D01*
X8760357Y-14830357D01*
X8746071Y-14801786D01*
X8731786Y-14787500D01*
X8703214Y-14773214D01*
X8646071Y-14773214D01*
X8617500Y-14787500D01*
X8603214Y-14801786D01*
X8588928Y-14830357D01*
X8588928Y-14901786D01*
X8603214Y-14930357D01*
X8617500Y-14944643D01*
X8646071Y-14958929D01*
X8703214Y-14958929D01*
X8731786Y-14944643D01*
X8746071Y-14930357D01*
X8760357Y-14901786D01*
X8874643Y-14801786D02*
X8888928Y-14787500D01*
X8917500Y-14773214D01*
X8988928Y-14773214D01*
X9017500Y-14787500D01*
X9031786Y-14801786D01*
X9046071Y-14830357D01*
X9046071Y-14858929D01*
X9031786Y-14901786D01*
X8860357Y-15073214D01*
X9046071Y-15073214D01*
X9403214Y-15073214D02*
X9403214Y-14773214D01*
X9531786Y-15073214D02*
X9531786Y-14916071D01*
X9517500Y-14887500D01*
X9488928Y-14873214D01*
X9446071Y-14873214D01*
X9417500Y-14887500D01*
X9403214Y-14901786D01*
X9717500Y-15073214D02*
X9688928Y-15058929D01*
X9674643Y-15044643D01*
X9660357Y-15016071D01*
X9660357Y-14930357D01*
X9674643Y-14901786D01*
X9688928Y-14887500D01*
X9717500Y-14873214D01*
X9760357Y-14873214D01*
X9788928Y-14887500D01*
X9803214Y-14901786D01*
X9817500Y-14930357D01*
X9817500Y-15016071D01*
X9803214Y-15044643D01*
X9788928Y-15058929D01*
X9760357Y-15073214D01*
X9717500Y-15073214D01*
X9988928Y-15073214D02*
X9960357Y-15058929D01*
X9946071Y-15030357D01*
X9946071Y-14773214D01*
X10217500Y-15058929D02*
X10188928Y-15073214D01*
X10131786Y-15073214D01*
X10103214Y-15058929D01*
X10088928Y-15030357D01*
X10088928Y-14916071D01*
X10103214Y-14887500D01*
X10131786Y-14873214D01*
X10188928Y-14873214D01*
X10217500Y-14887500D01*
X10231786Y-14916071D01*
X10231786Y-14944643D01*
X10088928Y-14973214D01*
X10346071Y-15058929D02*
X10374643Y-15073214D01*
X10431786Y-15073214D01*
X10460357Y-15058929D01*
X10474643Y-15030357D01*
X10474643Y-15016071D01*
X10460357Y-14987500D01*
X10431786Y-14973214D01*
X10388928Y-14973214D01*
X10360357Y-14958929D01*
X10346071Y-14930357D01*
X10346071Y-14916071D01*
X10360357Y-14887500D01*
X10388928Y-14873214D01*
X10431786Y-14873214D01*
X10460357Y-14887500D01*
X10574643Y-15187500D02*
X10588928Y-15173214D01*
X10617500Y-15130357D01*
X10631786Y-15101786D01*
X10646071Y-15058929D01*
X10660357Y-14987500D01*
X10660357Y-14930357D01*
X10646071Y-14858929D01*
X10631786Y-14816071D01*
X10617500Y-14787500D01*
X10588928Y-14744643D01*
X10574643Y-14730357D01*
X3802500Y-15333500D02*
G75*
G03*
X3802500Y-15333500I-35000J0D01*
G01*
X4146071Y-15169214D02*
X4174643Y-15169214D01*
X4203214Y-15183500D01*
X4217500Y-15197786D01*
X4231786Y-15226357D01*
X4246071Y-15283500D01*
X4246071Y-15354929D01*
X4231786Y-15412071D01*
X4217500Y-15440643D01*
X4203214Y-15454929D01*
X4174643Y-15469214D01*
X4146071Y-15469214D01*
X4117500Y-15454929D01*
X4103214Y-15440643D01*
X4088928Y-15412071D01*
X4074643Y-15354929D01*
X4074643Y-15283500D01*
X4088928Y-15226357D01*
X4103214Y-15197786D01*
X4117500Y-15183500D01*
X4146071Y-15169214D01*
X4374643Y-15440643D02*
X4388928Y-15454929D01*
X4374643Y-15469214D01*
X4360357Y-15454929D01*
X4374643Y-15440643D01*
X4374643Y-15469214D01*
X4488928Y-15169214D02*
X4688928Y-15169214D01*
X4560357Y-15469214D01*
X4860357Y-15169214D02*
X4888928Y-15169214D01*
X4917500Y-15183500D01*
X4931786Y-15197786D01*
X4946071Y-15226357D01*
X4960357Y-15283500D01*
X4960357Y-15354929D01*
X4946071Y-15412071D01*
X4931786Y-15440643D01*
X4917500Y-15454929D01*
X4888928Y-15469214D01*
X4860357Y-15469214D01*
X4831786Y-15454929D01*
X4817500Y-15440643D01*
X4803214Y-15412071D01*
X4788928Y-15354929D01*
X4788928Y-15283500D01*
X4803214Y-15226357D01*
X4817500Y-15197786D01*
X4831786Y-15183500D01*
X4860357Y-15169214D01*
X5088928Y-15469214D02*
X5088928Y-15269214D01*
X5088928Y-15297786D02*
X5103214Y-15283500D01*
X5131786Y-15269214D01*
X5174643Y-15269214D01*
X5203214Y-15283500D01*
X5217500Y-15312071D01*
X5217500Y-15469214D01*
X5217500Y-15312071D02*
X5231786Y-15283500D01*
X5260357Y-15269214D01*
X5303214Y-15269214D01*
X5331786Y-15283500D01*
X5346071Y-15312071D01*
X5346071Y-15469214D01*
X5488928Y-15469214D02*
X5488928Y-15269214D01*
X5488928Y-15297786D02*
X5503214Y-15283500D01*
X5531786Y-15269214D01*
X5574643Y-15269214D01*
X5603214Y-15283500D01*
X5617500Y-15312071D01*
X5617500Y-15469214D01*
X5617500Y-15312071D02*
X5631786Y-15283500D01*
X5660357Y-15269214D01*
X5703214Y-15269214D01*
X5731786Y-15283500D01*
X5746071Y-15312071D01*
X5746071Y-15469214D01*
X6331786Y-15154929D02*
X6074643Y-15540643D01*
X6717500Y-15169214D02*
X6746071Y-15169214D01*
X6774643Y-15183500D01*
X6788928Y-15197786D01*
X6803214Y-15226357D01*
X6817500Y-15283500D01*
X6817500Y-15354929D01*
X6803214Y-15412071D01*
X6788928Y-15440643D01*
X6774643Y-15454929D01*
X6746071Y-15469214D01*
X6717500Y-15469214D01*
X6688928Y-15454929D01*
X6674643Y-15440643D01*
X6660357Y-15412071D01*
X6646071Y-15354929D01*
X6646071Y-15283500D01*
X6660357Y-15226357D01*
X6674643Y-15197786D01*
X6688928Y-15183500D01*
X6717500Y-15169214D01*
X6946071Y-15440643D02*
X6960357Y-15454929D01*
X6946071Y-15469214D01*
X6931786Y-15454929D01*
X6946071Y-15440643D01*
X6946071Y-15469214D01*
X7146071Y-15169214D02*
X7174643Y-15169214D01*
X7203214Y-15183500D01*
X7217500Y-15197786D01*
X7231786Y-15226357D01*
X7246071Y-15283500D01*
X7246071Y-15354929D01*
X7231786Y-15412071D01*
X7217500Y-15440643D01*
X7203214Y-15454929D01*
X7174643Y-15469214D01*
X7146071Y-15469214D01*
X7117500Y-15454929D01*
X7103214Y-15440643D01*
X7088928Y-15412071D01*
X7074643Y-15354929D01*
X7074643Y-15283500D01*
X7088928Y-15226357D01*
X7103214Y-15197786D01*
X7117500Y-15183500D01*
X7146071Y-15169214D01*
X7360357Y-15197786D02*
X7374643Y-15183500D01*
X7403214Y-15169214D01*
X7474643Y-15169214D01*
X7503214Y-15183500D01*
X7517500Y-15197786D01*
X7531786Y-15226357D01*
X7531786Y-15254929D01*
X7517500Y-15297786D01*
X7346071Y-15469214D01*
X7531786Y-15469214D01*
X7703214Y-15297786D02*
X7674643Y-15283500D01*
X7660357Y-15269214D01*
X7646071Y-15240643D01*
X7646071Y-15226357D01*
X7660357Y-15197786D01*
X7674643Y-15183500D01*
X7703214Y-15169214D01*
X7760357Y-15169214D01*
X7788928Y-15183500D01*
X7803214Y-15197786D01*
X7817500Y-15226357D01*
X7817500Y-15240643D01*
X7803214Y-15269214D01*
X7788928Y-15283500D01*
X7760357Y-15297786D01*
X7703214Y-15297786D01*
X7674643Y-15312071D01*
X7660357Y-15326357D01*
X7646071Y-15354929D01*
X7646071Y-15412071D01*
X7660357Y-15440643D01*
X7674643Y-15454929D01*
X7703214Y-15469214D01*
X7760357Y-15469214D01*
X7788928Y-15454929D01*
X7803214Y-15440643D01*
X7817500Y-15412071D01*
X7817500Y-15354929D01*
X7803214Y-15326357D01*
X7788928Y-15312071D01*
X7760357Y-15297786D01*
X7931786Y-15169214D02*
X7931786Y-15226357D01*
X8046071Y-15169214D02*
X8046071Y-15226357D01*
X8488928Y-15583500D02*
X8474643Y-15569214D01*
X8446071Y-15526357D01*
X8431786Y-15497786D01*
X8417500Y-15454929D01*
X8403214Y-15383500D01*
X8403214Y-15326357D01*
X8417500Y-15254929D01*
X8431786Y-15212071D01*
X8446071Y-15183500D01*
X8474643Y-15140643D01*
X8488928Y-15126357D01*
X8731786Y-15169214D02*
X8674643Y-15169214D01*
X8646071Y-15183500D01*
X8631786Y-15197786D01*
X8603214Y-15240643D01*
X8588928Y-15297786D01*
X8588928Y-15412071D01*
X8603214Y-15440643D01*
X8617500Y-15454929D01*
X8646071Y-15469214D01*
X8703214Y-15469214D01*
X8731786Y-15454929D01*
X8746071Y-15440643D01*
X8760357Y-15412071D01*
X8760357Y-15340643D01*
X8746071Y-15312071D01*
X8731786Y-15297786D01*
X8703214Y-15283500D01*
X8646071Y-15283500D01*
X8617500Y-15297786D01*
X8603214Y-15312071D01*
X8588928Y-15340643D01*
X9117500Y-15469214D02*
X9117500Y-15169214D01*
X9246071Y-15469214D02*
X9246071Y-15312071D01*
X9231786Y-15283500D01*
X9203214Y-15269214D01*
X9160357Y-15269214D01*
X9131786Y-15283500D01*
X9117500Y-15297786D01*
X9431786Y-15469214D02*
X9403214Y-15454929D01*
X9388928Y-15440643D01*
X9374643Y-15412071D01*
X9374643Y-15326357D01*
X9388928Y-15297786D01*
X9403214Y-15283500D01*
X9431786Y-15269214D01*
X9474643Y-15269214D01*
X9503214Y-15283500D01*
X9517500Y-15297786D01*
X9531786Y-15326357D01*
X9531786Y-15412071D01*
X9517500Y-15440643D01*
X9503214Y-15454929D01*
X9474643Y-15469214D01*
X9431786Y-15469214D01*
X9703214Y-15469214D02*
X9674643Y-15454929D01*
X9660357Y-15426357D01*
X9660357Y-15169214D01*
X9931786Y-15454929D02*
X9903214Y-15469214D01*
X9846071Y-15469214D01*
X9817500Y-15454929D01*
X9803214Y-15426357D01*
X9803214Y-15312071D01*
X9817500Y-15283500D01*
X9846071Y-15269214D01*
X9903214Y-15269214D01*
X9931786Y-15283500D01*
X9946071Y-15312071D01*
X9946071Y-15340643D01*
X9803214Y-15369214D01*
X10060357Y-15454929D02*
X10088928Y-15469214D01*
X10146071Y-15469214D01*
X10174643Y-15454929D01*
X10188928Y-15426357D01*
X10188928Y-15412071D01*
X10174643Y-15383500D01*
X10146071Y-15369214D01*
X10103214Y-15369214D01*
X10074643Y-15354929D01*
X10060357Y-15326357D01*
X10060357Y-15312071D01*
X10074643Y-15283500D01*
X10103214Y-15269214D01*
X10146071Y-15269214D01*
X10174643Y-15283500D01*
X10288928Y-15583500D02*
X10303214Y-15569214D01*
X10331786Y-15526357D01*
X10346071Y-15497786D01*
X10360357Y-15454929D01*
X10374643Y-15383500D01*
X10374643Y-15326357D01*
X10360357Y-15254929D01*
X10346071Y-15212071D01*
X10331786Y-15183500D01*
X10303214Y-15140643D01*
X10288928Y-15126357D01*
X3766940Y-15693940D02*
X3766940Y-15765060D01*
X3731380Y-15729500D02*
X3802500Y-15729500D01*
X4146071Y-15565214D02*
X4174643Y-15565214D01*
X4203214Y-15579500D01*
X4217500Y-15593786D01*
X4231786Y-15622357D01*
X4246071Y-15679500D01*
X4246071Y-15750929D01*
X4231786Y-15808071D01*
X4217500Y-15836643D01*
X4203214Y-15850929D01*
X4174643Y-15865214D01*
X4146071Y-15865214D01*
X4117500Y-15850929D01*
X4103214Y-15836643D01*
X4088928Y-15808071D01*
X4074643Y-15750929D01*
X4074643Y-15679500D01*
X4088928Y-15622357D01*
X4103214Y-15593786D01*
X4117500Y-15579500D01*
X4146071Y-15565214D01*
X4374643Y-15836643D02*
X4388928Y-15850929D01*
X4374643Y-15865214D01*
X4360357Y-15850929D01*
X4374643Y-15836643D01*
X4374643Y-15865214D01*
X4488928Y-15565214D02*
X4688928Y-15565214D01*
X4560357Y-15865214D01*
X4960357Y-15865214D02*
X4788928Y-15865214D01*
X4874643Y-15865214D02*
X4874643Y-15565214D01*
X4846071Y-15608071D01*
X4817500Y-15636643D01*
X4788928Y-15650929D01*
X5088928Y-15865214D02*
X5088928Y-15665214D01*
X5088928Y-15693786D02*
X5103214Y-15679500D01*
X5131786Y-15665214D01*
X5174643Y-15665214D01*
X5203214Y-15679500D01*
X5217500Y-15708071D01*
X5217500Y-15865214D01*
X5217500Y-15708071D02*
X5231786Y-15679500D01*
X5260357Y-15665214D01*
X5303214Y-15665214D01*
X5331786Y-15679500D01*
X5346071Y-15708071D01*
X5346071Y-15865214D01*
X5488928Y-15865214D02*
X5488928Y-15665214D01*
X5488928Y-15693786D02*
X5503214Y-15679500D01*
X5531786Y-15665214D01*
X5574643Y-15665214D01*
X5603214Y-15679500D01*
X5617500Y-15708071D01*
X5617500Y-15865214D01*
X5617500Y-15708071D02*
X5631786Y-15679500D01*
X5660357Y-15665214D01*
X5703214Y-15665214D01*
X5731786Y-15679500D01*
X5746071Y-15708071D01*
X5746071Y-15865214D01*
X6331786Y-15550929D02*
X6074643Y-15936643D01*
X6717500Y-15565214D02*
X6746071Y-15565214D01*
X6774643Y-15579500D01*
X6788928Y-15593786D01*
X6803214Y-15622357D01*
X6817500Y-15679500D01*
X6817500Y-15750929D01*
X6803214Y-15808071D01*
X6788928Y-15836643D01*
X6774643Y-15850929D01*
X6746071Y-15865214D01*
X6717500Y-15865214D01*
X6688928Y-15850929D01*
X6674643Y-15836643D01*
X6660357Y-15808071D01*
X6646071Y-15750929D01*
X6646071Y-15679500D01*
X6660357Y-15622357D01*
X6674643Y-15593786D01*
X6688928Y-15579500D01*
X6717500Y-15565214D01*
X6946071Y-15836643D02*
X6960357Y-15850929D01*
X6946071Y-15865214D01*
X6931786Y-15850929D01*
X6946071Y-15836643D01*
X6946071Y-15865214D01*
X7146071Y-15565214D02*
X7174643Y-15565214D01*
X7203214Y-15579500D01*
X7217500Y-15593786D01*
X7231786Y-15622357D01*
X7246071Y-15679500D01*
X7246071Y-15750929D01*
X7231786Y-15808071D01*
X7217500Y-15836643D01*
X7203214Y-15850929D01*
X7174643Y-15865214D01*
X7146071Y-15865214D01*
X7117500Y-15850929D01*
X7103214Y-15836643D01*
X7088928Y-15808071D01*
X7074643Y-15750929D01*
X7074643Y-15679500D01*
X7088928Y-15622357D01*
X7103214Y-15593786D01*
X7117500Y-15579500D01*
X7146071Y-15565214D01*
X7360357Y-15593786D02*
X7374643Y-15579500D01*
X7403214Y-15565214D01*
X7474643Y-15565214D01*
X7503214Y-15579500D01*
X7517500Y-15593786D01*
X7531786Y-15622357D01*
X7531786Y-15650929D01*
X7517500Y-15693786D01*
X7346071Y-15865214D01*
X7531786Y-15865214D01*
X7703214Y-15693786D02*
X7674643Y-15679500D01*
X7660357Y-15665214D01*
X7646071Y-15636643D01*
X7646071Y-15622357D01*
X7660357Y-15593786D01*
X7674643Y-15579500D01*
X7703214Y-15565214D01*
X7760357Y-15565214D01*
X7788928Y-15579500D01*
X7803214Y-15593786D01*
X7817500Y-15622357D01*
X7817500Y-15636643D01*
X7803214Y-15665214D01*
X7788928Y-15679500D01*
X7760357Y-15693786D01*
X7703214Y-15693786D01*
X7674643Y-15708071D01*
X7660357Y-15722357D01*
X7646071Y-15750929D01*
X7646071Y-15808071D01*
X7660357Y-15836643D01*
X7674643Y-15850929D01*
X7703214Y-15865214D01*
X7760357Y-15865214D01*
X7788928Y-15850929D01*
X7803214Y-15836643D01*
X7817500Y-15808071D01*
X7817500Y-15750929D01*
X7803214Y-15722357D01*
X7788928Y-15708071D01*
X7760357Y-15693786D01*
X7931786Y-15565214D02*
X7931786Y-15622357D01*
X8046071Y-15565214D02*
X8046071Y-15622357D01*
X8488928Y-15979500D02*
X8474643Y-15965214D01*
X8446071Y-15922357D01*
X8431786Y-15893786D01*
X8417500Y-15850929D01*
X8403214Y-15779500D01*
X8403214Y-15722357D01*
X8417500Y-15650929D01*
X8431786Y-15608071D01*
X8446071Y-15579500D01*
X8474643Y-15536643D01*
X8488928Y-15522357D01*
X8731786Y-15565214D02*
X8674643Y-15565214D01*
X8646071Y-15579500D01*
X8631786Y-15593786D01*
X8603214Y-15636643D01*
X8588928Y-15693786D01*
X8588928Y-15808071D01*
X8603214Y-15836643D01*
X8617500Y-15850929D01*
X8646071Y-15865214D01*
X8703214Y-15865214D01*
X8731786Y-15850929D01*
X8746071Y-15836643D01*
X8760357Y-15808071D01*
X8760357Y-15736643D01*
X8746071Y-15708071D01*
X8731786Y-15693786D01*
X8703214Y-15679500D01*
X8646071Y-15679500D01*
X8617500Y-15693786D01*
X8603214Y-15708071D01*
X8588928Y-15736643D01*
X9117500Y-15865214D02*
X9117500Y-15565214D01*
X9246071Y-15865214D02*
X9246071Y-15708071D01*
X9231786Y-15679500D01*
X9203214Y-15665214D01*
X9160357Y-15665214D01*
X9131786Y-15679500D01*
X9117500Y-15693786D01*
X9431786Y-15865214D02*
X9403214Y-15850929D01*
X9388928Y-15836643D01*
X9374643Y-15808071D01*
X9374643Y-15722357D01*
X9388928Y-15693786D01*
X9403214Y-15679500D01*
X9431786Y-15665214D01*
X9474643Y-15665214D01*
X9503214Y-15679500D01*
X9517500Y-15693786D01*
X9531786Y-15722357D01*
X9531786Y-15808071D01*
X9517500Y-15836643D01*
X9503214Y-15850929D01*
X9474643Y-15865214D01*
X9431786Y-15865214D01*
X9703214Y-15865214D02*
X9674643Y-15850929D01*
X9660357Y-15822357D01*
X9660357Y-15565214D01*
X9931786Y-15850929D02*
X9903214Y-15865214D01*
X9846071Y-15865214D01*
X9817500Y-15850929D01*
X9803214Y-15822357D01*
X9803214Y-15708071D01*
X9817500Y-15679500D01*
X9846071Y-15665214D01*
X9903214Y-15665214D01*
X9931786Y-15679500D01*
X9946071Y-15708071D01*
X9946071Y-15736643D01*
X9803214Y-15765214D01*
X10060357Y-15850929D02*
X10088928Y-15865214D01*
X10146071Y-15865214D01*
X10174643Y-15850929D01*
X10188928Y-15822357D01*
X10188928Y-15808071D01*
X10174643Y-15779500D01*
X10146071Y-15765214D01*
X10103214Y-15765214D01*
X10074643Y-15750929D01*
X10060357Y-15722357D01*
X10060357Y-15708071D01*
X10074643Y-15679500D01*
X10103214Y-15665214D01*
X10146071Y-15665214D01*
X10174643Y-15679500D01*
X10288928Y-15979500D02*
X10303214Y-15965214D01*
X10331786Y-15922357D01*
X10346071Y-15893786D01*
X10360357Y-15850929D01*
X10374643Y-15779500D01*
X10374643Y-15722357D01*
X10360357Y-15650929D01*
X10346071Y-15608071D01*
X10331786Y-15579500D01*
X10303214Y-15536643D01*
X10288928Y-15522357D01*
X3791341Y-16152441D02*
X3791341Y-16098559D01*
X3737459Y-16098559D01*
X3737459Y-16152441D01*
X3791341Y-16152441D01*
X4146071Y-15961214D02*
X4174643Y-15961214D01*
X4203214Y-15975500D01*
X4217500Y-15989786D01*
X4231786Y-16018357D01*
X4246071Y-16075500D01*
X4246071Y-16146929D01*
X4231786Y-16204071D01*
X4217500Y-16232643D01*
X4203214Y-16246929D01*
X4174643Y-16261214D01*
X4146071Y-16261214D01*
X4117500Y-16246929D01*
X4103214Y-16232643D01*
X4088928Y-16204071D01*
X4074643Y-16146929D01*
X4074643Y-16075500D01*
X4088928Y-16018357D01*
X4103214Y-15989786D01*
X4117500Y-15975500D01*
X4146071Y-15961214D01*
X4374643Y-16232643D02*
X4388928Y-16246929D01*
X4374643Y-16261214D01*
X4360357Y-16246929D01*
X4374643Y-16232643D01*
X4374643Y-16261214D01*
X4488928Y-15961214D02*
X4688928Y-15961214D01*
X4560357Y-16261214D01*
X4931786Y-15961214D02*
X4874643Y-15961214D01*
X4846071Y-15975500D01*
X4831786Y-15989786D01*
X4803214Y-16032643D01*
X4788928Y-16089786D01*
X4788928Y-16204071D01*
X4803214Y-16232643D01*
X4817500Y-16246929D01*
X4846071Y-16261214D01*
X4903214Y-16261214D01*
X4931786Y-16246929D01*
X4946071Y-16232643D01*
X4960357Y-16204071D01*
X4960357Y-16132643D01*
X4946071Y-16104071D01*
X4931786Y-16089786D01*
X4903214Y-16075500D01*
X4846071Y-16075500D01*
X4817500Y-16089786D01*
X4803214Y-16104071D01*
X4788928Y-16132643D01*
X5088928Y-16261214D02*
X5088928Y-16061214D01*
X5088928Y-16089786D02*
X5103214Y-16075500D01*
X5131786Y-16061214D01*
X5174643Y-16061214D01*
X5203214Y-16075500D01*
X5217500Y-16104071D01*
X5217500Y-16261214D01*
X5217500Y-16104071D02*
X5231786Y-16075500D01*
X5260357Y-16061214D01*
X5303214Y-16061214D01*
X5331786Y-16075500D01*
X5346071Y-16104071D01*
X5346071Y-16261214D01*
X5488928Y-16261214D02*
X5488928Y-16061214D01*
X5488928Y-16089786D02*
X5503214Y-16075500D01*
X5531786Y-16061214D01*
X5574643Y-16061214D01*
X5603214Y-16075500D01*
X5617500Y-16104071D01*
X5617500Y-16261214D01*
X5617500Y-16104071D02*
X5631786Y-16075500D01*
X5660357Y-16061214D01*
X5703214Y-16061214D01*
X5731786Y-16075500D01*
X5746071Y-16104071D01*
X5746071Y-16261214D01*
X6331786Y-15946929D02*
X6074643Y-16332643D01*
X6717500Y-15961214D02*
X6746071Y-15961214D01*
X6774643Y-15975500D01*
X6788928Y-15989786D01*
X6803214Y-16018357D01*
X6817500Y-16075500D01*
X6817500Y-16146929D01*
X6803214Y-16204071D01*
X6788928Y-16232643D01*
X6774643Y-16246929D01*
X6746071Y-16261214D01*
X6717500Y-16261214D01*
X6688928Y-16246929D01*
X6674643Y-16232643D01*
X6660357Y-16204071D01*
X6646071Y-16146929D01*
X6646071Y-16075500D01*
X6660357Y-16018357D01*
X6674643Y-15989786D01*
X6688928Y-15975500D01*
X6717500Y-15961214D01*
X6946071Y-16232643D02*
X6960357Y-16246929D01*
X6946071Y-16261214D01*
X6931786Y-16246929D01*
X6946071Y-16232643D01*
X6946071Y-16261214D01*
X7146071Y-15961214D02*
X7174643Y-15961214D01*
X7203214Y-15975500D01*
X7217500Y-15989786D01*
X7231786Y-16018357D01*
X7246071Y-16075500D01*
X7246071Y-16146929D01*
X7231786Y-16204071D01*
X7217500Y-16232643D01*
X7203214Y-16246929D01*
X7174643Y-16261214D01*
X7146071Y-16261214D01*
X7117500Y-16246929D01*
X7103214Y-16232643D01*
X7088928Y-16204071D01*
X7074643Y-16146929D01*
X7074643Y-16075500D01*
X7088928Y-16018357D01*
X7103214Y-15989786D01*
X7117500Y-15975500D01*
X7146071Y-15961214D01*
X7346071Y-15961214D02*
X7531786Y-15961214D01*
X7431786Y-16075500D01*
X7474643Y-16075500D01*
X7503214Y-16089786D01*
X7517500Y-16104071D01*
X7531786Y-16132643D01*
X7531786Y-16204071D01*
X7517500Y-16232643D01*
X7503214Y-16246929D01*
X7474643Y-16261214D01*
X7388928Y-16261214D01*
X7360357Y-16246929D01*
X7346071Y-16232643D01*
X7717500Y-15961214D02*
X7746071Y-15961214D01*
X7774643Y-15975500D01*
X7788928Y-15989786D01*
X7803214Y-16018357D01*
X7817500Y-16075500D01*
X7817500Y-16146929D01*
X7803214Y-16204071D01*
X7788928Y-16232643D01*
X7774643Y-16246929D01*
X7746071Y-16261214D01*
X7717500Y-16261214D01*
X7688928Y-16246929D01*
X7674643Y-16232643D01*
X7660357Y-16204071D01*
X7646071Y-16146929D01*
X7646071Y-16075500D01*
X7660357Y-16018357D01*
X7674643Y-15989786D01*
X7688928Y-15975500D01*
X7717500Y-15961214D01*
X7931786Y-15961214D02*
X7931786Y-16018357D01*
X8046071Y-15961214D02*
X8046071Y-16018357D01*
X8488928Y-16375500D02*
X8474643Y-16361214D01*
X8446071Y-16318357D01*
X8431786Y-16289786D01*
X8417500Y-16246929D01*
X8403214Y-16175500D01*
X8403214Y-16118357D01*
X8417500Y-16046929D01*
X8431786Y-16004071D01*
X8446071Y-15975500D01*
X8474643Y-15932643D01*
X8488928Y-15918357D01*
X8646071Y-16089786D02*
X8617500Y-16075500D01*
X8603214Y-16061214D01*
X8588928Y-16032643D01*
X8588928Y-16018357D01*
X8603214Y-15989786D01*
X8617500Y-15975500D01*
X8646071Y-15961214D01*
X8703214Y-15961214D01*
X8731786Y-15975500D01*
X8746071Y-15989786D01*
X8760357Y-16018357D01*
X8760357Y-16032643D01*
X8746071Y-16061214D01*
X8731786Y-16075500D01*
X8703214Y-16089786D01*
X8646071Y-16089786D01*
X8617500Y-16104071D01*
X8603214Y-16118357D01*
X8588928Y-16146929D01*
X8588928Y-16204071D01*
X8603214Y-16232643D01*
X8617500Y-16246929D01*
X8646071Y-16261214D01*
X8703214Y-16261214D01*
X8731786Y-16246929D01*
X8746071Y-16232643D01*
X8760357Y-16204071D01*
X8760357Y-16146929D01*
X8746071Y-16118357D01*
X8731786Y-16104071D01*
X8703214Y-16089786D01*
X9117500Y-16261214D02*
X9117500Y-15961214D01*
X9246071Y-16261214D02*
X9246071Y-16104071D01*
X9231786Y-16075500D01*
X9203214Y-16061214D01*
X9160357Y-16061214D01*
X9131786Y-16075500D01*
X9117500Y-16089786D01*
X9431786Y-16261214D02*
X9403214Y-16246929D01*
X9388928Y-16232643D01*
X9374643Y-16204071D01*
X9374643Y-16118357D01*
X9388928Y-16089786D01*
X9403214Y-16075500D01*
X9431786Y-16061214D01*
X9474643Y-16061214D01*
X9503214Y-16075500D01*
X9517500Y-16089786D01*
X9531786Y-16118357D01*
X9531786Y-16204071D01*
X9517500Y-16232643D01*
X9503214Y-16246929D01*
X9474643Y-16261214D01*
X9431786Y-16261214D01*
X9703214Y-16261214D02*
X9674643Y-16246929D01*
X9660357Y-16218357D01*
X9660357Y-15961214D01*
X9931786Y-16246929D02*
X9903214Y-16261214D01*
X9846071Y-16261214D01*
X9817500Y-16246929D01*
X9803214Y-16218357D01*
X9803214Y-16104071D01*
X9817500Y-16075500D01*
X9846071Y-16061214D01*
X9903214Y-16061214D01*
X9931786Y-16075500D01*
X9946071Y-16104071D01*
X9946071Y-16132643D01*
X9803214Y-16161214D01*
X10060357Y-16246929D02*
X10088928Y-16261214D01*
X10146071Y-16261214D01*
X10174643Y-16246929D01*
X10188928Y-16218357D01*
X10188928Y-16204071D01*
X10174643Y-16175500D01*
X10146071Y-16161214D01*
X10103214Y-16161214D01*
X10074643Y-16146929D01*
X10060357Y-16118357D01*
X10060357Y-16104071D01*
X10074643Y-16075500D01*
X10103214Y-16061214D01*
X10146071Y-16061214D01*
X10174643Y-16075500D01*
X10288928Y-16375500D02*
X10303214Y-16361214D01*
X10331786Y-16318357D01*
X10346071Y-16289786D01*
X10360357Y-16246929D01*
X10374643Y-16175500D01*
X10374643Y-16118357D01*
X10360357Y-16046929D01*
X10346071Y-16004071D01*
X10331786Y-15975500D01*
X10303214Y-15932643D01*
X10288928Y-15918357D01*
X3762500Y-16561500D02*
X3802500Y-16521500D01*
X3762500Y-16481500D01*
X3722500Y-16521500D01*
X3762500Y-16561500D01*
X4146071Y-16357214D02*
X4174643Y-16357214D01*
X4203214Y-16371500D01*
X4217500Y-16385786D01*
X4231786Y-16414357D01*
X4246071Y-16471500D01*
X4246071Y-16542929D01*
X4231786Y-16600071D01*
X4217500Y-16628643D01*
X4203214Y-16642929D01*
X4174643Y-16657214D01*
X4146071Y-16657214D01*
X4117500Y-16642929D01*
X4103214Y-16628643D01*
X4088928Y-16600071D01*
X4074643Y-16542929D01*
X4074643Y-16471500D01*
X4088928Y-16414357D01*
X4103214Y-16385786D01*
X4117500Y-16371500D01*
X4146071Y-16357214D01*
X4374643Y-16628643D02*
X4388928Y-16642929D01*
X4374643Y-16657214D01*
X4360357Y-16642929D01*
X4374643Y-16628643D01*
X4374643Y-16657214D01*
X4560357Y-16485786D02*
X4531786Y-16471500D01*
X4517500Y-16457214D01*
X4503214Y-16428643D01*
X4503214Y-16414357D01*
X4517500Y-16385786D01*
X4531786Y-16371500D01*
X4560357Y-16357214D01*
X4617500Y-16357214D01*
X4646071Y-16371500D01*
X4660357Y-16385786D01*
X4674643Y-16414357D01*
X4674643Y-16428643D01*
X4660357Y-16457214D01*
X4646071Y-16471500D01*
X4617500Y-16485786D01*
X4560357Y-16485786D01*
X4531786Y-16500071D01*
X4517500Y-16514357D01*
X4503214Y-16542929D01*
X4503214Y-16600071D01*
X4517500Y-16628643D01*
X4531786Y-16642929D01*
X4560357Y-16657214D01*
X4617500Y-16657214D01*
X4646071Y-16642929D01*
X4660357Y-16628643D01*
X4674643Y-16600071D01*
X4674643Y-16542929D01*
X4660357Y-16514357D01*
X4646071Y-16500071D01*
X4617500Y-16485786D01*
X4860357Y-16357214D02*
X4888928Y-16357214D01*
X4917500Y-16371500D01*
X4931786Y-16385786D01*
X4946071Y-16414357D01*
X4960357Y-16471500D01*
X4960357Y-16542929D01*
X4946071Y-16600071D01*
X4931786Y-16628643D01*
X4917500Y-16642929D01*
X4888928Y-16657214D01*
X4860357Y-16657214D01*
X4831786Y-16642929D01*
X4817500Y-16628643D01*
X4803214Y-16600071D01*
X4788928Y-16542929D01*
X4788928Y-16471500D01*
X4803214Y-16414357D01*
X4817500Y-16385786D01*
X4831786Y-16371500D01*
X4860357Y-16357214D01*
X5088928Y-16657214D02*
X5088928Y-16457214D01*
X5088928Y-16485786D02*
X5103214Y-16471500D01*
X5131786Y-16457214D01*
X5174643Y-16457214D01*
X5203214Y-16471500D01*
X5217500Y-16500071D01*
X5217500Y-16657214D01*
X5217500Y-16500071D02*
X5231786Y-16471500D01*
X5260357Y-16457214D01*
X5303214Y-16457214D01*
X5331786Y-16471500D01*
X5346071Y-16500071D01*
X5346071Y-16657214D01*
X5488928Y-16657214D02*
X5488928Y-16457214D01*
X5488928Y-16485786D02*
X5503214Y-16471500D01*
X5531786Y-16457214D01*
X5574643Y-16457214D01*
X5603214Y-16471500D01*
X5617500Y-16500071D01*
X5617500Y-16657214D01*
X5617500Y-16500071D02*
X5631786Y-16471500D01*
X5660357Y-16457214D01*
X5703214Y-16457214D01*
X5731786Y-16471500D01*
X5746071Y-16500071D01*
X5746071Y-16657214D01*
X6331786Y-16342929D02*
X6074643Y-16728643D01*
X6717500Y-16357214D02*
X6746071Y-16357214D01*
X6774643Y-16371500D01*
X6788928Y-16385786D01*
X6803214Y-16414357D01*
X6817500Y-16471500D01*
X6817500Y-16542929D01*
X6803214Y-16600071D01*
X6788928Y-16628643D01*
X6774643Y-16642929D01*
X6746071Y-16657214D01*
X6717500Y-16657214D01*
X6688928Y-16642929D01*
X6674643Y-16628643D01*
X6660357Y-16600071D01*
X6646071Y-16542929D01*
X6646071Y-16471500D01*
X6660357Y-16414357D01*
X6674643Y-16385786D01*
X6688928Y-16371500D01*
X6717500Y-16357214D01*
X6946071Y-16628643D02*
X6960357Y-16642929D01*
X6946071Y-16657214D01*
X6931786Y-16642929D01*
X6946071Y-16628643D01*
X6946071Y-16657214D01*
X7146071Y-16357214D02*
X7174643Y-16357214D01*
X7203214Y-16371500D01*
X7217500Y-16385786D01*
X7231786Y-16414357D01*
X7246071Y-16471500D01*
X7246071Y-16542929D01*
X7231786Y-16600071D01*
X7217500Y-16628643D01*
X7203214Y-16642929D01*
X7174643Y-16657214D01*
X7146071Y-16657214D01*
X7117500Y-16642929D01*
X7103214Y-16628643D01*
X7088928Y-16600071D01*
X7074643Y-16542929D01*
X7074643Y-16471500D01*
X7088928Y-16414357D01*
X7103214Y-16385786D01*
X7117500Y-16371500D01*
X7146071Y-16357214D01*
X7346071Y-16357214D02*
X7531786Y-16357214D01*
X7431786Y-16471500D01*
X7474643Y-16471500D01*
X7503214Y-16485786D01*
X7517500Y-16500071D01*
X7531786Y-16528643D01*
X7531786Y-16600071D01*
X7517500Y-16628643D01*
X7503214Y-16642929D01*
X7474643Y-16657214D01*
X7388928Y-16657214D01*
X7360357Y-16642929D01*
X7346071Y-16628643D01*
X7817500Y-16657214D02*
X7646071Y-16657214D01*
X7731786Y-16657214D02*
X7731786Y-16357214D01*
X7703214Y-16400071D01*
X7674643Y-16428643D01*
X7646071Y-16442929D01*
X7931786Y-16357214D02*
X7931786Y-16414357D01*
X8046071Y-16357214D02*
X8046071Y-16414357D01*
X8488928Y-16771500D02*
X8474643Y-16757214D01*
X8446071Y-16714357D01*
X8431786Y-16685786D01*
X8417500Y-16642929D01*
X8403214Y-16571500D01*
X8403214Y-16514357D01*
X8417500Y-16442929D01*
X8431786Y-16400071D01*
X8446071Y-16371500D01*
X8474643Y-16328643D01*
X8488928Y-16314357D01*
X8731786Y-16357214D02*
X8674643Y-16357214D01*
X8646071Y-16371500D01*
X8631786Y-16385786D01*
X8603214Y-16428643D01*
X8588928Y-16485786D01*
X8588928Y-16600071D01*
X8603214Y-16628643D01*
X8617500Y-16642929D01*
X8646071Y-16657214D01*
X8703214Y-16657214D01*
X8731786Y-16642929D01*
X8746071Y-16628643D01*
X8760357Y-16600071D01*
X8760357Y-16528643D01*
X8746071Y-16500071D01*
X8731786Y-16485786D01*
X8703214Y-16471500D01*
X8646071Y-16471500D01*
X8617500Y-16485786D01*
X8603214Y-16500071D01*
X8588928Y-16528643D01*
X8860357Y-16357214D02*
X9046071Y-16357214D01*
X8946071Y-16471500D01*
X8988928Y-16471500D01*
X9017500Y-16485786D01*
X9031786Y-16500071D01*
X9046071Y-16528643D01*
X9046071Y-16600071D01*
X9031786Y-16628643D01*
X9017500Y-16642929D01*
X8988928Y-16657214D01*
X8903214Y-16657214D01*
X8874643Y-16642929D01*
X8860357Y-16628643D01*
X9403214Y-16657214D02*
X9403214Y-16357214D01*
X9531786Y-16657214D02*
X9531786Y-16500071D01*
X9517500Y-16471500D01*
X9488928Y-16457214D01*
X9446071Y-16457214D01*
X9417500Y-16471500D01*
X9403214Y-16485786D01*
X9717500Y-16657214D02*
X9688928Y-16642929D01*
X9674643Y-16628643D01*
X9660357Y-16600071D01*
X9660357Y-16514357D01*
X9674643Y-16485786D01*
X9688928Y-16471500D01*
X9717500Y-16457214D01*
X9760357Y-16457214D01*
X9788928Y-16471500D01*
X9803214Y-16485786D01*
X9817500Y-16514357D01*
X9817500Y-16600071D01*
X9803214Y-16628643D01*
X9788928Y-16642929D01*
X9760357Y-16657214D01*
X9717500Y-16657214D01*
X9988928Y-16657214D02*
X9960357Y-16642929D01*
X9946071Y-16614357D01*
X9946071Y-16357214D01*
X10217500Y-16642929D02*
X10188928Y-16657214D01*
X10131786Y-16657214D01*
X10103214Y-16642929D01*
X10088928Y-16614357D01*
X10088928Y-16500071D01*
X10103214Y-16471500D01*
X10131786Y-16457214D01*
X10188928Y-16457214D01*
X10217500Y-16471500D01*
X10231786Y-16500071D01*
X10231786Y-16528643D01*
X10088928Y-16557214D01*
X10346071Y-16642929D02*
X10374643Y-16657214D01*
X10431786Y-16657214D01*
X10460357Y-16642929D01*
X10474643Y-16614357D01*
X10474643Y-16600071D01*
X10460357Y-16571500D01*
X10431786Y-16557214D01*
X10388928Y-16557214D01*
X10360357Y-16542929D01*
X10346071Y-16514357D01*
X10346071Y-16500071D01*
X10360357Y-16471500D01*
X10388928Y-16457214D01*
X10431786Y-16457214D01*
X10460357Y-16471500D01*
X10574643Y-16771500D02*
X10588928Y-16757214D01*
X10617500Y-16714357D01*
X10631786Y-16685786D01*
X10646071Y-16642929D01*
X10660357Y-16571500D01*
X10660357Y-16514357D01*
X10646071Y-16442929D01*
X10631786Y-16400071D01*
X10617500Y-16371500D01*
X10588928Y-16328643D01*
X10574643Y-16314357D01*
X3713600Y-16873050D02*
X3802500Y-16961950D01*
X3802500Y-16873050D02*
X3713600Y-16961950D01*
X3802500Y-16917500D02*
G75*
G03*
X3802500Y-16917500I-44450J0D01*
G01*
X4146071Y-16753214D02*
X4174643Y-16753214D01*
X4203214Y-16767500D01*
X4217500Y-16781786D01*
X4231786Y-16810357D01*
X4246071Y-16867500D01*
X4246071Y-16938929D01*
X4231786Y-16996072D01*
X4217500Y-17024643D01*
X4203214Y-17038929D01*
X4174643Y-17053214D01*
X4146071Y-17053214D01*
X4117500Y-17038929D01*
X4103214Y-17024643D01*
X4088928Y-16996072D01*
X4074643Y-16938929D01*
X4074643Y-16867500D01*
X4088928Y-16810357D01*
X4103214Y-16781786D01*
X4117500Y-16767500D01*
X4146071Y-16753214D01*
X4374643Y-17024643D02*
X4388928Y-17038929D01*
X4374643Y-17053214D01*
X4360357Y-17038929D01*
X4374643Y-17024643D01*
X4374643Y-17053214D01*
X4560357Y-16881786D02*
X4531786Y-16867500D01*
X4517500Y-16853214D01*
X4503214Y-16824643D01*
X4503214Y-16810357D01*
X4517500Y-16781786D01*
X4531786Y-16767500D01*
X4560357Y-16753214D01*
X4617500Y-16753214D01*
X4646071Y-16767500D01*
X4660357Y-16781786D01*
X4674643Y-16810357D01*
X4674643Y-16824643D01*
X4660357Y-16853214D01*
X4646071Y-16867500D01*
X4617500Y-16881786D01*
X4560357Y-16881786D01*
X4531786Y-16896072D01*
X4517500Y-16910357D01*
X4503214Y-16938929D01*
X4503214Y-16996072D01*
X4517500Y-17024643D01*
X4531786Y-17038929D01*
X4560357Y-17053214D01*
X4617500Y-17053214D01*
X4646071Y-17038929D01*
X4660357Y-17024643D01*
X4674643Y-16996072D01*
X4674643Y-16938929D01*
X4660357Y-16910357D01*
X4646071Y-16896072D01*
X4617500Y-16881786D01*
X4817500Y-17053214D02*
X4874643Y-17053214D01*
X4903214Y-17038929D01*
X4917500Y-17024643D01*
X4946071Y-16981786D01*
X4960357Y-16924643D01*
X4960357Y-16810357D01*
X4946071Y-16781786D01*
X4931786Y-16767500D01*
X4903214Y-16753214D01*
X4846071Y-16753214D01*
X4817500Y-16767500D01*
X4803214Y-16781786D01*
X4788928Y-16810357D01*
X4788928Y-16881786D01*
X4803214Y-16910357D01*
X4817500Y-16924643D01*
X4846071Y-16938929D01*
X4903214Y-16938929D01*
X4931786Y-16924643D01*
X4946071Y-16910357D01*
X4960357Y-16881786D01*
X5088928Y-17053214D02*
X5088928Y-16853214D01*
X5088928Y-16881786D02*
X5103214Y-16867500D01*
X5131786Y-16853214D01*
X5174643Y-16853214D01*
X5203214Y-16867500D01*
X5217500Y-16896072D01*
X5217500Y-17053214D01*
X5217500Y-16896072D02*
X5231786Y-16867500D01*
X5260357Y-16853214D01*
X5303214Y-16853214D01*
X5331786Y-16867500D01*
X5346071Y-16896072D01*
X5346071Y-17053214D01*
X5488928Y-17053214D02*
X5488928Y-16853214D01*
X5488928Y-16881786D02*
X5503214Y-16867500D01*
X5531786Y-16853214D01*
X5574643Y-16853214D01*
X5603214Y-16867500D01*
X5617500Y-16896072D01*
X5617500Y-17053214D01*
X5617500Y-16896072D02*
X5631786Y-16867500D01*
X5660357Y-16853214D01*
X5703214Y-16853214D01*
X5731786Y-16867500D01*
X5746071Y-16896072D01*
X5746071Y-17053214D01*
X6331786Y-16738929D02*
X6074643Y-17124643D01*
X6717500Y-16753214D02*
X6746071Y-16753214D01*
X6774643Y-16767500D01*
X6788928Y-16781786D01*
X6803214Y-16810357D01*
X6817500Y-16867500D01*
X6817500Y-16938929D01*
X6803214Y-16996072D01*
X6788928Y-17024643D01*
X6774643Y-17038929D01*
X6746071Y-17053214D01*
X6717500Y-17053214D01*
X6688928Y-17038929D01*
X6674643Y-17024643D01*
X6660357Y-16996072D01*
X6646071Y-16938929D01*
X6646071Y-16867500D01*
X6660357Y-16810357D01*
X6674643Y-16781786D01*
X6688928Y-16767500D01*
X6717500Y-16753214D01*
X6946071Y-17024643D02*
X6960357Y-17038929D01*
X6946071Y-17053214D01*
X6931786Y-17038929D01*
X6946071Y-17024643D01*
X6946071Y-17053214D01*
X7146071Y-16753214D02*
X7174643Y-16753214D01*
X7203214Y-16767500D01*
X7217500Y-16781786D01*
X7231786Y-16810357D01*
X7246071Y-16867500D01*
X7246071Y-16938929D01*
X7231786Y-16996072D01*
X7217500Y-17024643D01*
X7203214Y-17038929D01*
X7174643Y-17053214D01*
X7146071Y-17053214D01*
X7117500Y-17038929D01*
X7103214Y-17024643D01*
X7088928Y-16996072D01*
X7074643Y-16938929D01*
X7074643Y-16867500D01*
X7088928Y-16810357D01*
X7103214Y-16781786D01*
X7117500Y-16767500D01*
X7146071Y-16753214D01*
X7346071Y-16753214D02*
X7531786Y-16753214D01*
X7431786Y-16867500D01*
X7474643Y-16867500D01*
X7503214Y-16881786D01*
X7517500Y-16896072D01*
X7531786Y-16924643D01*
X7531786Y-16996072D01*
X7517500Y-17024643D01*
X7503214Y-17038929D01*
X7474643Y-17053214D01*
X7388928Y-17053214D01*
X7360357Y-17038929D01*
X7346071Y-17024643D01*
X7803214Y-16753214D02*
X7660357Y-16753214D01*
X7646071Y-16896072D01*
X7660357Y-16881786D01*
X7688928Y-16867500D01*
X7760357Y-16867500D01*
X7788928Y-16881786D01*
X7803214Y-16896072D01*
X7817500Y-16924643D01*
X7817500Y-16996072D01*
X7803214Y-17024643D01*
X7788928Y-17038929D01*
X7760357Y-17053214D01*
X7688928Y-17053214D01*
X7660357Y-17038929D01*
X7646071Y-17024643D01*
X7931786Y-16753214D02*
X7931786Y-16810357D01*
X8046071Y-16753214D02*
X8046071Y-16810357D01*
X8488928Y-17167500D02*
X8474643Y-17153214D01*
X8446071Y-17110357D01*
X8431786Y-17081786D01*
X8417500Y-17038929D01*
X8403214Y-16967500D01*
X8403214Y-16910357D01*
X8417500Y-16838929D01*
X8431786Y-16796072D01*
X8446071Y-16767500D01*
X8474643Y-16724643D01*
X8488928Y-16710357D01*
X8646071Y-16881786D02*
X8617500Y-16867500D01*
X8603214Y-16853214D01*
X8588928Y-16824643D01*
X8588928Y-16810357D01*
X8603214Y-16781786D01*
X8617500Y-16767500D01*
X8646071Y-16753214D01*
X8703214Y-16753214D01*
X8731786Y-16767500D01*
X8746071Y-16781786D01*
X8760357Y-16810357D01*
X8760357Y-16824643D01*
X8746071Y-16853214D01*
X8731786Y-16867500D01*
X8703214Y-16881786D01*
X8646071Y-16881786D01*
X8617500Y-16896072D01*
X8603214Y-16910357D01*
X8588928Y-16938929D01*
X8588928Y-16996072D01*
X8603214Y-17024643D01*
X8617500Y-17038929D01*
X8646071Y-17053214D01*
X8703214Y-17053214D01*
X8731786Y-17038929D01*
X8746071Y-17024643D01*
X8760357Y-16996072D01*
X8760357Y-16938929D01*
X8746071Y-16910357D01*
X8731786Y-16896072D01*
X8703214Y-16881786D01*
X9117500Y-17053214D02*
X9117500Y-16753214D01*
X9246071Y-17053214D02*
X9246071Y-16896072D01*
X9231786Y-16867500D01*
X9203214Y-16853214D01*
X9160357Y-16853214D01*
X9131786Y-16867500D01*
X9117500Y-16881786D01*
X9431786Y-17053214D02*
X9403214Y-17038929D01*
X9388928Y-17024643D01*
X9374643Y-16996072D01*
X9374643Y-16910357D01*
X9388928Y-16881786D01*
X9403214Y-16867500D01*
X9431786Y-16853214D01*
X9474643Y-16853214D01*
X9503214Y-16867500D01*
X9517500Y-16881786D01*
X9531786Y-16910357D01*
X9531786Y-16996072D01*
X9517500Y-17024643D01*
X9503214Y-17038929D01*
X9474643Y-17053214D01*
X9431786Y-17053214D01*
X9703214Y-17053214D02*
X9674643Y-17038929D01*
X9660357Y-17010357D01*
X9660357Y-16753214D01*
X9931786Y-17038929D02*
X9903214Y-17053214D01*
X9846071Y-17053214D01*
X9817500Y-17038929D01*
X9803214Y-17010357D01*
X9803214Y-16896072D01*
X9817500Y-16867500D01*
X9846071Y-16853214D01*
X9903214Y-16853214D01*
X9931786Y-16867500D01*
X9946071Y-16896072D01*
X9946071Y-16924643D01*
X9803214Y-16953214D01*
X10060357Y-17038929D02*
X10088928Y-17053214D01*
X10146071Y-17053214D01*
X10174643Y-17038929D01*
X10188928Y-17010357D01*
X10188928Y-16996072D01*
X10174643Y-16967500D01*
X10146071Y-16953214D01*
X10103214Y-16953214D01*
X10074643Y-16938929D01*
X10060357Y-16910357D01*
X10060357Y-16896072D01*
X10074643Y-16867500D01*
X10103214Y-16853214D01*
X10146071Y-16853214D01*
X10174643Y-16867500D01*
X10288928Y-17167500D02*
X10303214Y-17153214D01*
X10331786Y-17110357D01*
X10346071Y-17081786D01*
X10360357Y-17038929D01*
X10374643Y-16967500D01*
X10374643Y-16910357D01*
X10360357Y-16838929D01*
X10346071Y-16796072D01*
X10331786Y-16767500D01*
X10303214Y-16724643D01*
X10288928Y-16710357D01*
X3702500Y-17263500D02*
X3802500Y-17363500D01*
X3802500Y-17263500D02*
X3702500Y-17363500D01*
X3752500Y-17263500D02*
X3752500Y-17363500D01*
X3702500Y-17313500D02*
X3802500Y-17313500D01*
X4246071Y-17449214D02*
X4074643Y-17449214D01*
X4160357Y-17449214D02*
X4160357Y-17149214D01*
X4131786Y-17192072D01*
X4103214Y-17220643D01*
X4074643Y-17234929D01*
X4374643Y-17420643D02*
X4388928Y-17434929D01*
X4374643Y-17449214D01*
X4360357Y-17434929D01*
X4374643Y-17420643D01*
X4374643Y-17449214D01*
X4574643Y-17149214D02*
X4603214Y-17149214D01*
X4631786Y-17163500D01*
X4646071Y-17177786D01*
X4660357Y-17206357D01*
X4674643Y-17263500D01*
X4674643Y-17334929D01*
X4660357Y-17392072D01*
X4646071Y-17420643D01*
X4631786Y-17434929D01*
X4603214Y-17449214D01*
X4574643Y-17449214D01*
X4546071Y-17434929D01*
X4531786Y-17420643D01*
X4517500Y-17392072D01*
X4503214Y-17334929D01*
X4503214Y-17263500D01*
X4517500Y-17206357D01*
X4531786Y-17177786D01*
X4546071Y-17163500D01*
X4574643Y-17149214D01*
X4860357Y-17149214D02*
X4888928Y-17149214D01*
X4917500Y-17163500D01*
X4931786Y-17177786D01*
X4946071Y-17206357D01*
X4960357Y-17263500D01*
X4960357Y-17334929D01*
X4946071Y-17392072D01*
X4931786Y-17420643D01*
X4917500Y-17434929D01*
X4888928Y-17449214D01*
X4860357Y-17449214D01*
X4831786Y-17434929D01*
X4817500Y-17420643D01*
X4803214Y-17392072D01*
X4788928Y-17334929D01*
X4788928Y-17263500D01*
X4803214Y-17206357D01*
X4817500Y-17177786D01*
X4831786Y-17163500D01*
X4860357Y-17149214D01*
X5088928Y-17449214D02*
X5088928Y-17249214D01*
X5088928Y-17277786D02*
X5103214Y-17263500D01*
X5131786Y-17249214D01*
X5174643Y-17249214D01*
X5203214Y-17263500D01*
X5217500Y-17292072D01*
X5217500Y-17449214D01*
X5217500Y-17292072D02*
X5231786Y-17263500D01*
X5260357Y-17249214D01*
X5303214Y-17249214D01*
X5331786Y-17263500D01*
X5346071Y-17292072D01*
X5346071Y-17449214D01*
X5488928Y-17449214D02*
X5488928Y-17249214D01*
X5488928Y-17277786D02*
X5503214Y-17263500D01*
X5531786Y-17249214D01*
X5574643Y-17249214D01*
X5603214Y-17263500D01*
X5617500Y-17292072D01*
X5617500Y-17449214D01*
X5617500Y-17292072D02*
X5631786Y-17263500D01*
X5660357Y-17249214D01*
X5703214Y-17249214D01*
X5731786Y-17263500D01*
X5746071Y-17292072D01*
X5746071Y-17449214D01*
X6331786Y-17134929D02*
X6074643Y-17520643D01*
X6717500Y-17149214D02*
X6746071Y-17149214D01*
X6774643Y-17163500D01*
X6788928Y-17177786D01*
X6803214Y-17206357D01*
X6817500Y-17263500D01*
X6817500Y-17334929D01*
X6803214Y-17392072D01*
X6788928Y-17420643D01*
X6774643Y-17434929D01*
X6746071Y-17449214D01*
X6717500Y-17449214D01*
X6688928Y-17434929D01*
X6674643Y-17420643D01*
X6660357Y-17392072D01*
X6646071Y-17334929D01*
X6646071Y-17263500D01*
X6660357Y-17206357D01*
X6674643Y-17177786D01*
X6688928Y-17163500D01*
X6717500Y-17149214D01*
X6946071Y-17420643D02*
X6960357Y-17434929D01*
X6946071Y-17449214D01*
X6931786Y-17434929D01*
X6946071Y-17420643D01*
X6946071Y-17449214D01*
X7146071Y-17149214D02*
X7174643Y-17149214D01*
X7203214Y-17163500D01*
X7217500Y-17177786D01*
X7231786Y-17206357D01*
X7246071Y-17263500D01*
X7246071Y-17334929D01*
X7231786Y-17392072D01*
X7217500Y-17420643D01*
X7203214Y-17434929D01*
X7174643Y-17449214D01*
X7146071Y-17449214D01*
X7117500Y-17434929D01*
X7103214Y-17420643D01*
X7088928Y-17392072D01*
X7074643Y-17334929D01*
X7074643Y-17263500D01*
X7088928Y-17206357D01*
X7103214Y-17177786D01*
X7117500Y-17163500D01*
X7146071Y-17149214D01*
X7346071Y-17149214D02*
X7531786Y-17149214D01*
X7431786Y-17263500D01*
X7474643Y-17263500D01*
X7503214Y-17277786D01*
X7517500Y-17292072D01*
X7531786Y-17320643D01*
X7531786Y-17392072D01*
X7517500Y-17420643D01*
X7503214Y-17434929D01*
X7474643Y-17449214D01*
X7388928Y-17449214D01*
X7360357Y-17434929D01*
X7346071Y-17420643D01*
X7674643Y-17449214D02*
X7731786Y-17449214D01*
X7760357Y-17434929D01*
X7774643Y-17420643D01*
X7803214Y-17377786D01*
X7817500Y-17320643D01*
X7817500Y-17206357D01*
X7803214Y-17177786D01*
X7788928Y-17163500D01*
X7760357Y-17149214D01*
X7703214Y-17149214D01*
X7674643Y-17163500D01*
X7660357Y-17177786D01*
X7646071Y-17206357D01*
X7646071Y-17277786D01*
X7660357Y-17306357D01*
X7674643Y-17320643D01*
X7703214Y-17334929D01*
X7760357Y-17334929D01*
X7788928Y-17320643D01*
X7803214Y-17306357D01*
X7817500Y-17277786D01*
X7931786Y-17149214D02*
X7931786Y-17206357D01*
X8046071Y-17149214D02*
X8046071Y-17206357D01*
X8488928Y-17563500D02*
X8474643Y-17549214D01*
X8446071Y-17506357D01*
X8431786Y-17477786D01*
X8417500Y-17434929D01*
X8403214Y-17363500D01*
X8403214Y-17306357D01*
X8417500Y-17234929D01*
X8431786Y-17192072D01*
X8446071Y-17163500D01*
X8474643Y-17120643D01*
X8488928Y-17106357D01*
X8646071Y-17277786D02*
X8617500Y-17263500D01*
X8603214Y-17249214D01*
X8588928Y-17220643D01*
X8588928Y-17206357D01*
X8603214Y-17177786D01*
X8617500Y-17163500D01*
X8646071Y-17149214D01*
X8703214Y-17149214D01*
X8731786Y-17163500D01*
X8746071Y-17177786D01*
X8760357Y-17206357D01*
X8760357Y-17220643D01*
X8746071Y-17249214D01*
X8731786Y-17263500D01*
X8703214Y-17277786D01*
X8646071Y-17277786D01*
X8617500Y-17292072D01*
X8603214Y-17306357D01*
X8588928Y-17334929D01*
X8588928Y-17392072D01*
X8603214Y-17420643D01*
X8617500Y-17434929D01*
X8646071Y-17449214D01*
X8703214Y-17449214D01*
X8731786Y-17434929D01*
X8746071Y-17420643D01*
X8760357Y-17392072D01*
X8760357Y-17334929D01*
X8746071Y-17306357D01*
X8731786Y-17292072D01*
X8703214Y-17277786D01*
X8874643Y-17177786D02*
X8888928Y-17163500D01*
X8917500Y-17149214D01*
X8988928Y-17149214D01*
X9017500Y-17163500D01*
X9031786Y-17177786D01*
X9046071Y-17206357D01*
X9046071Y-17234929D01*
X9031786Y-17277786D01*
X8860357Y-17449214D01*
X9046071Y-17449214D01*
X9403214Y-17449214D02*
X9403214Y-17149214D01*
X9531786Y-17449214D02*
X9531786Y-17292072D01*
X9517500Y-17263500D01*
X9488928Y-17249214D01*
X9446071Y-17249214D01*
X9417500Y-17263500D01*
X9403214Y-17277786D01*
X9717500Y-17449214D02*
X9688928Y-17434929D01*
X9674643Y-17420643D01*
X9660357Y-17392072D01*
X9660357Y-17306357D01*
X9674643Y-17277786D01*
X9688928Y-17263500D01*
X9717500Y-17249214D01*
X9760357Y-17249214D01*
X9788928Y-17263500D01*
X9803214Y-17277786D01*
X9817500Y-17306357D01*
X9817500Y-17392072D01*
X9803214Y-17420643D01*
X9788928Y-17434929D01*
X9760357Y-17449214D01*
X9717500Y-17449214D01*
X9988928Y-17449214D02*
X9960357Y-17434929D01*
X9946071Y-17406357D01*
X9946071Y-17149214D01*
X10217500Y-17434929D02*
X10188928Y-17449214D01*
X10131786Y-17449214D01*
X10103214Y-17434929D01*
X10088928Y-17406357D01*
X10088928Y-17292072D01*
X10103214Y-17263500D01*
X10131786Y-17249214D01*
X10188928Y-17249214D01*
X10217500Y-17263500D01*
X10231786Y-17292072D01*
X10231786Y-17320643D01*
X10088928Y-17349214D01*
X10346071Y-17434929D02*
X10374643Y-17449214D01*
X10431786Y-17449214D01*
X10460357Y-17434929D01*
X10474643Y-17406357D01*
X10474643Y-17392072D01*
X10460357Y-17363500D01*
X10431786Y-17349214D01*
X10388928Y-17349214D01*
X10360357Y-17334929D01*
X10346071Y-17306357D01*
X10346071Y-17292072D01*
X10360357Y-17263500D01*
X10388928Y-17249214D01*
X10431786Y-17249214D01*
X10460357Y-17263500D01*
X10831786Y-17334929D02*
X11060357Y-17334929D01*
X10946071Y-17449214D02*
X10946071Y-17220643D01*
X11403214Y-17149214D02*
X11588928Y-17149214D01*
X11488928Y-17263500D01*
X11531786Y-17263500D01*
X11560357Y-17277786D01*
X11574643Y-17292072D01*
X11588928Y-17320643D01*
X11588928Y-17392072D01*
X11574643Y-17420643D01*
X11560357Y-17434929D01*
X11531786Y-17449214D01*
X11446071Y-17449214D01*
X11417500Y-17434929D01*
X11403214Y-17420643D01*
X11931786Y-17434929D02*
X11960357Y-17449214D01*
X12017500Y-17449214D01*
X12046071Y-17434929D01*
X12060357Y-17406357D01*
X12060357Y-17392072D01*
X12046071Y-17363500D01*
X12017500Y-17349214D01*
X11974643Y-17349214D01*
X11946071Y-17334929D01*
X11931786Y-17306357D01*
X11931786Y-17292072D01*
X11946071Y-17263500D01*
X11974643Y-17249214D01*
X12017500Y-17249214D01*
X12046071Y-17263500D01*
X12231786Y-17449214D02*
X12203214Y-17434929D01*
X12188928Y-17406357D01*
X12188928Y-17149214D01*
X12388928Y-17449214D02*
X12360357Y-17434929D01*
X12346071Y-17420643D01*
X12331786Y-17392072D01*
X12331786Y-17306357D01*
X12346071Y-17277786D01*
X12360357Y-17263500D01*
X12388928Y-17249214D01*
X12431786Y-17249214D01*
X12460357Y-17263500D01*
X12474643Y-17277786D01*
X12488928Y-17306357D01*
X12488928Y-17392072D01*
X12474643Y-17420643D01*
X12460357Y-17434929D01*
X12431786Y-17449214D01*
X12388928Y-17449214D01*
X12574643Y-17249214D02*
X12688928Y-17249214D01*
X12617500Y-17149214D02*
X12617500Y-17406357D01*
X12631786Y-17434929D01*
X12660357Y-17449214D01*
X12688928Y-17449214D01*
X12774643Y-17434929D02*
X12803214Y-17449214D01*
X12860357Y-17449214D01*
X12888928Y-17434929D01*
X12903214Y-17406357D01*
X12903214Y-17392072D01*
X12888928Y-17363500D01*
X12860357Y-17349214D01*
X12817500Y-17349214D01*
X12788928Y-17334929D01*
X12774643Y-17306357D01*
X12774643Y-17292072D01*
X12788928Y-17263500D01*
X12817500Y-17249214D01*
X12860357Y-17249214D01*
X12888928Y-17263500D01*
X13003214Y-17563500D02*
X13017500Y-17549214D01*
X13046071Y-17506357D01*
X13060357Y-17477786D01*
X13074643Y-17434929D01*
X13088928Y-17363500D01*
X13088928Y-17306357D01*
X13074643Y-17234929D01*
X13060357Y-17192072D01*
X13046071Y-17163500D01*
X13017500Y-17120643D01*
X13003214Y-17106357D01*
X3698360Y-17657430D02*
X3802500Y-17761570D01*
X3802500Y-17657430D02*
X3698360Y-17761570D01*
X3787249Y-17746320D02*
X3787249Y-17672681D01*
X3713610Y-17672681D01*
X3713610Y-17746320D01*
X3787249Y-17746320D01*
X4246071Y-17845214D02*
X4074643Y-17845214D01*
X4160357Y-17845214D02*
X4160357Y-17545214D01*
X4131786Y-17588072D01*
X4103214Y-17616643D01*
X4074643Y-17630929D01*
X4374643Y-17816643D02*
X4388928Y-17830929D01*
X4374643Y-17845214D01*
X4360357Y-17830929D01*
X4374643Y-17816643D01*
X4374643Y-17845214D01*
X4574643Y-17545214D02*
X4603214Y-17545214D01*
X4631786Y-17559500D01*
X4646071Y-17573786D01*
X4660357Y-17602357D01*
X4674643Y-17659500D01*
X4674643Y-17730929D01*
X4660357Y-17788072D01*
X4646071Y-17816643D01*
X4631786Y-17830929D01*
X4603214Y-17845214D01*
X4574643Y-17845214D01*
X4546071Y-17830929D01*
X4531786Y-17816643D01*
X4517500Y-17788072D01*
X4503214Y-17730929D01*
X4503214Y-17659500D01*
X4517500Y-17602357D01*
X4531786Y-17573786D01*
X4546071Y-17559500D01*
X4574643Y-17545214D01*
X4931786Y-17645214D02*
X4931786Y-17845214D01*
X4860357Y-17530929D02*
X4788928Y-17745214D01*
X4974643Y-17745214D01*
X5088928Y-17845214D02*
X5088928Y-17645214D01*
X5088928Y-17673786D02*
X5103214Y-17659500D01*
X5131786Y-17645214D01*
X5174643Y-17645214D01*
X5203214Y-17659500D01*
X5217500Y-17688072D01*
X5217500Y-17845214D01*
X5217500Y-17688072D02*
X5231786Y-17659500D01*
X5260357Y-17645214D01*
X5303214Y-17645214D01*
X5331786Y-17659500D01*
X5346071Y-17688072D01*
X5346071Y-17845214D01*
X5488928Y-17845214D02*
X5488928Y-17645214D01*
X5488928Y-17673786D02*
X5503214Y-17659500D01*
X5531786Y-17645214D01*
X5574643Y-17645214D01*
X5603214Y-17659500D01*
X5617500Y-17688072D01*
X5617500Y-17845214D01*
X5617500Y-17688072D02*
X5631786Y-17659500D01*
X5660357Y-17645214D01*
X5703214Y-17645214D01*
X5731786Y-17659500D01*
X5746071Y-17688072D01*
X5746071Y-17845214D01*
X6331786Y-17530929D02*
X6074643Y-17916643D01*
X6717500Y-17545214D02*
X6746071Y-17545214D01*
X6774643Y-17559500D01*
X6788928Y-17573786D01*
X6803214Y-17602357D01*
X6817500Y-17659500D01*
X6817500Y-17730929D01*
X6803214Y-17788072D01*
X6788928Y-17816643D01*
X6774643Y-17830929D01*
X6746071Y-17845214D01*
X6717500Y-17845214D01*
X6688928Y-17830929D01*
X6674643Y-17816643D01*
X6660357Y-17788072D01*
X6646071Y-17730929D01*
X6646071Y-17659500D01*
X6660357Y-17602357D01*
X6674643Y-17573786D01*
X6688928Y-17559500D01*
X6717500Y-17545214D01*
X6946071Y-17816643D02*
X6960357Y-17830929D01*
X6946071Y-17845214D01*
X6931786Y-17830929D01*
X6946071Y-17816643D01*
X6946071Y-17845214D01*
X7146071Y-17545214D02*
X7174643Y-17545214D01*
X7203214Y-17559500D01*
X7217500Y-17573786D01*
X7231786Y-17602357D01*
X7246071Y-17659500D01*
X7246071Y-17730929D01*
X7231786Y-17788072D01*
X7217500Y-17816643D01*
X7203214Y-17830929D01*
X7174643Y-17845214D01*
X7146071Y-17845214D01*
X7117500Y-17830929D01*
X7103214Y-17816643D01*
X7088928Y-17788072D01*
X7074643Y-17730929D01*
X7074643Y-17659500D01*
X7088928Y-17602357D01*
X7103214Y-17573786D01*
X7117500Y-17559500D01*
X7146071Y-17545214D01*
X7503214Y-17645214D02*
X7503214Y-17845214D01*
X7431786Y-17530929D02*
X7360357Y-17745214D01*
X7546071Y-17745214D01*
X7817500Y-17845214D02*
X7646071Y-17845214D01*
X7731786Y-17845214D02*
X7731786Y-17545214D01*
X7703214Y-17588072D01*
X7674643Y-17616643D01*
X7646071Y-17630929D01*
X7931786Y-17545214D02*
X7931786Y-17602357D01*
X8046071Y-17545214D02*
X8046071Y-17602357D01*
X8488928Y-17959500D02*
X8474643Y-17945214D01*
X8446071Y-17902357D01*
X8431786Y-17873786D01*
X8417500Y-17830929D01*
X8403214Y-17759500D01*
X8403214Y-17702357D01*
X8417500Y-17630929D01*
X8431786Y-17588072D01*
X8446071Y-17559500D01*
X8474643Y-17516643D01*
X8488928Y-17502357D01*
X8731786Y-17645214D02*
X8731786Y-17845214D01*
X8660357Y-17530929D02*
X8588928Y-17745214D01*
X8774643Y-17745214D01*
X9117500Y-17845214D02*
X9117500Y-17545214D01*
X9246071Y-17845214D02*
X9246071Y-17688072D01*
X9231786Y-17659500D01*
X9203214Y-17645214D01*
X9160357Y-17645214D01*
X9131786Y-17659500D01*
X9117500Y-17673786D01*
X9431786Y-17845214D02*
X9403214Y-17830929D01*
X9388928Y-17816643D01*
X9374643Y-17788072D01*
X9374643Y-17702357D01*
X9388928Y-17673786D01*
X9403214Y-17659500D01*
X9431786Y-17645214D01*
X9474643Y-17645214D01*
X9503214Y-17659500D01*
X9517500Y-17673786D01*
X9531786Y-17702357D01*
X9531786Y-17788072D01*
X9517500Y-17816643D01*
X9503214Y-17830929D01*
X9474643Y-17845214D01*
X9431786Y-17845214D01*
X9703214Y-17845214D02*
X9674643Y-17830929D01*
X9660357Y-17802357D01*
X9660357Y-17545214D01*
X9931786Y-17830929D02*
X9903214Y-17845214D01*
X9846071Y-17845214D01*
X9817500Y-17830929D01*
X9803214Y-17802357D01*
X9803214Y-17688072D01*
X9817500Y-17659500D01*
X9846071Y-17645214D01*
X9903214Y-17645214D01*
X9931786Y-17659500D01*
X9946071Y-17688072D01*
X9946071Y-17716643D01*
X9803214Y-17745214D01*
X10060357Y-17830929D02*
X10088928Y-17845214D01*
X10146071Y-17845214D01*
X10174643Y-17830929D01*
X10188928Y-17802357D01*
X10188928Y-17788072D01*
X10174643Y-17759500D01*
X10146071Y-17745214D01*
X10103214Y-17745214D01*
X10074643Y-17730929D01*
X10060357Y-17702357D01*
X10060357Y-17688072D01*
X10074643Y-17659500D01*
X10103214Y-17645214D01*
X10146071Y-17645214D01*
X10174643Y-17659500D01*
X10288928Y-17959500D02*
X10303214Y-17945214D01*
X10331786Y-17902357D01*
X10346071Y-17873786D01*
X10360357Y-17830929D01*
X10374643Y-17759500D01*
X10374643Y-17702357D01*
X10360357Y-17630929D01*
X10346071Y-17588072D01*
X10331786Y-17559500D01*
X10303214Y-17516643D01*
X10288928Y-17502357D01*
X3672960Y-18040730D02*
X3802500Y-18170270D01*
X3802500Y-18040730D02*
X3672960Y-18170270D01*
X3737730Y-18170270D02*
X3802500Y-18105500D01*
X3737730Y-18040730D01*
X3672960Y-18105500D01*
X3737730Y-18170270D01*
X4246071Y-18241214D02*
X4074643Y-18241214D01*
X4160357Y-18241214D02*
X4160357Y-17941214D01*
X4131786Y-17984072D01*
X4103214Y-18012643D01*
X4074643Y-18026929D01*
X4374643Y-18212643D02*
X4388928Y-18226929D01*
X4374643Y-18241214D01*
X4360357Y-18226929D01*
X4374643Y-18212643D01*
X4374643Y-18241214D01*
X4488928Y-17941214D02*
X4674643Y-17941214D01*
X4574643Y-18055500D01*
X4617500Y-18055500D01*
X4646071Y-18069786D01*
X4660357Y-18084072D01*
X4674643Y-18112643D01*
X4674643Y-18184072D01*
X4660357Y-18212643D01*
X4646071Y-18226929D01*
X4617500Y-18241214D01*
X4531786Y-18241214D01*
X4503214Y-18226929D01*
X4488928Y-18212643D01*
X4860357Y-17941214D02*
X4888928Y-17941214D01*
X4917500Y-17955500D01*
X4931786Y-17969786D01*
X4946071Y-17998357D01*
X4960357Y-18055500D01*
X4960357Y-18126929D01*
X4946071Y-18184072D01*
X4931786Y-18212643D01*
X4917500Y-18226929D01*
X4888928Y-18241214D01*
X4860357Y-18241214D01*
X4831786Y-18226929D01*
X4817500Y-18212643D01*
X4803214Y-18184072D01*
X4788928Y-18126929D01*
X4788928Y-18055500D01*
X4803214Y-17998357D01*
X4817500Y-17969786D01*
X4831786Y-17955500D01*
X4860357Y-17941214D01*
X5088928Y-18241214D02*
X5088928Y-18041214D01*
X5088928Y-18069786D02*
X5103214Y-18055500D01*
X5131786Y-18041214D01*
X5174643Y-18041214D01*
X5203214Y-18055500D01*
X5217500Y-18084072D01*
X5217500Y-18241214D01*
X5217500Y-18084072D02*
X5231786Y-18055500D01*
X5260357Y-18041214D01*
X5303214Y-18041214D01*
X5331786Y-18055500D01*
X5346071Y-18084072D01*
X5346071Y-18241214D01*
X5488928Y-18241214D02*
X5488928Y-18041214D01*
X5488928Y-18069786D02*
X5503214Y-18055500D01*
X5531786Y-18041214D01*
X5574643Y-18041214D01*
X5603214Y-18055500D01*
X5617500Y-18084072D01*
X5617500Y-18241214D01*
X5617500Y-18084072D02*
X5631786Y-18055500D01*
X5660357Y-18041214D01*
X5703214Y-18041214D01*
X5731786Y-18055500D01*
X5746071Y-18084072D01*
X5746071Y-18241214D01*
X6331786Y-17926929D02*
X6074643Y-18312643D01*
X6717500Y-17941214D02*
X6746071Y-17941214D01*
X6774643Y-17955500D01*
X6788928Y-17969786D01*
X6803214Y-17998357D01*
X6817500Y-18055500D01*
X6817500Y-18126929D01*
X6803214Y-18184072D01*
X6788928Y-18212643D01*
X6774643Y-18226929D01*
X6746071Y-18241214D01*
X6717500Y-18241214D01*
X6688928Y-18226929D01*
X6674643Y-18212643D01*
X6660357Y-18184072D01*
X6646071Y-18126929D01*
X6646071Y-18055500D01*
X6660357Y-17998357D01*
X6674643Y-17969786D01*
X6688928Y-17955500D01*
X6717500Y-17941214D01*
X6946071Y-18212643D02*
X6960357Y-18226929D01*
X6946071Y-18241214D01*
X6931786Y-18226929D01*
X6946071Y-18212643D01*
X6946071Y-18241214D01*
X7146071Y-17941214D02*
X7174643Y-17941214D01*
X7203214Y-17955500D01*
X7217500Y-17969786D01*
X7231786Y-17998357D01*
X7246071Y-18055500D01*
X7246071Y-18126929D01*
X7231786Y-18184072D01*
X7217500Y-18212643D01*
X7203214Y-18226929D01*
X7174643Y-18241214D01*
X7146071Y-18241214D01*
X7117500Y-18226929D01*
X7103214Y-18212643D01*
X7088928Y-18184072D01*
X7074643Y-18126929D01*
X7074643Y-18055500D01*
X7088928Y-17998357D01*
X7103214Y-17969786D01*
X7117500Y-17955500D01*
X7146071Y-17941214D01*
X7517500Y-17941214D02*
X7374643Y-17941214D01*
X7360357Y-18084072D01*
X7374643Y-18069786D01*
X7403214Y-18055500D01*
X7474643Y-18055500D01*
X7503214Y-18069786D01*
X7517500Y-18084072D01*
X7531786Y-18112643D01*
X7531786Y-18184072D01*
X7517500Y-18212643D01*
X7503214Y-18226929D01*
X7474643Y-18241214D01*
X7403214Y-18241214D01*
X7374643Y-18226929D01*
X7360357Y-18212643D01*
X7817500Y-18241214D02*
X7646071Y-18241214D01*
X7731786Y-18241214D02*
X7731786Y-17941214D01*
X7703214Y-17984072D01*
X7674643Y-18012643D01*
X7646071Y-18026929D01*
X7931786Y-17941214D02*
X7931786Y-17998357D01*
X8046071Y-17941214D02*
X8046071Y-17998357D01*
X8488928Y-18355500D02*
X8474643Y-18341214D01*
X8446071Y-18298357D01*
X8431786Y-18269786D01*
X8417500Y-18226929D01*
X8403214Y-18155500D01*
X8403214Y-18098357D01*
X8417500Y-18026929D01*
X8431786Y-17984072D01*
X8446071Y-17955500D01*
X8474643Y-17912643D01*
X8488928Y-17898357D01*
X8588928Y-17969786D02*
X8603214Y-17955500D01*
X8631786Y-17941214D01*
X8703214Y-17941214D01*
X8731786Y-17955500D01*
X8746071Y-17969786D01*
X8760357Y-17998357D01*
X8760357Y-18026929D01*
X8746071Y-18069786D01*
X8574643Y-18241214D01*
X8760357Y-18241214D01*
X9117500Y-18241214D02*
X9117500Y-17941214D01*
X9246071Y-18241214D02*
X9246071Y-18084072D01*
X9231786Y-18055500D01*
X9203214Y-18041214D01*
X9160357Y-18041214D01*
X9131786Y-18055500D01*
X9117500Y-18069786D01*
X9431786Y-18241214D02*
X9403214Y-18226929D01*
X9388928Y-18212643D01*
X9374643Y-18184072D01*
X9374643Y-18098357D01*
X9388928Y-18069786D01*
X9403214Y-18055500D01*
X9431786Y-18041214D01*
X9474643Y-18041214D01*
X9503214Y-18055500D01*
X9517500Y-18069786D01*
X9531786Y-18098357D01*
X9531786Y-18184072D01*
X9517500Y-18212643D01*
X9503214Y-18226929D01*
X9474643Y-18241214D01*
X9431786Y-18241214D01*
X9703214Y-18241214D02*
X9674643Y-18226929D01*
X9660357Y-18198357D01*
X9660357Y-17941214D01*
X9931786Y-18226929D02*
X9903214Y-18241214D01*
X9846071Y-18241214D01*
X9817500Y-18226929D01*
X9803214Y-18198357D01*
X9803214Y-18084072D01*
X9817500Y-18055500D01*
X9846071Y-18041214D01*
X9903214Y-18041214D01*
X9931786Y-18055500D01*
X9946071Y-18084072D01*
X9946071Y-18112643D01*
X9803214Y-18141214D01*
X10060357Y-18226929D02*
X10088928Y-18241214D01*
X10146071Y-18241214D01*
X10174643Y-18226929D01*
X10188928Y-18198357D01*
X10188928Y-18184072D01*
X10174643Y-18155500D01*
X10146071Y-18141214D01*
X10103214Y-18141214D01*
X10074643Y-18126929D01*
X10060357Y-18098357D01*
X10060357Y-18084072D01*
X10074643Y-18055500D01*
X10103214Y-18041214D01*
X10146071Y-18041214D01*
X10174643Y-18055500D01*
X10288928Y-18355500D02*
X10303214Y-18341214D01*
X10331786Y-18298357D01*
X10346071Y-18269786D01*
X10360357Y-18226929D01*
X10374643Y-18155500D01*
X10374643Y-18098357D01*
X10360357Y-18026929D01*
X10346071Y-17984072D01*
X10331786Y-17955500D01*
X10303214Y-17912643D01*
X10288928Y-17898357D01*
X3722490Y-18421490D02*
X3722490Y-18581510D01*
X3642480Y-18501500D02*
X3802500Y-18501500D01*
X3802500Y-18501500D02*
G75*
G03*
X3802500Y-18501500I-80010J0D01*
G01*
X4246071Y-18637214D02*
X4074643Y-18637214D01*
X4160357Y-18637214D02*
X4160357Y-18337214D01*
X4131786Y-18380072D01*
X4103214Y-18408643D01*
X4074643Y-18422929D01*
X4374643Y-18608643D02*
X4388928Y-18622929D01*
X4374643Y-18637214D01*
X4360357Y-18622929D01*
X4374643Y-18608643D01*
X4374643Y-18637214D01*
X4646071Y-18337214D02*
X4588928Y-18337214D01*
X4560357Y-18351500D01*
X4546071Y-18365786D01*
X4517500Y-18408643D01*
X4503214Y-18465786D01*
X4503214Y-18580072D01*
X4517500Y-18608643D01*
X4531786Y-18622929D01*
X4560357Y-18637214D01*
X4617500Y-18637214D01*
X4646071Y-18622929D01*
X4660357Y-18608643D01*
X4674643Y-18580072D01*
X4674643Y-18508643D01*
X4660357Y-18480072D01*
X4646071Y-18465786D01*
X4617500Y-18451500D01*
X4560357Y-18451500D01*
X4531786Y-18465786D01*
X4517500Y-18480072D01*
X4503214Y-18508643D01*
X4860357Y-18337214D02*
X4888928Y-18337214D01*
X4917500Y-18351500D01*
X4931786Y-18365786D01*
X4946071Y-18394357D01*
X4960357Y-18451500D01*
X4960357Y-18522929D01*
X4946071Y-18580072D01*
X4931786Y-18608643D01*
X4917500Y-18622929D01*
X4888928Y-18637214D01*
X4860357Y-18637214D01*
X4831786Y-18622929D01*
X4817500Y-18608643D01*
X4803214Y-18580072D01*
X4788928Y-18522929D01*
X4788928Y-18451500D01*
X4803214Y-18394357D01*
X4817500Y-18365786D01*
X4831786Y-18351500D01*
X4860357Y-18337214D01*
X5088928Y-18637214D02*
X5088928Y-18437214D01*
X5088928Y-18465786D02*
X5103214Y-18451500D01*
X5131786Y-18437214D01*
X5174643Y-18437214D01*
X5203214Y-18451500D01*
X5217500Y-18480072D01*
X5217500Y-18637214D01*
X5217500Y-18480072D02*
X5231786Y-18451500D01*
X5260357Y-18437214D01*
X5303214Y-18437214D01*
X5331786Y-18451500D01*
X5346071Y-18480072D01*
X5346071Y-18637214D01*
X5488928Y-18637214D02*
X5488928Y-18437214D01*
X5488928Y-18465786D02*
X5503214Y-18451500D01*
X5531786Y-18437214D01*
X5574643Y-18437214D01*
X5603214Y-18451500D01*
X5617500Y-18480072D01*
X5617500Y-18637214D01*
X5617500Y-18480072D02*
X5631786Y-18451500D01*
X5660357Y-18437214D01*
X5703214Y-18437214D01*
X5731786Y-18451500D01*
X5746071Y-18480072D01*
X5746071Y-18637214D01*
X6331786Y-18322929D02*
X6074643Y-18708643D01*
X6717500Y-18337214D02*
X6746071Y-18337214D01*
X6774643Y-18351500D01*
X6788928Y-18365786D01*
X6803214Y-18394357D01*
X6817500Y-18451500D01*
X6817500Y-18522929D01*
X6803214Y-18580072D01*
X6788928Y-18608643D01*
X6774643Y-18622929D01*
X6746071Y-18637214D01*
X6717500Y-18637214D01*
X6688928Y-18622929D01*
X6674643Y-18608643D01*
X6660357Y-18580072D01*
X6646071Y-18522929D01*
X6646071Y-18451500D01*
X6660357Y-18394357D01*
X6674643Y-18365786D01*
X6688928Y-18351500D01*
X6717500Y-18337214D01*
X6946071Y-18608643D02*
X6960357Y-18622929D01*
X6946071Y-18637214D01*
X6931786Y-18622929D01*
X6946071Y-18608643D01*
X6946071Y-18637214D01*
X7146071Y-18337214D02*
X7174643Y-18337214D01*
X7203214Y-18351500D01*
X7217500Y-18365786D01*
X7231786Y-18394357D01*
X7246071Y-18451500D01*
X7246071Y-18522929D01*
X7231786Y-18580072D01*
X7217500Y-18608643D01*
X7203214Y-18622929D01*
X7174643Y-18637214D01*
X7146071Y-18637214D01*
X7117500Y-18622929D01*
X7103214Y-18608643D01*
X7088928Y-18580072D01*
X7074643Y-18522929D01*
X7074643Y-18451500D01*
X7088928Y-18394357D01*
X7103214Y-18365786D01*
X7117500Y-18351500D01*
X7146071Y-18337214D01*
X7503214Y-18337214D02*
X7446071Y-18337214D01*
X7417500Y-18351500D01*
X7403214Y-18365786D01*
X7374643Y-18408643D01*
X7360357Y-18465786D01*
X7360357Y-18580072D01*
X7374643Y-18608643D01*
X7388928Y-18622929D01*
X7417500Y-18637214D01*
X7474643Y-18637214D01*
X7503214Y-18622929D01*
X7517500Y-18608643D01*
X7531786Y-18580072D01*
X7531786Y-18508643D01*
X7517500Y-18480072D01*
X7503214Y-18465786D01*
X7474643Y-18451500D01*
X7417500Y-18451500D01*
X7388928Y-18465786D01*
X7374643Y-18480072D01*
X7360357Y-18508643D01*
X7631786Y-18337214D02*
X7817500Y-18337214D01*
X7717500Y-18451500D01*
X7760357Y-18451500D01*
X7788928Y-18465786D01*
X7803214Y-18480072D01*
X7817500Y-18508643D01*
X7817500Y-18580072D01*
X7803214Y-18608643D01*
X7788928Y-18622929D01*
X7760357Y-18637214D01*
X7674643Y-18637214D01*
X7646071Y-18622929D01*
X7631786Y-18608643D01*
X7931786Y-18337214D02*
X7931786Y-18394357D01*
X8046071Y-18337214D02*
X8046071Y-18394357D01*
X8488928Y-18751500D02*
X8474643Y-18737214D01*
X8446071Y-18694357D01*
X8431786Y-18665786D01*
X8417500Y-18622929D01*
X8403214Y-18551500D01*
X8403214Y-18494357D01*
X8417500Y-18422929D01*
X8431786Y-18380072D01*
X8446071Y-18351500D01*
X8474643Y-18308643D01*
X8488928Y-18294357D01*
X8588928Y-18365786D02*
X8603214Y-18351500D01*
X8631786Y-18337214D01*
X8703214Y-18337214D01*
X8731786Y-18351500D01*
X8746071Y-18365786D01*
X8760357Y-18394357D01*
X8760357Y-18422929D01*
X8746071Y-18465786D01*
X8574643Y-18637214D01*
X8760357Y-18637214D01*
X9117500Y-18637214D02*
X9117500Y-18337214D01*
X9246071Y-18637214D02*
X9246071Y-18480072D01*
X9231786Y-18451500D01*
X9203214Y-18437214D01*
X9160357Y-18437214D01*
X9131786Y-18451500D01*
X9117500Y-18465786D01*
X9431786Y-18637214D02*
X9403214Y-18622929D01*
X9388928Y-18608643D01*
X9374643Y-18580072D01*
X9374643Y-18494357D01*
X9388928Y-18465786D01*
X9403214Y-18451500D01*
X9431786Y-18437214D01*
X9474643Y-18437214D01*
X9503214Y-18451500D01*
X9517500Y-18465786D01*
X9531786Y-18494357D01*
X9531786Y-18580072D01*
X9517500Y-18608643D01*
X9503214Y-18622929D01*
X9474643Y-18637214D01*
X9431786Y-18637214D01*
X9703214Y-18637214D02*
X9674643Y-18622929D01*
X9660357Y-18594357D01*
X9660357Y-18337214D01*
X9931786Y-18622929D02*
X9903214Y-18637214D01*
X9846071Y-18637214D01*
X9817500Y-18622929D01*
X9803214Y-18594357D01*
X9803214Y-18480072D01*
X9817500Y-18451500D01*
X9846071Y-18437214D01*
X9903214Y-18437214D01*
X9931786Y-18451500D01*
X9946071Y-18480072D01*
X9946071Y-18508643D01*
X9803214Y-18537214D01*
X10060357Y-18622929D02*
X10088928Y-18637214D01*
X10146071Y-18637214D01*
X10174643Y-18622929D01*
X10188928Y-18594357D01*
X10188928Y-18580072D01*
X10174643Y-18551500D01*
X10146071Y-18537214D01*
X10103214Y-18537214D01*
X10074643Y-18522929D01*
X10060357Y-18494357D01*
X10060357Y-18480072D01*
X10074643Y-18451500D01*
X10103214Y-18437214D01*
X10146071Y-18437214D01*
X10174643Y-18451500D01*
X10288928Y-18751500D02*
X10303214Y-18737214D01*
X10331786Y-18694357D01*
X10346071Y-18665786D01*
X10360357Y-18622929D01*
X10374643Y-18551500D01*
X10374643Y-18494357D01*
X10360357Y-18422929D01*
X10346071Y-18380072D01*
X10331786Y-18351500D01*
X10303214Y-18308643D01*
X10288928Y-18294357D01*
X3755638Y-19010638D02*
X3755638Y-18784362D01*
X3529362Y-18784362D01*
X3529362Y-19010638D01*
X3755638Y-19010638D01*
X3802500Y-18897500D02*
G75*
G03*
X3802500Y-18897500I-160000J0D01*
G01*
X4060357Y-18733214D02*
X4246071Y-18733214D01*
X4146071Y-18847500D01*
X4188928Y-18847500D01*
X4217500Y-18861786D01*
X4231786Y-18876072D01*
X4246071Y-18904643D01*
X4246071Y-18976072D01*
X4231786Y-19004643D01*
X4217500Y-19018929D01*
X4188928Y-19033214D01*
X4103214Y-19033214D01*
X4074643Y-19018929D01*
X4060357Y-19004643D01*
X4374643Y-19004643D02*
X4388928Y-19018929D01*
X4374643Y-19033214D01*
X4360357Y-19018929D01*
X4374643Y-19004643D01*
X4374643Y-19033214D01*
X4503214Y-18761786D02*
X4517500Y-18747500D01*
X4546071Y-18733214D01*
X4617500Y-18733214D01*
X4646071Y-18747500D01*
X4660357Y-18761786D01*
X4674643Y-18790357D01*
X4674643Y-18818929D01*
X4660357Y-18861786D01*
X4488928Y-19033214D01*
X4674643Y-19033214D01*
X4860357Y-18733214D02*
X4888928Y-18733214D01*
X4917500Y-18747500D01*
X4931786Y-18761786D01*
X4946071Y-18790357D01*
X4960357Y-18847500D01*
X4960357Y-18918929D01*
X4946071Y-18976072D01*
X4931786Y-19004643D01*
X4917500Y-19018929D01*
X4888928Y-19033214D01*
X4860357Y-19033214D01*
X4831786Y-19018929D01*
X4817500Y-19004643D01*
X4803214Y-18976072D01*
X4788928Y-18918929D01*
X4788928Y-18847500D01*
X4803214Y-18790357D01*
X4817500Y-18761786D01*
X4831786Y-18747500D01*
X4860357Y-18733214D01*
X5088928Y-19033214D02*
X5088928Y-18833214D01*
X5088928Y-18861786D02*
X5103214Y-18847500D01*
X5131786Y-18833214D01*
X5174643Y-18833214D01*
X5203214Y-18847500D01*
X5217500Y-18876072D01*
X5217500Y-19033214D01*
X5217500Y-18876072D02*
X5231786Y-18847500D01*
X5260357Y-18833214D01*
X5303214Y-18833214D01*
X5331786Y-18847500D01*
X5346071Y-18876072D01*
X5346071Y-19033214D01*
X5488928Y-19033214D02*
X5488928Y-18833214D01*
X5488928Y-18861786D02*
X5503214Y-18847500D01*
X5531786Y-18833214D01*
X5574643Y-18833214D01*
X5603214Y-18847500D01*
X5617500Y-18876072D01*
X5617500Y-19033214D01*
X5617500Y-18876072D02*
X5631786Y-18847500D01*
X5660357Y-18833214D01*
X5703214Y-18833214D01*
X5731786Y-18847500D01*
X5746071Y-18876072D01*
X5746071Y-19033214D01*
X6331786Y-18718929D02*
X6074643Y-19104643D01*
X6717500Y-18733214D02*
X6746071Y-18733214D01*
X6774643Y-18747500D01*
X6788928Y-18761786D01*
X6803214Y-18790357D01*
X6817500Y-18847500D01*
X6817500Y-18918929D01*
X6803214Y-18976072D01*
X6788928Y-19004643D01*
X6774643Y-19018929D01*
X6746071Y-19033214D01*
X6717500Y-19033214D01*
X6688928Y-19018929D01*
X6674643Y-19004643D01*
X6660357Y-18976072D01*
X6646071Y-18918929D01*
X6646071Y-18847500D01*
X6660357Y-18790357D01*
X6674643Y-18761786D01*
X6688928Y-18747500D01*
X6717500Y-18733214D01*
X6946071Y-19004643D02*
X6960357Y-19018929D01*
X6946071Y-19033214D01*
X6931786Y-19018929D01*
X6946071Y-19004643D01*
X6946071Y-19033214D01*
X7246071Y-19033214D02*
X7074643Y-19033214D01*
X7160357Y-19033214D02*
X7160357Y-18733214D01*
X7131786Y-18776072D01*
X7103214Y-18804643D01*
X7074643Y-18818929D01*
X7360357Y-18761786D02*
X7374643Y-18747500D01*
X7403214Y-18733214D01*
X7474643Y-18733214D01*
X7503214Y-18747500D01*
X7517500Y-18761786D01*
X7531786Y-18790357D01*
X7531786Y-18818929D01*
X7517500Y-18861786D01*
X7346071Y-19033214D01*
X7531786Y-19033214D01*
X7788928Y-18733214D02*
X7731786Y-18733214D01*
X7703214Y-18747500D01*
X7688928Y-18761786D01*
X7660357Y-18804643D01*
X7646071Y-18861786D01*
X7646071Y-18976072D01*
X7660357Y-19004643D01*
X7674643Y-19018929D01*
X7703214Y-19033214D01*
X7760357Y-19033214D01*
X7788928Y-19018929D01*
X7803214Y-19004643D01*
X7817500Y-18976072D01*
X7817500Y-18904643D01*
X7803214Y-18876072D01*
X7788928Y-18861786D01*
X7760357Y-18847500D01*
X7703214Y-18847500D01*
X7674643Y-18861786D01*
X7660357Y-18876072D01*
X7646071Y-18904643D01*
X7931786Y-18733214D02*
X7931786Y-18790357D01*
X8046071Y-18733214D02*
X8046071Y-18790357D01*
X8488928Y-19147500D02*
X8474643Y-19133214D01*
X8446071Y-19090357D01*
X8431786Y-19061786D01*
X8417500Y-19018929D01*
X8403214Y-18947500D01*
X8403214Y-18890357D01*
X8417500Y-18818929D01*
X8431786Y-18776072D01*
X8446071Y-18747500D01*
X8474643Y-18704643D01*
X8488928Y-18690357D01*
X8588928Y-18761786D02*
X8603214Y-18747500D01*
X8631786Y-18733214D01*
X8703214Y-18733214D01*
X8731786Y-18747500D01*
X8746071Y-18761786D01*
X8760357Y-18790357D01*
X8760357Y-18818929D01*
X8746071Y-18861786D01*
X8574643Y-19033214D01*
X8760357Y-19033214D01*
X9117500Y-19033214D02*
X9117500Y-18733214D01*
X9246071Y-19033214D02*
X9246071Y-18876072D01*
X9231786Y-18847500D01*
X9203214Y-18833214D01*
X9160357Y-18833214D01*
X9131786Y-18847500D01*
X9117500Y-18861786D01*
X9431786Y-19033214D02*
X9403214Y-19018929D01*
X9388928Y-19004643D01*
X9374643Y-18976072D01*
X9374643Y-18890357D01*
X9388928Y-18861786D01*
X9403214Y-18847500D01*
X9431786Y-18833214D01*
X9474643Y-18833214D01*
X9503214Y-18847500D01*
X9517500Y-18861786D01*
X9531786Y-18890357D01*
X9531786Y-18976072D01*
X9517500Y-19004643D01*
X9503214Y-19018929D01*
X9474643Y-19033214D01*
X9431786Y-19033214D01*
X9703214Y-19033214D02*
X9674643Y-19018929D01*
X9660357Y-18990357D01*
X9660357Y-18733214D01*
X9931786Y-19018929D02*
X9903214Y-19033214D01*
X9846071Y-19033214D01*
X9817500Y-19018929D01*
X9803214Y-18990357D01*
X9803214Y-18876072D01*
X9817500Y-18847500D01*
X9846071Y-18833214D01*
X9903214Y-18833214D01*
X9931786Y-18847500D01*
X9946071Y-18876072D01*
X9946071Y-18904643D01*
X9803214Y-18933214D01*
X10060357Y-19018929D02*
X10088928Y-19033214D01*
X10146071Y-19033214D01*
X10174643Y-19018929D01*
X10188928Y-18990357D01*
X10188928Y-18976072D01*
X10174643Y-18947500D01*
X10146071Y-18933214D01*
X10103214Y-18933214D01*
X10074643Y-18918929D01*
X10060357Y-18890357D01*
X10060357Y-18876072D01*
X10074643Y-18847500D01*
X10103214Y-18833214D01*
X10146071Y-18833214D01*
X10174643Y-18847500D01*
X10288928Y-19147500D02*
X10303214Y-19133214D01*
X10331786Y-19090357D01*
X10346071Y-19061786D01*
X10360357Y-19018929D01*
X10374643Y-18947500D01*
X10374643Y-18890357D01*
X10360357Y-18818929D01*
X10346071Y-18776072D01*
X10331786Y-18747500D01*
X10303214Y-18704643D01*
X10288928Y-18690357D01*
X3639940Y-19510060D02*
X3802500Y-19347500D01*
X3639940Y-19184940D01*
X3477380Y-19347500D01*
X3639940Y-19510060D01*
X3802500Y-19347500D02*
G75*
G03*
X3802500Y-19347500I-162560J0D01*
G01*
X4060357Y-19183214D02*
X4246071Y-19183214D01*
X4146071Y-19297500D01*
X4188928Y-19297500D01*
X4217500Y-19311786D01*
X4231786Y-19326072D01*
X4246071Y-19354643D01*
X4246071Y-19426072D01*
X4231786Y-19454643D01*
X4217500Y-19468929D01*
X4188928Y-19483214D01*
X4103214Y-19483214D01*
X4074643Y-19468929D01*
X4060357Y-19454643D01*
X4374643Y-19454643D02*
X4388928Y-19468929D01*
X4374643Y-19483214D01*
X4360357Y-19468929D01*
X4374643Y-19454643D01*
X4374643Y-19483214D01*
X4503214Y-19211786D02*
X4517500Y-19197500D01*
X4546071Y-19183214D01*
X4617500Y-19183214D01*
X4646071Y-19197500D01*
X4660357Y-19211786D01*
X4674643Y-19240357D01*
X4674643Y-19268929D01*
X4660357Y-19311786D01*
X4488928Y-19483214D01*
X4674643Y-19483214D01*
X4946071Y-19183214D02*
X4803214Y-19183214D01*
X4788928Y-19326072D01*
X4803214Y-19311786D01*
X4831786Y-19297500D01*
X4903214Y-19297500D01*
X4931786Y-19311786D01*
X4946071Y-19326072D01*
X4960357Y-19354643D01*
X4960357Y-19426072D01*
X4946071Y-19454643D01*
X4931786Y-19468929D01*
X4903214Y-19483214D01*
X4831786Y-19483214D01*
X4803214Y-19468929D01*
X4788928Y-19454643D01*
X5088928Y-19483214D02*
X5088928Y-19283214D01*
X5088928Y-19311786D02*
X5103214Y-19297500D01*
X5131786Y-19283214D01*
X5174643Y-19283214D01*
X5203214Y-19297500D01*
X5217500Y-19326072D01*
X5217500Y-19483214D01*
X5217500Y-19326072D02*
X5231786Y-19297500D01*
X5260357Y-19283214D01*
X5303214Y-19283214D01*
X5331786Y-19297500D01*
X5346071Y-19326072D01*
X5346071Y-19483214D01*
X5488928Y-19483214D02*
X5488928Y-19283214D01*
X5488928Y-19311786D02*
X5503214Y-19297500D01*
X5531786Y-19283214D01*
X5574643Y-19283214D01*
X5603214Y-19297500D01*
X5617500Y-19326072D01*
X5617500Y-19483214D01*
X5617500Y-19326072D02*
X5631786Y-19297500D01*
X5660357Y-19283214D01*
X5703214Y-19283214D01*
X5731786Y-19297500D01*
X5746071Y-19326072D01*
X5746071Y-19483214D01*
X6331786Y-19168929D02*
X6074643Y-19554643D01*
X6717500Y-19183214D02*
X6746071Y-19183214D01*
X6774643Y-19197500D01*
X6788928Y-19211786D01*
X6803214Y-19240357D01*
X6817500Y-19297500D01*
X6817500Y-19368929D01*
X6803214Y-19426072D01*
X6788928Y-19454643D01*
X6774643Y-19468929D01*
X6746071Y-19483214D01*
X6717500Y-19483214D01*
X6688928Y-19468929D01*
X6674643Y-19454643D01*
X6660357Y-19426072D01*
X6646071Y-19368929D01*
X6646071Y-19297500D01*
X6660357Y-19240357D01*
X6674643Y-19211786D01*
X6688928Y-19197500D01*
X6717500Y-19183214D01*
X6946071Y-19454643D02*
X6960357Y-19468929D01*
X6946071Y-19483214D01*
X6931786Y-19468929D01*
X6946071Y-19454643D01*
X6946071Y-19483214D01*
X7246071Y-19483214D02*
X7074643Y-19483214D01*
X7160357Y-19483214D02*
X7160357Y-19183214D01*
X7131786Y-19226072D01*
X7103214Y-19254643D01*
X7074643Y-19268929D01*
X7360357Y-19211786D02*
X7374643Y-19197500D01*
X7403214Y-19183214D01*
X7474643Y-19183214D01*
X7503214Y-19197500D01*
X7517500Y-19211786D01*
X7531786Y-19240357D01*
X7531786Y-19268929D01*
X7517500Y-19311786D01*
X7346071Y-19483214D01*
X7531786Y-19483214D01*
X7703214Y-19311786D02*
X7674643Y-19297500D01*
X7660357Y-19283214D01*
X7646071Y-19254643D01*
X7646071Y-19240357D01*
X7660357Y-19211786D01*
X7674643Y-19197500D01*
X7703214Y-19183214D01*
X7760357Y-19183214D01*
X7788928Y-19197500D01*
X7803214Y-19211786D01*
X7817500Y-19240357D01*
X7817500Y-19254643D01*
X7803214Y-19283214D01*
X7788928Y-19297500D01*
X7760357Y-19311786D01*
X7703214Y-19311786D01*
X7674643Y-19326072D01*
X7660357Y-19340357D01*
X7646071Y-19368929D01*
X7646071Y-19426072D01*
X7660357Y-19454643D01*
X7674643Y-19468929D01*
X7703214Y-19483214D01*
X7760357Y-19483214D01*
X7788928Y-19468929D01*
X7803214Y-19454643D01*
X7817500Y-19426072D01*
X7817500Y-19368929D01*
X7803214Y-19340357D01*
X7788928Y-19326072D01*
X7760357Y-19311786D01*
X7931786Y-19183214D02*
X7931786Y-19240357D01*
X8046071Y-19183214D02*
X8046071Y-19240357D01*
X8488928Y-19597500D02*
X8474643Y-19583214D01*
X8446071Y-19540357D01*
X8431786Y-19511786D01*
X8417500Y-19468929D01*
X8403214Y-19397500D01*
X8403214Y-19340357D01*
X8417500Y-19268929D01*
X8431786Y-19226072D01*
X8446071Y-19197500D01*
X8474643Y-19154643D01*
X8488928Y-19140357D01*
X8588928Y-19211786D02*
X8603214Y-19197500D01*
X8631786Y-19183214D01*
X8703214Y-19183214D01*
X8731786Y-19197500D01*
X8746071Y-19211786D01*
X8760357Y-19240357D01*
X8760357Y-19268929D01*
X8746071Y-19311786D01*
X8574643Y-19483214D01*
X8760357Y-19483214D01*
X9117500Y-19483214D02*
X9117500Y-19183214D01*
X9246071Y-19483214D02*
X9246071Y-19326072D01*
X9231786Y-19297500D01*
X9203214Y-19283214D01*
X9160357Y-19283214D01*
X9131786Y-19297500D01*
X9117500Y-19311786D01*
X9431786Y-19483214D02*
X9403214Y-19468929D01*
X9388928Y-19454643D01*
X9374643Y-19426072D01*
X9374643Y-19340357D01*
X9388928Y-19311786D01*
X9403214Y-19297500D01*
X9431786Y-19283214D01*
X9474643Y-19283214D01*
X9503214Y-19297500D01*
X9517500Y-19311786D01*
X9531786Y-19340357D01*
X9531786Y-19426072D01*
X9517500Y-19454643D01*
X9503214Y-19468929D01*
X9474643Y-19483214D01*
X9431786Y-19483214D01*
X9703214Y-19483214D02*
X9674643Y-19468929D01*
X9660357Y-19440357D01*
X9660357Y-19183214D01*
X9931786Y-19468929D02*
X9903214Y-19483214D01*
X9846071Y-19483214D01*
X9817500Y-19468929D01*
X9803214Y-19440357D01*
X9803214Y-19326072D01*
X9817500Y-19297500D01*
X9846071Y-19283214D01*
X9903214Y-19283214D01*
X9931786Y-19297500D01*
X9946071Y-19326072D01*
X9946071Y-19354643D01*
X9803214Y-19383214D01*
X10060357Y-19468929D02*
X10088928Y-19483214D01*
X10146071Y-19483214D01*
X10174643Y-19468929D01*
X10188928Y-19440357D01*
X10188928Y-19426072D01*
X10174643Y-19397500D01*
X10146071Y-19383214D01*
X10103214Y-19383214D01*
X10074643Y-19368929D01*
X10060357Y-19340357D01*
X10060357Y-19326072D01*
X10074643Y-19297500D01*
X10103214Y-19283214D01*
X10146071Y-19283214D01*
X10174643Y-19297500D01*
X10288928Y-19597500D02*
X10303214Y-19583214D01*
X10331786Y-19540357D01*
X10346071Y-19511786D01*
X10360357Y-19468929D01*
X10374643Y-19397500D01*
X10374643Y-19340357D01*
X10360357Y-19268929D01*
X10346071Y-19226072D01*
X10331786Y-19197500D01*
X10303214Y-19154643D01*
X10288928Y-19140357D01*
M02*
