M48
; DRILL file {KiCad (5.1.8)-1} date 01/07/22 12:24:23
; FORMAT={-:-/ absolute / metric / decimal}
; #@! TF.CreationDate,2022-01-07T12:24:23-05:00
; #@! TF.GenerationSoftware,Kicad,Pcbnew,(5.1.8)-1
; #@! TF.FileFunction,Plated,1,2,PTH
FMAT,2
METRIC
T1C0.400
T2C0.700
T3C0.711
T4C0.762
T5C0.800
T6C0.889
T7C1.000
T8C1.041
T9C1.295
T10C1.600
T11C3.200
T12C3.251
%
G90
G05
T1
X42.545Y-54.17
X45.136Y-79.4
X45.136Y-101.905
X45.136Y-110.439
X45.339Y-122.047
X47.244Y-115.849
X47.346Y-110.338
X47.371Y-122.047
X48.743Y-110.338
X48.768Y-115.849
X53.34Y-59.309
X53.34Y-60.325
X54.356Y-59.309
X54.356Y-60.325
X54.864Y-105.537
X55.372Y-59.309
X55.372Y-60.325
X58.293Y-54.737
X60.325Y-56.261
X60.579Y-49.911
X63.627Y-49.911
X64.008Y-55.118
X66.675Y-49.911
X67.564Y-54.991
X67.691Y-87.757
X67.818Y-85.725
X68.326Y-86.741
X68.961Y-85.725
X68.961Y-87.757
X69.596Y-86.741
X69.723Y-49.911
X70.104Y-85.725
X70.104Y-87.757
X70.739Y-86.741
X70.866Y-54.991
X71.247Y-85.725
X71.247Y-87.757
X71.882Y-86.741
X72.39Y-85.725
X72.517Y-87.757
X72.771Y-49.911
X74.041Y-54.991
X75.819Y-49.911
X76.835Y-54.991
X78.867Y-49.911
X79.883Y-55.118
X80.391Y-124.714
X80.645Y-118.364
X81.915Y-49.911
X82.169Y-118.364
X82.169Y-124.714
X83.439Y-55.118
X83.82Y-118.364
X83.82Y-124.714
X84.963Y-49.911
X86.487Y-55.118
X86.487Y-59.563
X86.487Y-84.963
X87.122Y-58.674
X87.757Y-59.563
X88.011Y-49.911
X89.281Y-54.991
X91.059Y-49.911
X92.329Y-54.991
X94.107Y-49.911
X96.647Y-103.708
X108.204Y-97.358
X109.957Y-71.679
X109.957Y-73.787
X109.957Y-75.54
X119.253Y-106.934
X121.234Y-76.632
X122.53Y-52.934
X122.53Y-54.356
X124.816Y-79.858
X124.841Y-78.308
X124.892Y-76.81
X127.864Y-51.486
X127.889Y-49.657
X127.914Y-47.93
X133.096Y-54.737
X136.017Y-123.139
X136.068Y-120.98
X137.142Y-64.788
X137.16Y-63.221
X137.213Y-61.838
X137.338Y-123.063
X137.363Y-120.98
X139.65Y-118.822
X140.462Y-54.737
X141.986Y-123.952
X150.622Y-117.856
T2
X64.405Y-65.823
X64.405Y-67.823
X64.405Y-69.823
X66.405Y-65.823
X66.405Y-67.823
X66.405Y-69.823
T3
X127.635Y-60.3
X130.175Y-57.76
X132.715Y-60.3
X116.84Y-57.15
X119.38Y-59.69
X121.92Y-57.15
T4
X73.66Y-124.968
X76.46Y-136.968
X98.46Y-136.968
X101.26Y-124.968
X40.132Y-124.968
X42.932Y-136.968
X64.932Y-136.968
X67.732Y-124.968
T5
X117.475Y-62.23
X117.475Y-72.39
X120.015Y-62.23
X120.015Y-72.39
X122.555Y-62.23
X122.555Y-72.39
X125.095Y-62.23
X125.095Y-72.39
X127.635Y-62.23
X127.635Y-72.39
X130.175Y-62.23
X130.175Y-72.39
X132.715Y-62.23
X132.715Y-72.39
X51.435Y-63.373
X51.435Y-78.613
X53.975Y-63.373
X53.975Y-78.613
X56.515Y-63.373
X56.515Y-78.613
X59.055Y-63.373
X59.055Y-78.613
X61.595Y-63.373
X61.595Y-78.613
X64.135Y-63.373
X64.135Y-78.613
X66.675Y-63.373
X66.675Y-78.613
X69.215Y-63.373
X69.215Y-78.613
X71.755Y-63.373
X71.755Y-78.613
X74.295Y-63.373
X74.295Y-78.613
X76.835Y-63.373
X76.835Y-78.613
X79.375Y-63.373
X79.375Y-78.613
X81.915Y-63.373
X81.915Y-78.613
X84.455Y-63.373
X84.455Y-78.613
X86.995Y-63.373
X86.995Y-78.613
X89.535Y-63.373
X89.535Y-78.613
X92.075Y-63.373
X92.075Y-78.613
X94.615Y-63.373
X94.615Y-78.613
X97.155Y-63.373
X97.155Y-76.073
X97.155Y-78.613
X99.695Y-63.373
X99.695Y-78.613
X102.235Y-63.373
X102.235Y-78.613
X104.775Y-63.373
X104.775Y-78.613
X107.315Y-63.373
X107.315Y-78.613
X109.855Y-63.373
X109.855Y-78.613
T6
X43.688Y-58.908
X44.958Y-56.368
X46.228Y-58.908
X47.498Y-56.368
X48.768Y-58.908
X50.038Y-56.368
X51.308Y-58.908
X52.578Y-56.368
T7
X108.204Y-111.252
X108.204Y-113.411
X108.204Y-115.697
X108.331Y-109.093
X109.855Y-110.236
X109.855Y-112.395
X109.855Y-114.681
X109.982Y-108.077
X115.189Y-110.236
X115.189Y-112.395
X115.189Y-114.681
X115.316Y-108.077
X116.586Y-111.379
X116.586Y-113.538
X116.586Y-115.824
X116.713Y-109.22
X62.611Y-40.767
X62.611Y-43.307
X65.151Y-40.767
X65.151Y-43.307
X67.691Y-40.767
X67.691Y-43.307
X70.231Y-40.767
X70.231Y-43.307
X72.771Y-40.767
X72.771Y-43.307
X75.311Y-40.767
X75.311Y-43.307
X77.851Y-40.767
X77.851Y-43.307
X80.391Y-40.767
X80.391Y-43.307
X82.931Y-40.767
X82.931Y-43.307
X85.471Y-40.767
X85.471Y-43.307
X88.011Y-40.767
X88.011Y-43.307
X90.551Y-40.767
X90.551Y-43.307
X40.259Y-109.22
X40.259Y-111.76
X40.259Y-114.3
X42.799Y-109.22
X42.799Y-111.76
X42.799Y-114.3
X117.094Y-40.767
X117.094Y-43.307
X119.634Y-40.767
X119.634Y-43.307
X122.174Y-40.767
X122.174Y-43.307
X124.714Y-40.767
X124.714Y-43.307
X144.208Y-61.849
X144.208Y-64.389
X144.208Y-66.929
X129.794Y-40.767
X132.334Y-40.767
X134.874Y-40.767
X40.259Y-82.804
X40.259Y-85.344
X40.259Y-87.884
X40.259Y-90.424
X40.259Y-92.964
X40.259Y-95.504
X40.259Y-98.044
X40.259Y-100.584
X40.259Y-103.124
X40.259Y-105.664
X42.799Y-82.804
X42.799Y-85.344
X42.799Y-87.884
X42.799Y-90.424
X42.799Y-92.964
X42.799Y-95.504
X42.799Y-98.044
X42.799Y-100.584
X42.799Y-103.124
X42.799Y-105.664
X145.136Y-40.894
X147.676Y-40.894
T8
X41.808Y-46.638
X44.348Y-44.938
X51.918Y-46.638
X54.458Y-44.918
T9
X122.025Y-134.391
X127.025Y-134.391
T10
X40.258Y-53.048
X56.008Y-53.048
T11
X98.806Y-116.153
X98.855Y-85.802
T12
X42.418Y-49.998
X53.848Y-49.998
T7
X137.698Y-135.667G85X137.698Y-133.167
G05
X139.648Y-129.717G85X142.148Y-129.717
G05
X143.898Y-135.667G85X143.898Y-133.167
G05
T0
M30
