%FSLAX45Y45*%
G04 Gerber Fmt 4.5, Leading zero omitted, Abs format (unit mm)*
G04 Created by KiCad (PCBNEW (5.1.8)-1) date 2022-01-07 12:24:24*
%MOMM*%
%LPD*%
G01*
G04 APERTURE LIST*
%TA.AperFunction,Profile*%
%ADD10C,0.050000*%
%TD*%
%TA.AperFunction,Profile*%
%ADD11C,0.150000*%
%TD*%
%ADD12C,0.200000*%
%ADD13C,0.300000*%
G04 APERTURE END LIST*
D10*
X3810000Y-3810000D02*
X15240000Y-3810000D01*
X15240000Y-13970000D02*
X3810000Y-13970000D01*
X15240000Y-3810000D02*
X15240000Y-13970000D01*
D11*
X3810000Y-13970000D02*
X3810000Y-3810000D01*
D12*
D13*
X4088928Y-14443214D02*
X4088928Y-14143214D01*
X4160357Y-14143214D01*
X4203214Y-14157500D01*
X4231786Y-14186071D01*
X4246071Y-14214643D01*
X4260357Y-14271786D01*
X4260357Y-14314643D01*
X4246071Y-14371786D01*
X4231786Y-14400357D01*
X4203214Y-14428929D01*
X4160357Y-14443214D01*
X4088928Y-14443214D01*
X4388928Y-14443214D02*
X4388928Y-14243214D01*
X4388928Y-14300357D02*
X4403214Y-14271786D01*
X4417500Y-14257500D01*
X4446071Y-14243214D01*
X4474643Y-14243214D01*
X4574643Y-14443214D02*
X4574643Y-14243214D01*
X4574643Y-14143214D02*
X4560357Y-14157500D01*
X4574643Y-14171786D01*
X4588928Y-14157500D01*
X4574643Y-14143214D01*
X4574643Y-14171786D01*
X4760357Y-14443214D02*
X4731786Y-14428929D01*
X4717500Y-14400357D01*
X4717500Y-14143214D01*
X4917500Y-14443214D02*
X4888928Y-14428929D01*
X4874643Y-14400357D01*
X4874643Y-14143214D01*
X5260357Y-14443214D02*
X5260357Y-14143214D01*
X5360357Y-14357500D01*
X5460357Y-14143214D01*
X5460357Y-14443214D01*
X5731786Y-14443214D02*
X5731786Y-14286071D01*
X5717500Y-14257500D01*
X5688928Y-14243214D01*
X5631786Y-14243214D01*
X5603214Y-14257500D01*
X5731786Y-14428929D02*
X5703214Y-14443214D01*
X5631786Y-14443214D01*
X5603214Y-14428929D01*
X5588928Y-14400357D01*
X5588928Y-14371786D01*
X5603214Y-14343214D01*
X5631786Y-14328929D01*
X5703214Y-14328929D01*
X5731786Y-14314643D01*
X5874643Y-14243214D02*
X5874643Y-14543214D01*
X5874643Y-14257500D02*
X5903214Y-14243214D01*
X5960357Y-14243214D01*
X5988928Y-14257500D01*
X6003214Y-14271786D01*
X6017500Y-14300357D01*
X6017500Y-14386071D01*
X6003214Y-14414643D01*
X5988928Y-14428929D01*
X5960357Y-14443214D01*
X5903214Y-14443214D01*
X5874643Y-14428929D01*
X6146071Y-14414643D02*
X6160357Y-14428929D01*
X6146071Y-14443214D01*
X6131786Y-14428929D01*
X6146071Y-14414643D01*
X6146071Y-14443214D01*
X6146071Y-14257500D02*
X6160357Y-14271786D01*
X6146071Y-14286071D01*
X6131786Y-14271786D01*
X6146071Y-14257500D01*
X6146071Y-14286071D01*
M02*
