%FSLAX45Y45*%
G04 Gerber Fmt 4.5, Leading zero omitted, Abs format (unit mm)*
G04 Created by KiCad (PCBNEW (5.1.8)-1) date 2022-02-24 01:17:40*
%MOMM*%
%LPD*%
G01*
G04 APERTURE LIST*
%TA.AperFunction,Profile*%
%ADD10C,0.050000*%
%TD*%
%ADD11C,0.200000*%
%ADD12C,0.300000*%
G04 APERTURE END LIST*
D10*
X15240000Y-3810000D02*
X16050000Y-3810000D01*
X16050000Y-13970000D02*
X15240000Y-13970000D01*
X3000000Y-13970000D02*
X3810000Y-13970000D01*
X3000000Y-3810000D02*
X3000000Y-13970000D01*
X3810000Y-3810000D02*
X3000000Y-3810000D01*
X3810000Y-3810000D02*
X15240000Y-3810000D01*
X15240000Y-13970000D02*
X3810000Y-13970000D01*
X16050000Y-3810000D02*
X16050000Y-13970000D01*
D11*
D12*
X3283928Y-14438214D02*
X3283928Y-14138214D01*
X3355357Y-14138214D01*
X3398214Y-14152500D01*
X3426786Y-14181071D01*
X3441071Y-14209643D01*
X3455357Y-14266786D01*
X3455357Y-14309643D01*
X3441071Y-14366786D01*
X3426786Y-14395357D01*
X3398214Y-14423929D01*
X3355357Y-14438214D01*
X3283928Y-14438214D01*
X3583928Y-14438214D02*
X3583928Y-14238214D01*
X3583928Y-14295357D02*
X3598214Y-14266786D01*
X3612500Y-14252500D01*
X3641071Y-14238214D01*
X3669643Y-14238214D01*
X3769643Y-14438214D02*
X3769643Y-14238214D01*
X3769643Y-14138214D02*
X3755357Y-14152500D01*
X3769643Y-14166786D01*
X3783928Y-14152500D01*
X3769643Y-14138214D01*
X3769643Y-14166786D01*
X3955357Y-14438214D02*
X3926786Y-14423929D01*
X3912500Y-14395357D01*
X3912500Y-14138214D01*
X4112500Y-14438214D02*
X4083928Y-14423929D01*
X4069643Y-14395357D01*
X4069643Y-14138214D01*
X4455357Y-14438214D02*
X4455357Y-14138214D01*
X4555357Y-14352500D01*
X4655357Y-14138214D01*
X4655357Y-14438214D01*
X4926786Y-14438214D02*
X4926786Y-14281071D01*
X4912500Y-14252500D01*
X4883928Y-14238214D01*
X4826786Y-14238214D01*
X4798214Y-14252500D01*
X4926786Y-14423929D02*
X4898214Y-14438214D01*
X4826786Y-14438214D01*
X4798214Y-14423929D01*
X4783928Y-14395357D01*
X4783928Y-14366786D01*
X4798214Y-14338214D01*
X4826786Y-14323929D01*
X4898214Y-14323929D01*
X4926786Y-14309643D01*
X5069643Y-14238214D02*
X5069643Y-14538214D01*
X5069643Y-14252500D02*
X5098214Y-14238214D01*
X5155357Y-14238214D01*
X5183928Y-14252500D01*
X5198214Y-14266786D01*
X5212500Y-14295357D01*
X5212500Y-14381071D01*
X5198214Y-14409643D01*
X5183928Y-14423929D01*
X5155357Y-14438214D01*
X5098214Y-14438214D01*
X5069643Y-14423929D01*
X5341071Y-14409643D02*
X5355357Y-14423929D01*
X5341071Y-14438214D01*
X5326786Y-14423929D01*
X5341071Y-14409643D01*
X5341071Y-14438214D01*
X5341071Y-14252500D02*
X5355357Y-14266786D01*
X5341071Y-14281071D01*
X5326786Y-14266786D01*
X5341071Y-14252500D01*
X5341071Y-14281071D01*
M02*
