%TF.GenerationSoftware,KiCad,Pcbnew,(5.1.8)-1*%
%TF.CreationDate,2022-02-24T01:16:36-05:00*%
%TF.ProjectId,OCE_L,4f43455f-4c2e-46b6-9963-61645f706362,rev?*%
%TF.SameCoordinates,Original*%
%TF.FileFunction,Soldermask,Top*%
%TF.FilePolarity,Negative*%
%FSLAX46Y46*%
G04 Gerber Fmt 4.6, Leading zero omitted, Abs format (unit mm)*
G04 Created by KiCad (PCBNEW (5.1.8)-1) date 2022-02-24 01:16:36*
%MOMM*%
%LPD*%
G01*
G04 APERTURE LIST*
%ADD10C,3.000000*%
%ADD11C,1.308000*%
%ADD12C,1.208000*%
%ADD13O,2.000000X5.000000*%
%ADD14R,1.524000X0.431800*%
%ADD15R,1.500000X2.000000*%
%ADD16R,3.800000X2.000000*%
%ADD17O,1.700000X1.700000*%
%ADD18R,1.700000X1.700000*%
%ADD19C,1.397000*%
%ADD20C,1.549400*%
%ADD21C,3.759200*%
%ADD22C,2.108200*%
%ADD23O,1.600000X1.600000*%
%ADD24R,1.600000X1.600000*%
%ADD25C,1.219200*%
%ADD26R,0.762000X1.219200*%
%ADD27R,1.219200X0.762000*%
%ADD28C,1.803400*%
%ADD29C,2.500000*%
%ADD30C,2.030000*%
%ADD31R,2.030000X2.030000*%
%ADD32R,1.003300X0.508000*%
%ADD33R,1.170000X0.400000*%
%ADD34C,1.524000*%
G04 APERTURE END LIST*
D10*
X34972000Y-42100000D02*
G75*
G03*
X34972000Y-42100000I-1000000J0D01*
G01*
X157400000Y-42100000D02*
G75*
G03*
X157400000Y-42100000I-1000000J0D01*
G01*
X157200000Y-122000000D02*
G75*
G03*
X157200000Y-122000000I-1000000J0D01*
G01*
X35100000Y-122000000D02*
G75*
G03*
X35100000Y-122000000I-1000000J0D01*
G01*
D11*
%TO.C,IC1*%
X51435000Y-78613000D03*
X53975000Y-78613000D03*
X97155000Y-76073000D03*
X86995000Y-63373000D03*
D12*
X66405000Y-65823000D03*
X64405000Y-65823000D03*
X66405000Y-67823000D03*
X66405000Y-69823000D03*
X64405000Y-67823000D03*
X64405000Y-69823000D03*
D11*
X56515000Y-78613000D03*
X59055000Y-78613000D03*
X61595000Y-78613000D03*
X64135000Y-78613000D03*
X66675000Y-78613000D03*
X69215000Y-78613000D03*
X71755000Y-78613000D03*
X74295000Y-78613000D03*
X76835000Y-78613000D03*
X79375000Y-78613000D03*
X81915000Y-78613000D03*
X84455000Y-78613000D03*
X86995000Y-78613000D03*
X84455000Y-63373000D03*
X81915000Y-63373000D03*
X79375000Y-63373000D03*
X76835000Y-63373000D03*
X74295000Y-63373000D03*
X71755000Y-63373000D03*
X69215000Y-63373000D03*
X66675000Y-63373000D03*
X64135000Y-63373000D03*
X61595000Y-63373000D03*
X59055000Y-63373000D03*
X56515000Y-63373000D03*
X53975000Y-63373000D03*
X51435000Y-63373000D03*
X89535000Y-78613000D03*
X92075000Y-78613000D03*
X94615000Y-78613000D03*
X97155000Y-78613000D03*
X99695000Y-78613000D03*
X102235000Y-78613000D03*
X104775000Y-78613000D03*
X107315000Y-78613000D03*
X109855000Y-78613000D03*
X109855000Y-63373000D03*
X107315000Y-63373000D03*
X104775000Y-63373000D03*
X102235000Y-63373000D03*
X99695000Y-63373000D03*
X97155000Y-63373000D03*
X94615000Y-63373000D03*
X92075000Y-63373000D03*
X89535000Y-63373000D03*
%TD*%
D13*
%TO.C,J2*%
X145542000Y-76073000D03*
X151742000Y-76073000D03*
G36*
G01*
X150242000Y-72373000D02*
X147242000Y-72373000D01*
G75*
G02*
X146242000Y-71373000I0J1000000D01*
G01*
X146242000Y-71373000D01*
G75*
G02*
X147242000Y-70373000I1000000J0D01*
G01*
X150242000Y-70373000D01*
G75*
G02*
X151242000Y-71373000I0J-1000000D01*
G01*
X151242000Y-71373000D01*
G75*
G02*
X150242000Y-72373000I-1000000J0D01*
G01*
G37*
%TD*%
D14*
%TO.C,U8*%
X144132300Y-49540402D03*
X144132300Y-50190400D03*
X144132300Y-50840402D03*
X144132300Y-51490400D03*
X148475700Y-51490400D03*
X148475700Y-50840402D03*
X148475700Y-50190400D03*
X148475700Y-49540402D03*
%TD*%
%TO.C,R12*%
G36*
G01*
X130958000Y-76855000D02*
X130408000Y-76855000D01*
G75*
G02*
X130208000Y-76655000I0J200000D01*
G01*
X130208000Y-76255000D01*
G75*
G02*
X130408000Y-76055000I200000J0D01*
G01*
X130958000Y-76055000D01*
G75*
G02*
X131158000Y-76255000I0J-200000D01*
G01*
X131158000Y-76655000D01*
G75*
G02*
X130958000Y-76855000I-200000J0D01*
G01*
G37*
G36*
G01*
X130958000Y-78505000D02*
X130408000Y-78505000D01*
G75*
G02*
X130208000Y-78305000I0J200000D01*
G01*
X130208000Y-77905000D01*
G75*
G02*
X130408000Y-77705000I200000J0D01*
G01*
X130958000Y-77705000D01*
G75*
G02*
X131158000Y-77905000I0J-200000D01*
G01*
X131158000Y-78305000D01*
G75*
G02*
X130958000Y-78505000I-200000J0D01*
G01*
G37*
%TD*%
D15*
%TO.C,U1*%
X157367000Y-109143000D03*
X152767000Y-109143000D03*
X155067000Y-109143000D03*
D16*
X155067000Y-115443000D03*
%TD*%
D17*
%TO.C,J6*%
X134874000Y-40767000D03*
X132334000Y-40767000D03*
D18*
X129794000Y-40767000D03*
%TD*%
D15*
%TO.C,U5*%
X157367000Y-98171000D03*
X152767000Y-98171000D03*
X155067000Y-98171000D03*
D16*
X155067000Y-104471000D03*
%TD*%
D17*
%TO.C,J4*%
X62611000Y-40767000D03*
X62611000Y-43307000D03*
X65151000Y-40767000D03*
X65151000Y-43307000D03*
X67691000Y-40767000D03*
X67691000Y-43307000D03*
X70231000Y-40767000D03*
X70231000Y-43307000D03*
X72771000Y-40767000D03*
X72771000Y-43307000D03*
X75311000Y-40767000D03*
X75311000Y-43307000D03*
X77851000Y-40767000D03*
X77851000Y-43307000D03*
X80391000Y-40767000D03*
X80391000Y-43307000D03*
X82931000Y-40767000D03*
X82931000Y-43307000D03*
X85471000Y-40767000D03*
X85471000Y-43307000D03*
X88011000Y-40767000D03*
X88011000Y-43307000D03*
X90551000Y-40767000D03*
D18*
X90551000Y-43307000D03*
%TD*%
D17*
%TO.C,J3*%
X124714000Y-40767000D03*
X122174000Y-40767000D03*
X119634000Y-40767000D03*
X117094000Y-40767000D03*
X124714000Y-43307000D03*
X122174000Y-43307000D03*
X119634000Y-43307000D03*
D18*
X117094000Y-43307000D03*
%TD*%
D19*
%TO.C,J9*%
X51308000Y-58908010D03*
X48768000Y-58908010D03*
X46228000Y-58908010D03*
X43688000Y-58908010D03*
X52578000Y-56368010D03*
X50038000Y-56368010D03*
X47498000Y-56368010D03*
X44958000Y-56368010D03*
D20*
X54458000Y-44918010D03*
X51918000Y-46638010D03*
X44348000Y-44938010D03*
X41808000Y-46638010D03*
D21*
X53848000Y-49998010D03*
X42418000Y-49998010D03*
D22*
X56007998Y-53048010D03*
X40258002Y-53048010D03*
%TD*%
%TO.C,C3*%
G36*
G01*
X135034000Y-63238001D02*
X135984000Y-63238001D01*
G75*
G02*
X136234000Y-63488001I0J-250000D01*
G01*
X136234000Y-63988001D01*
G75*
G02*
X135984000Y-64238001I-250000J0D01*
G01*
X135034000Y-64238001D01*
G75*
G02*
X134784000Y-63988001I0J250000D01*
G01*
X134784000Y-63488001D01*
G75*
G02*
X135034000Y-63238001I250000J0D01*
G01*
G37*
G36*
G01*
X135034000Y-61338001D02*
X135984000Y-61338001D01*
G75*
G02*
X136234000Y-61588001I0J-250000D01*
G01*
X136234000Y-62088001D01*
G75*
G02*
X135984000Y-62338001I-250000J0D01*
G01*
X135034000Y-62338001D01*
G75*
G02*
X134784000Y-62088001I0J250000D01*
G01*
X134784000Y-61588001D01*
G75*
G02*
X135034000Y-61338001I250000J0D01*
G01*
G37*
%TD*%
%TO.C,C5*%
G36*
G01*
X117950000Y-76827000D02*
X117000000Y-76827000D01*
G75*
G02*
X116750000Y-76577000I0J250000D01*
G01*
X116750000Y-76077000D01*
G75*
G02*
X117000000Y-75827000I250000J0D01*
G01*
X117950000Y-75827000D01*
G75*
G02*
X118200000Y-76077000I0J-250000D01*
G01*
X118200000Y-76577000D01*
G75*
G02*
X117950000Y-76827000I-250000J0D01*
G01*
G37*
G36*
G01*
X117950000Y-78727000D02*
X117000000Y-78727000D01*
G75*
G02*
X116750000Y-78477000I0J250000D01*
G01*
X116750000Y-77977000D01*
G75*
G02*
X117000000Y-77727000I250000J0D01*
G01*
X117950000Y-77727000D01*
G75*
G02*
X118200000Y-77977000I0J-250000D01*
G01*
X118200000Y-78477000D01*
G75*
G02*
X117950000Y-78727000I-250000J0D01*
G01*
G37*
%TD*%
%TO.C,C6*%
G36*
G01*
X130127200Y-80637400D02*
X130127200Y-79687400D01*
G75*
G02*
X130377200Y-79437400I250000J0D01*
G01*
X130877200Y-79437400D01*
G75*
G02*
X131127200Y-79687400I0J-250000D01*
G01*
X131127200Y-80637400D01*
G75*
G02*
X130877200Y-80887400I-250000J0D01*
G01*
X130377200Y-80887400D01*
G75*
G02*
X130127200Y-80637400I0J250000D01*
G01*
G37*
G36*
G01*
X128227200Y-80637400D02*
X128227200Y-79687400D01*
G75*
G02*
X128477200Y-79437400I250000J0D01*
G01*
X128977200Y-79437400D01*
G75*
G02*
X129227200Y-79687400I0J-250000D01*
G01*
X129227200Y-80637400D01*
G75*
G02*
X128977200Y-80887400I-250000J0D01*
G01*
X128477200Y-80887400D01*
G75*
G02*
X128227200Y-80637400I0J250000D01*
G01*
G37*
%TD*%
%TO.C,C7*%
G36*
G01*
X107394200Y-93045300D02*
X107394200Y-92095300D01*
G75*
G02*
X107644200Y-91845300I250000J0D01*
G01*
X108144200Y-91845300D01*
G75*
G02*
X108394200Y-92095300I0J-250000D01*
G01*
X108394200Y-93045300D01*
G75*
G02*
X108144200Y-93295300I-250000J0D01*
G01*
X107644200Y-93295300D01*
G75*
G02*
X107394200Y-93045300I0J250000D01*
G01*
G37*
G36*
G01*
X105494200Y-93045300D02*
X105494200Y-92095300D01*
G75*
G02*
X105744200Y-91845300I250000J0D01*
G01*
X106244200Y-91845300D01*
G75*
G02*
X106494200Y-92095300I0J-250000D01*
G01*
X106494200Y-93045300D01*
G75*
G02*
X106244200Y-93295300I-250000J0D01*
G01*
X105744200Y-93295300D01*
G75*
G02*
X105494200Y-93045300I0J250000D01*
G01*
G37*
%TD*%
%TO.C,C9*%
G36*
G01*
X58580000Y-52962000D02*
X59530000Y-52962000D01*
G75*
G02*
X59780000Y-53212000I0J-250000D01*
G01*
X59780000Y-53712000D01*
G75*
G02*
X59530000Y-53962000I-250000J0D01*
G01*
X58580000Y-53962000D01*
G75*
G02*
X58330000Y-53712000I0J250000D01*
G01*
X58330000Y-53212000D01*
G75*
G02*
X58580000Y-52962000I250000J0D01*
G01*
G37*
G36*
G01*
X58580000Y-51062000D02*
X59530000Y-51062000D01*
G75*
G02*
X59780000Y-51312000I0J-250000D01*
G01*
X59780000Y-51812000D01*
G75*
G02*
X59530000Y-52062000I-250000J0D01*
G01*
X58580000Y-52062000D01*
G75*
G02*
X58330000Y-51812000I0J250000D01*
G01*
X58330000Y-51312000D01*
G75*
G02*
X58580000Y-51062000I250000J0D01*
G01*
G37*
%TD*%
%TO.C,C10*%
G36*
G01*
X108552000Y-88079200D02*
X107602000Y-88079200D01*
G75*
G02*
X107352000Y-87829200I0J250000D01*
G01*
X107352000Y-87329200D01*
G75*
G02*
X107602000Y-87079200I250000J0D01*
G01*
X108552000Y-87079200D01*
G75*
G02*
X108802000Y-87329200I0J-250000D01*
G01*
X108802000Y-87829200D01*
G75*
G02*
X108552000Y-88079200I-250000J0D01*
G01*
G37*
G36*
G01*
X108552000Y-89979200D02*
X107602000Y-89979200D01*
G75*
G02*
X107352000Y-89729200I0J250000D01*
G01*
X107352000Y-89229200D01*
G75*
G02*
X107602000Y-88979200I250000J0D01*
G01*
X108552000Y-88979200D01*
G75*
G02*
X108802000Y-89229200I0J-250000D01*
G01*
X108802000Y-89729200D01*
G75*
G02*
X108552000Y-89979200I-250000J0D01*
G01*
G37*
%TD*%
%TO.C,C11*%
G36*
G01*
X61628000Y-52962000D02*
X62578000Y-52962000D01*
G75*
G02*
X62828000Y-53212000I0J-250000D01*
G01*
X62828000Y-53712000D01*
G75*
G02*
X62578000Y-53962000I-250000J0D01*
G01*
X61628000Y-53962000D01*
G75*
G02*
X61378000Y-53712000I0J250000D01*
G01*
X61378000Y-53212000D01*
G75*
G02*
X61628000Y-52962000I250000J0D01*
G01*
G37*
G36*
G01*
X61628000Y-51062000D02*
X62578000Y-51062000D01*
G75*
G02*
X62828000Y-51312000I0J-250000D01*
G01*
X62828000Y-51812000D01*
G75*
G02*
X62578000Y-52062000I-250000J0D01*
G01*
X61628000Y-52062000D01*
G75*
G02*
X61378000Y-51812000I0J250000D01*
G01*
X61378000Y-51312000D01*
G75*
G02*
X61628000Y-51062000I250000J0D01*
G01*
G37*
%TD*%
%TO.C,C12*%
G36*
G01*
X64676000Y-52962000D02*
X65626000Y-52962000D01*
G75*
G02*
X65876000Y-53212000I0J-250000D01*
G01*
X65876000Y-53712000D01*
G75*
G02*
X65626000Y-53962000I-250000J0D01*
G01*
X64676000Y-53962000D01*
G75*
G02*
X64426000Y-53712000I0J250000D01*
G01*
X64426000Y-53212000D01*
G75*
G02*
X64676000Y-52962000I250000J0D01*
G01*
G37*
G36*
G01*
X64676000Y-51062000D02*
X65626000Y-51062000D01*
G75*
G02*
X65876000Y-51312000I0J-250000D01*
G01*
X65876000Y-51812000D01*
G75*
G02*
X65626000Y-52062000I-250000J0D01*
G01*
X64676000Y-52062000D01*
G75*
G02*
X64426000Y-51812000I0J250000D01*
G01*
X64426000Y-51312000D01*
G75*
G02*
X64676000Y-51062000I250000J0D01*
G01*
G37*
%TD*%
%TO.C,C13*%
G36*
G01*
X92108000Y-52962000D02*
X93058000Y-52962000D01*
G75*
G02*
X93308000Y-53212000I0J-250000D01*
G01*
X93308000Y-53712000D01*
G75*
G02*
X93058000Y-53962000I-250000J0D01*
G01*
X92108000Y-53962000D01*
G75*
G02*
X91858000Y-53712000I0J250000D01*
G01*
X91858000Y-53212000D01*
G75*
G02*
X92108000Y-52962000I250000J0D01*
G01*
G37*
G36*
G01*
X92108000Y-51062000D02*
X93058000Y-51062000D01*
G75*
G02*
X93308000Y-51312000I0J-250000D01*
G01*
X93308000Y-51812000D01*
G75*
G02*
X93058000Y-52062000I-250000J0D01*
G01*
X92108000Y-52062000D01*
G75*
G02*
X91858000Y-51812000I0J250000D01*
G01*
X91858000Y-51312000D01*
G75*
G02*
X92108000Y-51062000I250000J0D01*
G01*
G37*
%TD*%
%TO.C,C14*%
G36*
G01*
X67724000Y-52962000D02*
X68674000Y-52962000D01*
G75*
G02*
X68924000Y-53212000I0J-250000D01*
G01*
X68924000Y-53712000D01*
G75*
G02*
X68674000Y-53962000I-250000J0D01*
G01*
X67724000Y-53962000D01*
G75*
G02*
X67474000Y-53712000I0J250000D01*
G01*
X67474000Y-53212000D01*
G75*
G02*
X67724000Y-52962000I250000J0D01*
G01*
G37*
G36*
G01*
X67724000Y-51062000D02*
X68674000Y-51062000D01*
G75*
G02*
X68924000Y-51312000I0J-250000D01*
G01*
X68924000Y-51812000D01*
G75*
G02*
X68674000Y-52062000I-250000J0D01*
G01*
X67724000Y-52062000D01*
G75*
G02*
X67474000Y-51812000I0J250000D01*
G01*
X67474000Y-51312000D01*
G75*
G02*
X67724000Y-51062000I250000J0D01*
G01*
G37*
%TD*%
%TO.C,C15*%
G36*
G01*
X89060000Y-52962000D02*
X90010000Y-52962000D01*
G75*
G02*
X90260000Y-53212000I0J-250000D01*
G01*
X90260000Y-53712000D01*
G75*
G02*
X90010000Y-53962000I-250000J0D01*
G01*
X89060000Y-53962000D01*
G75*
G02*
X88810000Y-53712000I0J250000D01*
G01*
X88810000Y-53212000D01*
G75*
G02*
X89060000Y-52962000I250000J0D01*
G01*
G37*
G36*
G01*
X89060000Y-51062000D02*
X90010000Y-51062000D01*
G75*
G02*
X90260000Y-51312000I0J-250000D01*
G01*
X90260000Y-51812000D01*
G75*
G02*
X90010000Y-52062000I-250000J0D01*
G01*
X89060000Y-52062000D01*
G75*
G02*
X88810000Y-51812000I0J250000D01*
G01*
X88810000Y-51312000D01*
G75*
G02*
X89060000Y-51062000I250000J0D01*
G01*
G37*
%TD*%
%TO.C,C16*%
G36*
G01*
X70772000Y-52962000D02*
X71722000Y-52962000D01*
G75*
G02*
X71972000Y-53212000I0J-250000D01*
G01*
X71972000Y-53712000D01*
G75*
G02*
X71722000Y-53962000I-250000J0D01*
G01*
X70772000Y-53962000D01*
G75*
G02*
X70522000Y-53712000I0J250000D01*
G01*
X70522000Y-53212000D01*
G75*
G02*
X70772000Y-52962000I250000J0D01*
G01*
G37*
G36*
G01*
X70772000Y-51062000D02*
X71722000Y-51062000D01*
G75*
G02*
X71972000Y-51312000I0J-250000D01*
G01*
X71972000Y-51812000D01*
G75*
G02*
X71722000Y-52062000I-250000J0D01*
G01*
X70772000Y-52062000D01*
G75*
G02*
X70522000Y-51812000I0J250000D01*
G01*
X70522000Y-51312000D01*
G75*
G02*
X70772000Y-51062000I250000J0D01*
G01*
G37*
%TD*%
%TO.C,C17*%
G36*
G01*
X86012000Y-52962000D02*
X86962000Y-52962000D01*
G75*
G02*
X87212000Y-53212000I0J-250000D01*
G01*
X87212000Y-53712000D01*
G75*
G02*
X86962000Y-53962000I-250000J0D01*
G01*
X86012000Y-53962000D01*
G75*
G02*
X85762000Y-53712000I0J250000D01*
G01*
X85762000Y-53212000D01*
G75*
G02*
X86012000Y-52962000I250000J0D01*
G01*
G37*
G36*
G01*
X86012000Y-51062000D02*
X86962000Y-51062000D01*
G75*
G02*
X87212000Y-51312000I0J-250000D01*
G01*
X87212000Y-51812000D01*
G75*
G02*
X86962000Y-52062000I-250000J0D01*
G01*
X86012000Y-52062000D01*
G75*
G02*
X85762000Y-51812000I0J250000D01*
G01*
X85762000Y-51312000D01*
G75*
G02*
X86012000Y-51062000I250000J0D01*
G01*
G37*
%TD*%
%TO.C,C18*%
G36*
G01*
X82964000Y-52962000D02*
X83914000Y-52962000D01*
G75*
G02*
X84164000Y-53212000I0J-250000D01*
G01*
X84164000Y-53712000D01*
G75*
G02*
X83914000Y-53962000I-250000J0D01*
G01*
X82964000Y-53962000D01*
G75*
G02*
X82714000Y-53712000I0J250000D01*
G01*
X82714000Y-53212000D01*
G75*
G02*
X82964000Y-52962000I250000J0D01*
G01*
G37*
G36*
G01*
X82964000Y-51062000D02*
X83914000Y-51062000D01*
G75*
G02*
X84164000Y-51312000I0J-250000D01*
G01*
X84164000Y-51812000D01*
G75*
G02*
X83914000Y-52062000I-250000J0D01*
G01*
X82964000Y-52062000D01*
G75*
G02*
X82714000Y-51812000I0J250000D01*
G01*
X82714000Y-51312000D01*
G75*
G02*
X82964000Y-51062000I250000J0D01*
G01*
G37*
%TD*%
%TO.C,C19*%
G36*
G01*
X73820000Y-52962000D02*
X74770000Y-52962000D01*
G75*
G02*
X75020000Y-53212000I0J-250000D01*
G01*
X75020000Y-53712000D01*
G75*
G02*
X74770000Y-53962000I-250000J0D01*
G01*
X73820000Y-53962000D01*
G75*
G02*
X73570000Y-53712000I0J250000D01*
G01*
X73570000Y-53212000D01*
G75*
G02*
X73820000Y-52962000I250000J0D01*
G01*
G37*
G36*
G01*
X73820000Y-51062000D02*
X74770000Y-51062000D01*
G75*
G02*
X75020000Y-51312000I0J-250000D01*
G01*
X75020000Y-51812000D01*
G75*
G02*
X74770000Y-52062000I-250000J0D01*
G01*
X73820000Y-52062000D01*
G75*
G02*
X73570000Y-51812000I0J250000D01*
G01*
X73570000Y-51312000D01*
G75*
G02*
X73820000Y-51062000I250000J0D01*
G01*
G37*
%TD*%
%TO.C,C20*%
G36*
G01*
X79916000Y-52962000D02*
X80866000Y-52962000D01*
G75*
G02*
X81116000Y-53212000I0J-250000D01*
G01*
X81116000Y-53712000D01*
G75*
G02*
X80866000Y-53962000I-250000J0D01*
G01*
X79916000Y-53962000D01*
G75*
G02*
X79666000Y-53712000I0J250000D01*
G01*
X79666000Y-53212000D01*
G75*
G02*
X79916000Y-52962000I250000J0D01*
G01*
G37*
G36*
G01*
X79916000Y-51062000D02*
X80866000Y-51062000D01*
G75*
G02*
X81116000Y-51312000I0J-250000D01*
G01*
X81116000Y-51812000D01*
G75*
G02*
X80866000Y-52062000I-250000J0D01*
G01*
X79916000Y-52062000D01*
G75*
G02*
X79666000Y-51812000I0J250000D01*
G01*
X79666000Y-51312000D01*
G75*
G02*
X79916000Y-51062000I250000J0D01*
G01*
G37*
%TD*%
%TO.C,C21*%
G36*
G01*
X76868000Y-52962000D02*
X77818000Y-52962000D01*
G75*
G02*
X78068000Y-53212000I0J-250000D01*
G01*
X78068000Y-53712000D01*
G75*
G02*
X77818000Y-53962000I-250000J0D01*
G01*
X76868000Y-53962000D01*
G75*
G02*
X76618000Y-53712000I0J250000D01*
G01*
X76618000Y-53212000D01*
G75*
G02*
X76868000Y-52962000I250000J0D01*
G01*
G37*
G36*
G01*
X76868000Y-51062000D02*
X77818000Y-51062000D01*
G75*
G02*
X78068000Y-51312000I0J-250000D01*
G01*
X78068000Y-51812000D01*
G75*
G02*
X77818000Y-52062000I-250000J0D01*
G01*
X76868000Y-52062000D01*
G75*
G02*
X76618000Y-51812000I0J250000D01*
G01*
X76618000Y-51312000D01*
G75*
G02*
X76868000Y-51062000I250000J0D01*
G01*
G37*
%TD*%
%TO.C,R22*%
G36*
G01*
X105594998Y-88891700D02*
X106495002Y-88891700D01*
G75*
G02*
X106745000Y-89141698I0J-249998D01*
G01*
X106745000Y-89666702D01*
G75*
G02*
X106495002Y-89916700I-249998J0D01*
G01*
X105594998Y-89916700D01*
G75*
G02*
X105345000Y-89666702I0J249998D01*
G01*
X105345000Y-89141698D01*
G75*
G02*
X105594998Y-88891700I249998J0D01*
G01*
G37*
G36*
G01*
X105594998Y-87066700D02*
X106495002Y-87066700D01*
G75*
G02*
X106745000Y-87316698I0J-249998D01*
G01*
X106745000Y-87841702D01*
G75*
G02*
X106495002Y-88091700I-249998J0D01*
G01*
X105594998Y-88091700D01*
G75*
G02*
X105345000Y-87841702I0J249998D01*
G01*
X105345000Y-87316698D01*
G75*
G02*
X105594998Y-87066700I249998J0D01*
G01*
G37*
%TD*%
%TO.C,R27*%
G36*
G01*
X106557500Y-85351198D02*
X106557500Y-86251202D01*
G75*
G02*
X106307502Y-86501200I-249998J0D01*
G01*
X105782498Y-86501200D01*
G75*
G02*
X105532500Y-86251202I0J249998D01*
G01*
X105532500Y-85351198D01*
G75*
G02*
X105782498Y-85101200I249998J0D01*
G01*
X106307502Y-85101200D01*
G75*
G02*
X106557500Y-85351198I0J-249998D01*
G01*
G37*
G36*
G01*
X108382500Y-85351198D02*
X108382500Y-86251202D01*
G75*
G02*
X108132502Y-86501200I-249998J0D01*
G01*
X107607498Y-86501200D01*
G75*
G02*
X107357500Y-86251202I0J249998D01*
G01*
X107357500Y-85351198D01*
G75*
G02*
X107607498Y-85101200I249998J0D01*
G01*
X108132502Y-85101200D01*
G75*
G02*
X108382500Y-85351198I0J-249998D01*
G01*
G37*
%TD*%
%TO.C,U2*%
G36*
G01*
X53632000Y-114289500D02*
X53632000Y-114564500D01*
G75*
G02*
X53494500Y-114702000I-137500J0D01*
G01*
X52169500Y-114702000D01*
G75*
G02*
X52032000Y-114564500I0J137500D01*
G01*
X52032000Y-114289500D01*
G75*
G02*
X52169500Y-114152000I137500J0D01*
G01*
X53494500Y-114152000D01*
G75*
G02*
X53632000Y-114289500I0J-137500D01*
G01*
G37*
G36*
G01*
X53632000Y-113019500D02*
X53632000Y-113294500D01*
G75*
G02*
X53494500Y-113432000I-137500J0D01*
G01*
X52169500Y-113432000D01*
G75*
G02*
X52032000Y-113294500I0J137500D01*
G01*
X52032000Y-113019500D01*
G75*
G02*
X52169500Y-112882000I137500J0D01*
G01*
X53494500Y-112882000D01*
G75*
G02*
X53632000Y-113019500I0J-137500D01*
G01*
G37*
G36*
G01*
X53632000Y-111749500D02*
X53632000Y-112024500D01*
G75*
G02*
X53494500Y-112162000I-137500J0D01*
G01*
X52169500Y-112162000D01*
G75*
G02*
X52032000Y-112024500I0J137500D01*
G01*
X52032000Y-111749500D01*
G75*
G02*
X52169500Y-111612000I137500J0D01*
G01*
X53494500Y-111612000D01*
G75*
G02*
X53632000Y-111749500I0J-137500D01*
G01*
G37*
G36*
G01*
X53632000Y-110479500D02*
X53632000Y-110754500D01*
G75*
G02*
X53494500Y-110892000I-137500J0D01*
G01*
X52169500Y-110892000D01*
G75*
G02*
X52032000Y-110754500I0J137500D01*
G01*
X52032000Y-110479500D01*
G75*
G02*
X52169500Y-110342000I137500J0D01*
G01*
X53494500Y-110342000D01*
G75*
G02*
X53632000Y-110479500I0J-137500D01*
G01*
G37*
G36*
G01*
X53632000Y-109209500D02*
X53632000Y-109484500D01*
G75*
G02*
X53494500Y-109622000I-137500J0D01*
G01*
X52169500Y-109622000D01*
G75*
G02*
X52032000Y-109484500I0J137500D01*
G01*
X52032000Y-109209500D01*
G75*
G02*
X52169500Y-109072000I137500J0D01*
G01*
X53494500Y-109072000D01*
G75*
G02*
X53632000Y-109209500I0J-137500D01*
G01*
G37*
G36*
G01*
X53632000Y-107939500D02*
X53632000Y-108214500D01*
G75*
G02*
X53494500Y-108352000I-137500J0D01*
G01*
X52169500Y-108352000D01*
G75*
G02*
X52032000Y-108214500I0J137500D01*
G01*
X52032000Y-107939500D01*
G75*
G02*
X52169500Y-107802000I137500J0D01*
G01*
X53494500Y-107802000D01*
G75*
G02*
X53632000Y-107939500I0J-137500D01*
G01*
G37*
G36*
G01*
X53632000Y-106669500D02*
X53632000Y-106944500D01*
G75*
G02*
X53494500Y-107082000I-137500J0D01*
G01*
X52169500Y-107082000D01*
G75*
G02*
X52032000Y-106944500I0J137500D01*
G01*
X52032000Y-106669500D01*
G75*
G02*
X52169500Y-106532000I137500J0D01*
G01*
X53494500Y-106532000D01*
G75*
G02*
X53632000Y-106669500I0J-137500D01*
G01*
G37*
G36*
G01*
X53632000Y-105399500D02*
X53632000Y-105674500D01*
G75*
G02*
X53494500Y-105812000I-137500J0D01*
G01*
X52169500Y-105812000D01*
G75*
G02*
X52032000Y-105674500I0J137500D01*
G01*
X52032000Y-105399500D01*
G75*
G02*
X52169500Y-105262000I137500J0D01*
G01*
X53494500Y-105262000D01*
G75*
G02*
X53632000Y-105399500I0J-137500D01*
G01*
G37*
G36*
G01*
X60132000Y-105399500D02*
X60132000Y-105674500D01*
G75*
G02*
X59994500Y-105812000I-137500J0D01*
G01*
X58669500Y-105812000D01*
G75*
G02*
X58532000Y-105674500I0J137500D01*
G01*
X58532000Y-105399500D01*
G75*
G02*
X58669500Y-105262000I137500J0D01*
G01*
X59994500Y-105262000D01*
G75*
G02*
X60132000Y-105399500I0J-137500D01*
G01*
G37*
G36*
G01*
X60132000Y-106669500D02*
X60132000Y-106944500D01*
G75*
G02*
X59994500Y-107082000I-137500J0D01*
G01*
X58669500Y-107082000D01*
G75*
G02*
X58532000Y-106944500I0J137500D01*
G01*
X58532000Y-106669500D01*
G75*
G02*
X58669500Y-106532000I137500J0D01*
G01*
X59994500Y-106532000D01*
G75*
G02*
X60132000Y-106669500I0J-137500D01*
G01*
G37*
G36*
G01*
X60132000Y-107939500D02*
X60132000Y-108214500D01*
G75*
G02*
X59994500Y-108352000I-137500J0D01*
G01*
X58669500Y-108352000D01*
G75*
G02*
X58532000Y-108214500I0J137500D01*
G01*
X58532000Y-107939500D01*
G75*
G02*
X58669500Y-107802000I137500J0D01*
G01*
X59994500Y-107802000D01*
G75*
G02*
X60132000Y-107939500I0J-137500D01*
G01*
G37*
G36*
G01*
X60132000Y-109209500D02*
X60132000Y-109484500D01*
G75*
G02*
X59994500Y-109622000I-137500J0D01*
G01*
X58669500Y-109622000D01*
G75*
G02*
X58532000Y-109484500I0J137500D01*
G01*
X58532000Y-109209500D01*
G75*
G02*
X58669500Y-109072000I137500J0D01*
G01*
X59994500Y-109072000D01*
G75*
G02*
X60132000Y-109209500I0J-137500D01*
G01*
G37*
G36*
G01*
X60132000Y-110479500D02*
X60132000Y-110754500D01*
G75*
G02*
X59994500Y-110892000I-137500J0D01*
G01*
X58669500Y-110892000D01*
G75*
G02*
X58532000Y-110754500I0J137500D01*
G01*
X58532000Y-110479500D01*
G75*
G02*
X58669500Y-110342000I137500J0D01*
G01*
X59994500Y-110342000D01*
G75*
G02*
X60132000Y-110479500I0J-137500D01*
G01*
G37*
G36*
G01*
X60132000Y-111749500D02*
X60132000Y-112024500D01*
G75*
G02*
X59994500Y-112162000I-137500J0D01*
G01*
X58669500Y-112162000D01*
G75*
G02*
X58532000Y-112024500I0J137500D01*
G01*
X58532000Y-111749500D01*
G75*
G02*
X58669500Y-111612000I137500J0D01*
G01*
X59994500Y-111612000D01*
G75*
G02*
X60132000Y-111749500I0J-137500D01*
G01*
G37*
G36*
G01*
X60132000Y-113019500D02*
X60132000Y-113294500D01*
G75*
G02*
X59994500Y-113432000I-137500J0D01*
G01*
X58669500Y-113432000D01*
G75*
G02*
X58532000Y-113294500I0J137500D01*
G01*
X58532000Y-113019500D01*
G75*
G02*
X58669500Y-112882000I137500J0D01*
G01*
X59994500Y-112882000D01*
G75*
G02*
X60132000Y-113019500I0J-137500D01*
G01*
G37*
G36*
G01*
X60132000Y-114289500D02*
X60132000Y-114564500D01*
G75*
G02*
X59994500Y-114702000I-137500J0D01*
G01*
X58669500Y-114702000D01*
G75*
G02*
X58532000Y-114564500I0J137500D01*
G01*
X58532000Y-114289500D01*
G75*
G02*
X58669500Y-114152000I137500J0D01*
G01*
X59994500Y-114152000D01*
G75*
G02*
X60132000Y-114289500I0J-137500D01*
G01*
G37*
%TD*%
D23*
%TO.C,U3*%
X132715000Y-72390000D03*
X117475000Y-62230000D03*
X130175000Y-72390000D03*
X120015000Y-62230000D03*
X127635000Y-72390000D03*
X122555000Y-62230000D03*
X125095000Y-72390000D03*
X125095000Y-62230000D03*
X122555000Y-72390000D03*
X127635000Y-62230000D03*
X120015000Y-72390000D03*
X130175000Y-62230000D03*
X117475000Y-72390000D03*
D24*
X132715000Y-62230000D03*
%TD*%
D25*
%TO.C,RV1*%
X127635000Y-60299600D03*
X130175000Y-57759600D03*
X132715000Y-60299600D03*
%TD*%
%TO.C,RV2*%
X121920000Y-57150000D03*
X119380000Y-59690000D03*
X116840000Y-57150000D03*
%TD*%
%TO.C,C22*%
G36*
G01*
X58006000Y-58920000D02*
X57056000Y-58920000D01*
G75*
G02*
X56806000Y-58670000I0J250000D01*
G01*
X56806000Y-58170000D01*
G75*
G02*
X57056000Y-57920000I250000J0D01*
G01*
X58006000Y-57920000D01*
G75*
G02*
X58256000Y-58170000I0J-250000D01*
G01*
X58256000Y-58670000D01*
G75*
G02*
X58006000Y-58920000I-250000J0D01*
G01*
G37*
G36*
G01*
X58006000Y-60820000D02*
X57056000Y-60820000D01*
G75*
G02*
X56806000Y-60570000I0J250000D01*
G01*
X56806000Y-60070000D01*
G75*
G02*
X57056000Y-59820000I250000J0D01*
G01*
X58006000Y-59820000D01*
G75*
G02*
X58256000Y-60070000I0J-250000D01*
G01*
X58256000Y-60570000D01*
G75*
G02*
X58006000Y-60820000I-250000J0D01*
G01*
G37*
%TD*%
%TO.C,C1*%
G36*
G01*
X153551000Y-96106000D02*
X153551000Y-95156000D01*
G75*
G02*
X153801000Y-94906000I250000J0D01*
G01*
X154301000Y-94906000D01*
G75*
G02*
X154551000Y-95156000I0J-250000D01*
G01*
X154551000Y-96106000D01*
G75*
G02*
X154301000Y-96356000I-250000J0D01*
G01*
X153801000Y-96356000D01*
G75*
G02*
X153551000Y-96106000I0J250000D01*
G01*
G37*
G36*
G01*
X151651000Y-96106000D02*
X151651000Y-95156000D01*
G75*
G02*
X151901000Y-94906000I250000J0D01*
G01*
X152401000Y-94906000D01*
G75*
G02*
X152651000Y-95156000I0J-250000D01*
G01*
X152651000Y-96106000D01*
G75*
G02*
X152401000Y-96356000I-250000J0D01*
G01*
X151901000Y-96356000D01*
G75*
G02*
X151651000Y-96106000I0J250000D01*
G01*
G37*
%TD*%
%TO.C,C2*%
G36*
G01*
X152651000Y-106332000D02*
X152651000Y-107282000D01*
G75*
G02*
X152401000Y-107532000I-250000J0D01*
G01*
X151901000Y-107532000D01*
G75*
G02*
X151651000Y-107282000I0J250000D01*
G01*
X151651000Y-106332000D01*
G75*
G02*
X151901000Y-106082000I250000J0D01*
G01*
X152401000Y-106082000D01*
G75*
G02*
X152651000Y-106332000I0J-250000D01*
G01*
G37*
G36*
G01*
X154551000Y-106332000D02*
X154551000Y-107282000D01*
G75*
G02*
X154301000Y-107532000I-250000J0D01*
G01*
X153801000Y-107532000D01*
G75*
G02*
X153551000Y-107282000I0J250000D01*
G01*
X153551000Y-106332000D01*
G75*
G02*
X153801000Y-106082000I250000J0D01*
G01*
X154301000Y-106082000D01*
G75*
G02*
X154551000Y-106332000I0J-250000D01*
G01*
G37*
%TD*%
%TO.C,C23*%
G36*
G01*
X157483000Y-107282000D02*
X157483000Y-106332000D01*
G75*
G02*
X157733000Y-106082000I250000J0D01*
G01*
X158233000Y-106082000D01*
G75*
G02*
X158483000Y-106332000I0J-250000D01*
G01*
X158483000Y-107282000D01*
G75*
G02*
X158233000Y-107532000I-250000J0D01*
G01*
X157733000Y-107532000D01*
G75*
G02*
X157483000Y-107282000I0J250000D01*
G01*
G37*
G36*
G01*
X155583000Y-107282000D02*
X155583000Y-106332000D01*
G75*
G02*
X155833000Y-106082000I250000J0D01*
G01*
X156333000Y-106082000D01*
G75*
G02*
X156583000Y-106332000I0J-250000D01*
G01*
X156583000Y-107282000D01*
G75*
G02*
X156333000Y-107532000I-250000J0D01*
G01*
X155833000Y-107532000D01*
G75*
G02*
X155583000Y-107282000I0J250000D01*
G01*
G37*
%TD*%
%TO.C,C24*%
G36*
G01*
X156583000Y-95156000D02*
X156583000Y-96106000D01*
G75*
G02*
X156333000Y-96356000I-250000J0D01*
G01*
X155833000Y-96356000D01*
G75*
G02*
X155583000Y-96106000I0J250000D01*
G01*
X155583000Y-95156000D01*
G75*
G02*
X155833000Y-94906000I250000J0D01*
G01*
X156333000Y-94906000D01*
G75*
G02*
X156583000Y-95156000I0J-250000D01*
G01*
G37*
G36*
G01*
X158483000Y-95156000D02*
X158483000Y-96106000D01*
G75*
G02*
X158233000Y-96356000I-250000J0D01*
G01*
X157733000Y-96356000D01*
G75*
G02*
X157483000Y-96106000I0J250000D01*
G01*
X157483000Y-95156000D01*
G75*
G02*
X157733000Y-94906000I250000J0D01*
G01*
X158233000Y-94906000D01*
G75*
G02*
X158483000Y-95156000I0J-250000D01*
G01*
G37*
%TD*%
%TO.C,R2*%
G36*
G01*
X127782000Y-55198600D02*
X127782000Y-55748600D01*
G75*
G02*
X127582000Y-55948600I-200000J0D01*
G01*
X127182000Y-55948600D01*
G75*
G02*
X126982000Y-55748600I0J200000D01*
G01*
X126982000Y-55198600D01*
G75*
G02*
X127182000Y-54998600I200000J0D01*
G01*
X127582000Y-54998600D01*
G75*
G02*
X127782000Y-55198600I0J-200000D01*
G01*
G37*
G36*
G01*
X129432000Y-55198600D02*
X129432000Y-55748600D01*
G75*
G02*
X129232000Y-55948600I-200000J0D01*
G01*
X128832000Y-55948600D01*
G75*
G02*
X128632000Y-55748600I0J200000D01*
G01*
X128632000Y-55198600D01*
G75*
G02*
X128832000Y-54998600I200000J0D01*
G01*
X129232000Y-54998600D01*
G75*
G02*
X129432000Y-55198600I0J-200000D01*
G01*
G37*
%TD*%
%TO.C,R5*%
G36*
G01*
X124125400Y-58186000D02*
X123575400Y-58186000D01*
G75*
G02*
X123375400Y-57986000I0J200000D01*
G01*
X123375400Y-57586000D01*
G75*
G02*
X123575400Y-57386000I200000J0D01*
G01*
X124125400Y-57386000D01*
G75*
G02*
X124325400Y-57586000I0J-200000D01*
G01*
X124325400Y-57986000D01*
G75*
G02*
X124125400Y-58186000I-200000J0D01*
G01*
G37*
G36*
G01*
X124125400Y-59836000D02*
X123575400Y-59836000D01*
G75*
G02*
X123375400Y-59636000I0J200000D01*
G01*
X123375400Y-59236000D01*
G75*
G02*
X123575400Y-59036000I200000J0D01*
G01*
X124125400Y-59036000D01*
G75*
G02*
X124325400Y-59236000I0J-200000D01*
G01*
X124325400Y-59636000D01*
G75*
G02*
X124125400Y-59836000I-200000J0D01*
G01*
G37*
%TD*%
%TO.C,R7*%
G36*
G01*
X118257000Y-74401000D02*
X118257000Y-74951000D01*
G75*
G02*
X118057000Y-75151000I-200000J0D01*
G01*
X117657000Y-75151000D01*
G75*
G02*
X117457000Y-74951000I0J200000D01*
G01*
X117457000Y-74401000D01*
G75*
G02*
X117657000Y-74201000I200000J0D01*
G01*
X118057000Y-74201000D01*
G75*
G02*
X118257000Y-74401000I0J-200000D01*
G01*
G37*
G36*
G01*
X119907000Y-74401000D02*
X119907000Y-74951000D01*
G75*
G02*
X119707000Y-75151000I-200000J0D01*
G01*
X119307000Y-75151000D01*
G75*
G02*
X119107000Y-74951000I0J200000D01*
G01*
X119107000Y-74401000D01*
G75*
G02*
X119307000Y-74201000I200000J0D01*
G01*
X119707000Y-74201000D01*
G75*
G02*
X119907000Y-74401000I0J-200000D01*
G01*
G37*
%TD*%
%TO.C,R8*%
G36*
G01*
X116579600Y-79531800D02*
X116579600Y-80081800D01*
G75*
G02*
X116379600Y-80281800I-200000J0D01*
G01*
X115979600Y-80281800D01*
G75*
G02*
X115779600Y-80081800I0J200000D01*
G01*
X115779600Y-79531800D01*
G75*
G02*
X115979600Y-79331800I200000J0D01*
G01*
X116379600Y-79331800D01*
G75*
G02*
X116579600Y-79531800I0J-200000D01*
G01*
G37*
G36*
G01*
X118229600Y-79531800D02*
X118229600Y-80081800D01*
G75*
G02*
X118029600Y-80281800I-200000J0D01*
G01*
X117629600Y-80281800D01*
G75*
G02*
X117429600Y-80081800I0J200000D01*
G01*
X117429600Y-79531800D01*
G75*
G02*
X117629600Y-79331800I200000J0D01*
G01*
X118029600Y-79331800D01*
G75*
G02*
X118229600Y-79531800I0J-200000D01*
G01*
G37*
%TD*%
%TO.C,R9*%
G36*
G01*
X119782000Y-77109000D02*
X119232000Y-77109000D01*
G75*
G02*
X119032000Y-76909000I0J200000D01*
G01*
X119032000Y-76509000D01*
G75*
G02*
X119232000Y-76309000I200000J0D01*
G01*
X119782000Y-76309000D01*
G75*
G02*
X119982000Y-76509000I0J-200000D01*
G01*
X119982000Y-76909000D01*
G75*
G02*
X119782000Y-77109000I-200000J0D01*
G01*
G37*
G36*
G01*
X119782000Y-78759000D02*
X119232000Y-78759000D01*
G75*
G02*
X119032000Y-78559000I0J200000D01*
G01*
X119032000Y-78159000D01*
G75*
G02*
X119232000Y-77959000I200000J0D01*
G01*
X119782000Y-77959000D01*
G75*
G02*
X119982000Y-78159000I0J-200000D01*
G01*
X119982000Y-78559000D01*
G75*
G02*
X119782000Y-78759000I-200000J0D01*
G01*
G37*
%TD*%
%TO.C,R10*%
G36*
G01*
X131934000Y-74951000D02*
X131934000Y-74401000D01*
G75*
G02*
X132134000Y-74201000I200000J0D01*
G01*
X132534000Y-74201000D01*
G75*
G02*
X132734000Y-74401000I0J-200000D01*
G01*
X132734000Y-74951000D01*
G75*
G02*
X132534000Y-75151000I-200000J0D01*
G01*
X132134000Y-75151000D01*
G75*
G02*
X131934000Y-74951000I0J200000D01*
G01*
G37*
G36*
G01*
X130284000Y-74951000D02*
X130284000Y-74401000D01*
G75*
G02*
X130484000Y-74201000I200000J0D01*
G01*
X130884000Y-74201000D01*
G75*
G02*
X131084000Y-74401000I0J-200000D01*
G01*
X131084000Y-74951000D01*
G75*
G02*
X130884000Y-75151000I-200000J0D01*
G01*
X130484000Y-75151000D01*
G75*
G02*
X130284000Y-74951000I0J200000D01*
G01*
G37*
%TD*%
%TO.C,R11*%
G36*
G01*
X126877400Y-81083200D02*
X127427400Y-81083200D01*
G75*
G02*
X127627400Y-81283200I0J-200000D01*
G01*
X127627400Y-81683200D01*
G75*
G02*
X127427400Y-81883200I-200000J0D01*
G01*
X126877400Y-81883200D01*
G75*
G02*
X126677400Y-81683200I0J200000D01*
G01*
X126677400Y-81283200D01*
G75*
G02*
X126877400Y-81083200I200000J0D01*
G01*
G37*
G36*
G01*
X126877400Y-79433200D02*
X127427400Y-79433200D01*
G75*
G02*
X127627400Y-79633200I0J-200000D01*
G01*
X127627400Y-80033200D01*
G75*
G02*
X127427400Y-80233200I-200000J0D01*
G01*
X126877400Y-80233200D01*
G75*
G02*
X126677400Y-80033200I0J200000D01*
G01*
X126677400Y-79633200D01*
G75*
G02*
X126877400Y-79433200I200000J0D01*
G01*
G37*
%TD*%
%TO.C,R13*%
G36*
G01*
X58780000Y-47819500D02*
X59330000Y-47819500D01*
G75*
G02*
X59530000Y-48019500I0J-200000D01*
G01*
X59530000Y-48419500D01*
G75*
G02*
X59330000Y-48619500I-200000J0D01*
G01*
X58780000Y-48619500D01*
G75*
G02*
X58580000Y-48419500I0J200000D01*
G01*
X58580000Y-48019500D01*
G75*
G02*
X58780000Y-47819500I200000J0D01*
G01*
G37*
G36*
G01*
X58780000Y-46169500D02*
X59330000Y-46169500D01*
G75*
G02*
X59530000Y-46369500I0J-200000D01*
G01*
X59530000Y-46769500D01*
G75*
G02*
X59330000Y-46969500I-200000J0D01*
G01*
X58780000Y-46969500D01*
G75*
G02*
X58580000Y-46769500I0J200000D01*
G01*
X58580000Y-46369500D01*
G75*
G02*
X58780000Y-46169500I200000J0D01*
G01*
G37*
%TD*%
%TO.C,R15*%
G36*
G01*
X61828000Y-47819500D02*
X62378000Y-47819500D01*
G75*
G02*
X62578000Y-48019500I0J-200000D01*
G01*
X62578000Y-48419500D01*
G75*
G02*
X62378000Y-48619500I-200000J0D01*
G01*
X61828000Y-48619500D01*
G75*
G02*
X61628000Y-48419500I0J200000D01*
G01*
X61628000Y-48019500D01*
G75*
G02*
X61828000Y-47819500I200000J0D01*
G01*
G37*
G36*
G01*
X61828000Y-46169500D02*
X62378000Y-46169500D01*
G75*
G02*
X62578000Y-46369500I0J-200000D01*
G01*
X62578000Y-46769500D01*
G75*
G02*
X62378000Y-46969500I-200000J0D01*
G01*
X61828000Y-46969500D01*
G75*
G02*
X61628000Y-46769500I0J200000D01*
G01*
X61628000Y-46369500D01*
G75*
G02*
X61828000Y-46169500I200000J0D01*
G01*
G37*
%TD*%
%TO.C,R16*%
G36*
G01*
X64876000Y-47819500D02*
X65426000Y-47819500D01*
G75*
G02*
X65626000Y-48019500I0J-200000D01*
G01*
X65626000Y-48419500D01*
G75*
G02*
X65426000Y-48619500I-200000J0D01*
G01*
X64876000Y-48619500D01*
G75*
G02*
X64676000Y-48419500I0J200000D01*
G01*
X64676000Y-48019500D01*
G75*
G02*
X64876000Y-47819500I200000J0D01*
G01*
G37*
G36*
G01*
X64876000Y-46169500D02*
X65426000Y-46169500D01*
G75*
G02*
X65626000Y-46369500I0J-200000D01*
G01*
X65626000Y-46769500D01*
G75*
G02*
X65426000Y-46969500I-200000J0D01*
G01*
X64876000Y-46969500D01*
G75*
G02*
X64676000Y-46769500I0J200000D01*
G01*
X64676000Y-46369500D01*
G75*
G02*
X64876000Y-46169500I200000J0D01*
G01*
G37*
%TD*%
%TO.C,R17*%
G36*
G01*
X92308000Y-47819500D02*
X92858000Y-47819500D01*
G75*
G02*
X93058000Y-48019500I0J-200000D01*
G01*
X93058000Y-48419500D01*
G75*
G02*
X92858000Y-48619500I-200000J0D01*
G01*
X92308000Y-48619500D01*
G75*
G02*
X92108000Y-48419500I0J200000D01*
G01*
X92108000Y-48019500D01*
G75*
G02*
X92308000Y-47819500I200000J0D01*
G01*
G37*
G36*
G01*
X92308000Y-46169500D02*
X92858000Y-46169500D01*
G75*
G02*
X93058000Y-46369500I0J-200000D01*
G01*
X93058000Y-46769500D01*
G75*
G02*
X92858000Y-46969500I-200000J0D01*
G01*
X92308000Y-46969500D01*
G75*
G02*
X92108000Y-46769500I0J200000D01*
G01*
X92108000Y-46369500D01*
G75*
G02*
X92308000Y-46169500I200000J0D01*
G01*
G37*
%TD*%
%TO.C,R18*%
G36*
G01*
X67924000Y-47819500D02*
X68474000Y-47819500D01*
G75*
G02*
X68674000Y-48019500I0J-200000D01*
G01*
X68674000Y-48419500D01*
G75*
G02*
X68474000Y-48619500I-200000J0D01*
G01*
X67924000Y-48619500D01*
G75*
G02*
X67724000Y-48419500I0J200000D01*
G01*
X67724000Y-48019500D01*
G75*
G02*
X67924000Y-47819500I200000J0D01*
G01*
G37*
G36*
G01*
X67924000Y-46169500D02*
X68474000Y-46169500D01*
G75*
G02*
X68674000Y-46369500I0J-200000D01*
G01*
X68674000Y-46769500D01*
G75*
G02*
X68474000Y-46969500I-200000J0D01*
G01*
X67924000Y-46969500D01*
G75*
G02*
X67724000Y-46769500I0J200000D01*
G01*
X67724000Y-46369500D01*
G75*
G02*
X67924000Y-46169500I200000J0D01*
G01*
G37*
%TD*%
%TO.C,R19*%
G36*
G01*
X89260000Y-47819500D02*
X89810000Y-47819500D01*
G75*
G02*
X90010000Y-48019500I0J-200000D01*
G01*
X90010000Y-48419500D01*
G75*
G02*
X89810000Y-48619500I-200000J0D01*
G01*
X89260000Y-48619500D01*
G75*
G02*
X89060000Y-48419500I0J200000D01*
G01*
X89060000Y-48019500D01*
G75*
G02*
X89260000Y-47819500I200000J0D01*
G01*
G37*
G36*
G01*
X89260000Y-46169500D02*
X89810000Y-46169500D01*
G75*
G02*
X90010000Y-46369500I0J-200000D01*
G01*
X90010000Y-46769500D01*
G75*
G02*
X89810000Y-46969500I-200000J0D01*
G01*
X89260000Y-46969500D01*
G75*
G02*
X89060000Y-46769500I0J200000D01*
G01*
X89060000Y-46369500D01*
G75*
G02*
X89260000Y-46169500I200000J0D01*
G01*
G37*
%TD*%
%TO.C,R20*%
G36*
G01*
X70972000Y-47819500D02*
X71522000Y-47819500D01*
G75*
G02*
X71722000Y-48019500I0J-200000D01*
G01*
X71722000Y-48419500D01*
G75*
G02*
X71522000Y-48619500I-200000J0D01*
G01*
X70972000Y-48619500D01*
G75*
G02*
X70772000Y-48419500I0J200000D01*
G01*
X70772000Y-48019500D01*
G75*
G02*
X70972000Y-47819500I200000J0D01*
G01*
G37*
G36*
G01*
X70972000Y-46169500D02*
X71522000Y-46169500D01*
G75*
G02*
X71722000Y-46369500I0J-200000D01*
G01*
X71722000Y-46769500D01*
G75*
G02*
X71522000Y-46969500I-200000J0D01*
G01*
X70972000Y-46969500D01*
G75*
G02*
X70772000Y-46769500I0J200000D01*
G01*
X70772000Y-46369500D01*
G75*
G02*
X70972000Y-46169500I200000J0D01*
G01*
G37*
%TD*%
%TO.C,R21*%
G36*
G01*
X86212000Y-47819500D02*
X86762000Y-47819500D01*
G75*
G02*
X86962000Y-48019500I0J-200000D01*
G01*
X86962000Y-48419500D01*
G75*
G02*
X86762000Y-48619500I-200000J0D01*
G01*
X86212000Y-48619500D01*
G75*
G02*
X86012000Y-48419500I0J200000D01*
G01*
X86012000Y-48019500D01*
G75*
G02*
X86212000Y-47819500I200000J0D01*
G01*
G37*
G36*
G01*
X86212000Y-46169500D02*
X86762000Y-46169500D01*
G75*
G02*
X86962000Y-46369500I0J-200000D01*
G01*
X86962000Y-46769500D01*
G75*
G02*
X86762000Y-46969500I-200000J0D01*
G01*
X86212000Y-46969500D01*
G75*
G02*
X86012000Y-46769500I0J200000D01*
G01*
X86012000Y-46369500D01*
G75*
G02*
X86212000Y-46169500I200000J0D01*
G01*
G37*
%TD*%
%TO.C,R23*%
G36*
G01*
X83164000Y-47819500D02*
X83714000Y-47819500D01*
G75*
G02*
X83914000Y-48019500I0J-200000D01*
G01*
X83914000Y-48419500D01*
G75*
G02*
X83714000Y-48619500I-200000J0D01*
G01*
X83164000Y-48619500D01*
G75*
G02*
X82964000Y-48419500I0J200000D01*
G01*
X82964000Y-48019500D01*
G75*
G02*
X83164000Y-47819500I200000J0D01*
G01*
G37*
G36*
G01*
X83164000Y-46169500D02*
X83714000Y-46169500D01*
G75*
G02*
X83914000Y-46369500I0J-200000D01*
G01*
X83914000Y-46769500D01*
G75*
G02*
X83714000Y-46969500I-200000J0D01*
G01*
X83164000Y-46969500D01*
G75*
G02*
X82964000Y-46769500I0J200000D01*
G01*
X82964000Y-46369500D01*
G75*
G02*
X83164000Y-46169500I200000J0D01*
G01*
G37*
%TD*%
%TO.C,R24*%
G36*
G01*
X74020000Y-47819500D02*
X74570000Y-47819500D01*
G75*
G02*
X74770000Y-48019500I0J-200000D01*
G01*
X74770000Y-48419500D01*
G75*
G02*
X74570000Y-48619500I-200000J0D01*
G01*
X74020000Y-48619500D01*
G75*
G02*
X73820000Y-48419500I0J200000D01*
G01*
X73820000Y-48019500D01*
G75*
G02*
X74020000Y-47819500I200000J0D01*
G01*
G37*
G36*
G01*
X74020000Y-46169500D02*
X74570000Y-46169500D01*
G75*
G02*
X74770000Y-46369500I0J-200000D01*
G01*
X74770000Y-46769500D01*
G75*
G02*
X74570000Y-46969500I-200000J0D01*
G01*
X74020000Y-46969500D01*
G75*
G02*
X73820000Y-46769500I0J200000D01*
G01*
X73820000Y-46369500D01*
G75*
G02*
X74020000Y-46169500I200000J0D01*
G01*
G37*
%TD*%
%TO.C,R25*%
G36*
G01*
X80116000Y-47819500D02*
X80666000Y-47819500D01*
G75*
G02*
X80866000Y-48019500I0J-200000D01*
G01*
X80866000Y-48419500D01*
G75*
G02*
X80666000Y-48619500I-200000J0D01*
G01*
X80116000Y-48619500D01*
G75*
G02*
X79916000Y-48419500I0J200000D01*
G01*
X79916000Y-48019500D01*
G75*
G02*
X80116000Y-47819500I200000J0D01*
G01*
G37*
G36*
G01*
X80116000Y-46169500D02*
X80666000Y-46169500D01*
G75*
G02*
X80866000Y-46369500I0J-200000D01*
G01*
X80866000Y-46769500D01*
G75*
G02*
X80666000Y-46969500I-200000J0D01*
G01*
X80116000Y-46969500D01*
G75*
G02*
X79916000Y-46769500I0J200000D01*
G01*
X79916000Y-46369500D01*
G75*
G02*
X80116000Y-46169500I200000J0D01*
G01*
G37*
%TD*%
%TO.C,R26*%
G36*
G01*
X77068000Y-47819500D02*
X77618000Y-47819500D01*
G75*
G02*
X77818000Y-48019500I0J-200000D01*
G01*
X77818000Y-48419500D01*
G75*
G02*
X77618000Y-48619500I-200000J0D01*
G01*
X77068000Y-48619500D01*
G75*
G02*
X76868000Y-48419500I0J200000D01*
G01*
X76868000Y-48019500D01*
G75*
G02*
X77068000Y-47819500I200000J0D01*
G01*
G37*
G36*
G01*
X77068000Y-46169500D02*
X77618000Y-46169500D01*
G75*
G02*
X77818000Y-46369500I0J-200000D01*
G01*
X77818000Y-46769500D01*
G75*
G02*
X77618000Y-46969500I-200000J0D01*
G01*
X77068000Y-46969500D01*
G75*
G02*
X76868000Y-46769500I0J200000D01*
G01*
X76868000Y-46369500D01*
G75*
G02*
X77068000Y-46169500I200000J0D01*
G01*
G37*
%TD*%
%TO.C,R28*%
G36*
G01*
X93832000Y-47819500D02*
X94382000Y-47819500D01*
G75*
G02*
X94582000Y-48019500I0J-200000D01*
G01*
X94582000Y-48419500D01*
G75*
G02*
X94382000Y-48619500I-200000J0D01*
G01*
X93832000Y-48619500D01*
G75*
G02*
X93632000Y-48419500I0J200000D01*
G01*
X93632000Y-48019500D01*
G75*
G02*
X93832000Y-47819500I200000J0D01*
G01*
G37*
G36*
G01*
X93832000Y-46169500D02*
X94382000Y-46169500D01*
G75*
G02*
X94582000Y-46369500I0J-200000D01*
G01*
X94582000Y-46769500D01*
G75*
G02*
X94382000Y-46969500I-200000J0D01*
G01*
X93832000Y-46969500D01*
G75*
G02*
X93632000Y-46769500I0J200000D01*
G01*
X93632000Y-46369500D01*
G75*
G02*
X93832000Y-46169500I200000J0D01*
G01*
G37*
%TD*%
%TO.C,R29*%
G36*
G01*
X90784000Y-47860000D02*
X91334000Y-47860000D01*
G75*
G02*
X91534000Y-48060000I0J-200000D01*
G01*
X91534000Y-48460000D01*
G75*
G02*
X91334000Y-48660000I-200000J0D01*
G01*
X90784000Y-48660000D01*
G75*
G02*
X90584000Y-48460000I0J200000D01*
G01*
X90584000Y-48060000D01*
G75*
G02*
X90784000Y-47860000I200000J0D01*
G01*
G37*
G36*
G01*
X90784000Y-46210000D02*
X91334000Y-46210000D01*
G75*
G02*
X91534000Y-46410000I0J-200000D01*
G01*
X91534000Y-46810000D01*
G75*
G02*
X91334000Y-47010000I-200000J0D01*
G01*
X90784000Y-47010000D01*
G75*
G02*
X90584000Y-46810000I0J200000D01*
G01*
X90584000Y-46410000D01*
G75*
G02*
X90784000Y-46210000I200000J0D01*
G01*
G37*
%TD*%
%TO.C,R30*%
G36*
G01*
X87736000Y-47819500D02*
X88286000Y-47819500D01*
G75*
G02*
X88486000Y-48019500I0J-200000D01*
G01*
X88486000Y-48419500D01*
G75*
G02*
X88286000Y-48619500I-200000J0D01*
G01*
X87736000Y-48619500D01*
G75*
G02*
X87536000Y-48419500I0J200000D01*
G01*
X87536000Y-48019500D01*
G75*
G02*
X87736000Y-47819500I200000J0D01*
G01*
G37*
G36*
G01*
X87736000Y-46169500D02*
X88286000Y-46169500D01*
G75*
G02*
X88486000Y-46369500I0J-200000D01*
G01*
X88486000Y-46769500D01*
G75*
G02*
X88286000Y-46969500I-200000J0D01*
G01*
X87736000Y-46969500D01*
G75*
G02*
X87536000Y-46769500I0J200000D01*
G01*
X87536000Y-46369500D01*
G75*
G02*
X87736000Y-46169500I200000J0D01*
G01*
G37*
%TD*%
%TO.C,R31*%
G36*
G01*
X84688000Y-47819500D02*
X85238000Y-47819500D01*
G75*
G02*
X85438000Y-48019500I0J-200000D01*
G01*
X85438000Y-48419500D01*
G75*
G02*
X85238000Y-48619500I-200000J0D01*
G01*
X84688000Y-48619500D01*
G75*
G02*
X84488000Y-48419500I0J200000D01*
G01*
X84488000Y-48019500D01*
G75*
G02*
X84688000Y-47819500I200000J0D01*
G01*
G37*
G36*
G01*
X84688000Y-46169500D02*
X85238000Y-46169500D01*
G75*
G02*
X85438000Y-46369500I0J-200000D01*
G01*
X85438000Y-46769500D01*
G75*
G02*
X85238000Y-46969500I-200000J0D01*
G01*
X84688000Y-46969500D01*
G75*
G02*
X84488000Y-46769500I0J200000D01*
G01*
X84488000Y-46369500D01*
G75*
G02*
X84688000Y-46169500I200000J0D01*
G01*
G37*
%TD*%
%TO.C,R32*%
G36*
G01*
X81640000Y-47819500D02*
X82190000Y-47819500D01*
G75*
G02*
X82390000Y-48019500I0J-200000D01*
G01*
X82390000Y-48419500D01*
G75*
G02*
X82190000Y-48619500I-200000J0D01*
G01*
X81640000Y-48619500D01*
G75*
G02*
X81440000Y-48419500I0J200000D01*
G01*
X81440000Y-48019500D01*
G75*
G02*
X81640000Y-47819500I200000J0D01*
G01*
G37*
G36*
G01*
X81640000Y-46169500D02*
X82190000Y-46169500D01*
G75*
G02*
X82390000Y-46369500I0J-200000D01*
G01*
X82390000Y-46769500D01*
G75*
G02*
X82190000Y-46969500I-200000J0D01*
G01*
X81640000Y-46969500D01*
G75*
G02*
X81440000Y-46769500I0J200000D01*
G01*
X81440000Y-46369500D01*
G75*
G02*
X81640000Y-46169500I200000J0D01*
G01*
G37*
%TD*%
%TO.C,R33*%
G36*
G01*
X78592000Y-47819500D02*
X79142000Y-47819500D01*
G75*
G02*
X79342000Y-48019500I0J-200000D01*
G01*
X79342000Y-48419500D01*
G75*
G02*
X79142000Y-48619500I-200000J0D01*
G01*
X78592000Y-48619500D01*
G75*
G02*
X78392000Y-48419500I0J200000D01*
G01*
X78392000Y-48019500D01*
G75*
G02*
X78592000Y-47819500I200000J0D01*
G01*
G37*
G36*
G01*
X78592000Y-46169500D02*
X79142000Y-46169500D01*
G75*
G02*
X79342000Y-46369500I0J-200000D01*
G01*
X79342000Y-46769500D01*
G75*
G02*
X79142000Y-46969500I-200000J0D01*
G01*
X78592000Y-46969500D01*
G75*
G02*
X78392000Y-46769500I0J200000D01*
G01*
X78392000Y-46369500D01*
G75*
G02*
X78592000Y-46169500I200000J0D01*
G01*
G37*
%TD*%
%TO.C,R34*%
G36*
G01*
X75544000Y-47819500D02*
X76094000Y-47819500D01*
G75*
G02*
X76294000Y-48019500I0J-200000D01*
G01*
X76294000Y-48419500D01*
G75*
G02*
X76094000Y-48619500I-200000J0D01*
G01*
X75544000Y-48619500D01*
G75*
G02*
X75344000Y-48419500I0J200000D01*
G01*
X75344000Y-48019500D01*
G75*
G02*
X75544000Y-47819500I200000J0D01*
G01*
G37*
G36*
G01*
X75544000Y-46169500D02*
X76094000Y-46169500D01*
G75*
G02*
X76294000Y-46369500I0J-200000D01*
G01*
X76294000Y-46769500D01*
G75*
G02*
X76094000Y-46969500I-200000J0D01*
G01*
X75544000Y-46969500D01*
G75*
G02*
X75344000Y-46769500I0J200000D01*
G01*
X75344000Y-46369500D01*
G75*
G02*
X75544000Y-46169500I200000J0D01*
G01*
G37*
%TD*%
%TO.C,R35*%
G36*
G01*
X72496000Y-47819500D02*
X73046000Y-47819500D01*
G75*
G02*
X73246000Y-48019500I0J-200000D01*
G01*
X73246000Y-48419500D01*
G75*
G02*
X73046000Y-48619500I-200000J0D01*
G01*
X72496000Y-48619500D01*
G75*
G02*
X72296000Y-48419500I0J200000D01*
G01*
X72296000Y-48019500D01*
G75*
G02*
X72496000Y-47819500I200000J0D01*
G01*
G37*
G36*
G01*
X72496000Y-46169500D02*
X73046000Y-46169500D01*
G75*
G02*
X73246000Y-46369500I0J-200000D01*
G01*
X73246000Y-46769500D01*
G75*
G02*
X73046000Y-46969500I-200000J0D01*
G01*
X72496000Y-46969500D01*
G75*
G02*
X72296000Y-46769500I0J200000D01*
G01*
X72296000Y-46369500D01*
G75*
G02*
X72496000Y-46169500I200000J0D01*
G01*
G37*
%TD*%
%TO.C,R36*%
G36*
G01*
X69448000Y-47819500D02*
X69998000Y-47819500D01*
G75*
G02*
X70198000Y-48019500I0J-200000D01*
G01*
X70198000Y-48419500D01*
G75*
G02*
X69998000Y-48619500I-200000J0D01*
G01*
X69448000Y-48619500D01*
G75*
G02*
X69248000Y-48419500I0J200000D01*
G01*
X69248000Y-48019500D01*
G75*
G02*
X69448000Y-47819500I200000J0D01*
G01*
G37*
G36*
G01*
X69448000Y-46169500D02*
X69998000Y-46169500D01*
G75*
G02*
X70198000Y-46369500I0J-200000D01*
G01*
X70198000Y-46769500D01*
G75*
G02*
X69998000Y-46969500I-200000J0D01*
G01*
X69448000Y-46969500D01*
G75*
G02*
X69248000Y-46769500I0J200000D01*
G01*
X69248000Y-46369500D01*
G75*
G02*
X69448000Y-46169500I200000J0D01*
G01*
G37*
%TD*%
%TO.C,R37*%
G36*
G01*
X66400000Y-47819500D02*
X66950000Y-47819500D01*
G75*
G02*
X67150000Y-48019500I0J-200000D01*
G01*
X67150000Y-48419500D01*
G75*
G02*
X66950000Y-48619500I-200000J0D01*
G01*
X66400000Y-48619500D01*
G75*
G02*
X66200000Y-48419500I0J200000D01*
G01*
X66200000Y-48019500D01*
G75*
G02*
X66400000Y-47819500I200000J0D01*
G01*
G37*
G36*
G01*
X66400000Y-46169500D02*
X66950000Y-46169500D01*
G75*
G02*
X67150000Y-46369500I0J-200000D01*
G01*
X67150000Y-46769500D01*
G75*
G02*
X66950000Y-46969500I-200000J0D01*
G01*
X66400000Y-46969500D01*
G75*
G02*
X66200000Y-46769500I0J200000D01*
G01*
X66200000Y-46369500D01*
G75*
G02*
X66400000Y-46169500I200000J0D01*
G01*
G37*
%TD*%
%TO.C,R38*%
G36*
G01*
X63352000Y-47819500D02*
X63902000Y-47819500D01*
G75*
G02*
X64102000Y-48019500I0J-200000D01*
G01*
X64102000Y-48419500D01*
G75*
G02*
X63902000Y-48619500I-200000J0D01*
G01*
X63352000Y-48619500D01*
G75*
G02*
X63152000Y-48419500I0J200000D01*
G01*
X63152000Y-48019500D01*
G75*
G02*
X63352000Y-47819500I200000J0D01*
G01*
G37*
G36*
G01*
X63352000Y-46169500D02*
X63902000Y-46169500D01*
G75*
G02*
X64102000Y-46369500I0J-200000D01*
G01*
X64102000Y-46769500D01*
G75*
G02*
X63902000Y-46969500I-200000J0D01*
G01*
X63352000Y-46969500D01*
G75*
G02*
X63152000Y-46769500I0J200000D01*
G01*
X63152000Y-46369500D01*
G75*
G02*
X63352000Y-46169500I200000J0D01*
G01*
G37*
%TD*%
%TO.C,R39*%
G36*
G01*
X60304000Y-47819500D02*
X60854000Y-47819500D01*
G75*
G02*
X61054000Y-48019500I0J-200000D01*
G01*
X61054000Y-48419500D01*
G75*
G02*
X60854000Y-48619500I-200000J0D01*
G01*
X60304000Y-48619500D01*
G75*
G02*
X60104000Y-48419500I0J200000D01*
G01*
X60104000Y-48019500D01*
G75*
G02*
X60304000Y-47819500I200000J0D01*
G01*
G37*
G36*
G01*
X60304000Y-46169500D02*
X60854000Y-46169500D01*
G75*
G02*
X61054000Y-46369500I0J-200000D01*
G01*
X61054000Y-46769500D01*
G75*
G02*
X60854000Y-46969500I-200000J0D01*
G01*
X60304000Y-46969500D01*
G75*
G02*
X60104000Y-46769500I0J200000D01*
G01*
X60104000Y-46369500D01*
G75*
G02*
X60304000Y-46169500I200000J0D01*
G01*
G37*
%TD*%
D17*
%TO.C,J5*%
X40259000Y-105664000D03*
X42799000Y-105664000D03*
X40259000Y-103124000D03*
X42799000Y-103124000D03*
X40259000Y-100584000D03*
X42799000Y-100584000D03*
X40259000Y-98044000D03*
X42799000Y-98044000D03*
X40259000Y-95504000D03*
X42799000Y-95504000D03*
X40259000Y-92964000D03*
X42799000Y-92964000D03*
X40259000Y-90424000D03*
X42799000Y-90424000D03*
X40259000Y-87884000D03*
X42799000Y-87884000D03*
X40259000Y-85344000D03*
X42799000Y-85344000D03*
X40259000Y-82804000D03*
D18*
X42799000Y-82804000D03*
%TD*%
D17*
%TO.C,J10*%
X40259000Y-114300000D03*
X42799000Y-114300000D03*
X40259000Y-111760000D03*
X42799000Y-111760000D03*
X40259000Y-109220000D03*
D18*
X42799000Y-109220000D03*
%TD*%
%TO.C,U6*%
G36*
G01*
X130706000Y-46670000D02*
X130406000Y-46670000D01*
G75*
G02*
X130256000Y-46520000I0J150000D01*
G01*
X130256000Y-44920000D01*
G75*
G02*
X130406000Y-44770000I150000J0D01*
G01*
X130706000Y-44770000D01*
G75*
G02*
X130856000Y-44920000I0J-150000D01*
G01*
X130856000Y-46520000D01*
G75*
G02*
X130706000Y-46670000I-150000J0D01*
G01*
G37*
G36*
G01*
X131976000Y-46670000D02*
X131676000Y-46670000D01*
G75*
G02*
X131526000Y-46520000I0J150000D01*
G01*
X131526000Y-44920000D01*
G75*
G02*
X131676000Y-44770000I150000J0D01*
G01*
X131976000Y-44770000D01*
G75*
G02*
X132126000Y-44920000I0J-150000D01*
G01*
X132126000Y-46520000D01*
G75*
G02*
X131976000Y-46670000I-150000J0D01*
G01*
G37*
G36*
G01*
X133246000Y-46670000D02*
X132946000Y-46670000D01*
G75*
G02*
X132796000Y-46520000I0J150000D01*
G01*
X132796000Y-44920000D01*
G75*
G02*
X132946000Y-44770000I150000J0D01*
G01*
X133246000Y-44770000D01*
G75*
G02*
X133396000Y-44920000I0J-150000D01*
G01*
X133396000Y-46520000D01*
G75*
G02*
X133246000Y-46670000I-150000J0D01*
G01*
G37*
G36*
G01*
X134516000Y-46670000D02*
X134216000Y-46670000D01*
G75*
G02*
X134066000Y-46520000I0J150000D01*
G01*
X134066000Y-44920000D01*
G75*
G02*
X134216000Y-44770000I150000J0D01*
G01*
X134516000Y-44770000D01*
G75*
G02*
X134666000Y-44920000I0J-150000D01*
G01*
X134666000Y-46520000D01*
G75*
G02*
X134516000Y-46670000I-150000J0D01*
G01*
G37*
G36*
G01*
X134516000Y-53670000D02*
X134216000Y-53670000D01*
G75*
G02*
X134066000Y-53520000I0J150000D01*
G01*
X134066000Y-51920000D01*
G75*
G02*
X134216000Y-51770000I150000J0D01*
G01*
X134516000Y-51770000D01*
G75*
G02*
X134666000Y-51920000I0J-150000D01*
G01*
X134666000Y-53520000D01*
G75*
G02*
X134516000Y-53670000I-150000J0D01*
G01*
G37*
G36*
G01*
X133246000Y-53670000D02*
X132946000Y-53670000D01*
G75*
G02*
X132796000Y-53520000I0J150000D01*
G01*
X132796000Y-51920000D01*
G75*
G02*
X132946000Y-51770000I150000J0D01*
G01*
X133246000Y-51770000D01*
G75*
G02*
X133396000Y-51920000I0J-150000D01*
G01*
X133396000Y-53520000D01*
G75*
G02*
X133246000Y-53670000I-150000J0D01*
G01*
G37*
G36*
G01*
X131976000Y-53670000D02*
X131676000Y-53670000D01*
G75*
G02*
X131526000Y-53520000I0J150000D01*
G01*
X131526000Y-51920000D01*
G75*
G02*
X131676000Y-51770000I150000J0D01*
G01*
X131976000Y-51770000D01*
G75*
G02*
X132126000Y-51920000I0J-150000D01*
G01*
X132126000Y-53520000D01*
G75*
G02*
X131976000Y-53670000I-150000J0D01*
G01*
G37*
G36*
G01*
X130706000Y-53670000D02*
X130406000Y-53670000D01*
G75*
G02*
X130256000Y-53520000I0J150000D01*
G01*
X130256000Y-51920000D01*
G75*
G02*
X130406000Y-51770000I150000J0D01*
G01*
X130706000Y-51770000D01*
G75*
G02*
X130856000Y-51920000I0J-150000D01*
G01*
X130856000Y-53520000D01*
G75*
G02*
X130706000Y-53670000I-150000J0D01*
G01*
G37*
%TD*%
%TO.C,R3*%
G36*
G01*
X130449000Y-43286000D02*
X130449000Y-43836000D01*
G75*
G02*
X130249000Y-44036000I-200000J0D01*
G01*
X129849000Y-44036000D01*
G75*
G02*
X129649000Y-43836000I0J200000D01*
G01*
X129649000Y-43286000D01*
G75*
G02*
X129849000Y-43086000I200000J0D01*
G01*
X130249000Y-43086000D01*
G75*
G02*
X130449000Y-43286000I0J-200000D01*
G01*
G37*
G36*
G01*
X132099000Y-43286000D02*
X132099000Y-43836000D01*
G75*
G02*
X131899000Y-44036000I-200000J0D01*
G01*
X131499000Y-44036000D01*
G75*
G02*
X131299000Y-43836000I0J200000D01*
G01*
X131299000Y-43286000D01*
G75*
G02*
X131499000Y-43086000I200000J0D01*
G01*
X131899000Y-43086000D01*
G75*
G02*
X132099000Y-43286000I0J-200000D01*
G01*
G37*
%TD*%
%TO.C,R6*%
G36*
G01*
X134473000Y-43836000D02*
X134473000Y-43286000D01*
G75*
G02*
X134673000Y-43086000I200000J0D01*
G01*
X135073000Y-43086000D01*
G75*
G02*
X135273000Y-43286000I0J-200000D01*
G01*
X135273000Y-43836000D01*
G75*
G02*
X135073000Y-44036000I-200000J0D01*
G01*
X134673000Y-44036000D01*
G75*
G02*
X134473000Y-43836000I0J200000D01*
G01*
G37*
G36*
G01*
X132823000Y-43836000D02*
X132823000Y-43286000D01*
G75*
G02*
X133023000Y-43086000I200000J0D01*
G01*
X133423000Y-43086000D01*
G75*
G02*
X133623000Y-43286000I0J-200000D01*
G01*
X133623000Y-43836000D01*
G75*
G02*
X133423000Y-44036000I-200000J0D01*
G01*
X133023000Y-44036000D01*
G75*
G02*
X132823000Y-43836000I0J200000D01*
G01*
G37*
%TD*%
%TO.C,C8*%
G36*
G01*
X143416400Y-47566600D02*
X143416400Y-46616600D01*
G75*
G02*
X143666400Y-46366600I250000J0D01*
G01*
X144166400Y-46366600D01*
G75*
G02*
X144416400Y-46616600I0J-250000D01*
G01*
X144416400Y-47566600D01*
G75*
G02*
X144166400Y-47816600I-250000J0D01*
G01*
X143666400Y-47816600D01*
G75*
G02*
X143416400Y-47566600I0J250000D01*
G01*
G37*
G36*
G01*
X141516400Y-47566600D02*
X141516400Y-46616600D01*
G75*
G02*
X141766400Y-46366600I250000J0D01*
G01*
X142266400Y-46366600D01*
G75*
G02*
X142516400Y-46616600I0J-250000D01*
G01*
X142516400Y-47566600D01*
G75*
G02*
X142266400Y-47816600I-250000J0D01*
G01*
X141766400Y-47816600D01*
G75*
G02*
X141516400Y-47566600I0J250000D01*
G01*
G37*
%TD*%
%TO.C,C27*%
G36*
G01*
X145991200Y-46616600D02*
X145991200Y-47566600D01*
G75*
G02*
X145741200Y-47816600I-250000J0D01*
G01*
X145241200Y-47816600D01*
G75*
G02*
X144991200Y-47566600I0J250000D01*
G01*
X144991200Y-46616600D01*
G75*
G02*
X145241200Y-46366600I250000J0D01*
G01*
X145741200Y-46366600D01*
G75*
G02*
X145991200Y-46616600I0J-250000D01*
G01*
G37*
G36*
G01*
X147891200Y-46616600D02*
X147891200Y-47566600D01*
G75*
G02*
X147641200Y-47816600I-250000J0D01*
G01*
X147141200Y-47816600D01*
G75*
G02*
X146891200Y-47566600I0J250000D01*
G01*
X146891200Y-46616600D01*
G75*
G02*
X147141200Y-46366600I250000J0D01*
G01*
X147641200Y-46366600D01*
G75*
G02*
X147891200Y-46616600I0J-250000D01*
G01*
G37*
%TD*%
%TO.C,C28*%
G36*
G01*
X149445600Y-46616600D02*
X149445600Y-47566600D01*
G75*
G02*
X149195600Y-47816600I-250000J0D01*
G01*
X148695600Y-47816600D01*
G75*
G02*
X148445600Y-47566600I0J250000D01*
G01*
X148445600Y-46616600D01*
G75*
G02*
X148695600Y-46366600I250000J0D01*
G01*
X149195600Y-46366600D01*
G75*
G02*
X149445600Y-46616600I0J-250000D01*
G01*
G37*
G36*
G01*
X151345600Y-46616600D02*
X151345600Y-47566600D01*
G75*
G02*
X151095600Y-47816600I-250000J0D01*
G01*
X150595600Y-47816600D01*
G75*
G02*
X150345600Y-47566600I0J250000D01*
G01*
X150345600Y-46616600D01*
G75*
G02*
X150595600Y-46366600I250000J0D01*
G01*
X151095600Y-46366600D01*
G75*
G02*
X151345600Y-46616600I0J-250000D01*
G01*
G37*
%TD*%
D17*
%TO.C,J11*%
X147675600Y-40894000D03*
D18*
X145135600Y-40894000D03*
%TD*%
%TO.C,R14*%
G36*
G01*
X142244500Y-43593598D02*
X142244500Y-44493602D01*
G75*
G02*
X141994502Y-44743600I-249998J0D01*
G01*
X141469498Y-44743600D01*
G75*
G02*
X141219500Y-44493602I0J249998D01*
G01*
X141219500Y-43593598D01*
G75*
G02*
X141469498Y-43343600I249998J0D01*
G01*
X141994502Y-43343600D01*
G75*
G02*
X142244500Y-43593598I0J-249998D01*
G01*
G37*
G36*
G01*
X144069500Y-43593598D02*
X144069500Y-44493602D01*
G75*
G02*
X143819502Y-44743600I-249998J0D01*
G01*
X143294498Y-44743600D01*
G75*
G02*
X143044500Y-44493602I0J249998D01*
G01*
X143044500Y-43593598D01*
G75*
G02*
X143294498Y-43343600I249998J0D01*
G01*
X143819502Y-43343600D01*
G75*
G02*
X144069500Y-43593598I0J-249998D01*
G01*
G37*
%TD*%
%TO.C,R42*%
G36*
G01*
X145410600Y-44138800D02*
X144860600Y-44138800D01*
G75*
G02*
X144660600Y-43938800I0J200000D01*
G01*
X144660600Y-43538800D01*
G75*
G02*
X144860600Y-43338800I200000J0D01*
G01*
X145410600Y-43338800D01*
G75*
G02*
X145610600Y-43538800I0J-200000D01*
G01*
X145610600Y-43938800D01*
G75*
G02*
X145410600Y-44138800I-200000J0D01*
G01*
G37*
G36*
G01*
X145410600Y-45788800D02*
X144860600Y-45788800D01*
G75*
G02*
X144660600Y-45588800I0J200000D01*
G01*
X144660600Y-45188800D01*
G75*
G02*
X144860600Y-44988800I200000J0D01*
G01*
X145410600Y-44988800D01*
G75*
G02*
X145610600Y-45188800I0J-200000D01*
G01*
X145610600Y-45588800D01*
G75*
G02*
X145410600Y-45788800I-200000J0D01*
G01*
G37*
%TD*%
%TO.C,R43*%
G36*
G01*
X147950600Y-44165200D02*
X147400600Y-44165200D01*
G75*
G02*
X147200600Y-43965200I0J200000D01*
G01*
X147200600Y-43565200D01*
G75*
G02*
X147400600Y-43365200I200000J0D01*
G01*
X147950600Y-43365200D01*
G75*
G02*
X148150600Y-43565200I0J-200000D01*
G01*
X148150600Y-43965200D01*
G75*
G02*
X147950600Y-44165200I-200000J0D01*
G01*
G37*
G36*
G01*
X147950600Y-45815200D02*
X147400600Y-45815200D01*
G75*
G02*
X147200600Y-45615200I0J200000D01*
G01*
X147200600Y-45215200D01*
G75*
G02*
X147400600Y-45015200I200000J0D01*
G01*
X147950600Y-45015200D01*
G75*
G02*
X148150600Y-45215200I0J-200000D01*
G01*
X148150600Y-45615200D01*
G75*
G02*
X147950600Y-45815200I-200000J0D01*
G01*
G37*
%TD*%
D26*
%TO.C,D1*%
X136398000Y-58496200D03*
X136398000Y-55143400D03*
%TD*%
D27*
%TO.C,D2*%
X121005600Y-51714400D03*
X117652800Y-51714400D03*
%TD*%
%TO.C,R44*%
G36*
G01*
X134141800Y-58247600D02*
X134691800Y-58247600D01*
G75*
G02*
X134891800Y-58447600I0J-200000D01*
G01*
X134891800Y-58847600D01*
G75*
G02*
X134691800Y-59047600I-200000J0D01*
G01*
X134141800Y-59047600D01*
G75*
G02*
X133941800Y-58847600I0J200000D01*
G01*
X133941800Y-58447600D01*
G75*
G02*
X134141800Y-58247600I200000J0D01*
G01*
G37*
G36*
G01*
X134141800Y-56597600D02*
X134691800Y-56597600D01*
G75*
G02*
X134891800Y-56797600I0J-200000D01*
G01*
X134891800Y-57197600D01*
G75*
G02*
X134691800Y-57397600I-200000J0D01*
G01*
X134141800Y-57397600D01*
G75*
G02*
X133941800Y-57197600I0J200000D01*
G01*
X133941800Y-56797600D01*
G75*
G02*
X134141800Y-56597600I200000J0D01*
G01*
G37*
%TD*%
%TO.C,R45*%
G36*
G01*
X121179000Y-54376000D02*
X120629000Y-54376000D01*
G75*
G02*
X120429000Y-54176000I0J200000D01*
G01*
X120429000Y-53776000D01*
G75*
G02*
X120629000Y-53576000I200000J0D01*
G01*
X121179000Y-53576000D01*
G75*
G02*
X121379000Y-53776000I0J-200000D01*
G01*
X121379000Y-54176000D01*
G75*
G02*
X121179000Y-54376000I-200000J0D01*
G01*
G37*
G36*
G01*
X121179000Y-56026000D02*
X120629000Y-56026000D01*
G75*
G02*
X120429000Y-55826000I0J200000D01*
G01*
X120429000Y-55426000D01*
G75*
G02*
X120629000Y-55226000I200000J0D01*
G01*
X121179000Y-55226000D01*
G75*
G02*
X121379000Y-55426000I0J-200000D01*
G01*
X121379000Y-55826000D01*
G75*
G02*
X121179000Y-56026000I-200000J0D01*
G01*
G37*
%TD*%
%TO.C,R46*%
G36*
G01*
X124989000Y-48241400D02*
X124439000Y-48241400D01*
G75*
G02*
X124239000Y-48041400I0J200000D01*
G01*
X124239000Y-47641400D01*
G75*
G02*
X124439000Y-47441400I200000J0D01*
G01*
X124989000Y-47441400D01*
G75*
G02*
X125189000Y-47641400I0J-200000D01*
G01*
X125189000Y-48041400D01*
G75*
G02*
X124989000Y-48241400I-200000J0D01*
G01*
G37*
G36*
G01*
X124989000Y-49891400D02*
X124439000Y-49891400D01*
G75*
G02*
X124239000Y-49691400I0J200000D01*
G01*
X124239000Y-49291400D01*
G75*
G02*
X124439000Y-49091400I200000J0D01*
G01*
X124989000Y-49091400D01*
G75*
G02*
X125189000Y-49291400I0J-200000D01*
G01*
X125189000Y-49691400D01*
G75*
G02*
X124989000Y-49891400I-200000J0D01*
G01*
G37*
%TD*%
%TO.C,R47*%
G36*
G01*
X122449000Y-48229200D02*
X121899000Y-48229200D01*
G75*
G02*
X121699000Y-48029200I0J200000D01*
G01*
X121699000Y-47629200D01*
G75*
G02*
X121899000Y-47429200I200000J0D01*
G01*
X122449000Y-47429200D01*
G75*
G02*
X122649000Y-47629200I0J-200000D01*
G01*
X122649000Y-48029200D01*
G75*
G02*
X122449000Y-48229200I-200000J0D01*
G01*
G37*
G36*
G01*
X122449000Y-49879200D02*
X121899000Y-49879200D01*
G75*
G02*
X121699000Y-49679200I0J200000D01*
G01*
X121699000Y-49279200D01*
G75*
G02*
X121899000Y-49079200I200000J0D01*
G01*
X122449000Y-49079200D01*
G75*
G02*
X122649000Y-49279200I0J-200000D01*
G01*
X122649000Y-49679200D01*
G75*
G02*
X122449000Y-49879200I-200000J0D01*
G01*
G37*
%TD*%
%TO.C,C4*%
G36*
G01*
X118077000Y-54124400D02*
X117127000Y-54124400D01*
G75*
G02*
X116877000Y-53874400I0J250000D01*
G01*
X116877000Y-53374400D01*
G75*
G02*
X117127000Y-53124400I250000J0D01*
G01*
X118077000Y-53124400D01*
G75*
G02*
X118327000Y-53374400I0J-250000D01*
G01*
X118327000Y-53874400D01*
G75*
G02*
X118077000Y-54124400I-250000J0D01*
G01*
G37*
G36*
G01*
X118077000Y-56024400D02*
X117127000Y-56024400D01*
G75*
G02*
X116877000Y-55774400I0J250000D01*
G01*
X116877000Y-55274400D01*
G75*
G02*
X117127000Y-55024400I250000J0D01*
G01*
X118077000Y-55024400D01*
G75*
G02*
X118327000Y-55274400I0J-250000D01*
G01*
X118327000Y-55774400D01*
G75*
G02*
X118077000Y-56024400I-250000J0D01*
G01*
G37*
%TD*%
%TO.C,R1*%
G36*
G01*
X135591600Y-60600000D02*
X135591600Y-60050000D01*
G75*
G02*
X135791600Y-59850000I200000J0D01*
G01*
X136191600Y-59850000D01*
G75*
G02*
X136391600Y-60050000I0J-200000D01*
G01*
X136391600Y-60600000D01*
G75*
G02*
X136191600Y-60800000I-200000J0D01*
G01*
X135791600Y-60800000D01*
G75*
G02*
X135591600Y-60600000I0J200000D01*
G01*
G37*
G36*
G01*
X133941600Y-60600000D02*
X133941600Y-60050000D01*
G75*
G02*
X134141600Y-59850000I200000J0D01*
G01*
X134541600Y-59850000D01*
G75*
G02*
X134741600Y-60050000I0J-200000D01*
G01*
X134741600Y-60600000D01*
G75*
G02*
X134541600Y-60800000I-200000J0D01*
G01*
X134141600Y-60800000D01*
G75*
G02*
X133941600Y-60600000I0J200000D01*
G01*
G37*
%TD*%
%TO.C,R4*%
G36*
G01*
X119105000Y-55226000D02*
X119655000Y-55226000D01*
G75*
G02*
X119855000Y-55426000I0J-200000D01*
G01*
X119855000Y-55826000D01*
G75*
G02*
X119655000Y-56026000I-200000J0D01*
G01*
X119105000Y-56026000D01*
G75*
G02*
X118905000Y-55826000I0J200000D01*
G01*
X118905000Y-55426000D01*
G75*
G02*
X119105000Y-55226000I200000J0D01*
G01*
G37*
G36*
G01*
X119105000Y-53576000D02*
X119655000Y-53576000D01*
G75*
G02*
X119855000Y-53776000I0J-200000D01*
G01*
X119855000Y-54176000D01*
G75*
G02*
X119655000Y-54376000I-200000J0D01*
G01*
X119105000Y-54376000D01*
G75*
G02*
X118905000Y-54176000I0J200000D01*
G01*
X118905000Y-53776000D01*
G75*
G02*
X119105000Y-53576000I200000J0D01*
G01*
G37*
%TD*%
%TO.C,C29*%
G36*
G01*
X151097000Y-51361000D02*
X150147000Y-51361000D01*
G75*
G02*
X149897000Y-51111000I0J250000D01*
G01*
X149897000Y-50611000D01*
G75*
G02*
X150147000Y-50361000I250000J0D01*
G01*
X151097000Y-50361000D01*
G75*
G02*
X151347000Y-50611000I0J-250000D01*
G01*
X151347000Y-51111000D01*
G75*
G02*
X151097000Y-51361000I-250000J0D01*
G01*
G37*
G36*
G01*
X151097000Y-49461000D02*
X150147000Y-49461000D01*
G75*
G02*
X149897000Y-49211000I0J250000D01*
G01*
X149897000Y-48711000D01*
G75*
G02*
X150147000Y-48461000I250000J0D01*
G01*
X151097000Y-48461000D01*
G75*
G02*
X151347000Y-48711000I0J-250000D01*
G01*
X151347000Y-49211000D01*
G75*
G02*
X151097000Y-49461000I-250000J0D01*
G01*
G37*
%TD*%
D28*
%TO.C,J1*%
X155321000Y-84281000D03*
X155321000Y-89281000D03*
%TD*%
D18*
%TO.C,J7*%
X144208500Y-66929000D03*
D17*
X144208500Y-64389000D03*
X144208500Y-61849000D03*
%TD*%
%TO.C,R49*%
G36*
G01*
X47644000Y-79125400D02*
X47644000Y-79675400D01*
G75*
G02*
X47444000Y-79875400I-200000J0D01*
G01*
X47044000Y-79875400D01*
G75*
G02*
X46844000Y-79675400I0J200000D01*
G01*
X46844000Y-79125400D01*
G75*
G02*
X47044000Y-78925400I200000J0D01*
G01*
X47444000Y-78925400D01*
G75*
G02*
X47644000Y-79125400I0J-200000D01*
G01*
G37*
G36*
G01*
X49294000Y-79125400D02*
X49294000Y-79675400D01*
G75*
G02*
X49094000Y-79875400I-200000J0D01*
G01*
X48694000Y-79875400D01*
G75*
G02*
X48494000Y-79675400I0J200000D01*
G01*
X48494000Y-79125400D01*
G75*
G02*
X48694000Y-78925400I200000J0D01*
G01*
X49094000Y-78925400D01*
G75*
G02*
X49294000Y-79125400I0J-200000D01*
G01*
G37*
%TD*%
%TO.C,R50*%
G36*
G01*
X49269600Y-80674800D02*
X49269600Y-81224800D01*
G75*
G02*
X49069600Y-81424800I-200000J0D01*
G01*
X48669600Y-81424800D01*
G75*
G02*
X48469600Y-81224800I0J200000D01*
G01*
X48469600Y-80674800D01*
G75*
G02*
X48669600Y-80474800I200000J0D01*
G01*
X49069600Y-80474800D01*
G75*
G02*
X49269600Y-80674800I0J-200000D01*
G01*
G37*
G36*
G01*
X47619600Y-80674800D02*
X47619600Y-81224800D01*
G75*
G02*
X47419600Y-81424800I-200000J0D01*
G01*
X47019600Y-81424800D01*
G75*
G02*
X46819600Y-81224800I0J200000D01*
G01*
X46819600Y-80674800D01*
G75*
G02*
X47019600Y-80474800I200000J0D01*
G01*
X47419600Y-80474800D01*
G75*
G02*
X47619600Y-80674800I0J-200000D01*
G01*
G37*
%TD*%
D29*
%TO.C,K1*%
X84588000Y-124982200D03*
X106588000Y-124982200D03*
X81788000Y-136982200D03*
X109388000Y-136982200D03*
%TD*%
%TO.C,K2*%
X70002400Y-136956800D03*
X42402400Y-136956800D03*
X67202400Y-124956800D03*
X45202400Y-124956800D03*
%TD*%
%TO.C,U4*%
G36*
G01*
X102431000Y-89858200D02*
X102431000Y-89558200D01*
G75*
G02*
X102581000Y-89408200I150000J0D01*
G01*
X104331000Y-89408200D01*
G75*
G02*
X104481000Y-89558200I0J-150000D01*
G01*
X104481000Y-89858200D01*
G75*
G02*
X104331000Y-90008200I-150000J0D01*
G01*
X102581000Y-90008200D01*
G75*
G02*
X102431000Y-89858200I0J150000D01*
G01*
G37*
G36*
G01*
X102431000Y-91128200D02*
X102431000Y-90828200D01*
G75*
G02*
X102581000Y-90678200I150000J0D01*
G01*
X104331000Y-90678200D01*
G75*
G02*
X104481000Y-90828200I0J-150000D01*
G01*
X104481000Y-91128200D01*
G75*
G02*
X104331000Y-91278200I-150000J0D01*
G01*
X102581000Y-91278200D01*
G75*
G02*
X102431000Y-91128200I0J150000D01*
G01*
G37*
G36*
G01*
X102431000Y-92398200D02*
X102431000Y-92098200D01*
G75*
G02*
X102581000Y-91948200I150000J0D01*
G01*
X104331000Y-91948200D01*
G75*
G02*
X104481000Y-92098200I0J-150000D01*
G01*
X104481000Y-92398200D01*
G75*
G02*
X104331000Y-92548200I-150000J0D01*
G01*
X102581000Y-92548200D01*
G75*
G02*
X102431000Y-92398200I0J150000D01*
G01*
G37*
G36*
G01*
X102431000Y-93668200D02*
X102431000Y-93368200D01*
G75*
G02*
X102581000Y-93218200I150000J0D01*
G01*
X104331000Y-93218200D01*
G75*
G02*
X104481000Y-93368200I0J-150000D01*
G01*
X104481000Y-93668200D01*
G75*
G02*
X104331000Y-93818200I-150000J0D01*
G01*
X102581000Y-93818200D01*
G75*
G02*
X102431000Y-93668200I0J150000D01*
G01*
G37*
G36*
G01*
X102431000Y-94938200D02*
X102431000Y-94638200D01*
G75*
G02*
X102581000Y-94488200I150000J0D01*
G01*
X104331000Y-94488200D01*
G75*
G02*
X104481000Y-94638200I0J-150000D01*
G01*
X104481000Y-94938200D01*
G75*
G02*
X104331000Y-95088200I-150000J0D01*
G01*
X102581000Y-95088200D01*
G75*
G02*
X102431000Y-94938200I0J150000D01*
G01*
G37*
G36*
G01*
X102431000Y-96208200D02*
X102431000Y-95908200D01*
G75*
G02*
X102581000Y-95758200I150000J0D01*
G01*
X104331000Y-95758200D01*
G75*
G02*
X104481000Y-95908200I0J-150000D01*
G01*
X104481000Y-96208200D01*
G75*
G02*
X104331000Y-96358200I-150000J0D01*
G01*
X102581000Y-96358200D01*
G75*
G02*
X102431000Y-96208200I0J150000D01*
G01*
G37*
G36*
G01*
X102431000Y-97478200D02*
X102431000Y-97178200D01*
G75*
G02*
X102581000Y-97028200I150000J0D01*
G01*
X104331000Y-97028200D01*
G75*
G02*
X104481000Y-97178200I0J-150000D01*
G01*
X104481000Y-97478200D01*
G75*
G02*
X104331000Y-97628200I-150000J0D01*
G01*
X102581000Y-97628200D01*
G75*
G02*
X102431000Y-97478200I0J150000D01*
G01*
G37*
G36*
G01*
X102431000Y-98748200D02*
X102431000Y-98448200D01*
G75*
G02*
X102581000Y-98298200I150000J0D01*
G01*
X104331000Y-98298200D01*
G75*
G02*
X104481000Y-98448200I0J-150000D01*
G01*
X104481000Y-98748200D01*
G75*
G02*
X104331000Y-98898200I-150000J0D01*
G01*
X102581000Y-98898200D01*
G75*
G02*
X102431000Y-98748200I0J150000D01*
G01*
G37*
G36*
G01*
X93131000Y-98748200D02*
X93131000Y-98448200D01*
G75*
G02*
X93281000Y-98298200I150000J0D01*
G01*
X95031000Y-98298200D01*
G75*
G02*
X95181000Y-98448200I0J-150000D01*
G01*
X95181000Y-98748200D01*
G75*
G02*
X95031000Y-98898200I-150000J0D01*
G01*
X93281000Y-98898200D01*
G75*
G02*
X93131000Y-98748200I0J150000D01*
G01*
G37*
G36*
G01*
X93131000Y-97478200D02*
X93131000Y-97178200D01*
G75*
G02*
X93281000Y-97028200I150000J0D01*
G01*
X95031000Y-97028200D01*
G75*
G02*
X95181000Y-97178200I0J-150000D01*
G01*
X95181000Y-97478200D01*
G75*
G02*
X95031000Y-97628200I-150000J0D01*
G01*
X93281000Y-97628200D01*
G75*
G02*
X93131000Y-97478200I0J150000D01*
G01*
G37*
G36*
G01*
X93131000Y-96208200D02*
X93131000Y-95908200D01*
G75*
G02*
X93281000Y-95758200I150000J0D01*
G01*
X95031000Y-95758200D01*
G75*
G02*
X95181000Y-95908200I0J-150000D01*
G01*
X95181000Y-96208200D01*
G75*
G02*
X95031000Y-96358200I-150000J0D01*
G01*
X93281000Y-96358200D01*
G75*
G02*
X93131000Y-96208200I0J150000D01*
G01*
G37*
G36*
G01*
X93131000Y-94938200D02*
X93131000Y-94638200D01*
G75*
G02*
X93281000Y-94488200I150000J0D01*
G01*
X95031000Y-94488200D01*
G75*
G02*
X95181000Y-94638200I0J-150000D01*
G01*
X95181000Y-94938200D01*
G75*
G02*
X95031000Y-95088200I-150000J0D01*
G01*
X93281000Y-95088200D01*
G75*
G02*
X93131000Y-94938200I0J150000D01*
G01*
G37*
G36*
G01*
X93131000Y-93668200D02*
X93131000Y-93368200D01*
G75*
G02*
X93281000Y-93218200I150000J0D01*
G01*
X95031000Y-93218200D01*
G75*
G02*
X95181000Y-93368200I0J-150000D01*
G01*
X95181000Y-93668200D01*
G75*
G02*
X95031000Y-93818200I-150000J0D01*
G01*
X93281000Y-93818200D01*
G75*
G02*
X93131000Y-93668200I0J150000D01*
G01*
G37*
G36*
G01*
X93131000Y-92398200D02*
X93131000Y-92098200D01*
G75*
G02*
X93281000Y-91948200I150000J0D01*
G01*
X95031000Y-91948200D01*
G75*
G02*
X95181000Y-92098200I0J-150000D01*
G01*
X95181000Y-92398200D01*
G75*
G02*
X95031000Y-92548200I-150000J0D01*
G01*
X93281000Y-92548200D01*
G75*
G02*
X93131000Y-92398200I0J150000D01*
G01*
G37*
G36*
G01*
X93131000Y-91128200D02*
X93131000Y-90828200D01*
G75*
G02*
X93281000Y-90678200I150000J0D01*
G01*
X95031000Y-90678200D01*
G75*
G02*
X95181000Y-90828200I0J-150000D01*
G01*
X95181000Y-91128200D01*
G75*
G02*
X95031000Y-91278200I-150000J0D01*
G01*
X93281000Y-91278200D01*
G75*
G02*
X93131000Y-91128200I0J150000D01*
G01*
G37*
G36*
G01*
X93131000Y-89858200D02*
X93131000Y-89558200D01*
G75*
G02*
X93281000Y-89408200I150000J0D01*
G01*
X95031000Y-89408200D01*
G75*
G02*
X95181000Y-89558200I0J-150000D01*
G01*
X95181000Y-89858200D01*
G75*
G02*
X95031000Y-90008200I-150000J0D01*
G01*
X93281000Y-90008200D01*
G75*
G02*
X93131000Y-89858200I0J150000D01*
G01*
G37*
%TD*%
D30*
%TO.C,PS1*%
X124460000Y-90170000D03*
X134620000Y-90170000D03*
X144780000Y-135890000D03*
D31*
X124460000Y-135890000D03*
%TD*%
D28*
%TO.C,J8*%
X152480000Y-135890000D03*
X157480000Y-135890000D03*
%TD*%
%TO.C,F1*%
G36*
G01*
X148326000Y-83703000D02*
X148326000Y-84953000D01*
G75*
G02*
X148076000Y-85203000I-250000J0D01*
G01*
X147326000Y-85203000D01*
G75*
G02*
X147076000Y-84953000I0J250000D01*
G01*
X147076000Y-83703000D01*
G75*
G02*
X147326000Y-83453000I250000J0D01*
G01*
X148076000Y-83453000D01*
G75*
G02*
X148326000Y-83703000I0J-250000D01*
G01*
G37*
G36*
G01*
X145526000Y-83703000D02*
X145526000Y-84953000D01*
G75*
G02*
X145276000Y-85203000I-250000J0D01*
G01*
X144526000Y-85203000D01*
G75*
G02*
X144276000Y-84953000I0J250000D01*
G01*
X144276000Y-83703000D01*
G75*
G02*
X144526000Y-83453000I250000J0D01*
G01*
X145276000Y-83453000D01*
G75*
G02*
X145526000Y-83703000I0J-250000D01*
G01*
G37*
%TD*%
%TO.C,D3*%
G36*
G01*
X150167050Y-103510500D02*
X149654550Y-103510500D01*
G75*
G02*
X149435800Y-103291750I0J218750D01*
G01*
X149435800Y-102854250D01*
G75*
G02*
X149654550Y-102635500I218750J0D01*
G01*
X150167050Y-102635500D01*
G75*
G02*
X150385800Y-102854250I0J-218750D01*
G01*
X150385800Y-103291750D01*
G75*
G02*
X150167050Y-103510500I-218750J0D01*
G01*
G37*
G36*
G01*
X150167050Y-105085500D02*
X149654550Y-105085500D01*
G75*
G02*
X149435800Y-104866750I0J218750D01*
G01*
X149435800Y-104429250D01*
G75*
G02*
X149654550Y-104210500I218750J0D01*
G01*
X150167050Y-104210500D01*
G75*
G02*
X150385800Y-104429250I0J-218750D01*
G01*
X150385800Y-104866750D01*
G75*
G02*
X150167050Y-105085500I-218750J0D01*
G01*
G37*
%TD*%
%TO.C,D4*%
G36*
G01*
X58874950Y-97657100D02*
X59387450Y-97657100D01*
G75*
G02*
X59606200Y-97875850I0J-218750D01*
G01*
X59606200Y-98313350D01*
G75*
G02*
X59387450Y-98532100I-218750J0D01*
G01*
X58874950Y-98532100D01*
G75*
G02*
X58656200Y-98313350I0J218750D01*
G01*
X58656200Y-97875850D01*
G75*
G02*
X58874950Y-97657100I218750J0D01*
G01*
G37*
G36*
G01*
X58874950Y-99232100D02*
X59387450Y-99232100D01*
G75*
G02*
X59606200Y-99450850I0J-218750D01*
G01*
X59606200Y-99888350D01*
G75*
G02*
X59387450Y-100107100I-218750J0D01*
G01*
X58874950Y-100107100D01*
G75*
G02*
X58656200Y-99888350I0J218750D01*
G01*
X58656200Y-99450850D01*
G75*
G02*
X58874950Y-99232100I218750J0D01*
G01*
G37*
%TD*%
%TO.C,D5*%
G36*
G01*
X56334950Y-99181300D02*
X56847450Y-99181300D01*
G75*
G02*
X57066200Y-99400050I0J-218750D01*
G01*
X57066200Y-99837550D01*
G75*
G02*
X56847450Y-100056300I-218750J0D01*
G01*
X56334950Y-100056300D01*
G75*
G02*
X56116200Y-99837550I0J218750D01*
G01*
X56116200Y-99400050D01*
G75*
G02*
X56334950Y-99181300I218750J0D01*
G01*
G37*
G36*
G01*
X56334950Y-97606300D02*
X56847450Y-97606300D01*
G75*
G02*
X57066200Y-97825050I0J-218750D01*
G01*
X57066200Y-98262550D01*
G75*
G02*
X56847450Y-98481300I-218750J0D01*
G01*
X56334950Y-98481300D01*
G75*
G02*
X56116200Y-98262550I0J218750D01*
G01*
X56116200Y-97825050D01*
G75*
G02*
X56334950Y-97606300I218750J0D01*
G01*
G37*
%TD*%
%TO.C,D6*%
G36*
G01*
X53947350Y-97606500D02*
X54459850Y-97606500D01*
G75*
G02*
X54678600Y-97825250I0J-218750D01*
G01*
X54678600Y-98262750D01*
G75*
G02*
X54459850Y-98481500I-218750J0D01*
G01*
X53947350Y-98481500D01*
G75*
G02*
X53728600Y-98262750I0J218750D01*
G01*
X53728600Y-97825250D01*
G75*
G02*
X53947350Y-97606500I218750J0D01*
G01*
G37*
G36*
G01*
X53947350Y-99181500D02*
X54459850Y-99181500D01*
G75*
G02*
X54678600Y-99400250I0J-218750D01*
G01*
X54678600Y-99837750D01*
G75*
G02*
X54459850Y-100056500I-218750J0D01*
G01*
X53947350Y-100056500D01*
G75*
G02*
X53728600Y-99837750I0J218750D01*
G01*
X53728600Y-99400250D01*
G75*
G02*
X53947350Y-99181500I218750J0D01*
G01*
G37*
%TD*%
%TO.C,D7*%
G36*
G01*
X43939750Y-118028100D02*
X44452250Y-118028100D01*
G75*
G02*
X44671000Y-118246850I0J-218750D01*
G01*
X44671000Y-118684350D01*
G75*
G02*
X44452250Y-118903100I-218750J0D01*
G01*
X43939750Y-118903100D01*
G75*
G02*
X43721000Y-118684350I0J218750D01*
G01*
X43721000Y-118246850D01*
G75*
G02*
X43939750Y-118028100I218750J0D01*
G01*
G37*
G36*
G01*
X43939750Y-116453100D02*
X44452250Y-116453100D01*
G75*
G02*
X44671000Y-116671850I0J-218750D01*
G01*
X44671000Y-117109350D01*
G75*
G02*
X44452250Y-117328100I-218750J0D01*
G01*
X43939750Y-117328100D01*
G75*
G02*
X43721000Y-117109350I0J218750D01*
G01*
X43721000Y-116671850D01*
G75*
G02*
X43939750Y-116453100I218750J0D01*
G01*
G37*
%TD*%
%TO.C,D8*%
G36*
G01*
X47546550Y-116453100D02*
X48059050Y-116453100D01*
G75*
G02*
X48277800Y-116671850I0J-218750D01*
G01*
X48277800Y-117109350D01*
G75*
G02*
X48059050Y-117328100I-218750J0D01*
G01*
X47546550Y-117328100D01*
G75*
G02*
X47327800Y-117109350I0J218750D01*
G01*
X47327800Y-116671850D01*
G75*
G02*
X47546550Y-116453100I218750J0D01*
G01*
G37*
G36*
G01*
X47546550Y-118028100D02*
X48059050Y-118028100D01*
G75*
G02*
X48277800Y-118246850I0J-218750D01*
G01*
X48277800Y-118684350D01*
G75*
G02*
X48059050Y-118903100I-218750J0D01*
G01*
X47546550Y-118903100D01*
G75*
G02*
X47327800Y-118684350I0J218750D01*
G01*
X47327800Y-118246850D01*
G75*
G02*
X47546550Y-118028100I218750J0D01*
G01*
G37*
%TD*%
%TO.C,D9*%
G36*
G01*
X60094150Y-117977500D02*
X60606650Y-117977500D01*
G75*
G02*
X60825400Y-118196250I0J-218750D01*
G01*
X60825400Y-118633750D01*
G75*
G02*
X60606650Y-118852500I-218750J0D01*
G01*
X60094150Y-118852500D01*
G75*
G02*
X59875400Y-118633750I0J218750D01*
G01*
X59875400Y-118196250D01*
G75*
G02*
X60094150Y-117977500I218750J0D01*
G01*
G37*
G36*
G01*
X60094150Y-116402500D02*
X60606650Y-116402500D01*
G75*
G02*
X60825400Y-116621250I0J-218750D01*
G01*
X60825400Y-117058750D01*
G75*
G02*
X60606650Y-117277500I-218750J0D01*
G01*
X60094150Y-117277500D01*
G75*
G02*
X59875400Y-117058750I0J218750D01*
G01*
X59875400Y-116621250D01*
G75*
G02*
X60094150Y-116402500I218750J0D01*
G01*
G37*
%TD*%
%TO.C,D10*%
G36*
G01*
X53744150Y-116402300D02*
X54256650Y-116402300D01*
G75*
G02*
X54475400Y-116621050I0J-218750D01*
G01*
X54475400Y-117058550D01*
G75*
G02*
X54256650Y-117277300I-218750J0D01*
G01*
X53744150Y-117277300D01*
G75*
G02*
X53525400Y-117058550I0J218750D01*
G01*
X53525400Y-116621050D01*
G75*
G02*
X53744150Y-116402300I218750J0D01*
G01*
G37*
G36*
G01*
X53744150Y-117977300D02*
X54256650Y-117977300D01*
G75*
G02*
X54475400Y-118196050I0J-218750D01*
G01*
X54475400Y-118633550D01*
G75*
G02*
X54256650Y-118852300I-218750J0D01*
G01*
X53744150Y-118852300D01*
G75*
G02*
X53525400Y-118633550I0J218750D01*
G01*
X53525400Y-118196050D01*
G75*
G02*
X53744150Y-117977300I218750J0D01*
G01*
G37*
%TD*%
%TO.C,D11*%
G36*
G01*
X39677050Y-78161500D02*
X39164550Y-78161500D01*
G75*
G02*
X38945800Y-77942750I0J218750D01*
G01*
X38945800Y-77505250D01*
G75*
G02*
X39164550Y-77286500I218750J0D01*
G01*
X39677050Y-77286500D01*
G75*
G02*
X39895800Y-77505250I0J-218750D01*
G01*
X39895800Y-77942750D01*
G75*
G02*
X39677050Y-78161500I-218750J0D01*
G01*
G37*
G36*
G01*
X39677050Y-76586500D02*
X39164550Y-76586500D01*
G75*
G02*
X38945800Y-76367750I0J218750D01*
G01*
X38945800Y-75930250D01*
G75*
G02*
X39164550Y-75711500I218750J0D01*
G01*
X39677050Y-75711500D01*
G75*
G02*
X39895800Y-75930250I0J-218750D01*
G01*
X39895800Y-76367750D01*
G75*
G02*
X39677050Y-76586500I-218750J0D01*
G01*
G37*
%TD*%
%TO.C,R48*%
G36*
G01*
X149635800Y-101047600D02*
X150185800Y-101047600D01*
G75*
G02*
X150385800Y-101247600I0J-200000D01*
G01*
X150385800Y-101647600D01*
G75*
G02*
X150185800Y-101847600I-200000J0D01*
G01*
X149635800Y-101847600D01*
G75*
G02*
X149435800Y-101647600I0J200000D01*
G01*
X149435800Y-101247600D01*
G75*
G02*
X149635800Y-101047600I200000J0D01*
G01*
G37*
G36*
G01*
X149635800Y-99397600D02*
X150185800Y-99397600D01*
G75*
G02*
X150385800Y-99597600I0J-200000D01*
G01*
X150385800Y-99997600D01*
G75*
G02*
X150185800Y-100197600I-200000J0D01*
G01*
X149635800Y-100197600D01*
G75*
G02*
X149435800Y-99997600I0J200000D01*
G01*
X149435800Y-99597600D01*
G75*
G02*
X149635800Y-99397600I200000J0D01*
G01*
G37*
%TD*%
%TO.C,R51*%
G36*
G01*
X59406200Y-101518400D02*
X58856200Y-101518400D01*
G75*
G02*
X58656200Y-101318400I0J200000D01*
G01*
X58656200Y-100918400D01*
G75*
G02*
X58856200Y-100718400I200000J0D01*
G01*
X59406200Y-100718400D01*
G75*
G02*
X59606200Y-100918400I0J-200000D01*
G01*
X59606200Y-101318400D01*
G75*
G02*
X59406200Y-101518400I-200000J0D01*
G01*
G37*
G36*
G01*
X59406200Y-103168400D02*
X58856200Y-103168400D01*
G75*
G02*
X58656200Y-102968400I0J200000D01*
G01*
X58656200Y-102568400D01*
G75*
G02*
X58856200Y-102368400I200000J0D01*
G01*
X59406200Y-102368400D01*
G75*
G02*
X59606200Y-102568400I0J-200000D01*
G01*
X59606200Y-102968400D01*
G75*
G02*
X59406200Y-103168400I-200000J0D01*
G01*
G37*
%TD*%
%TO.C,R52*%
G36*
G01*
X56866200Y-103142000D02*
X56316200Y-103142000D01*
G75*
G02*
X56116200Y-102942000I0J200000D01*
G01*
X56116200Y-102542000D01*
G75*
G02*
X56316200Y-102342000I200000J0D01*
G01*
X56866200Y-102342000D01*
G75*
G02*
X57066200Y-102542000I0J-200000D01*
G01*
X57066200Y-102942000D01*
G75*
G02*
X56866200Y-103142000I-200000J0D01*
G01*
G37*
G36*
G01*
X56866200Y-101492000D02*
X56316200Y-101492000D01*
G75*
G02*
X56116200Y-101292000I0J200000D01*
G01*
X56116200Y-100892000D01*
G75*
G02*
X56316200Y-100692000I200000J0D01*
G01*
X56866200Y-100692000D01*
G75*
G02*
X57066200Y-100892000I0J-200000D01*
G01*
X57066200Y-101292000D01*
G75*
G02*
X56866200Y-101492000I-200000J0D01*
G01*
G37*
%TD*%
%TO.C,R53*%
G36*
G01*
X54478600Y-103142000D02*
X53928600Y-103142000D01*
G75*
G02*
X53728600Y-102942000I0J200000D01*
G01*
X53728600Y-102542000D01*
G75*
G02*
X53928600Y-102342000I200000J0D01*
G01*
X54478600Y-102342000D01*
G75*
G02*
X54678600Y-102542000I0J-200000D01*
G01*
X54678600Y-102942000D01*
G75*
G02*
X54478600Y-103142000I-200000J0D01*
G01*
G37*
G36*
G01*
X54478600Y-101492000D02*
X53928600Y-101492000D01*
G75*
G02*
X53728600Y-101292000I0J200000D01*
G01*
X53728600Y-100892000D01*
G75*
G02*
X53928600Y-100692000I200000J0D01*
G01*
X54478600Y-100692000D01*
G75*
G02*
X54678600Y-100892000I0J-200000D01*
G01*
X54678600Y-101292000D01*
G75*
G02*
X54478600Y-101492000I-200000J0D01*
G01*
G37*
%TD*%
%TO.C,R54*%
G36*
G01*
X45597400Y-118116400D02*
X46147400Y-118116400D01*
G75*
G02*
X46347400Y-118316400I0J-200000D01*
G01*
X46347400Y-118716400D01*
G75*
G02*
X46147400Y-118916400I-200000J0D01*
G01*
X45597400Y-118916400D01*
G75*
G02*
X45397400Y-118716400I0J200000D01*
G01*
X45397400Y-118316400D01*
G75*
G02*
X45597400Y-118116400I200000J0D01*
G01*
G37*
G36*
G01*
X45597400Y-116466400D02*
X46147400Y-116466400D01*
G75*
G02*
X46347400Y-116666400I0J-200000D01*
G01*
X46347400Y-117066400D01*
G75*
G02*
X46147400Y-117266400I-200000J0D01*
G01*
X45597400Y-117266400D01*
G75*
G02*
X45397400Y-117066400I0J200000D01*
G01*
X45397400Y-116666400D01*
G75*
G02*
X45597400Y-116466400I200000J0D01*
G01*
G37*
%TD*%
%TO.C,R55*%
G36*
G01*
X49204200Y-116415600D02*
X49754200Y-116415600D01*
G75*
G02*
X49954200Y-116615600I0J-200000D01*
G01*
X49954200Y-117015600D01*
G75*
G02*
X49754200Y-117215600I-200000J0D01*
G01*
X49204200Y-117215600D01*
G75*
G02*
X49004200Y-117015600I0J200000D01*
G01*
X49004200Y-116615600D01*
G75*
G02*
X49204200Y-116415600I200000J0D01*
G01*
G37*
G36*
G01*
X49204200Y-118065600D02*
X49754200Y-118065600D01*
G75*
G02*
X49954200Y-118265600I0J-200000D01*
G01*
X49954200Y-118665600D01*
G75*
G02*
X49754200Y-118865600I-200000J0D01*
G01*
X49204200Y-118865600D01*
G75*
G02*
X49004200Y-118665600I0J200000D01*
G01*
X49004200Y-118265600D01*
G75*
G02*
X49204200Y-118065600I200000J0D01*
G01*
G37*
%TD*%
%TO.C,R56*%
G36*
G01*
X58449800Y-118065600D02*
X58999800Y-118065600D01*
G75*
G02*
X59199800Y-118265600I0J-200000D01*
G01*
X59199800Y-118665600D01*
G75*
G02*
X58999800Y-118865600I-200000J0D01*
G01*
X58449800Y-118865600D01*
G75*
G02*
X58249800Y-118665600I0J200000D01*
G01*
X58249800Y-118265600D01*
G75*
G02*
X58449800Y-118065600I200000J0D01*
G01*
G37*
G36*
G01*
X58449800Y-116415600D02*
X58999800Y-116415600D01*
G75*
G02*
X59199800Y-116615600I0J-200000D01*
G01*
X59199800Y-117015600D01*
G75*
G02*
X58999800Y-117215600I-200000J0D01*
G01*
X58449800Y-117215600D01*
G75*
G02*
X58249800Y-117015600I0J200000D01*
G01*
X58249800Y-116615600D01*
G75*
G02*
X58449800Y-116415600I200000J0D01*
G01*
G37*
%TD*%
%TO.C,R57*%
G36*
G01*
X52099800Y-116364800D02*
X52649800Y-116364800D01*
G75*
G02*
X52849800Y-116564800I0J-200000D01*
G01*
X52849800Y-116964800D01*
G75*
G02*
X52649800Y-117164800I-200000J0D01*
G01*
X52099800Y-117164800D01*
G75*
G02*
X51899800Y-116964800I0J200000D01*
G01*
X51899800Y-116564800D01*
G75*
G02*
X52099800Y-116364800I200000J0D01*
G01*
G37*
G36*
G01*
X52099800Y-118014800D02*
X52649800Y-118014800D01*
G75*
G02*
X52849800Y-118214800I0J-200000D01*
G01*
X52849800Y-118614800D01*
G75*
G02*
X52649800Y-118814800I-200000J0D01*
G01*
X52099800Y-118814800D01*
G75*
G02*
X51899800Y-118614800I0J200000D01*
G01*
X51899800Y-118214800D01*
G75*
G02*
X52099800Y-118014800I200000J0D01*
G01*
G37*
%TD*%
%TO.C,R58*%
G36*
G01*
X40974600Y-75724800D02*
X41524600Y-75724800D01*
G75*
G02*
X41724600Y-75924800I0J-200000D01*
G01*
X41724600Y-76324800D01*
G75*
G02*
X41524600Y-76524800I-200000J0D01*
G01*
X40974600Y-76524800D01*
G75*
G02*
X40774600Y-76324800I0J200000D01*
G01*
X40774600Y-75924800D01*
G75*
G02*
X40974600Y-75724800I200000J0D01*
G01*
G37*
G36*
G01*
X40974600Y-77374800D02*
X41524600Y-77374800D01*
G75*
G02*
X41724600Y-77574800I0J-200000D01*
G01*
X41724600Y-77974800D01*
G75*
G02*
X41524600Y-78174800I-200000J0D01*
G01*
X40974600Y-78174800D01*
G75*
G02*
X40774600Y-77974800I0J200000D01*
G01*
X40774600Y-77574800D01*
G75*
G02*
X40974600Y-77374800I200000J0D01*
G01*
G37*
%TD*%
%TO.C,C25*%
G36*
G01*
X104513400Y-119951200D02*
X103563400Y-119951200D01*
G75*
G02*
X103313400Y-119701200I0J250000D01*
G01*
X103313400Y-119201200D01*
G75*
G02*
X103563400Y-118951200I250000J0D01*
G01*
X104513400Y-118951200D01*
G75*
G02*
X104763400Y-119201200I0J-250000D01*
G01*
X104763400Y-119701200D01*
G75*
G02*
X104513400Y-119951200I-250000J0D01*
G01*
G37*
G36*
G01*
X104513400Y-118051200D02*
X103563400Y-118051200D01*
G75*
G02*
X103313400Y-117801200I0J250000D01*
G01*
X103313400Y-117301200D01*
G75*
G02*
X103563400Y-117051200I250000J0D01*
G01*
X104513400Y-117051200D01*
G75*
G02*
X104763400Y-117301200I0J-250000D01*
G01*
X104763400Y-117801200D01*
G75*
G02*
X104513400Y-118051200I-250000J0D01*
G01*
G37*
%TD*%
%TO.C,R40*%
G36*
G01*
X106395200Y-117276200D02*
X106395200Y-117826200D01*
G75*
G02*
X106195200Y-118026200I-200000J0D01*
G01*
X105795200Y-118026200D01*
G75*
G02*
X105595200Y-117826200I0J200000D01*
G01*
X105595200Y-117276200D01*
G75*
G02*
X105795200Y-117076200I200000J0D01*
G01*
X106195200Y-117076200D01*
G75*
G02*
X106395200Y-117276200I0J-200000D01*
G01*
G37*
G36*
G01*
X108045200Y-117276200D02*
X108045200Y-117826200D01*
G75*
G02*
X107845200Y-118026200I-200000J0D01*
G01*
X107445200Y-118026200D01*
G75*
G02*
X107245200Y-117826200I0J200000D01*
G01*
X107245200Y-117276200D01*
G75*
G02*
X107445200Y-117076200I200000J0D01*
G01*
X107845200Y-117076200D01*
G75*
G02*
X108045200Y-117276200I0J-200000D01*
G01*
G37*
%TD*%
%TO.C,R41*%
G36*
G01*
X101263400Y-115676000D02*
X101263400Y-116226000D01*
G75*
G02*
X101063400Y-116426000I-200000J0D01*
G01*
X100663400Y-116426000D01*
G75*
G02*
X100463400Y-116226000I0J200000D01*
G01*
X100463400Y-115676000D01*
G75*
G02*
X100663400Y-115476000I200000J0D01*
G01*
X101063400Y-115476000D01*
G75*
G02*
X101263400Y-115676000I0J-200000D01*
G01*
G37*
G36*
G01*
X102913400Y-115676000D02*
X102913400Y-116226000D01*
G75*
G02*
X102713400Y-116426000I-200000J0D01*
G01*
X102313400Y-116426000D01*
G75*
G02*
X102113400Y-116226000I0J200000D01*
G01*
X102113400Y-115676000D01*
G75*
G02*
X102313400Y-115476000I200000J0D01*
G01*
X102713400Y-115476000D01*
G75*
G02*
X102913400Y-115676000I0J-200000D01*
G01*
G37*
%TD*%
%TO.C,R59*%
G36*
G01*
X100488800Y-114321000D02*
X100488800Y-113771000D01*
G75*
G02*
X100688800Y-113571000I200000J0D01*
G01*
X101088800Y-113571000D01*
G75*
G02*
X101288800Y-113771000I0J-200000D01*
G01*
X101288800Y-114321000D01*
G75*
G02*
X101088800Y-114521000I-200000J0D01*
G01*
X100688800Y-114521000D01*
G75*
G02*
X100488800Y-114321000I0J200000D01*
G01*
G37*
G36*
G01*
X102138800Y-114321000D02*
X102138800Y-113771000D01*
G75*
G02*
X102338800Y-113571000I200000J0D01*
G01*
X102738800Y-113571000D01*
G75*
G02*
X102938800Y-113771000I0J-200000D01*
G01*
X102938800Y-114321000D01*
G75*
G02*
X102738800Y-114521000I-200000J0D01*
G01*
X102338800Y-114521000D01*
G75*
G02*
X102138800Y-114321000I0J200000D01*
G01*
G37*
%TD*%
%TO.C,R60*%
G36*
G01*
X109427600Y-113823800D02*
X109977600Y-113823800D01*
G75*
G02*
X110177600Y-114023800I0J-200000D01*
G01*
X110177600Y-114423800D01*
G75*
G02*
X109977600Y-114623800I-200000J0D01*
G01*
X109427600Y-114623800D01*
G75*
G02*
X109227600Y-114423800I0J200000D01*
G01*
X109227600Y-114023800D01*
G75*
G02*
X109427600Y-113823800I200000J0D01*
G01*
G37*
G36*
G01*
X109427600Y-115473800D02*
X109977600Y-115473800D01*
G75*
G02*
X110177600Y-115673800I0J-200000D01*
G01*
X110177600Y-116073800D01*
G75*
G02*
X109977600Y-116273800I-200000J0D01*
G01*
X109427600Y-116273800D01*
G75*
G02*
X109227600Y-116073800I0J200000D01*
G01*
X109227600Y-115673800D01*
G75*
G02*
X109427600Y-115473800I200000J0D01*
G01*
G37*
%TD*%
D32*
%TO.C,U7*%
X107657900Y-114096000D03*
X107657900Y-115896002D03*
X104952800Y-115946002D03*
X104952800Y-114996001D03*
X104952800Y-114046000D03*
%TD*%
D33*
%TO.C,U9*%
X105003600Y-112725200D03*
X105003600Y-111425200D03*
X106943600Y-111425200D03*
X106943600Y-112075200D03*
X106943600Y-112725200D03*
%TD*%
D34*
%TO.C,U10*%
X95375800Y-110820200D03*
X88915800Y-117280200D03*
G36*
G01*
X96745800Y-110320200D02*
X97745800Y-110320200D01*
G75*
G02*
X97995800Y-110570200I0J-250000D01*
G01*
X97995800Y-111070200D01*
G75*
G02*
X97745800Y-111320200I-250000J0D01*
G01*
X96745800Y-111320200D01*
G75*
G02*
X96495800Y-111070200I0J250000D01*
G01*
X96495800Y-110570200D01*
G75*
G02*
X96745800Y-110320200I250000J0D01*
G01*
G37*
G36*
G01*
X96745800Y-113550200D02*
X97745800Y-113550200D01*
G75*
G02*
X97995800Y-113800200I0J-250000D01*
G01*
X97995800Y-114300200D01*
G75*
G02*
X97745800Y-114550200I-250000J0D01*
G01*
X96745800Y-114550200D01*
G75*
G02*
X96495800Y-114300200I0J250000D01*
G01*
X96495800Y-113800200D01*
G75*
G02*
X96745800Y-113550200I250000J0D01*
G01*
G37*
G36*
G01*
X96745800Y-116780200D02*
X97745800Y-116780200D01*
G75*
G02*
X97995800Y-117030200I0J-250000D01*
G01*
X97995800Y-117530200D01*
G75*
G02*
X97745800Y-117780200I-250000J0D01*
G01*
X96745800Y-117780200D01*
G75*
G02*
X96495800Y-117530200I0J250000D01*
G01*
X96495800Y-117030200D01*
G75*
G02*
X96745800Y-116780200I250000J0D01*
G01*
G37*
G36*
G01*
X86545800Y-110320200D02*
X87545800Y-110320200D01*
G75*
G02*
X87795800Y-110570200I0J-250000D01*
G01*
X87795800Y-111070200D01*
G75*
G02*
X87545800Y-111320200I-250000J0D01*
G01*
X86545800Y-111320200D01*
G75*
G02*
X86295800Y-111070200I0J250000D01*
G01*
X86295800Y-110570200D01*
G75*
G02*
X86545800Y-110320200I250000J0D01*
G01*
G37*
G36*
G01*
X86545800Y-113550200D02*
X87545800Y-113550200D01*
G75*
G02*
X87795800Y-113800200I0J-250000D01*
G01*
X87795800Y-114300200D01*
G75*
G02*
X87545800Y-114550200I-250000J0D01*
G01*
X86545800Y-114550200D01*
G75*
G02*
X86295800Y-114300200I0J250000D01*
G01*
X86295800Y-113800200D01*
G75*
G02*
X86545800Y-113550200I250000J0D01*
G01*
G37*
G36*
G01*
X86545800Y-116780200D02*
X87545800Y-116780200D01*
G75*
G02*
X87795800Y-117030200I0J-250000D01*
G01*
X87795800Y-117530200D01*
G75*
G02*
X87545800Y-117780200I-250000J0D01*
G01*
X86545800Y-117780200D01*
G75*
G02*
X86295800Y-117530200I0J250000D01*
G01*
X86295800Y-117030200D01*
G75*
G02*
X86545800Y-116780200I250000J0D01*
G01*
G37*
%TD*%
M02*
