%TF.GenerationSoftware,KiCad,Pcbnew,(5.1.8)-1*%
%TF.CreationDate,2022-02-24T01:16:36-05:00*%
%TF.ProjectId,OCE_L,4f43455f-4c2e-46b6-9963-61645f706362,rev?*%
%TF.SameCoordinates,Original*%
%TF.FileFunction,Legend,Bot*%
%TF.FilePolarity,Positive*%
%FSLAX46Y46*%
G04 Gerber Fmt 4.6, Leading zero omitted, Abs format (unit mm)*
G04 Created by KiCad (PCBNEW (5.1.8)-1) date 2022-02-24 01:16:36*
%MOMM*%
%LPD*%
G01*
G04 APERTURE LIST*
%ADD10C,0.037500*%
%ADD11C,0.300000*%
%ADD12C,0.100000*%
%ADD13C,0.073500*%
%ADD14C,0.150000*%
%ADD15C,0.120000*%
%ADD16C,3.000000*%
%ADD17C,1.308000*%
%ADD18C,1.208000*%
%ADD19O,2.000000X5.000000*%
%ADD20O,1.700000X1.700000*%
%ADD21R,1.700000X1.700000*%
%ADD22C,1.397000*%
%ADD23C,1.549400*%
%ADD24C,3.759200*%
%ADD25C,2.108200*%
%ADD26O,1.600000X1.600000*%
%ADD27R,1.600000X1.600000*%
%ADD28C,1.219200*%
%ADD29C,17.780001*%
%ADD30R,5.080000X2.794000*%
%ADD31C,1.803400*%
%ADD32C,2.500000*%
%ADD33C,2.030000*%
%ADD34R,2.030000X2.030000*%
%ADD35C,1.524000*%
G04 APERTURE END LIST*
D10*
X147776500Y-115054231D02*
X147776500Y-115054239D01*
X147630854Y-115114258D02*
X147776500Y-115054231D01*
X147570759Y-115259835D02*
X147630854Y-115114258D01*
X147630854Y-115405480D02*
X147570759Y-115259835D01*
X147776500Y-115465575D02*
X147630854Y-115405480D01*
X150880949Y-115465595D02*
X147776500Y-115465575D01*
X151026595Y-115405499D02*
X150880949Y-115465595D01*
X151086691Y-115259854D02*
X151026595Y-115405499D01*
X151026595Y-115114277D02*
X151086691Y-115259854D01*
X150880949Y-115054250D02*
X151026595Y-115114277D01*
X147776500Y-115054239D02*
X150880949Y-115054250D01*
X150880949Y-115042254D02*
X147776500Y-115042250D01*
X151034918Y-115105877D02*
X150880949Y-115042254D01*
X151098542Y-115259846D02*
X151034918Y-115105877D01*
X151034918Y-115413883D02*
X151098542Y-115259846D01*
X150880949Y-115477575D02*
X151034918Y-115413883D01*
X147776500Y-115477572D02*
X150880949Y-115477575D01*
X147622531Y-115413880D02*
X147776500Y-115477572D01*
X147558908Y-115259843D02*
X147622531Y-115413880D01*
X147622531Y-115105874D02*
X147558908Y-115259843D01*
X147776500Y-115042250D02*
X147622531Y-115105874D01*
X146190250Y-114139079D02*
X146190250Y-114139087D01*
X146046341Y-114198431D02*
X146190250Y-114139079D01*
X145986989Y-114342340D02*
X146046341Y-114198431D01*
X146046341Y-114486249D02*
X145986989Y-114342340D01*
X146190250Y-114545600D02*
X146046341Y-114486249D01*
X152822450Y-114545597D02*
X146190250Y-114545600D01*
X152966358Y-114486245D02*
X152822450Y-114545597D01*
X153025710Y-114342336D02*
X152966358Y-114486245D01*
X152966358Y-114198427D02*
X153025710Y-114342336D01*
X152822450Y-114139075D02*
X152966358Y-114198427D01*
X146190250Y-114139087D02*
X152822450Y-114139075D01*
X152822450Y-114122280D02*
X146190250Y-114122275D01*
X152978155Y-114186648D02*
X152822450Y-114122280D01*
X153042522Y-114342353D02*
X152978155Y-114186648D01*
X152978155Y-114498058D02*
X153042522Y-114342353D01*
X152822450Y-114562425D02*
X152978155Y-114498058D01*
X146190250Y-114562420D02*
X152822450Y-114562425D01*
X146034545Y-114498053D02*
X146190250Y-114562420D01*
X145970177Y-114342348D02*
X146034545Y-114498053D01*
X146034545Y-114186643D02*
X145970177Y-114342348D01*
X146190250Y-114122275D02*
X146034545Y-114186643D01*
X144366130Y-113172813D02*
X144366130Y-113172796D01*
X144223499Y-113231583D02*
X144366130Y-113172813D01*
X144164661Y-113374144D02*
X144223499Y-113231583D01*
X144223499Y-113516705D02*
X144164661Y-113374144D01*
X144366130Y-113575475D02*
X144223499Y-113516705D01*
X154545150Y-113575463D02*
X144366130Y-113575475D01*
X154687710Y-113516693D02*
X154545150Y-113575463D01*
X154746480Y-113374131D02*
X154687710Y-113516693D01*
X154687710Y-113231570D02*
X154746480Y-113374131D01*
X154545150Y-113172800D02*
X154687710Y-113231570D01*
X144366130Y-113172796D02*
X154545150Y-113172800D01*
X154545150Y-113152147D02*
X144366130Y-113152125D01*
X154702202Y-113217096D02*
X154545150Y-113152147D01*
X154767151Y-113374148D02*
X154702202Y-113217096D01*
X154702202Y-113531201D02*
X154767151Y-113374148D01*
X154545150Y-113596150D02*
X154702202Y-113531201D01*
X144366130Y-113596129D02*
X154545150Y-113596150D01*
X144209077Y-113531180D02*
X144366130Y-113596129D01*
X144144128Y-113374127D02*
X144209077Y-113531180D01*
X144209077Y-113217075D02*
X144144128Y-113374127D01*
X144366130Y-113152125D02*
X144209077Y-113217075D01*
X148328403Y-109121102D02*
X150159128Y-106170594D01*
X149085083Y-108870162D02*
X148328403Y-109121102D01*
X148339566Y-110720177D02*
X149085083Y-108870162D01*
X148987106Y-110510853D02*
X148339566Y-110720177D01*
X148373328Y-112766563D02*
X148987106Y-110510853D01*
X150402213Y-109600663D02*
X148373328Y-112766563D01*
X149614803Y-109841269D02*
X150402213Y-109600663D01*
X150437078Y-107853451D02*
X149614803Y-109841269D01*
X149672543Y-108131954D02*
X150437078Y-107853451D01*
X150159128Y-106170594D02*
X149672543Y-108131954D01*
X150203228Y-106098244D02*
X150180075Y-106088600D01*
X149708788Y-108091574D02*
X150203228Y-106098244D01*
X150482693Y-107809766D02*
X149708788Y-108091574D01*
X149658765Y-109801169D02*
X150482693Y-107809766D01*
X150461058Y-109556016D02*
X149658765Y-109801169D01*
X148350043Y-112849791D02*
X150461058Y-109556016D01*
X148327030Y-112839594D02*
X148350043Y-112849791D01*
X148950315Y-110549434D02*
X148327030Y-112839594D01*
X148295610Y-110761100D02*
X148950315Y-110549434D01*
X149040990Y-108911638D02*
X148295610Y-110761100D01*
X148269840Y-109167400D02*
X149040990Y-108911638D01*
X150180075Y-106088600D02*
X148269840Y-109167400D01*
X142917400Y-110992203D02*
X142889150Y-110921095D01*
X142965725Y-111086587D02*
X142917400Y-110992203D01*
X143045558Y-111165284D02*
X142965725Y-111086587D01*
X143442433Y-111383978D02*
X143045558Y-111165284D01*
X144020520Y-111653108D02*
X143442433Y-111383978D01*
X144254511Y-111712915D02*
X144020520Y-111653108D01*
X144457634Y-111650628D02*
X144254511Y-111712915D01*
X144480509Y-111609011D02*
X144457634Y-111650628D01*
X144475135Y-111535148D02*
X144480509Y-111609011D01*
X144425371Y-111406360D02*
X144475135Y-111535148D01*
X144320795Y-111255130D02*
X144425371Y-111406360D01*
X144197497Y-111134603D02*
X144320795Y-111255130D01*
X144069440Y-111068268D02*
X144197497Y-111134603D01*
X143932729Y-111053629D02*
X144069440Y-111068268D01*
X143782257Y-111090042D02*
X143932729Y-111053629D01*
X143614830Y-111135621D02*
X143782257Y-111090042D01*
X143446925Y-111139658D02*
X143614830Y-111135621D01*
X143082902Y-111021002D02*
X143446925Y-111139658D01*
X142889150Y-110921095D02*
X143082902Y-111021002D01*
X143099026Y-110989720D02*
X142821627Y-110846680D01*
X143449773Y-111105352D02*
X143099026Y-110989720D01*
X143609369Y-111101279D02*
X143449773Y-111105352D01*
X143769441Y-111057244D02*
X143609369Y-111101279D01*
X143930251Y-111018597D02*
X143769441Y-111057244D01*
X144079636Y-111034507D02*
X143930251Y-111018597D01*
X144218317Y-111106125D02*
X144079636Y-111034507D01*
X144348078Y-111232668D02*
X144218317Y-111106125D01*
X144456516Y-111389205D02*
X144348078Y-111232668D01*
X144509860Y-111528533D02*
X144456516Y-111389205D01*
X144515372Y-111614109D02*
X144509860Y-111528533D01*
X144480508Y-111677499D02*
X144515372Y-111614109D01*
X144260849Y-111747504D02*
X144480508Y-111677499D01*
X144248309Y-111749846D02*
X144260849Y-111747504D01*
X144245002Y-111743644D02*
X144248309Y-111749846D01*
X144007291Y-111685767D02*
X144245002Y-111743644D01*
X143426723Y-111415534D02*
X144007291Y-111685767D01*
X143024336Y-111193532D02*
X143426723Y-111415534D01*
X142937466Y-111106910D02*
X143024336Y-111193532D01*
X142884603Y-111005154D02*
X142937466Y-111106910D01*
X142821627Y-110846680D02*
X142884603Y-111005154D01*
X156095702Y-110581820D02*
X156095702Y-110581820D01*
X156030107Y-110607452D02*
X156095702Y-110581820D01*
X155911045Y-110689170D02*
X156030107Y-110607452D01*
X155635071Y-110832576D02*
X155911045Y-110689170D01*
X155254410Y-110863767D02*
X155635071Y-110832576D01*
X154918720Y-110906761D02*
X155254410Y-110863767D01*
X154705813Y-111077638D02*
X154918720Y-110906761D01*
X154498419Y-111369506D02*
X154705813Y-111077638D01*
X154456113Y-111448881D02*
X154498419Y-111369506D01*
X154533559Y-111469276D02*
X154456113Y-111448881D01*
X154786291Y-111514062D02*
X154533559Y-111469276D01*
X154792352Y-111514888D02*
X154786291Y-111514062D01*
X154940387Y-111517270D02*
X154792352Y-111514888D01*
X155078656Y-111482187D02*
X154940387Y-111517270D01*
X155365202Y-111283102D02*
X155078656Y-111482187D01*
X155706404Y-111015762D02*
X155365202Y-111283102D01*
X155972186Y-110825995D02*
X155706404Y-111015762D01*
X156085917Y-110667807D02*
X155972186Y-110825995D01*
X156105071Y-110592704D02*
X156085917Y-110667807D01*
X156102588Y-110583472D02*
X156105071Y-110592704D01*
X156095702Y-110581820D02*
X156102588Y-110583472D01*
X156095566Y-110546549D02*
X156095560Y-110546543D01*
X156127674Y-110558676D02*
X156095566Y-110546549D01*
X156140352Y-110590509D02*
X156127674Y-110558676D01*
X156118717Y-110680908D02*
X156140352Y-110590509D01*
X155997168Y-110850557D02*
X156118717Y-110680908D01*
X155725150Y-111045675D02*
X155997168Y-110850557D01*
X155725007Y-111045676D02*
X155725150Y-111045675D01*
X155389317Y-111308881D02*
X155725007Y-111045676D01*
X155099594Y-111509411D02*
X155389317Y-111308881D01*
X154957719Y-111548177D02*
X155099594Y-111509411D01*
X154808200Y-111550175D02*
X154957719Y-111548177D01*
X154808199Y-111552652D02*
X154808200Y-111550175D01*
X154787942Y-111550168D02*
X154808199Y-111552652D01*
X154524599Y-111503453D02*
X154787942Y-111550168D01*
X154404021Y-111471758D02*
X154524599Y-111503453D01*
X154467273Y-111352971D02*
X154404021Y-111471758D01*
X154679766Y-111053799D02*
X154467273Y-111352971D01*
X154905764Y-110873965D02*
X154679766Y-111053799D01*
X155255096Y-110828490D02*
X154905764Y-110873965D01*
X155625256Y-110799651D02*
X155255096Y-110828490D01*
X155889544Y-110661195D02*
X155625256Y-110799651D01*
X156012602Y-110576722D02*
X155889544Y-110661195D01*
X156095560Y-110546543D02*
X156012602Y-110576722D01*
X145205602Y-110497609D02*
X145205610Y-110497622D01*
X145197196Y-110505326D02*
X145205602Y-110497609D01*
X145180659Y-110561826D02*
X145197196Y-110505326D01*
X145207393Y-110750617D02*
X145180659Y-110561826D01*
X145232060Y-110902752D02*
X145207393Y-110750617D01*
X145169773Y-111108218D02*
X145232060Y-110902752D01*
X144997932Y-111450935D02*
X145169773Y-111108218D01*
X144898162Y-111733020D02*
X144997932Y-111450935D01*
X144880661Y-111848637D02*
X144898162Y-111733020D01*
X144854478Y-111910511D02*
X144880661Y-111848637D01*
X144826917Y-111920984D02*
X144854478Y-111910511D01*
X144800873Y-111909547D02*
X144826917Y-111920984D01*
X144752090Y-111853185D02*
X144800873Y-111909547D01*
X144674126Y-111772709D02*
X144752090Y-111853185D01*
X144580387Y-111738946D02*
X144674126Y-111772709D01*
X144283834Y-111803162D02*
X144580387Y-111738946D01*
X143953071Y-111883121D02*
X144283834Y-111803162D01*
X143598674Y-111801511D02*
X143953071Y-111883121D01*
X143390866Y-111744461D02*
X143598674Y-111801511D01*
X143365924Y-111747904D02*
X143390866Y-111744461D01*
X143365373Y-111750797D02*
X143365924Y-111747904D01*
X143368956Y-111765266D02*
X143365373Y-111750797D01*
X143490913Y-111880470D02*
X143368956Y-111765266D01*
X143828670Y-112047902D02*
X143490913Y-111880470D01*
X144301888Y-112273624D02*
X143828670Y-112047902D01*
X144542817Y-112334824D02*
X144301888Y-112273624D01*
X144868123Y-112257226D02*
X144542817Y-112334824D01*
X145035968Y-112227873D02*
X144868123Y-112257226D01*
X145245705Y-112336049D02*
X145035968Y-112227873D01*
X145750205Y-112609314D02*
X145245705Y-112336049D01*
X145750346Y-112609455D02*
X145750205Y-112609314D01*
X145751037Y-112609737D02*
X145750346Y-112609455D01*
X146060682Y-112722461D02*
X145751037Y-112609737D01*
X146111945Y-112714606D02*
X146060682Y-112722461D01*
X146116079Y-112701515D02*
X146111945Y-112714606D01*
X146109189Y-112671474D02*
X146116079Y-112701515D01*
X146080664Y-112643775D02*
X146109189Y-112671474D01*
X146006112Y-112591961D02*
X146080664Y-112643775D01*
X145774877Y-112462150D02*
X146006112Y-112591961D01*
X145321917Y-112213965D02*
X145774877Y-112462150D01*
X145241715Y-112140516D02*
X145321917Y-112213965D01*
X145231518Y-112104963D02*
X145241715Y-112140516D01*
X145244609Y-112072717D02*
X145231518Y-112104963D01*
X145401154Y-111835695D02*
X145244609Y-112072717D01*
X145496101Y-111628300D02*
X145401154Y-111835695D01*
X145482596Y-111377360D02*
X145496101Y-111628300D01*
X145405013Y-111004050D02*
X145482596Y-111377360D01*
X145300282Y-110659540D02*
X145405013Y-111004050D01*
X145249983Y-110545301D02*
X145300282Y-110659540D01*
X145214292Y-110498723D02*
X145249983Y-110545301D01*
X145205610Y-110497622D02*
X145214292Y-110498723D01*
X145193895Y-110464308D02*
X145193897Y-110464274D01*
X145228346Y-110466376D02*
X145193895Y-110464308D01*
X145280987Y-110528387D02*
X145228346Y-110466376D01*
X145333215Y-110647174D02*
X145280987Y-110528387D01*
X145439186Y-110995404D02*
X145333215Y-110647174D01*
X145517458Y-111372159D02*
X145439186Y-110995404D01*
X145530550Y-111635639D02*
X145517458Y-111372159D01*
X145431882Y-111853093D02*
X145530550Y-111635639D01*
X145271892Y-112095077D02*
X145431882Y-111853093D01*
X145266793Y-112106652D02*
X145271892Y-112095077D01*
X145271892Y-112122223D02*
X145266793Y-112106652D01*
X145341896Y-112184925D02*
X145271892Y-112122223D01*
X145790724Y-112430629D02*
X145341896Y-112184925D01*
X146025128Y-112562231D02*
X145790724Y-112430629D01*
X146102574Y-112616112D02*
X146025128Y-112562231D01*
X146141986Y-112658694D02*
X146102574Y-112616112D01*
X146151356Y-112701964D02*
X146141986Y-112658694D01*
X146138127Y-112738206D02*
X146151356Y-112701964D01*
X146057099Y-112757636D02*
X146138127Y-112738206D01*
X145734914Y-112641331D02*
X146057099Y-112757636D01*
X145728712Y-112638297D02*
X145734914Y-112641331D01*
X145728437Y-112637732D02*
X145728712Y-112638297D01*
X145227107Y-112366122D02*
X145728437Y-112637732D01*
X145028670Y-112262356D02*
X145227107Y-112366122D01*
X144880531Y-112290331D02*
X145028670Y-112262356D01*
X144542288Y-112369279D02*
X144880531Y-112290331D01*
X144408065Y-112354860D02*
X144542288Y-112369279D01*
X144284531Y-112304386D02*
X144408065Y-112354860D01*
X143814484Y-112080318D02*
X144284531Y-112304386D01*
X143472179Y-111910543D02*
X143814484Y-112080318D01*
X143336166Y-111778114D02*
X143472179Y-111910543D01*
X143330103Y-111751105D02*
X143336166Y-111778114D01*
X143338922Y-111725198D02*
X143330103Y-111751105D01*
X143392804Y-111709350D02*
X143338922Y-111725198D01*
X143610534Y-111768330D02*
X143392804Y-111709350D01*
X143952763Y-111849400D02*
X143610534Y-111768330D01*
X144271026Y-111770256D02*
X143952763Y-111849400D01*
X144447295Y-111713988D02*
X144271026Y-111770256D01*
X144584391Y-111703835D02*
X144447295Y-111713988D01*
X144693040Y-111743526D02*
X144584391Y-111703835D01*
X144780899Y-111832682D02*
X144693040Y-111743526D01*
X144822378Y-111881602D02*
X144780899Y-111832682D01*
X144829820Y-111885871D02*
X144822378Y-111881602D01*
X144829820Y-111885306D02*
X144829820Y-111885871D01*
X144846218Y-111841071D02*
X144829820Y-111885306D01*
X144863168Y-111729037D02*
X144846218Y-111841071D01*
X144968864Y-111431105D02*
X144863168Y-111729037D01*
X145136984Y-111095140D02*
X144968864Y-111431105D01*
X145197067Y-110899045D02*
X145136984Y-111095140D01*
X145174467Y-110763446D02*
X145197067Y-110899045D01*
X145145666Y-110557981D02*
X145174467Y-110763446D01*
X145168266Y-110485083D02*
X145145666Y-110557981D01*
X145193897Y-110464274D02*
X145168266Y-110485083D01*
X153714173Y-110435050D02*
X153714172Y-110435059D01*
X153690747Y-110439185D02*
X153714173Y-110435050D01*
X153651886Y-110481352D02*
X153690747Y-110439185D01*
X153604757Y-110583189D02*
X153651886Y-110481352D01*
X153520835Y-110913092D02*
X153604757Y-110583189D01*
X153448350Y-111283232D02*
X153520835Y-110913092D01*
X153441047Y-111445978D02*
X153448350Y-111283232D01*
X153558042Y-111732333D02*
X153441047Y-111445978D01*
X153707972Y-112058378D02*
X153558042Y-111732333D01*
X153575681Y-112188465D02*
X153707972Y-112058378D01*
X153190243Y-112480332D02*
X153575681Y-112188465D01*
X152957493Y-112665264D02*
X153190243Y-112480332D01*
X152942886Y-112708811D02*
X152957493Y-112665264D01*
X152979404Y-112738989D02*
X152942886Y-112708811D01*
X153023501Y-112735821D02*
X152979404Y-112738989D01*
X153130574Y-112680700D02*
X153023501Y-112735821D01*
X153642652Y-112325027D02*
X153130574Y-112680700D01*
X153932589Y-112115842D02*
X153642652Y-112325027D01*
X154218532Y-112182125D02*
X153932589Y-112115842D01*
X154220324Y-112182548D02*
X154218532Y-112182125D01*
X154570484Y-112210798D02*
X154220324Y-112182548D01*
X154698609Y-112166907D02*
X154570484Y-112210798D01*
X154817291Y-112080298D02*
X154698609Y-112166907D01*
X154967496Y-111989071D02*
X154817291Y-112080298D01*
X155210444Y-111876348D02*
X154967496Y-111989071D01*
X155498454Y-111731655D02*
X155210444Y-111876348D01*
X155618620Y-111629955D02*
X155498454Y-111731655D01*
X155620687Y-111623062D02*
X155618620Y-111629955D01*
X155580586Y-111619619D02*
X155620687Y-111623062D01*
X155330471Y-111692654D02*
X155580586Y-111619619D01*
X155076223Y-111771616D02*
X155330471Y-111692654D01*
X154857391Y-111740610D02*
X155076223Y-111771616D01*
X154392166Y-111653519D02*
X154857391Y-111740610D01*
X154291431Y-111698442D02*
X154392166Y-111653519D01*
X154187114Y-111816265D02*
X154291431Y-111698442D01*
X154109255Y-111903219D02*
X154187114Y-111816265D01*
X154077560Y-111922925D02*
X154109255Y-111903219D01*
X154042971Y-111918931D02*
X154077560Y-111922925D01*
X154015273Y-111846584D02*
X154042971Y-111918931D01*
X154012655Y-111705749D02*
X154015273Y-111846584D01*
X153996568Y-111566101D02*
X154012655Y-111705749D01*
X153938930Y-111427246D02*
X153996568Y-111566101D01*
X153705904Y-110957886D02*
X153938930Y-111427246D01*
X153680886Y-110813618D02*
X153705904Y-110957886D01*
X153696396Y-110667121D02*
X153680886Y-110813618D01*
X153721476Y-110455455D02*
X153696396Y-110667121D01*
X153714172Y-110435059D02*
X153721476Y-110455455D01*
X153730174Y-110403668D02*
X153730157Y-110403641D01*
X153756495Y-110451348D02*
X153730174Y-110403668D01*
X153731139Y-110673488D02*
X153756495Y-110451348D01*
X153715863Y-110812732D02*
X153731139Y-110673488D01*
X153739545Y-110947165D02*
X153715863Y-110812732D01*
X153969677Y-111410048D02*
X153739545Y-110947165D01*
X154030527Y-111557195D02*
X153969677Y-111410048D01*
X154047950Y-111706325D02*
X154030527Y-111557195D01*
X154047930Y-111706463D02*
X154047950Y-111706325D01*
X154050273Y-111842888D02*
X154047930Y-111706463D01*
X154063089Y-111890017D02*
X154050273Y-111842888D01*
X154066398Y-111889453D02*
X154063089Y-111890017D01*
X154086241Y-111876361D02*
X154066398Y-111889453D01*
X154159415Y-111794368D02*
X154086241Y-111876361D01*
X154268555Y-111671447D02*
X154159415Y-111794368D01*
X154388031Y-111618393D02*
X154268555Y-111671447D01*
X154567502Y-111633663D02*
X154388031Y-111618393D01*
X154866349Y-111706587D02*
X154567502Y-111633663D01*
X155072641Y-111736491D02*
X154866349Y-111706587D01*
X155317655Y-111659734D02*
X155072641Y-111736491D01*
X155577553Y-111584493D02*
X155317655Y-111659734D01*
X155640529Y-111593864D02*
X155577553Y-111584493D01*
X155655825Y-111618256D02*
X155640529Y-111593864D01*
X155650174Y-111645540D02*
X155655825Y-111618256D01*
X155517193Y-111761571D02*
X155650174Y-111645540D01*
X155224086Y-111908883D02*
X155517193Y-111761571D01*
X154983756Y-112020504D02*
X155224086Y-111908883D01*
X154841130Y-112106356D02*
X154983756Y-112020504D01*
X154714912Y-112198046D02*
X154841130Y-112106356D01*
X154576407Y-112245675D02*
X154714912Y-112198046D01*
X154216050Y-112217425D02*
X154576407Y-112245675D01*
X154215227Y-112217432D02*
X154216050Y-112217425D01*
X154214126Y-112217291D02*
X154215227Y-112217432D01*
X154212334Y-112216868D02*
X154214126Y-112217291D01*
X153940309Y-112153754D02*
X154212334Y-112216868D01*
X153663324Y-112353707D02*
X153940309Y-112153754D01*
X153148902Y-112710894D02*
X153663324Y-112353707D01*
X153034801Y-112769323D02*
X153148902Y-112710894D01*
X152965209Y-112771250D02*
X153034801Y-112769323D01*
X152909124Y-112719160D02*
X152965209Y-112771250D01*
X152928829Y-112644608D02*
X152909124Y-112719160D01*
X153171088Y-112450718D02*
X152928829Y-112644608D01*
X153550876Y-112163398D02*
X153171088Y-112450718D01*
X153665529Y-112050674D02*
X153550876Y-112163398D01*
X153526071Y-111747092D02*
X153665529Y-112050674D01*
X153406871Y-111454259D02*
X153526071Y-111747092D01*
X153413898Y-111275252D02*
X153406871Y-111454259D01*
X153486107Y-110907040D02*
X153413898Y-111275252D01*
X153571683Y-110570937D02*
X153486107Y-110907040D01*
X153621844Y-110462761D02*
X153571683Y-110570937D01*
X153677930Y-110406399D02*
X153621844Y-110462761D01*
X153730157Y-110403641D02*
X153677930Y-110406399D01*
X154004528Y-109688299D02*
X154004525Y-109688300D01*
X153963049Y-109701390D02*
X154004528Y-109688299D01*
X153919917Y-109758578D02*
X153963049Y-109701390D01*
X153871823Y-109972036D02*
X153919917Y-109758578D01*
X153843022Y-110373872D02*
X153871823Y-109972036D01*
X153836092Y-110689132D02*
X153843022Y-110373872D01*
X153880975Y-110981245D02*
X153836092Y-110689132D01*
X153973750Y-111236287D02*
X153880975Y-110981245D01*
X154110499Y-111440334D02*
X153973750Y-111236287D01*
X154158868Y-111485396D02*
X154110499Y-111440334D01*
X154186291Y-111488429D02*
X154158868Y-111485396D01*
X154301908Y-111341117D02*
X154186291Y-111488429D01*
X154391179Y-111144831D02*
X154301908Y-111341117D01*
X154399336Y-110949342D02*
X154391179Y-111144831D01*
X154324729Y-110738945D02*
X154399336Y-110949342D01*
X154163416Y-110500377D02*
X154324729Y-110738945D01*
X153990196Y-110236207D02*
X154163416Y-110500377D01*
X153975664Y-110124943D02*
X153990196Y-110236207D01*
X153994740Y-109986370D02*
X153975664Y-110124943D01*
X154026987Y-109747280D02*
X153994740Y-109986370D01*
X154019131Y-109699876D02*
X154026987Y-109747280D01*
X154004525Y-109688300D02*
X154019131Y-109699876D01*
X142444324Y-109656759D02*
X142444325Y-109656759D01*
X142439501Y-109658551D02*
X142444324Y-109656759D01*
X142434402Y-109678947D02*
X142439501Y-109658551D01*
X142456175Y-109797182D02*
X142434402Y-109678947D01*
X142583919Y-110016566D02*
X142456175Y-109797182D01*
X142825765Y-110333653D02*
X142583919Y-110016566D01*
X143088970Y-110633376D02*
X142825765Y-110333653D01*
X143279001Y-110802048D02*
X143088970Y-110633376D01*
X143533189Y-110878243D02*
X143279001Y-110802048D01*
X143904631Y-110891620D02*
X143533189Y-110878243D01*
X144068342Y-110884454D02*
X143904631Y-110891620D01*
X144026450Y-110751198D02*
X144068342Y-110884454D01*
X143893193Y-110473660D02*
X144026450Y-110751198D01*
X143665542Y-110317942D02*
X143893193Y-110473660D01*
X143199902Y-110203014D02*
X143665542Y-110317942D01*
X142996818Y-110168507D02*
X143199902Y-110203014D01*
X142846712Y-110105586D02*
X142996818Y-110168507D01*
X142723555Y-109996529D02*
X142846712Y-110105586D01*
X142599905Y-109825431D02*
X142723555Y-109996529D01*
X142502616Y-109697825D02*
X142599905Y-109825431D01*
X142444325Y-109656759D02*
X142502616Y-109697825D01*
X154010871Y-109653728D02*
X154010874Y-109653725D01*
X154050696Y-109684045D02*
X154010871Y-109653728D01*
X154062272Y-109746745D02*
X154050696Y-109684045D01*
X154029475Y-109993001D02*
X154062272Y-109746745D01*
X154023689Y-110225200D02*
X154029475Y-109993001D01*
X154190982Y-110478345D02*
X154023689Y-110225200D01*
X154356155Y-110722663D02*
X154190982Y-110478345D01*
X154434206Y-110943707D02*
X154356155Y-110722663D01*
X154425183Y-111153119D02*
X154434206Y-110943707D01*
X154331542Y-111360287D02*
X154425183Y-111153119D01*
X154201042Y-111520415D02*
X154331542Y-111360287D01*
X154140684Y-111515730D02*
X154201042Y-111520415D01*
X154084323Y-111464054D02*
X154140684Y-111515730D01*
X154081705Y-111460194D02*
X154084323Y-111464054D01*
X153940623Y-111248538D02*
X154081705Y-111460194D01*
X153845886Y-110987287D02*
X153940623Y-111248538D01*
X153800605Y-110689983D02*
X153845886Y-110987287D01*
X153807890Y-110370167D02*
X153800605Y-110689983D01*
X153836691Y-109970949D02*
X153807890Y-110370167D01*
X153888505Y-109742608D02*
X153836691Y-109970949D01*
X153941146Y-109673707D02*
X153888505Y-109742608D01*
X154010874Y-109653725D02*
X153941146Y-109673707D01*
X142447076Y-109621599D02*
X142447075Y-109621600D01*
X142527829Y-109673137D02*
X142447076Y-109621599D01*
X142629528Y-109806393D02*
X142527829Y-109673137D01*
X142749969Y-109973210D02*
X142629528Y-109806393D01*
X142865448Y-110075801D02*
X142749969Y-109973210D01*
X143006199Y-110134487D02*
X142865448Y-110075801D01*
X143203756Y-110167853D02*
X143006199Y-110134487D01*
X143679731Y-110285676D02*
X143203756Y-110167853D01*
X143920336Y-110451040D02*
X143679731Y-110285676D01*
X144060207Y-110740565D02*
X143920336Y-110451040D01*
X144115742Y-110917643D02*
X144060207Y-110740565D01*
X143906142Y-110926876D02*
X144115742Y-110917643D01*
X143528040Y-110913438D02*
X143906142Y-110926876D01*
X143262185Y-110833032D02*
X143528040Y-110913438D01*
X143063472Y-110657745D02*
X143262185Y-110833032D01*
X142798474Y-110355955D02*
X143063472Y-110657745D01*
X142554837Y-110036665D02*
X142798474Y-110355955D01*
X142422408Y-109807497D02*
X142554837Y-110036665D01*
X142399257Y-109676722D02*
X142422408Y-109807497D01*
X142411521Y-109637172D02*
X142399257Y-109676722D01*
X142447075Y-109621600D02*
X142411521Y-109637172D01*
X156436082Y-109415177D02*
X156436087Y-109415189D01*
X156390607Y-109422480D02*
X156436082Y-109415177D01*
X156370487Y-109442737D02*
X156390607Y-109422480D01*
X156331764Y-109497032D02*
X156370487Y-109442737D01*
X156236955Y-109664877D02*
X156331764Y-109497032D01*
X156132621Y-109844215D02*
X156236955Y-109664877D01*
X156017158Y-109957984D02*
X156132621Y-109844215D01*
X155864289Y-110021657D02*
X156017158Y-109957984D01*
X155649083Y-110053620D02*
X155864289Y-110021657D01*
X155364434Y-110095808D02*
X155649083Y-110053620D01*
X155171181Y-110173647D02*
X155364434Y-110095808D01*
X155034180Y-110307704D02*
X155171181Y-110173647D01*
X154919001Y-110521877D02*
X155034180Y-110307704D01*
X154863742Y-110665882D02*
X154919001Y-110521877D01*
X154852304Y-110744430D02*
X154863742Y-110665882D01*
X154858090Y-110757522D02*
X154852304Y-110744430D01*
X154870217Y-110762348D02*
X154858090Y-110757522D01*
X154940772Y-110746362D02*
X154870217Y-110762348D01*
X155059008Y-110722247D02*
X154940772Y-110746362D01*
X155224235Y-110709706D02*
X155059008Y-110722247D01*
X155492675Y-110695650D02*
X155224235Y-110709706D01*
X155492818Y-110695661D02*
X155492675Y-110695650D01*
X155683168Y-110613543D02*
X155492818Y-110695661D01*
X155839396Y-110459603D02*
X155683168Y-110613543D01*
X156117621Y-110081746D02*
X155839396Y-110459603D01*
X156312293Y-109800365D02*
X156117621Y-110081746D01*
X156427956Y-109568426D02*
X156312293Y-109800365D01*
X156451382Y-109432000D02*
X156427956Y-109568426D01*
X156436087Y-109415189D02*
X156451382Y-109432000D01*
X156445177Y-109381142D02*
X156445181Y-109381151D01*
X156485140Y-109421656D02*
X156445177Y-109381142D01*
X156461163Y-109580545D02*
X156485140Y-109421656D01*
X156342644Y-109818717D02*
X156461163Y-109580545D01*
X156145456Y-110103510D02*
X156342644Y-109818717D01*
X155869296Y-110478335D02*
X156145456Y-110103510D01*
X155708771Y-110639413D02*
X155869296Y-110478335D01*
X155507011Y-110726657D02*
X155708771Y-110639413D01*
X155504527Y-110729825D02*
X155507011Y-110726657D01*
X155497500Y-110730650D02*
X155504527Y-110729825D01*
X155497368Y-110730662D02*
X155497500Y-110730650D01*
X155225068Y-110744993D02*
X155497368Y-110730662D01*
X155063425Y-110757258D02*
X155225068Y-110744993D01*
X154953595Y-110779169D02*
X155063425Y-110757258D01*
X154865952Y-110797359D02*
X154953595Y-110779169D01*
X154833568Y-110782889D02*
X154865952Y-110797359D01*
X154817582Y-110750643D02*
X154833568Y-110782889D01*
X154829985Y-110655972D02*
X154817582Y-110750643D01*
X154886760Y-110507696D02*
X154829985Y-110655972D01*
X155005934Y-110286759D02*
X154886760Y-110507696D01*
X155152170Y-110143893D02*
X155005934Y-110286759D01*
X155355667Y-110061486D02*
X155152170Y-110143893D01*
X155645920Y-110018492D02*
X155355667Y-110061486D01*
X155855300Y-109987448D02*
X155645920Y-110018492D01*
X155997733Y-109928506D02*
X155855300Y-109987448D01*
X156104489Y-109822922D02*
X155997733Y-109928506D01*
X156205403Y-109649179D02*
X156104489Y-109822922D01*
X156302141Y-109477751D02*
X156205403Y-109649179D01*
X156343206Y-109420425D02*
X156302141Y-109477751D01*
X156377795Y-109389695D02*
X156343206Y-109420425D01*
X156445181Y-109381151D02*
X156377795Y-109389695D01*
X153995588Y-109261113D02*
X153995581Y-109261124D01*
X153987733Y-109296115D02*
X153995588Y-109261113D01*
X154061320Y-109547470D02*
X153987733Y-109296115D01*
X154144036Y-109808171D02*
X154061320Y-109547470D01*
X154171150Y-110082975D02*
X154144036Y-109808171D01*
X154171147Y-110083122D02*
X154171150Y-110082975D01*
X154190521Y-110313902D02*
X154171147Y-110083122D01*
X154237155Y-110444445D02*
X154190521Y-110313902D01*
X154578495Y-110773795D02*
X154237155Y-110444445D01*
X154633616Y-110785508D02*
X154578495Y-110773795D01*
X154681986Y-110750367D02*
X154633616Y-110785508D01*
X154765081Y-110512794D02*
X154681986Y-110750367D01*
X154785219Y-110319057D02*
X154765081Y-110512794D01*
X154764940Y-110168147D02*
X154785219Y-110319057D01*
X154703273Y-110051652D02*
X154764940Y-110168147D01*
X154596681Y-109960063D02*
X154703273Y-110051652D01*
X154374836Y-109779334D02*
X154596681Y-109960063D01*
X154185888Y-109498283D02*
X154374836Y-109779334D01*
X154086394Y-109337742D02*
X154185888Y-109498283D01*
X154047671Y-109285652D02*
X154086394Y-109337742D01*
X154028654Y-109266084D02*
X154047671Y-109285652D01*
X153995581Y-109261124D02*
X154028654Y-109266084D01*
X144890202Y-109250349D02*
X144890206Y-109250375D01*
X144889651Y-109250914D02*
X144890202Y-109250349D01*
X144859472Y-109275581D02*
X144889651Y-109250914D01*
X144740685Y-109458722D02*
X144859472Y-109275581D01*
X144396865Y-109907962D02*
X144740685Y-109458722D01*
X144221993Y-110118664D02*
X144396865Y-109907962D01*
X144135590Y-110262531D02*
X144221993Y-110118664D01*
X144142594Y-110517711D02*
X144135590Y-110262531D01*
X144244455Y-110803548D02*
X144142594Y-110517711D01*
X144312667Y-110909106D02*
X144244455Y-110803548D01*
X144361725Y-110943557D02*
X144312667Y-110909106D01*
X144416296Y-110921646D02*
X144361725Y-110943557D01*
X144504352Y-110834830D02*
X144416296Y-110921646D01*
X144627549Y-110697026D02*
X144504352Y-110834830D01*
X144656625Y-110716456D02*
X144627549Y-110697026D01*
X144562781Y-110911310D02*
X144656625Y-110716456D01*
X144493879Y-111101755D02*
X144562781Y-110911310D01*
X144554513Y-111309425D02*
X144493879Y-111101755D01*
X144632785Y-111482231D02*
X144554513Y-111309425D01*
X144700998Y-111593025D02*
X144632785Y-111482231D01*
X144797461Y-111638639D02*
X144700998Y-111593025D01*
X144824608Y-111631887D02*
X144797461Y-111638639D01*
X144824883Y-111613835D02*
X144824608Y-111631887D01*
X144824333Y-111591373D02*
X144824883Y-111613835D01*
X144830534Y-111563536D02*
X144824333Y-111591373D01*
X144856441Y-111476858D02*
X144830534Y-111563536D01*
X144949596Y-111217373D02*
X144856441Y-111476858D01*
X145084368Y-110867903D02*
X144949596Y-111217373D01*
X145022908Y-110445948D02*
X145084368Y-110867903D01*
X144932509Y-109961015D02*
X145022908Y-110445948D01*
X144893924Y-109879022D02*
X144932509Y-109961015D01*
X144864158Y-109871995D02*
X144893924Y-109879022D01*
X144847622Y-109894594D02*
X144864158Y-109871995D01*
X144857544Y-109951782D02*
X144847622Y-109894594D01*
X144871737Y-110209545D02*
X144857544Y-109951782D01*
X144772105Y-110527665D02*
X144871737Y-110209545D01*
X144707889Y-110646314D02*
X144772105Y-110527665D01*
X144694935Y-110658854D02*
X144707889Y-110646314D01*
X144682946Y-110662573D02*
X144694935Y-110658854D01*
X144667650Y-110656512D02*
X144682946Y-110662573D01*
X144659933Y-110637082D02*
X144667650Y-110656512D01*
X144660625Y-110617376D02*
X144659933Y-110637082D01*
X144660618Y-110617246D02*
X144660625Y-110617376D01*
X144674811Y-110543520D02*
X144660618Y-110617246D01*
X144697825Y-110488951D02*
X144674811Y-110543520D01*
X144697695Y-110488953D02*
X144697825Y-110488951D01*
X144704309Y-110457257D02*
X144697695Y-110488953D01*
X144694801Y-110407924D02*
X144704309Y-110457257D01*
X144692320Y-110125011D02*
X144694801Y-110407924D01*
X144809453Y-109660339D02*
X144692320Y-110125011D01*
X144884694Y-109379356D02*
X144809453Y-109660339D01*
X144895443Y-109294194D02*
X144884694Y-109379356D01*
X144891033Y-109252301D02*
X144895443Y-109294194D01*
X144890206Y-109250375D02*
X144891033Y-109252301D01*
X153975055Y-109232458D02*
X153975056Y-109232460D01*
X154042854Y-109233834D02*
X153975055Y-109232458D01*
X154074825Y-109263049D02*
X154042854Y-109233834D01*
X154115477Y-109317618D02*
X154074825Y-109263049D01*
X154216625Y-109480916D02*
X154115477Y-109317618D01*
X154400363Y-109755813D02*
X154216625Y-109480916D01*
X154615428Y-109930294D02*
X154400363Y-109755813D01*
X154730508Y-110029819D02*
X154615428Y-109930294D01*
X154798569Y-110157808D02*
X154730508Y-110029819D01*
X154820549Y-110318982D02*
X154798569Y-110157808D01*
X154799810Y-110519265D02*
X154820549Y-110318982D01*
X154709825Y-110771998D02*
X154799810Y-110519265D01*
X154641336Y-110819954D02*
X154709825Y-110771998D01*
X154573261Y-110806587D02*
X154641336Y-110819954D01*
X154568301Y-110808654D02*
X154573261Y-110806587D01*
X154560859Y-110804386D02*
X154568301Y-110808654D01*
X154373449Y-110651544D02*
X154560859Y-110804386D01*
X154207807Y-110464011D02*
X154373449Y-110651544D01*
X154155643Y-110320973D02*
X154207807Y-110464011D01*
X154135873Y-110083948D02*
X154155643Y-110320973D01*
X154109753Y-109815239D02*
X154135873Y-110083948D01*
X154028661Y-109560571D02*
X154109753Y-109815239D01*
X153952456Y-109297228D02*
X154028661Y-109560571D01*
X153975056Y-109232460D02*
X153952456Y-109297228D01*
X144879445Y-109217172D02*
X144879456Y-109217165D01*
X144905490Y-109218547D02*
X144879445Y-109217172D01*
X144922991Y-109237426D02*
X144905490Y-109218547D01*
X144930708Y-109295442D02*
X144922991Y-109237426D01*
X144919408Y-109385703D02*
X144930708Y-109295442D01*
X144843065Y-109671096D02*
X144919408Y-109385703D01*
X144727172Y-110130533D02*
X144843065Y-109671096D01*
X144727722Y-110395116D02*
X144727172Y-110130533D01*
X144739573Y-110457127D02*
X144727722Y-110395116D01*
X144725931Y-110510182D02*
X144739573Y-110457127D01*
X144708705Y-110553039D02*
X144725931Y-110510182D01*
X144703331Y-110581426D02*
X144708705Y-110553039D01*
X144740125Y-110512800D02*
X144703331Y-110581426D01*
X144740135Y-110512660D02*
X144740125Y-110512800D01*
X144835426Y-110203553D02*
X144740135Y-110512660D01*
X144824609Y-109964615D02*
X144835426Y-110203553D01*
X144812758Y-109888960D02*
X144824609Y-109964615D01*
X144851343Y-109839076D02*
X144812758Y-109888960D01*
X144919418Y-109854647D02*
X144851343Y-109839076D01*
X144966271Y-109950559D02*
X144919418Y-109854647D01*
X145057773Y-110440864D02*
X144966271Y-109950559D01*
X145120611Y-110872052D02*
X145057773Y-110440864D01*
X144982532Y-111230067D02*
X145120611Y-110872052D01*
X144889928Y-111487759D02*
X144982532Y-111230067D01*
X144864710Y-111572232D02*
X144889928Y-111487759D01*
X144859197Y-111596899D02*
X144864710Y-111572232D01*
X144857819Y-111601034D02*
X144859197Y-111596899D01*
X144849138Y-111657258D02*
X144857819Y-111601034D01*
X144796910Y-111673932D02*
X144849138Y-111657258D01*
X144674954Y-111616744D02*
X144796910Y-111673932D01*
X144671922Y-111611918D02*
X144674954Y-111616744D01*
X144601504Y-111498505D02*
X144671922Y-111611918D01*
X144521578Y-111322254D02*
X144601504Y-111498505D01*
X144458602Y-111100941D02*
X144521578Y-111322254D01*
X144531087Y-110896028D02*
X144458602Y-111100941D01*
X144570774Y-110813621D02*
X144531087Y-110896028D01*
X144530673Y-110858407D02*
X144570774Y-110813621D01*
X144437518Y-110949909D02*
X144530673Y-110858407D01*
X144357592Y-110978572D02*
X144437518Y-110949909D01*
X144285659Y-110931856D02*
X144357592Y-110978572D01*
X144213725Y-110820786D02*
X144285659Y-110931856D01*
X144106602Y-110525584D02*
X144213725Y-110820786D01*
X144101415Y-110253586D02*
X144106602Y-110525584D01*
X144193606Y-110097730D02*
X144101415Y-110253586D01*
X144370959Y-109883997D02*
X144193606Y-110097730D01*
X144709682Y-109441784D02*
X144370959Y-109883997D01*
X144833292Y-109251891D02*
X144709682Y-109441784D01*
X144879456Y-109217165D02*
X144833292Y-109251891D01*
X142228654Y-108950924D02*
X142228656Y-108950927D01*
X142221350Y-108955058D02*
X142228654Y-108950924D01*
X142218043Y-108971733D02*
X142221350Y-108955058D01*
X142330628Y-109170721D02*
X142218043Y-108971733D01*
X142651436Y-109496904D02*
X142330628Y-109170721D01*
X142996911Y-109849956D02*
X142651436Y-109496904D01*
X143176331Y-110001265D02*
X142996911Y-109849956D01*
X143457864Y-110041917D02*
X143176331Y-110001265D01*
X143658093Y-110021246D02*
X143457864Y-110041917D01*
X143677799Y-109991205D02*
X143658093Y-110021246D01*
X143676283Y-109921201D02*
X143677799Y-109991205D01*
X143626388Y-109777440D02*
X143676283Y-109921201D01*
X143521805Y-109643941D02*
X143626388Y-109777440D01*
X143383760Y-109543394D02*
X143521805Y-109643941D01*
X143235588Y-109496353D02*
X143383760Y-109543394D01*
X142920719Y-109402754D02*
X143235588Y-109496353D01*
X142583915Y-109177201D02*
X142920719Y-109402754D01*
X142292873Y-108969117D02*
X142583915Y-109177201D01*
X142228656Y-108950927D02*
X142292873Y-108969117D01*
X142222317Y-108916200D02*
X142222317Y-108916200D01*
X142308307Y-108937400D02*
X142222317Y-108916200D01*
X142606513Y-109150053D02*
X142308307Y-108937400D01*
X142936035Y-109370929D02*
X142606513Y-109150053D01*
X143238893Y-109461213D02*
X142936035Y-109370929D01*
X143400195Y-109511893D02*
X143238893Y-109461213D01*
X143546333Y-109618585D02*
X143400195Y-109511893D01*
X143657372Y-109760063D02*
X143546333Y-109618585D01*
X143711284Y-109917343D02*
X143657372Y-109760063D01*
X143712525Y-109997683D02*
X143711284Y-109917343D01*
X143676144Y-110051564D02*
X143712525Y-109997683D01*
X143458139Y-110077195D02*
X143676144Y-110051564D01*
X143162689Y-110033787D02*
X143458139Y-110077195D01*
X142968386Y-109870903D02*
X143162689Y-110033787D01*
X142627873Y-109523226D02*
X142968386Y-109870903D01*
X142303346Y-109193048D02*
X142627873Y-109523226D01*
X142214597Y-109068305D02*
X142303346Y-109193048D01*
X142182767Y-108971873D02*
X142214597Y-109068305D01*
X142191862Y-108935768D02*
X142182767Y-108971873D01*
X142222317Y-108916200D02*
X142191862Y-108935768D01*
X156511196Y-108854308D02*
X156511161Y-108854310D01*
X156504719Y-108854590D02*
X156511196Y-108854308D01*
X156452216Y-108882840D02*
X156504719Y-108854590D01*
X156224151Y-109084999D02*
X156452216Y-108882840D01*
X156050518Y-109253670D02*
X156224151Y-109084999D01*
X155810051Y-109270207D02*
X156050518Y-109253670D01*
X155621535Y-109291015D02*
X155810051Y-109270207D01*
X155497099Y-109317611D02*
X155621535Y-109291015D01*
X155413176Y-109379210D02*
X155497099Y-109317611D01*
X155312717Y-109493725D02*
X155413176Y-109379210D01*
X155174362Y-109742598D02*
X155312717Y-109493725D01*
X155161271Y-109840025D02*
X155174362Y-109742598D01*
X155178772Y-109892528D02*
X155161271Y-109840025D01*
X155229759Y-109915680D02*
X155178772Y-109892528D01*
X155329668Y-109913888D02*
X155229759Y-109915680D01*
X155449556Y-109900245D02*
X155329668Y-109913888D01*
X155504402Y-109895835D02*
X155449556Y-109900245D01*
X155504261Y-109894735D02*
X155504402Y-109895835D01*
X155522589Y-109894311D02*
X155504261Y-109894735D01*
X155585152Y-109879704D02*
X155522589Y-109894311D01*
X155691950Y-109843875D02*
X155585152Y-109879704D01*
X155692053Y-109843878D02*
X155691950Y-109843875D01*
X155814888Y-109774300D02*
X155692053Y-109843878D01*
X155910473Y-109636897D02*
X155814888Y-109774300D01*
X156201927Y-109288667D02*
X155910473Y-109636897D01*
X156439363Y-109023944D02*
X156201927Y-109288667D01*
X156501237Y-108916458D02*
X156439363Y-109023944D01*
X156511986Y-108855961D02*
X156501237Y-108916458D01*
X156511161Y-108854310D02*
X156511986Y-108855961D01*
X156497411Y-108820159D02*
X156497380Y-108820135D01*
X156525798Y-108822226D02*
X156497411Y-108820159D01*
X156544953Y-108843172D02*
X156525798Y-108822226D01*
X156533929Y-108929989D02*
X156544953Y-108843172D01*
X156468334Y-109044090D02*
X156533929Y-108929989D01*
X156225800Y-109314875D02*
X156468334Y-109044090D01*
X156225649Y-109314861D02*
X156225800Y-109314875D01*
X155941499Y-109653996D02*
X156225649Y-109314861D01*
X155837725Y-109799742D02*
X155941499Y-109653996D01*
X155704339Y-109876962D02*
X155837725Y-109799742D01*
X155595060Y-109913618D02*
X155704339Y-109876962D01*
X155541592Y-109925607D02*
X155595060Y-109913618D01*
X155541875Y-109929600D02*
X155541592Y-109925607D01*
X155523425Y-109929600D02*
X155541875Y-109929600D01*
X155522971Y-109929597D02*
X155523425Y-109929600D01*
X155453104Y-109935383D02*
X155522971Y-109929597D01*
X155333904Y-109948888D02*
X155453104Y-109935383D01*
X155224350Y-109950539D02*
X155333904Y-109948888D01*
X155152554Y-109916088D02*
X155224350Y-109950539D01*
X155125958Y-109841535D02*
X155152554Y-109916088D01*
X155140014Y-109734187D02*
X155125958Y-109841535D01*
X155284708Y-109472222D02*
X155140014Y-109734187D01*
X155388611Y-109353849D02*
X155284708Y-109472222D01*
X155484386Y-109284671D02*
X155388611Y-109353849D01*
X155616125Y-109256146D02*
X155484386Y-109284671D01*
X155807673Y-109235062D02*
X155616125Y-109256146D01*
X156035187Y-109219352D02*
X155807673Y-109235062D01*
X156199586Y-109059637D02*
X156035187Y-109219352D01*
X156431786Y-108854034D02*
X156199586Y-109059637D01*
X156497380Y-108820135D02*
X156431786Y-108854034D01*
X144785731Y-108430014D02*
X144785730Y-108430012D01*
X144757343Y-108436625D02*
X144785731Y-108430014D01*
X144705116Y-108477966D02*
X144757343Y-108436625D01*
X144622709Y-108577736D02*
X144705116Y-108477966D01*
X144375903Y-108952149D02*
X144622709Y-108577736D01*
X144236583Y-109150173D02*
X144375903Y-108952149D01*
X144116280Y-109273645D02*
X144236583Y-109150173D01*
X143933553Y-109461058D02*
X144116280Y-109273645D01*
X143827995Y-109764915D02*
X143933553Y-109461058D01*
X143813112Y-109920771D02*
X143827995Y-109764915D01*
X143831027Y-110005520D02*
X143813112Y-109920771D01*
X143882427Y-110015442D02*
X143831027Y-110005520D01*
X144005624Y-109980027D02*
X143882427Y-110015442D01*
X144236522Y-109861750D02*
X144005624Y-109980027D01*
X144391199Y-109710069D02*
X144236522Y-109861750D01*
X144484259Y-109506156D02*
X144391199Y-109710069D01*
X144527900Y-109230099D02*
X144484259Y-109506156D01*
X144564413Y-108979200D02*
X144527900Y-109230099D01*
X144633320Y-108800289D02*
X144564413Y-108979200D01*
X144791518Y-108484582D02*
X144633320Y-108800289D01*
X144793861Y-108432630D02*
X144791518Y-108484582D01*
X144785730Y-108430012D02*
X144793861Y-108432630D01*
X144786573Y-108394745D02*
X144786557Y-108394734D01*
X144821162Y-108410316D02*
X144786573Y-108394745D01*
X144825709Y-108493550D02*
X144821162Y-108410316D01*
X144663376Y-108818630D02*
X144825709Y-108493550D01*
X144599034Y-108987473D02*
X144663376Y-108818630D01*
X144563193Y-109232592D02*
X144599034Y-108987473D01*
X144518194Y-109515980D02*
X144563193Y-109232592D01*
X144420153Y-109730202D02*
X144518194Y-109515980D01*
X144256867Y-109890415D02*
X144420153Y-109730202D01*
X144018455Y-110012837D02*
X144256867Y-109890415D01*
X143886302Y-110050596D02*
X144018455Y-110012837D01*
X143804997Y-110029236D02*
X143886302Y-110050596D01*
X143803344Y-110022625D02*
X143804997Y-110029236D01*
X143801552Y-110023725D02*
X143803344Y-110022625D01*
X143801537Y-110023571D02*
X143801552Y-110023725D01*
X143803328Y-110022470D02*
X143801537Y-110023571D01*
X143777835Y-109921322D02*
X143803328Y-110022470D01*
X143793269Y-109758714D02*
X143777835Y-109921322D01*
X143904476Y-109441076D02*
X143793269Y-109758714D01*
X144097126Y-109244155D02*
X143904476Y-109441076D01*
X144209022Y-109128125D02*
X144097126Y-109244155D01*
X144345861Y-108933684D02*
X144209022Y-109128125D01*
X144594459Y-108556654D02*
X144345861Y-108933684D01*
X144679760Y-108453439D02*
X144594459Y-108556654D01*
X144744527Y-108403829D02*
X144679760Y-108453439D01*
X144786557Y-108394734D02*
X144744527Y-108403829D01*
X153999987Y-108361934D02*
X153999982Y-108361937D01*
X153982210Y-108362760D02*
X153999987Y-108361934D01*
X153972702Y-108373371D02*
X153982210Y-108362760D01*
X153986620Y-108431662D02*
X153972702Y-108373371D01*
X154070405Y-108557339D02*
X153986620Y-108431662D01*
X154183130Y-108741043D02*
X154070405Y-108557339D01*
X154254097Y-109029591D02*
X154183130Y-108741043D01*
X154358347Y-109443034D02*
X154254097Y-109029591D01*
X154475686Y-109664591D02*
X154358347Y-109443034D01*
X154589374Y-109743139D02*
X154475686Y-109664591D01*
X154784228Y-109843047D02*
X154589374Y-109743139D01*
X154794563Y-109847732D02*
X154784228Y-109843047D01*
X154967232Y-109921043D02*
X154794563Y-109847732D01*
X155027038Y-109942541D02*
X154967232Y-109921043D01*
X155043850Y-109947226D02*
X155027038Y-109942541D01*
X155045501Y-109942682D02*
X155043850Y-109947226D01*
X155052253Y-109912228D02*
X155045501Y-109942682D01*
X155054871Y-109810115D02*
X155052253Y-109912228D01*
X155016699Y-109586322D02*
X155054871Y-109810115D01*
X154940770Y-109464641D02*
X155016699Y-109586322D01*
X154815368Y-109321187D02*
X154940770Y-109464641D01*
X154469777Y-108942172D02*
X154815368Y-109321187D01*
X154237143Y-108609432D02*
X154469777Y-108942172D01*
X154069298Y-108399970D02*
X154237143Y-108609432D01*
X153999982Y-108361937D02*
X154069298Y-108399970D01*
X154006597Y-108327214D02*
X154006593Y-108327210D01*
X154091208Y-108372276D02*
X154006597Y-108327214D01*
X154268148Y-108592762D02*
X154091208Y-108372276D01*
X154497051Y-108919466D02*
X154268148Y-108592762D01*
X154840173Y-109295975D02*
X154497051Y-108919466D01*
X154968881Y-109443425D02*
X154840173Y-109295975D01*
X155049634Y-109573512D02*
X154968881Y-109443425D01*
X155090148Y-109808605D02*
X155049634Y-109573512D01*
X155087114Y-109916918D02*
X155090148Y-109808605D01*
X155078432Y-109955228D02*
X155087114Y-109916918D01*
X155056108Y-109981686D02*
X155078432Y-109955228D01*
X155044946Y-109983062D02*
X155056108Y-109981686D01*
X155036678Y-109981820D02*
X155044946Y-109983062D01*
X155016420Y-109976169D02*
X155036678Y-109981820D01*
X154954409Y-109953844D02*
X155016420Y-109976169D01*
X154769339Y-109875296D02*
X154954409Y-109953844D01*
X154731167Y-109858071D02*
X154769339Y-109875296D01*
X154734059Y-109856970D02*
X154731167Y-109858071D01*
X154571727Y-109773599D02*
X154734059Y-109856970D01*
X154449495Y-109688299D02*
X154571727Y-109773599D01*
X154324595Y-109455120D02*
X154449495Y-109688299D01*
X154219500Y-109036349D02*
X154324595Y-109455120D01*
X154151504Y-108754919D02*
X154219500Y-109036349D01*
X154042423Y-108578841D02*
X154151504Y-108754919D01*
X153955055Y-108447239D02*
X154042423Y-108578841D01*
X153940448Y-108359182D02*
X153955055Y-108447239D01*
X153967870Y-108330519D02*
X153940448Y-108359182D01*
X154006593Y-108327210D02*
X153967870Y-108330519D01*
X142081067Y-108045393D02*
X142081068Y-108045402D01*
X142086028Y-108071852D02*
X142081067Y-108045393D01*
X142138945Y-108178925D02*
X142086028Y-108071852D01*
X142379550Y-108507313D02*
X142138945Y-108178925D01*
X142664803Y-108939603D02*
X142379550Y-108507313D01*
X142766502Y-109115991D02*
X142664803Y-108939603D01*
X142847668Y-109217277D02*
X142766502Y-109115991D01*
X142964526Y-109260961D02*
X142847668Y-109217277D01*
X143155384Y-109296652D02*
X142964526Y-109260961D01*
X143352857Y-109333859D02*
X143155384Y-109296652D01*
X143474537Y-109380437D02*
X143352857Y-109333859D01*
X143477983Y-109379061D02*
X143474537Y-109380437D01*
X143486113Y-109384713D02*
X143477983Y-109379061D01*
X143573618Y-109431290D02*
X143486113Y-109384713D01*
X143583402Y-109430189D02*
X143573618Y-109431290D01*
X143587261Y-109414755D02*
X143583402Y-109430189D01*
X143560251Y-109301067D02*
X143587261Y-109414755D01*
X143471506Y-109091743D02*
X143560251Y-109301067D01*
X143354511Y-108841216D02*
X143471506Y-109091743D01*
X143095578Y-108720086D02*
X143354511Y-108841216D01*
X142654166Y-108485585D02*
X143095578Y-108720086D01*
X142307893Y-108216276D02*
X142654166Y-108485585D01*
X142149970Y-108087291D02*
X142307893Y-108216276D01*
X142095400Y-108052013D02*
X142149970Y-108087291D01*
X142081068Y-108045402D02*
X142095400Y-108052013D01*
X142067012Y-108010368D02*
X142067012Y-108010400D01*
X142090163Y-108011073D02*
X142067012Y-108010368D01*
X142112074Y-108020857D02*
X142090163Y-108011073D01*
X142170502Y-108058615D02*
X142112074Y-108020857D01*
X142331457Y-108189942D02*
X142170502Y-108058615D01*
X142673315Y-108456073D02*
X142331457Y-108189942D01*
X143110600Y-108688102D02*
X142673315Y-108456073D01*
X143381107Y-108814606D02*
X143110600Y-108688102D01*
X143503477Y-109076708D02*
X143381107Y-108814606D01*
X143593463Y-109289202D02*
X143503477Y-109076708D01*
X143622539Y-109415981D02*
X143593463Y-109289202D01*
X143608208Y-109455256D02*
X143622539Y-109415981D01*
X143568934Y-109466280D02*
X143608208Y-109455256D01*
X143475503Y-109418599D02*
X143568934Y-109466280D01*
X143473711Y-109419305D02*
X143475503Y-109418599D01*
X143465581Y-109413519D02*
X143473711Y-109419305D01*
X143343900Y-109368044D02*
X143465581Y-109413519D01*
X143151251Y-109331663D02*
X143343900Y-109368044D01*
X142955569Y-109295008D02*
X143151251Y-109331663D01*
X142826585Y-109245536D02*
X142955569Y-109295008D01*
X142737151Y-109135431D02*
X142826585Y-109245536D01*
X142633247Y-108955459D02*
X142737151Y-109135431D01*
X142352679Y-108530059D02*
X142633247Y-108955459D01*
X142108629Y-108196987D02*
X142352679Y-108530059D01*
X142052543Y-108082747D02*
X142108629Y-108196987D01*
X142045791Y-108042095D02*
X142052543Y-108082747D01*
X142067012Y-108010400D02*
X142045791Y-108042095D01*
X156659038Y-107831257D02*
X156659027Y-107831263D01*
X156651046Y-107836633D02*
X156659038Y-107831257D01*
X156619213Y-107872738D02*
X156651046Y-107836633D01*
X156527850Y-108037275D02*
X156619213Y-107872738D01*
X156527980Y-108037290D02*
X156527850Y-108037275D01*
X156423060Y-108225713D02*
X156527980Y-108037290D01*
X156307632Y-108356718D02*
X156423060Y-108225713D01*
X156169480Y-108439276D02*
X156307632Y-108356718D01*
X155998400Y-108483084D02*
X156169480Y-108439276D01*
X155706330Y-108557094D02*
X155998400Y-108483084D01*
X155510712Y-108705637D02*
X155706330Y-108557094D01*
X155329914Y-109009770D02*
X155510712Y-108705637D01*
X155273138Y-109161630D02*
X155329914Y-109009770D01*
X155264871Y-109208621D02*
X155273138Y-109161630D01*
X155265696Y-109216613D02*
X155264871Y-109208621D01*
X155273964Y-109216331D02*
X155265696Y-109216613D01*
X155302765Y-109210679D02*
X155273964Y-109216331D01*
X155380624Y-109181879D02*
X155302765Y-109210679D01*
X155593531Y-109122485D02*
X155380624Y-109181879D01*
X155592289Y-109119317D02*
X155593531Y-109122485D01*
X155614751Y-109116558D02*
X155592289Y-109119317D01*
X155923156Y-109031396D02*
X155614751Y-109116558D01*
X156018371Y-108955725D02*
X155923156Y-109031396D01*
X156089485Y-108849357D02*
X156018371Y-108955725D01*
X156236965Y-108618961D02*
X156089485Y-108849357D01*
X156415390Y-108452207D02*
X156236965Y-108618961D01*
X156529118Y-108315168D02*
X156415390Y-108452207D01*
X156627607Y-108109902D02*
X156529118Y-108315168D01*
X156676528Y-107918493D02*
X156627607Y-108109902D01*
X156674461Y-107855654D02*
X156676528Y-107918493D01*
X156659027Y-107831263D02*
X156674461Y-107855654D01*
X154141513Y-107814177D02*
X154141502Y-107814175D01*
X154140271Y-107815143D02*
X154141513Y-107814177D01*
X154118775Y-107846700D02*
X154140271Y-107815143D01*
X154118626Y-107846698D02*
X154118775Y-107846700D01*
X154107878Y-107905127D02*
X154118626Y-107846698D01*
X154143844Y-107983537D02*
X154107878Y-107905127D01*
X154251469Y-108192723D02*
X154143844Y-107983537D01*
X154422483Y-108561760D02*
X154251469Y-108192723D01*
X154649722Y-109017753D02*
X154422483Y-108561760D01*
X154874479Y-109227904D02*
X154649722Y-109017753D01*
X154979899Y-109329052D02*
X154874479Y-109227904D01*
X154981000Y-109327125D02*
X154979899Y-109329052D01*
X154996707Y-109345177D02*
X154981000Y-109327125D01*
X155044938Y-109392167D02*
X154996707Y-109345177D01*
X155071948Y-109402503D02*
X155044938Y-109392167D01*
X155092205Y-109386105D02*
X155071948Y-109402503D01*
X155119353Y-109329053D02*
X155092205Y-109386105D01*
X155161712Y-109047996D02*
X155119353Y-109329053D01*
X155115359Y-108771086D02*
X155161712Y-109047996D01*
X155026338Y-108617435D02*
X155115359Y-108771086D01*
X154825971Y-108470261D02*
X155026338Y-108617435D01*
X154465822Y-108206573D02*
X154825971Y-108470261D01*
X154248023Y-107965211D02*
X154465822Y-108206573D01*
X154146462Y-107816934D02*
X154248023Y-107965211D01*
X154141502Y-107814175D02*
X154146462Y-107816934D01*
X156673113Y-107798883D02*
X156673102Y-107798879D01*
X156708805Y-107847115D02*
X156673113Y-107798883D01*
X156711697Y-107921804D02*
X156708805Y-107847115D01*
X156660710Y-108122033D02*
X156711697Y-107921804D01*
X156560875Y-108333304D02*
X156660710Y-108122033D01*
X156435676Y-108481148D02*
X156560875Y-108333304D01*
X156264301Y-108641411D02*
X156435676Y-108481148D01*
X156121069Y-108865345D02*
X156264301Y-108641411D01*
X156044300Y-108979469D02*
X156121069Y-108865345D01*
X155940547Y-109062129D02*
X156044300Y-108979469D01*
X155640272Y-109145637D02*
X155940547Y-109062129D01*
X155641513Y-109148805D02*
X155640272Y-109145637D01*
X155619051Y-109151564D02*
X155641513Y-109148805D01*
X155395671Y-109213714D02*
X155619051Y-109151564D01*
X155311749Y-109244857D02*
X155395671Y-109213714D01*
X155277573Y-109251468D02*
X155311749Y-109244857D01*
X155249600Y-109249125D02*
X155277573Y-109251468D01*
X155249452Y-109249127D02*
X155249600Y-109249125D01*
X155249311Y-109248986D02*
X155249452Y-109249127D01*
X155232775Y-109230521D02*
X155249311Y-109248986D01*
X155229607Y-109208334D02*
X155232775Y-109230521D01*
X155238977Y-109152524D02*
X155229607Y-109208334D01*
X155297682Y-108995289D02*
X155238977Y-109152524D01*
X155484819Y-108681649D02*
X155297682Y-108995289D01*
X155691176Y-108526219D02*
X155484819Y-108681649D01*
X155993316Y-108448210D02*
X155691176Y-108526219D01*
X156156202Y-108406746D02*
X155993316Y-108448210D01*
X156284909Y-108329699D02*
X156156202Y-108406746D01*
X156393988Y-108205630D02*
X156284909Y-108329699D01*
X156496024Y-108022259D02*
X156393988Y-108205630D01*
X156590557Y-107852209D02*
X156496024Y-108022259D01*
X156629418Y-107808801D02*
X156590557Y-107852209D01*
X156673102Y-107798879D02*
X156629418Y-107808801D01*
X154143024Y-107779036D02*
X154143027Y-107779035D01*
X154167415Y-107788544D02*
X154143024Y-107779036D01*
X154278209Y-107946881D02*
X154167415Y-107788544D01*
X154488977Y-108179177D02*
X154278209Y-107946881D01*
X154844859Y-108440356D02*
X154488977Y-108179177D01*
X155051703Y-108593042D02*
X154844859Y-108440356D01*
X155148165Y-108758269D02*
X155051703Y-108593042D01*
X155197832Y-109047746D02*
X155148165Y-108758269D01*
X155152575Y-109341041D02*
X155197832Y-109047746D01*
X155121018Y-109406636D02*
X155152575Y-109341041D01*
X155076920Y-109437504D02*
X155121018Y-109406636D01*
X155024556Y-109420968D02*
X155076920Y-109437504D01*
X154986797Y-109384588D02*
X155024556Y-109420968D01*
X154985696Y-109386380D02*
X154986797Y-109384588D01*
X154969987Y-109368327D02*
X154985696Y-109386380D01*
X154854094Y-109256706D02*
X154969987Y-109368327D01*
X154620654Y-109037598D02*
X154854094Y-109256706D01*
X154390246Y-108576093D02*
X154620654Y-109037598D01*
X154219783Y-108208018D02*
X154390246Y-108576093D01*
X154114364Y-108002966D02*
X154219783Y-108208018D01*
X154073160Y-107910913D02*
X154114364Y-108002966D01*
X154087905Y-107829609D02*
X154073160Y-107910913D01*
X154118773Y-107787166D02*
X154087905Y-107829609D01*
X154143027Y-107779035D02*
X154118773Y-107787166D01*
X144689148Y-107370046D02*
X144689152Y-107370035D01*
X144630306Y-107432333D02*
X144689148Y-107370046D01*
X144379299Y-107704758D02*
X144630306Y-107432333D01*
X144019561Y-107926773D02*
X144379299Y-107704758D01*
X143769723Y-108068849D02*
X144019561Y-107926773D01*
X143625029Y-108175095D02*
X143769723Y-108068849D01*
X143521939Y-108365764D02*
X143625029Y-108175095D01*
X143504313Y-108576930D02*
X143521939Y-108365764D01*
X143528428Y-108654376D02*
X143504313Y-108576930D01*
X143567702Y-108682074D02*
X143528428Y-108654376D01*
X143765589Y-108616342D02*
X143567702Y-108682074D01*
X143922685Y-108533660D02*
X143765589Y-108616342D01*
X143943769Y-108561358D02*
X143922685Y-108533660D01*
X143802107Y-108711151D02*
X143943769Y-108561358D01*
X143689319Y-108859057D02*
X143802107Y-108711151D01*
X143656310Y-109015559D02*
X143689319Y-108859057D01*
X143680426Y-109253959D02*
X143656310Y-109015559D01*
X143712810Y-109341603D02*
X143680426Y-109253959D01*
X143746434Y-109381152D02*
X143712810Y-109341603D01*
X143746850Y-109381293D02*
X143746434Y-109381152D01*
X143768210Y-109378534D02*
X143746850Y-109381293D01*
X143801558Y-109357175D02*
X143768210Y-109378534D01*
X144017772Y-109174309D02*
X143801558Y-109357175D01*
X144245636Y-108946533D02*
X144017772Y-109174309D01*
X144339545Y-108655754D02*
X144245636Y-108946533D01*
X144531367Y-108107434D02*
X144339545Y-108655754D01*
X144635685Y-107817494D02*
X144531367Y-108107434D01*
X144633893Y-107789383D02*
X144635685Y-107817494D01*
X144627692Y-107779736D02*
X144633893Y-107789383D01*
X144580977Y-107785938D02*
X144627692Y-107779736D01*
X144560720Y-107805368D02*
X144580977Y-107785938D01*
X144520757Y-107857045D02*
X144560720Y-107805368D01*
X144420160Y-108017035D02*
X144520757Y-107857045D01*
X144183551Y-108344732D02*
X144420160Y-108017035D01*
X144056909Y-108483914D02*
X144183551Y-108344732D01*
X143963616Y-108557363D02*
X144056909Y-108483914D01*
X143954659Y-108558605D02*
X143963616Y-108557363D01*
X143940465Y-108549648D02*
X143954659Y-108558605D01*
X143938950Y-108533938D02*
X143940465Y-108549648D01*
X143945151Y-108520296D02*
X143938950Y-108533938D01*
X143970920Y-108480195D02*
X143945151Y-108520296D01*
X144070139Y-108345698D02*
X143970920Y-108480195D01*
X144335686Y-107943173D02*
X144070139Y-108345698D01*
X144598064Y-107610378D02*
X144335686Y-107943173D01*
X144750199Y-107443773D02*
X144598064Y-107610378D01*
X144758605Y-107397471D02*
X144750199Y-107443773D01*
X144730631Y-107370600D02*
X144758605Y-107397471D01*
X144689152Y-107370035D02*
X144730631Y-107370600D01*
X144744825Y-107338193D02*
X144744824Y-107338203D01*
X144792505Y-107387665D02*
X144744825Y-107338193D01*
X144782032Y-107459047D02*
X144792505Y-107387665D01*
X144620526Y-107637502D02*
X144782032Y-107459047D01*
X144366416Y-107960377D02*
X144620526Y-107637502D01*
X144098111Y-108367172D02*
X144366416Y-107960377D01*
X144028107Y-108461981D02*
X144098111Y-108367172D01*
X144032103Y-108458813D02*
X144028107Y-108461981D01*
X144156540Y-108321975D02*
X144032103Y-108458813D01*
X144389566Y-107999652D02*
X144156540Y-108321975D01*
X144491954Y-107836630D02*
X144389566Y-107999652D01*
X144534122Y-107782060D02*
X144491954Y-107836630D01*
X144568022Y-107753121D02*
X144534122Y-107782060D01*
X144646019Y-107749678D02*
X144568022Y-107753121D01*
X144667654Y-107779168D02*
X144646019Y-107749678D01*
X144670823Y-107820234D02*
X144667654Y-107779168D01*
X144563336Y-108122299D02*
X144670823Y-107820234D01*
X144374132Y-108662626D02*
X144563336Y-108122299D01*
X144274491Y-108964037D02*
X144374132Y-108662626D01*
X144040097Y-109201714D02*
X144274491Y-108964037D01*
X143826087Y-109382374D02*
X144040097Y-109201714D01*
X143780612Y-109411451D02*
X143826087Y-109382374D01*
X143732656Y-109413934D02*
X143780612Y-109411451D01*
X143725904Y-109411042D02*
X143732656Y-109413934D01*
X143723010Y-109403738D02*
X143725904Y-109411042D01*
X143732381Y-109413522D02*
X143723010Y-109403738D01*
X143681807Y-109358263D02*
X143732381Y-109413522D01*
X143646253Y-109263041D02*
X143681807Y-109358263D01*
X143621035Y-109013616D02*
X143646253Y-109263041D01*
X143658209Y-108845130D02*
X143621035Y-109013616D01*
X143776478Y-108687021D02*
X143658209Y-108845130D01*
X143844966Y-108614399D02*
X143776478Y-108687021D01*
X143782128Y-108647609D02*
X143844966Y-108614399D01*
X143654067Y-108705611D02*
X143782128Y-108647609D01*
X143561366Y-108716787D02*
X143654067Y-108705611D01*
X143498528Y-108673103D02*
X143561366Y-108716787D01*
X143469451Y-108582428D02*
X143498528Y-108673103D01*
X143487669Y-108355479D02*
X143469451Y-108582428D01*
X143598573Y-108151793D02*
X143487669Y-108355479D01*
X143750984Y-108039069D02*
X143598573Y-108151793D01*
X144003442Y-107895340D02*
X143750984Y-108039069D01*
X144357000Y-107677960D02*
X144003442Y-107895340D01*
X144601784Y-107411513D02*
X144357000Y-107677960D01*
X144671926Y-107339303D02*
X144601784Y-107411513D01*
X144744824Y-107338203D02*
X144671926Y-107339303D01*
X154017608Y-107324559D02*
X154017624Y-107324560D01*
X154006170Y-107325935D02*
X154017608Y-107324559D01*
X154001619Y-107335718D02*
X154006170Y-107325935D01*
X154019534Y-107419916D02*
X154001619Y-107335718D01*
X154169464Y-107607605D02*
X154019534Y-107419916D01*
X154322978Y-107754091D02*
X154169464Y-107607605D01*
X154529132Y-107982018D02*
X154322978Y-107754091D01*
X154860519Y-108312745D02*
X154529132Y-107982018D01*
X155000300Y-108396095D02*
X154860519Y-108312745D01*
X155141119Y-108438838D02*
X155000300Y-108396095D01*
X155141683Y-108438979D02*
X155141119Y-108438838D01*
X155141825Y-108438979D02*
X155141683Y-108438979D01*
X155237047Y-108447799D02*
X155141825Y-108438979D01*
X155270533Y-108445456D02*
X155237047Y-108447799D01*
X155283211Y-108442013D02*
X155270533Y-108445456D01*
X155283352Y-108441872D02*
X155283211Y-108442013D01*
X155303333Y-108386475D02*
X155283352Y-108441872D01*
X155302508Y-108278988D02*
X155303333Y-108386475D01*
X155235535Y-108055471D02*
X155302508Y-108278988D01*
X155182008Y-107986833D02*
X155235535Y-108055471D01*
X155085604Y-107924833D02*
X155182008Y-107986833D01*
X154542382Y-107707654D02*
X155085604Y-107924833D01*
X154343042Y-107608212D02*
X154542382Y-107707654D01*
X154189742Y-107465809D02*
X154343042Y-107608212D01*
X154086527Y-107362318D02*
X154189742Y-107465809D01*
X154017624Y-107324560D02*
X154086527Y-107362318D01*
X154022584Y-107289675D02*
X154022584Y-107289696D01*
X154108298Y-107334599D02*
X154022584Y-107289675D01*
X154216750Y-107443050D02*
X154108298Y-107334599D01*
X154216757Y-107443206D02*
X154216750Y-107443050D01*
X154362929Y-107579525D02*
X154216757Y-107443206D01*
X154554790Y-107674578D02*
X154362929Y-107579525D01*
X155101595Y-107893272D02*
X154554790Y-107674578D01*
X155205793Y-107961603D02*
X155101595Y-107893272D01*
X155265444Y-108036726D02*
X155205793Y-107961603D01*
X155337653Y-108275265D02*
X155265444Y-108036726D01*
X155338359Y-108391019D02*
X155337653Y-108275265D01*
X155305976Y-108469016D02*
X155338359Y-108391019D01*
X155305834Y-108469157D02*
X155305976Y-108469016D01*
X155276482Y-108480320D02*
X155305834Y-108469157D01*
X155237208Y-108483079D02*
X155276482Y-108480320D01*
X155136473Y-108473846D02*
X155237208Y-108483079D01*
X155135767Y-108473705D02*
X155136473Y-108473846D01*
X155135626Y-108473705D02*
X155135767Y-108473705D01*
X154987345Y-108428721D02*
X155135626Y-108473705D01*
X154841163Y-108341907D02*
X154987345Y-108428721D01*
X154502279Y-108005035D02*
X154841163Y-108341907D01*
X154297503Y-107778485D02*
X154502279Y-108005035D01*
X154148123Y-107635583D02*
X154297503Y-107778485D01*
X153986618Y-107432873D02*
X154148123Y-107635583D01*
X153966911Y-107329383D02*
X153986618Y-107432873D01*
X153986066Y-107296861D02*
X153966911Y-107329383D01*
X154022584Y-107289696D02*
X153986066Y-107296861D01*
X142560061Y-106879180D02*
X142560059Y-106879178D01*
X142522578Y-106885516D02*
X142560061Y-106879180D01*
X142491572Y-106918451D02*
X142522578Y-106885516D01*
X142484682Y-107019047D02*
X142491572Y-106918451D01*
X142576735Y-107554415D02*
X142484682Y-107019047D01*
X142652941Y-107937370D02*
X142576735Y-107554415D01*
X142676505Y-108065390D02*
X142652941Y-107937370D01*
X142685600Y-108128366D02*
X142676505Y-108065390D01*
X142718946Y-108222393D02*
X142685600Y-108128366D01*
X142808246Y-108335485D02*
X142718946Y-108222393D01*
X143098873Y-108543431D02*
X142808246Y-108335485D01*
X143099423Y-108543713D02*
X143098873Y-108543431D01*
X143293175Y-108623502D02*
X143099423Y-108543713D01*
X143388673Y-108623220D02*
X143293175Y-108623502D01*
X143414856Y-108544120D02*
X143388673Y-108623220D01*
X143384402Y-108356156D02*
X143414856Y-108544120D01*
X143263667Y-108064604D02*
X143384402Y-108356156D01*
X143002134Y-107814588D02*
X143263667Y-108064604D01*
X142847500Y-107677173D02*
X143002134Y-107814588D01*
X142743012Y-107531013D02*
X142847500Y-107677173D01*
X142674827Y-107349874D02*
X142743012Y-107531013D01*
X142629099Y-107107518D02*
X142674827Y-107349874D01*
X142582797Y-106900675D02*
X142629099Y-107107518D01*
X142560059Y-106879178D02*
X142582797Y-106900675D01*
X142568463Y-106844863D02*
X142568466Y-106844865D01*
X142613662Y-106883586D02*
X142568463Y-106844863D01*
X142664099Y-107102555D02*
X142613662Y-106883586D01*
X142708090Y-107340390D02*
X142664099Y-107102555D01*
X142772598Y-107514457D02*
X142708090Y-107340390D01*
X142872773Y-107653588D02*
X142772598Y-107514457D01*
X143023766Y-107786613D02*
X142872773Y-107653588D01*
X143292059Y-108045443D02*
X143023766Y-107786613D01*
X143418574Y-108347750D02*
X143292059Y-108045443D01*
X143450131Y-108544120D02*
X143418574Y-108347750D01*
X143408376Y-108652572D02*
X143450131Y-108544120D01*
X143284077Y-108657673D02*
X143408376Y-108652572D01*
X143113614Y-108587669D02*
X143284077Y-108657673D01*
X143114030Y-108590286D02*
X143113614Y-108587669D01*
X143083851Y-108575403D02*
X143114030Y-108590286D01*
X142783164Y-108360154D02*
X143083851Y-108575403D01*
X142687742Y-108240780D02*
X142783164Y-108360154D01*
X142650321Y-108129057D02*
X142687742Y-108240780D01*
X142641639Y-108071318D02*
X142650321Y-108129057D01*
X142618351Y-107943849D02*
X142641639Y-108071318D01*
X142542145Y-107561582D02*
X142618351Y-107943849D01*
X142449403Y-107021254D02*
X142542145Y-107561582D01*
X142458360Y-106906601D02*
X142449403Y-107021254D01*
X142509761Y-106852582D02*
X142458360Y-106906601D01*
X142568466Y-106844865D02*
X142509761Y-106852582D01*
X144853245Y-106792225D02*
X144853251Y-106792224D01*
X144853661Y-106793325D02*
X144853245Y-106792225D01*
X144838916Y-106802145D02*
X144853661Y-106793325D01*
X144789445Y-106839627D02*
X144838916Y-106802145D01*
X144646542Y-106969990D02*
X144789445Y-106839627D01*
X144371696Y-107187514D02*
X144646542Y-106969990D01*
X143996522Y-107317117D02*
X144371696Y-107187514D01*
X143819243Y-107374694D02*
X143996522Y-107317117D01*
X143706032Y-107445688D02*
X143819243Y-107374694D01*
X143637170Y-107546160D02*
X143706032Y-107445688D01*
X143594273Y-107695664D02*
X143637170Y-107546160D01*
X143574292Y-107911602D02*
X143594273Y-107695664D01*
X143594411Y-107936269D02*
X143574292Y-107911602D01*
X143647328Y-107936552D02*
X143594411Y-107936269D01*
X143648155Y-107936410D02*
X143647328Y-107936552D01*
X143760878Y-107902786D02*
X143648155Y-107936410D01*
X143925140Y-107838294D02*
X143760878Y-107902786D01*
X143925281Y-107838153D02*
X143925140Y-107838294D01*
X144103500Y-107741447D02*
X143925281Y-107838153D01*
X144220319Y-107602096D02*
X144103500Y-107741447D01*
X144455622Y-107298596D02*
X144220319Y-107602096D01*
X144756099Y-106996036D02*
X144455622Y-107298596D01*
X144880122Y-106844865D02*
X144756099Y-106996036D01*
X144882741Y-106808485D02*
X144880122Y-106844865D01*
X144853251Y-106792224D02*
X144882741Y-106808485D01*
X144859451Y-106757356D02*
X144859452Y-106757359D01*
X144914159Y-106792497D02*
X144859451Y-106757356D01*
X144913056Y-106857402D02*
X144914159Y-106792497D01*
X144779662Y-107022353D02*
X144913056Y-106857402D01*
X144482022Y-107322114D02*
X144779662Y-107022353D01*
X144249807Y-107621386D02*
X144482022Y-107322114D01*
X144125348Y-107768009D02*
X144249807Y-107621386D01*
X143939197Y-107870672D02*
X144125348Y-107768009D01*
X143772592Y-107935991D02*
X143939197Y-107870672D01*
X143674338Y-107965068D02*
X143772592Y-107935991D01*
X143675441Y-107967827D02*
X143674338Y-107965068D01*
X143653806Y-107971270D02*
X143675441Y-107967827D01*
X143582286Y-107969344D02*
X143653806Y-107971270D01*
X143540256Y-107921250D02*
X143582286Y-107969344D01*
X143559548Y-107688913D02*
X143540256Y-107921250D01*
X143605172Y-107531444D02*
X143559548Y-107688913D01*
X143681780Y-107420058D02*
X143605172Y-107531444D01*
X143804685Y-107342411D02*
X143681780Y-107420058D01*
X143987705Y-107282943D02*
X143804685Y-107342411D01*
X144354932Y-107157400D02*
X143987705Y-107282943D01*
X144621740Y-106944911D02*
X144354932Y-107157400D01*
X144766985Y-106812481D02*
X144621740Y-106944911D01*
X144819351Y-106772656D02*
X144766985Y-106812481D01*
X144838643Y-106761494D02*
X144819351Y-106772656D01*
X144859452Y-106757359D02*
X144838643Y-106761494D01*
X156201380Y-106624790D02*
X156201377Y-106624793D01*
X156187738Y-106626307D02*
X156201380Y-106624790D01*
X156166929Y-106658829D02*
X156187738Y-106626307D01*
X156131514Y-106836182D02*
X156166929Y-106658829D01*
X156081927Y-107057213D02*
X156131514Y-106836182D01*
X155984452Y-107293074D02*
X156081927Y-107057213D01*
X155855398Y-107510949D02*
X155984452Y-107293074D01*
X155711074Y-107678024D02*
X155855398Y-107510949D01*
X155565432Y-107835408D02*
X155711074Y-107678024D01*
X155464868Y-108006704D02*
X155565432Y-107835408D01*
X155409961Y-108190325D02*
X155464868Y-108006704D01*
X155401292Y-108384682D02*
X155409961Y-108190325D01*
X155407352Y-108423956D02*
X155401292Y-108384682D01*
X155415483Y-108429607D02*
X155407352Y-108423956D01*
X155558110Y-108383994D02*
X155415483Y-108429607D01*
X155795815Y-108261283D02*
X155558110Y-108383994D01*
X155958842Y-108102186D02*
X155795815Y-108261283D01*
X156060009Y-107890604D02*
X155958842Y-108102186D01*
X156110013Y-107609401D02*
X156060009Y-107890604D01*
X156188010Y-107105866D02*
X156110013Y-107609401D01*
X156230453Y-106766041D02*
X156188010Y-107105866D01*
X156221496Y-106662826D02*
X156230453Y-106766041D01*
X156201377Y-106624793D02*
X156221496Y-106662826D01*
X156215453Y-106592397D02*
X156215433Y-106592408D01*
X156255692Y-106654409D02*
X156215453Y-106592397D01*
X156265751Y-106766167D02*
X156255692Y-106654409D01*
X156222619Y-107113020D02*
X156265751Y-106766167D01*
X156145173Y-107612420D02*
X156222619Y-107113020D01*
X156093727Y-107901121D02*
X156145173Y-107612420D01*
X155987664Y-108122707D02*
X156093727Y-107901121D01*
X155816232Y-108289956D02*
X155987664Y-108122707D01*
X155570946Y-108416780D02*
X155816232Y-108289956D01*
X155412747Y-108464873D02*
X155570946Y-108416780D01*
X155374851Y-108437588D02*
X155412747Y-108464873D01*
X155368925Y-108403550D02*
X155374851Y-108437588D01*
X155367392Y-108403559D02*
X155368925Y-108403550D01*
X155366150Y-108387298D02*
X155367392Y-108403559D01*
X155375379Y-108184641D02*
X155366150Y-108387298D01*
X155432784Y-107992937D02*
X155375379Y-108184641D01*
X155537211Y-107814515D02*
X155432784Y-107992937D01*
X155687508Y-107651703D02*
X155537211Y-107814515D01*
X155825423Y-107490492D02*
X155687508Y-107651703D01*
X155951357Y-107276676D02*
X155825423Y-107490492D01*
X156047583Y-107045598D02*
X155951357Y-107276676D01*
X156096370Y-106832598D02*
X156047583Y-107045598D01*
X156134405Y-106645185D02*
X156096370Y-106832598D01*
X156166512Y-106598194D02*
X156134405Y-106645185D01*
X156215433Y-106592408D02*
X156166512Y-106598194D01*
X144690783Y-106505454D02*
X144690783Y-106505454D01*
X144665289Y-106526539D02*
X144690783Y-106505454D01*
X144644067Y-106542524D02*
X144665289Y-106526539D01*
X144690783Y-106505454D02*
X144644067Y-106542524D01*
X144974664Y-106306472D02*
X145009523Y-106292823D01*
X144894600Y-106360629D02*
X144974664Y-106306472D01*
X144796897Y-106454749D02*
X144894600Y-106360629D01*
X144680960Y-106561581D02*
X144796897Y-106454749D01*
X144550411Y-106630605D02*
X144680960Y-106561581D01*
X144189182Y-106676199D02*
X144550411Y-106630605D01*
X143988143Y-106690296D02*
X144189182Y-106676199D01*
X143862312Y-106749787D02*
X143988143Y-106690296D01*
X143783198Y-106876490D02*
X143862312Y-106749787D01*
X143727265Y-107095949D02*
X143783198Y-106876490D01*
X143727956Y-107244088D02*
X143727265Y-107095949D01*
X143753312Y-107267101D02*
X143727956Y-107244088D01*
X143803335Y-107267927D02*
X143753312Y-107267101D01*
X144138887Y-107157546D02*
X143803335Y-107267927D01*
X144280963Y-107084235D02*
X144138887Y-107157546D01*
X144356480Y-107023325D02*
X144280963Y-107084235D01*
X144356471Y-107023183D02*
X144356480Y-107023325D01*
X144471813Y-106896817D02*
X144356471Y-107023183D01*
X144670801Y-106709955D02*
X144471813Y-106896817D01*
X144867171Y-106514274D02*
X144670801Y-106709955D01*
X144976036Y-106369580D02*
X144867171Y-106514274D01*
X145009523Y-106292823D02*
X144976036Y-106369580D01*
X153652000Y-106205040D02*
X153652023Y-106205042D01*
X153649799Y-106205181D02*
X153652000Y-106205040D01*
X153647456Y-106212485D02*
X153649799Y-106205181D01*
X153656000Y-106277803D02*
X153647456Y-106212485D01*
X153805103Y-106495395D02*
X153656000Y-106277803D01*
X154107168Y-106738068D02*
X153805103Y-106495395D01*
X154482097Y-106948562D02*
X154107168Y-106738068D01*
X154850343Y-107074445D02*
X154482097Y-106948562D01*
X154850908Y-107074587D02*
X154850343Y-107074445D01*
X154994086Y-107096635D02*
X154850908Y-107074587D01*
X155044522Y-107100353D02*
X154994086Y-107096635D01*
X155062299Y-107099387D02*
X155044522Y-107100353D01*
X155062581Y-107094152D02*
X155062299Y-107099387D01*
X155051419Y-107045094D02*
X155062581Y-107094152D01*
X154971079Y-106850377D02*
X155051419Y-107045094D01*
X154851052Y-106627272D02*
X154971079Y-106850377D01*
X154726339Y-106550102D02*
X154851052Y-106627272D01*
X154577595Y-106523602D02*
X154726339Y-106550102D01*
X154394372Y-106532464D02*
X154577595Y-106523602D01*
X154219762Y-106539696D02*
X154394372Y-106532464D01*
X154059926Y-106504865D02*
X154219762Y-106539696D01*
X153912766Y-106427265D02*
X154059926Y-106504865D01*
X153776184Y-106306190D02*
X153912766Y-106427265D01*
X153696258Y-106229709D02*
X153776184Y-106306190D01*
X153652023Y-106205042D02*
X153696258Y-106229709D01*
X153654783Y-106169906D02*
X153654781Y-106169902D01*
X153718035Y-106201877D02*
X153654783Y-106169906D01*
X153802233Y-106282354D02*
X153718035Y-106201877D01*
X153932808Y-106398855D02*
X153802233Y-106282354D01*
X154071695Y-106472621D02*
X153932808Y-106398855D01*
X154222576Y-106505065D02*
X154071695Y-106472621D01*
X154389138Y-106497603D02*
X154222576Y-106505065D01*
X154579185Y-106487918D02*
X154389138Y-106497603D01*
X154738608Y-106517033D02*
X154579185Y-106487918D01*
X154878341Y-106604815D02*
X154738608Y-106517033D01*
X155003053Y-106835498D02*
X154878341Y-106604815D01*
X155085047Y-107034487D02*
X155003053Y-106835498D01*
X155097862Y-107092088D02*
X155085047Y-107034487D01*
X155095661Y-107113862D02*
X155097862Y-107092088D01*
X155078987Y-107132052D02*
X155095661Y-107113862D01*
X155043846Y-107135636D02*
X155078987Y-107132052D01*
X154990379Y-107131777D02*
X155043846Y-107135636D01*
X154875175Y-107114138D02*
X154990379Y-107131777D01*
X154875739Y-107115513D02*
X154875175Y-107114138D01*
X154844871Y-107109453D02*
X154875739Y-107115513D01*
X154844307Y-107109312D02*
X154844871Y-107109453D01*
X154844166Y-107109312D02*
X154844307Y-107109312D01*
X154467438Y-106980966D02*
X154844166Y-107109312D01*
X154087486Y-106767419D02*
X154467438Y-106980966D01*
X153780183Y-106520200D02*
X154087486Y-106767419D01*
X153621847Y-106286760D02*
X153780183Y-106520200D01*
X153612614Y-106206834D02*
X153621847Y-106286760D01*
X153625705Y-106179411D02*
X153612614Y-106206834D01*
X153654781Y-106169902D02*
X153625705Y-106179411D01*
X142733159Y-105871550D02*
X142733156Y-105871557D01*
X142712213Y-105910686D02*
X142733159Y-105871550D01*
X142660395Y-106181856D02*
X142712213Y-105910686D01*
X142697605Y-106560568D02*
X142660395Y-106181856D01*
X142784422Y-107088356D02*
X142697605Y-106560568D01*
X142889290Y-107489641D02*
X142784422Y-107088356D01*
X143082440Y-107704680D02*
X142889290Y-107489641D01*
X143340045Y-107888721D02*
X143082440Y-107704680D01*
X143340320Y-107888862D02*
X143340045Y-107888721D01*
X143414597Y-107920006D02*
X143340320Y-107888862D01*
X143446567Y-107918905D02*
X143414597Y-107920006D01*
X143462828Y-107883215D02*
X143446567Y-107918905D01*
X143470269Y-107791575D02*
X143462828Y-107883215D01*
X143448517Y-107556164D02*
X143470269Y-107791575D01*
X143372783Y-107344108D02*
X143448517Y-107556164D01*
X143244644Y-107158485D02*
X143372783Y-107344108D01*
X143065677Y-107002373D02*
X143244644Y-107158485D01*
X142933827Y-106883064D02*
X143065677Y-107002373D01*
X142843124Y-106730348D02*
X142933827Y-106883064D01*
X142790208Y-106535671D02*
X142843124Y-106730348D01*
X142770226Y-106289790D02*
X142790208Y-106535671D01*
X142744594Y-105924335D02*
X142770226Y-106289790D01*
X142733156Y-105871557D02*
X142744594Y-105924335D01*
X142742530Y-105823322D02*
X142742527Y-105823325D01*
X142759342Y-105838481D02*
X142742530Y-105823322D01*
X142766094Y-105857222D02*
X142759342Y-105838481D01*
X142779185Y-105917443D02*
X142766094Y-105857222D01*
X142805506Y-106289238D02*
X142779185Y-105917443D01*
X142825080Y-106529931D02*
X142805506Y-106289238D01*
X142875786Y-106716843D02*
X142825080Y-106529931D01*
X142960974Y-106860743D02*
X142875786Y-106716843D01*
X143085661Y-106973295D02*
X142960974Y-106860743D01*
X143270700Y-107135099D02*
X143085661Y-106973295D01*
X143403750Y-107328236D02*
X143270700Y-107135099D01*
X143482727Y-107548679D02*
X143403750Y-107328236D01*
X143505548Y-107792400D02*
X143482727Y-107548679D01*
X143497280Y-107890240D02*
X143505548Y-107792400D01*
X143467239Y-107947429D02*
X143497280Y-107890240D01*
X143405916Y-107954322D02*
X143467239Y-107947429D01*
X143324199Y-107920285D02*
X143405916Y-107954322D01*
X143317997Y-107917117D02*
X143324199Y-107920285D01*
X143317306Y-107915325D02*
X143317997Y-107917117D01*
X143055268Y-107728658D02*
X143317306Y-107915325D01*
X142858834Y-107507425D02*
X143055268Y-107728658D01*
X142794567Y-107339059D02*
X142858834Y-107507425D01*
X142749417Y-107092775D02*
X142794567Y-107339059D01*
X142663152Y-106567880D02*
X142749417Y-107092775D01*
X142623979Y-106181675D02*
X142663152Y-106567880D01*
X142680791Y-105894707D02*
X142623979Y-106181675D01*
X142707387Y-105845098D02*
X142680791Y-105894707D01*
X142718963Y-105830078D02*
X142707387Y-105845098D01*
X142742527Y-105823325D02*
X142718963Y-105830078D01*
X155925659Y-105669401D02*
X155925668Y-105669399D01*
X155910639Y-105670918D02*
X155925659Y-105669401D01*
X155876601Y-105717495D02*
X155910639Y-105670918D01*
X155907056Y-105941839D02*
X155876601Y-105717495D01*
X155915562Y-106152245D02*
X155907056Y-105941839D01*
X155881906Y-106353205D02*
X155915562Y-106152245D01*
X155807874Y-106537927D02*
X155881906Y-106353205D01*
X155695252Y-106699622D02*
X155807874Y-106537927D01*
X155423659Y-107091863D02*
X155695252Y-106699622D01*
X155263512Y-107483037D02*
X155423659Y-107091863D01*
X155223410Y-107668796D02*
X155263512Y-107483037D01*
X155189097Y-107669897D02*
X155223410Y-107668796D01*
X155143346Y-107510044D02*
X155189097Y-107669897D01*
X155083552Y-107376935D02*
X155143346Y-107510044D01*
X154981703Y-107277294D02*
X155083552Y-107376935D01*
X154820172Y-107198481D02*
X154981703Y-107277294D01*
X154582486Y-107131222D02*
X154820172Y-107198481D01*
X154181753Y-106992959D02*
X154582486Y-107131222D01*
X153910141Y-106763974D02*
X154181753Y-106992959D01*
X153818088Y-106672197D02*
X153910141Y-106763974D01*
X153763103Y-106644086D02*
X153818088Y-106672197D01*
X153758560Y-106645327D02*
X153763103Y-106644086D01*
X153755667Y-106658005D02*
X153758560Y-106645327D01*
X153780747Y-106744546D02*
X153755667Y-106658005D01*
X153983732Y-106998106D02*
X153780747Y-106744546D01*
X154401002Y-107401871D02*
X153983732Y-106998106D01*
X154611592Y-107552058D02*
X154401002Y-107401871D01*
X154854927Y-107673206D02*
X154611592Y-107552058D01*
X155065078Y-107737974D02*
X154854927Y-107673206D01*
X155135220Y-107741692D02*
X155065078Y-107737974D01*
X155166777Y-107728463D02*
X155135220Y-107741692D01*
X155212665Y-107713442D02*
X155166777Y-107728463D01*
X155256901Y-107741003D02*
X155212665Y-107713442D01*
X155257042Y-107741003D02*
X155256901Y-107741003D01*
X155285843Y-107750512D02*
X155257042Y-107741003D01*
X155343858Y-107736593D02*
X155285843Y-107750512D01*
X155510187Y-107635583D02*
X155343858Y-107736593D01*
X155695019Y-107466959D02*
X155510187Y-107635583D01*
X155848632Y-107268888D02*
X155695019Y-107466959D01*
X155929248Y-106977708D02*
X155848632Y-107268888D01*
X155992362Y-106505318D02*
X155929248Y-106977708D01*
X156039336Y-106071785D02*
X155992362Y-106505318D01*
X155987818Y-105768618D02*
X156039336Y-106071785D01*
X155941378Y-105680286D02*
X155987818Y-105768618D01*
X155925668Y-105669399D02*
X155941378Y-105680286D01*
X155934772Y-105635244D02*
X155934764Y-105635224D01*
X155967294Y-105656328D02*
X155934772Y-105635244D01*
X156020623Y-105755684D02*
X155967294Y-105656328D01*
X156074596Y-106071004D02*
X156020623Y-105755684D01*
X156026959Y-106511814D02*
X156074596Y-106071004D01*
X155964534Y-106979244D02*
X156026959Y-106511814D01*
X155878820Y-107287234D02*
X155964534Y-106979244D01*
X155720916Y-107491172D02*
X155878820Y-107287234D01*
X155531692Y-107663576D02*
X155720916Y-107491172D01*
X155356819Y-107769410D02*
X155531692Y-107663576D01*
X155286401Y-107785809D02*
X155356819Y-107769410D01*
X155230867Y-107764862D02*
X155286401Y-107785809D01*
X155230302Y-107764298D02*
X155230867Y-107764862D01*
X155205084Y-107747899D02*
X155230302Y-107764298D01*
X155195025Y-107749550D02*
X155205084Y-107747899D01*
X155195018Y-107749691D02*
X155195025Y-107749550D01*
X155139621Y-107776700D02*
X155195018Y-107749691D01*
X155059419Y-107772841D02*
X155139621Y-107776700D01*
X154841552Y-107705868D02*
X155059419Y-107772841D01*
X154593717Y-107582708D02*
X154841552Y-107705868D01*
X154377429Y-107428193D02*
X154593717Y-107582708D01*
X153957954Y-107022223D02*
X154377429Y-107428193D01*
X153748493Y-106758880D02*
X153957954Y-107022223D01*
X153720380Y-106657319D02*
X153748493Y-106758880D01*
X153731267Y-106623006D02*
X153720380Y-106657319D01*
X153763376Y-106608812D02*
X153731267Y-106623006D01*
X153839581Y-106644228D02*
X153763376Y-106608812D01*
X153937146Y-106741241D02*
X153839581Y-106644228D01*
X154199004Y-106962903D02*
X153937146Y-106741241D01*
X154590473Y-107096774D02*
X154199004Y-106962903D01*
X154832377Y-107165182D02*
X154590473Y-107096774D01*
X155001543Y-107248082D02*
X154832377Y-107165182D01*
X155112217Y-107357092D02*
X155001543Y-107248082D01*
X155177243Y-107500400D02*
X155112217Y-107357092D01*
X155203701Y-107592591D02*
X155177243Y-107500400D01*
X155228919Y-107475595D02*
X155203701Y-107592591D01*
X155392342Y-107074133D02*
X155228919Y-107475595D01*
X155668789Y-106676195D02*
X155392342Y-107074133D01*
X155776736Y-106521175D02*
X155668789Y-106676195D01*
X155847871Y-106343625D02*
X155776736Y-106521175D01*
X155880280Y-106150011D02*
X155847871Y-106343625D01*
X155872050Y-105946800D02*
X155880280Y-106150011D01*
X155872063Y-105946663D02*
X155872050Y-105946800D01*
X155841470Y-105721354D02*
X155872063Y-105946663D01*
X155897832Y-105637983D02*
X155841470Y-105721354D01*
X155934764Y-105635224D02*
X155897832Y-105637983D01*
X145343165Y-105467657D02*
X145343164Y-105467655D01*
X145310092Y-105485296D02*
X145343165Y-105467657D01*
X145201916Y-105591405D02*
X145310092Y-105485296D01*
X145057877Y-105726753D02*
X145201916Y-105591405D01*
X144890481Y-105831965D02*
X145057877Y-105726753D01*
X144494431Y-105947902D02*
X144890481Y-105831965D01*
X144309543Y-105982445D02*
X144494431Y-105947902D01*
X144208901Y-106034994D02*
X144309543Y-105982445D01*
X144138759Y-106128425D02*
X144208901Y-106034994D01*
X144052356Y-106278493D02*
X144138759Y-106128425D01*
X143983041Y-106423462D02*
X144052356Y-106278493D01*
X143964713Y-106474450D02*
X143983041Y-106423462D01*
X143961957Y-106489195D02*
X143964713Y-106474450D01*
X143972706Y-106492363D02*
X143961957Y-106489195D01*
X144029068Y-106502008D02*
X143972706Y-106492363D01*
X144207248Y-106518959D02*
X144029068Y-106502008D01*
X144545555Y-106523919D02*
X144207248Y-106518959D01*
X144598334Y-106517308D02*
X144545555Y-106523919D01*
X144616111Y-106515791D02*
X144598334Y-106517308D01*
X144620796Y-106515650D02*
X144616111Y-106515791D01*
X144623415Y-106513999D02*
X144620796Y-106515650D01*
X144643534Y-106498702D02*
X144623415Y-106513999D01*
X144708164Y-106445372D02*
X144643534Y-106498702D01*
X144803386Y-106275322D02*
X144708164Y-106445372D01*
X144883312Y-106046982D02*
X144803386Y-106275322D01*
X145107381Y-105834075D02*
X144883312Y-106046982D01*
X145339718Y-105595537D02*
X145107381Y-105834075D01*
X145377476Y-105505551D02*
X145339718Y-105595537D01*
X145374721Y-105480608D02*
X145377476Y-105505551D01*
X145360527Y-105467655D02*
X145374721Y-105480608D01*
X145343164Y-105467655D02*
X145360527Y-105467655D01*
X145333509Y-105433599D02*
X145333517Y-105433618D01*
X145374575Y-105435250D02*
X145333509Y-105433599D01*
X145374720Y-105435262D02*
X145374575Y-105435250D01*
X145406553Y-105465442D02*
X145374720Y-105435262D01*
X145412617Y-105509263D02*
X145406553Y-105465442D01*
X145369484Y-105614269D02*
X145412617Y-105509263D01*
X145128465Y-105862178D02*
X145369484Y-105614269D01*
X144912251Y-106067092D02*
X145128465Y-105862178D01*
X144838389Y-106279034D02*
X144912251Y-106067092D01*
X144743993Y-106455837D02*
X144838389Y-106279034D01*
X144770589Y-106431170D02*
X144743993Y-106455837D01*
X144872150Y-106333329D02*
X144770589Y-106431170D01*
X144961861Y-106273660D02*
X144872150Y-106333329D01*
X145076100Y-106229011D02*
X144961861Y-106273660D01*
X145008300Y-106383627D02*
X145076100Y-106229011D01*
X144893510Y-106537830D02*
X145008300Y-106383627D01*
X144694383Y-106736267D02*
X144893510Y-106537830D01*
X144496773Y-106921889D02*
X144694383Y-106736267D01*
X144385841Y-107042743D02*
X144496773Y-106921889D01*
X144299438Y-107114263D02*
X144385841Y-107042743D01*
X144153228Y-107189779D02*
X144299438Y-107114263D01*
X143809683Y-107302640D02*
X144153228Y-107189779D01*
X143797557Y-107304841D02*
X143809683Y-107302640D01*
X143796041Y-107302224D02*
X143797557Y-107304841D01*
X143741746Y-107300432D02*
X143796041Y-107302224D01*
X143696409Y-107259917D02*
X143741746Y-107300432D01*
X143692550Y-107089454D02*
X143696409Y-107259917D01*
X143750214Y-106862936D02*
X143692550Y-107089454D01*
X143838622Y-106723584D02*
X143750214Y-106862936D01*
X143979466Y-106655984D02*
X143838622Y-106723584D01*
X144189607Y-106640902D02*
X143979466Y-106655984D01*
X144446158Y-106621865D02*
X144189607Y-106640902D01*
X144628925Y-106550503D02*
X144446158Y-106621865D01*
X144627409Y-106550926D02*
X144628925Y-106550503D01*
X144623275Y-106551067D02*
X144627409Y-106550926D01*
X144616661Y-106549275D02*
X144623275Y-106551067D01*
X144620381Y-106550651D02*
X144616661Y-106549275D01*
X144621759Y-106550792D02*
X144620381Y-106550651D01*
X144621900Y-106550933D02*
X144621759Y-106550792D01*
X144618041Y-106550933D02*
X144621900Y-106550933D01*
X144601918Y-106552309D02*
X144618041Y-106550933D01*
X144550518Y-106558786D02*
X144601918Y-106552309D01*
X144204905Y-106554101D02*
X144550518Y-106558786D01*
X144024382Y-106537013D02*
X144204905Y-106554101D01*
X143964713Y-106526816D02*
X144024382Y-106537013D01*
X143945145Y-106520889D02*
X143964713Y-106526816D01*
X143928333Y-106506144D02*
X143945145Y-106520889D01*
X143930675Y-106465217D02*
X143928333Y-106506144D01*
X143950381Y-106409958D02*
X143930675Y-106465217D01*
X144021212Y-106261956D02*
X143950381Y-106409958D01*
X144108993Y-106109545D02*
X144021212Y-106261956D01*
X144185199Y-106008811D02*
X144108993Y-106109545D01*
X144298201Y-105948846D02*
X144185199Y-106008811D01*
X144490296Y-105912899D02*
X144298201Y-105948846D01*
X144874612Y-105800604D02*
X144490296Y-105912899D01*
X145175456Y-105568114D02*
X144874612Y-105800604D01*
X145289558Y-105456631D02*
X145175456Y-105568114D01*
X145333517Y-105433618D02*
X145289558Y-105456631D01*
X153231187Y-105409765D02*
X153231192Y-105409778D01*
X153225536Y-105413759D02*
X153231187Y-105409765D01*
X153224971Y-105466262D02*
X153225536Y-105413759D01*
X153243161Y-105498645D02*
X153224971Y-105466262D01*
X153291392Y-105561208D02*
X153243161Y-105498645D01*
X153444355Y-105726022D02*
X153291392Y-105561208D01*
X153787625Y-106107737D02*
X153444355Y-105726022D01*
X153914289Y-106247354D02*
X153787625Y-106107737D01*
X154053172Y-106335940D02*
X153914289Y-106247354D01*
X154228102Y-106384760D02*
X154053172Y-106335940D01*
X154462725Y-106403050D02*
X154228102Y-106384760D01*
X154462887Y-106403044D02*
X154462725Y-106403050D01*
X154683649Y-106400151D02*
X154462887Y-106403044D01*
X154754618Y-106393540D02*
X154683649Y-106400151D01*
X154774323Y-106389546D02*
X154754618Y-106393540D01*
X154776250Y-106390111D02*
X154774323Y-106389546D01*
X154777350Y-106380740D02*
X154776250Y-106390111D01*
X154769495Y-106351801D02*
X154777350Y-106380740D01*
X154718784Y-106263056D02*
X154769495Y-106351801D01*
X154533162Y-106063929D02*
X154718784Y-106263056D01*
X154270143Y-105913879D02*
X154533162Y-106063929D01*
X153881902Y-105787082D02*
X154270143Y-105913879D01*
X153680757Y-105704363D02*
X153881902Y-105787082D01*
X153465872Y-105555158D02*
X153680757Y-105704363D01*
X153250072Y-105411429D02*
X153465872Y-105555158D01*
X153231192Y-105409778D02*
X153250072Y-105411429D01*
X153223191Y-105375325D02*
X153223200Y-105375326D01*
X153259157Y-105377392D02*
X153223191Y-105375325D01*
X153488325Y-105527874D02*
X153259157Y-105377392D01*
X153697982Y-105673495D02*
X153488325Y-105527874D01*
X153890712Y-105752908D02*
X153697982Y-105673495D01*
X154284058Y-105881279D02*
X153890712Y-105752908D01*
X154555065Y-106036233D02*
X154284058Y-105881279D01*
X154747715Y-106242801D02*
X154555065Y-106036233D01*
X154802285Y-106338712D02*
X154747715Y-106242801D01*
X154812483Y-106377986D02*
X154802285Y-106338712D01*
X154803250Y-106412850D02*
X154812483Y-106377986D01*
X154803250Y-106412975D02*
X154803250Y-106412850D01*
X154803112Y-106412982D02*
X154803250Y-106412975D01*
X154783957Y-106423454D02*
X154803112Y-106412982D01*
X154759841Y-106428414D02*
X154783957Y-106423454D01*
X154685703Y-106435442D02*
X154759841Y-106428414D01*
X154467974Y-106438200D02*
X154685703Y-106435442D01*
X154467691Y-106438482D02*
X154467974Y-106438200D01*
X154462040Y-106438341D02*
X154467691Y-106438482D01*
X154222354Y-106419596D02*
X154462040Y-106438341D01*
X154038982Y-106368199D02*
X154222354Y-106419596D01*
X153891437Y-106274012D02*
X154038982Y-106368199D01*
X153759517Y-106128972D02*
X153891437Y-106274012D01*
X153419555Y-105751114D02*
X153759517Y-106128972D01*
X153264388Y-105583820D02*
X153419555Y-105751114D01*
X153214089Y-105518639D02*
X153264388Y-105583820D01*
X153190250Y-105472750D02*
X153214089Y-105518639D01*
X153190266Y-105472616D02*
X153190250Y-105472750D01*
X153195501Y-105395308D02*
X153190266Y-105472616D01*
X153223200Y-105375326D02*
X153195501Y-105395308D01*
X143353824Y-105216308D02*
X143353825Y-105216301D01*
X143273347Y-105285209D02*
X143353824Y-105216308D01*
X143242341Y-105372026D02*
X143273347Y-105285209D01*
X143205272Y-105544005D02*
X143242341Y-105372026D01*
X143132925Y-106025077D02*
X143205272Y-105544005D01*
X143085383Y-106509595D02*
X143132925Y-106025077D01*
X143079319Y-106685845D02*
X143085383Y-106509595D01*
X143088276Y-106778312D02*
X143079319Y-106685845D01*
X143170959Y-106901095D02*
X143088276Y-106778312D01*
X143320751Y-107066184D02*
X143170959Y-106901095D01*
X143321854Y-107067285D02*
X143320751Y-107066184D01*
X143472060Y-107200679D02*
X143321854Y-107067285D01*
X143524288Y-107237059D02*
X143472060Y-107200679D01*
X143539584Y-107244638D02*
X143524288Y-107237059D01*
X143538757Y-107246014D02*
X143539584Y-107244638D01*
X143554467Y-107224103D02*
X143538757Y-107246014D01*
X143581752Y-107160850D02*
X143554467Y-107224103D01*
X143638527Y-106965721D02*
X143581752Y-107160850D01*
X143679868Y-106750746D02*
X143638527Y-106965721D01*
X143686483Y-106602056D02*
X143679868Y-106750746D01*
X143635495Y-106474941D02*
X143686483Y-106602056D01*
X143519465Y-106317354D02*
X143635495Y-106474941D01*
X143362133Y-106099373D02*
X143519465Y-106317354D01*
X143282718Y-105890439D02*
X143362133Y-106099373D01*
X143278624Y-105671591D02*
X143282718Y-105890439D01*
X143345281Y-105424524D02*
X143278624Y-105671591D01*
X143385244Y-105299674D02*
X143345281Y-105424524D01*
X143394477Y-105255990D02*
X143385244Y-105299674D01*
X143395717Y-105239867D02*
X143394477Y-105255990D01*
X143378354Y-105217543D02*
X143395717Y-105239867D01*
X143353825Y-105216301D02*
X143378354Y-105217543D01*
X143344591Y-105182266D02*
X143344592Y-105182264D01*
X143394752Y-105186260D02*
X143344591Y-105182266D01*
X143428652Y-105226912D02*
X143394752Y-105186260D01*
X143429478Y-105260949D02*
X143428652Y-105226912D01*
X143419419Y-105308492D02*
X143429478Y-105260949D01*
X143378353Y-105436925D02*
X143419419Y-105308492D01*
X143313533Y-105676211D02*
X143378353Y-105436925D01*
X143317306Y-105883685D02*
X143313533Y-105676211D01*
X143392984Y-106082337D02*
X143317306Y-105883685D01*
X143546198Y-106294340D02*
X143392984Y-106082337D01*
X143666240Y-106457215D02*
X143546198Y-106294340D01*
X143721209Y-106595580D02*
X143666240Y-106457215D01*
X143714870Y-106755569D02*
X143721209Y-106595580D01*
X143672840Y-106973989D02*
X143714870Y-106755569D01*
X143614963Y-107172977D02*
X143672840Y-106973989D01*
X143585473Y-107241052D02*
X143614963Y-107172977D01*
X143551573Y-107278948D02*
X143585473Y-107241052D01*
X143528146Y-107277981D02*
X143551573Y-107278948D01*
X143506649Y-107267646D02*
X143528146Y-107277981D01*
X143450425Y-107228510D02*
X143506649Y-107267646D01*
X143341836Y-107132184D02*
X143450425Y-107228510D01*
X143343489Y-107138111D02*
X143341836Y-107132184D01*
X143297187Y-107092498D02*
X143343489Y-107138111D01*
X143143398Y-106923275D02*
X143297187Y-107092498D01*
X143055204Y-106790984D02*
X143143398Y-106923275D01*
X143044042Y-106686252D02*
X143055204Y-106790984D01*
X143050243Y-106507384D02*
X143044042Y-106686252D01*
X143097923Y-106020661D02*
X143050243Y-106507384D01*
X143170546Y-105537521D02*
X143097923Y-106020661D01*
X143208166Y-105363062D02*
X143170546Y-105537521D01*
X143244684Y-105264808D02*
X143208166Y-105363062D01*
X143344592Y-105182264D02*
X143244684Y-105264808D01*
X155277564Y-105055490D02*
X155277567Y-105055484D01*
X155258685Y-105073680D02*
X155277564Y-105055490D01*
X155252074Y-105152228D02*
X155258685Y-105073680D01*
X155317254Y-105497288D02*
X155252074Y-105152228D01*
X155354683Y-105685142D02*
X155317254Y-105497288D01*
X155343851Y-105838075D02*
X155354683Y-105685142D01*
X155270929Y-106003388D02*
X155343851Y-105838075D01*
X155124054Y-106231368D02*
X155270929Y-106003388D01*
X155039304Y-106385821D02*
X155124054Y-106231368D01*
X155010366Y-106529298D02*
X155039304Y-106385821D01*
X155035725Y-106685130D02*
X155010366Y-106529298D01*
X155116612Y-106875598D02*
X155035725Y-106685130D01*
X155219828Y-107054604D02*
X155116612Y-106875598D01*
X155238155Y-107060390D02*
X155219828Y-107054604D01*
X155276878Y-107037238D02*
X155238155Y-107060390D01*
X155497088Y-106766731D02*
X155276878Y-107037238D01*
X155593965Y-106595165D02*
X155497088Y-106766731D01*
X155638613Y-106469902D02*
X155593965Y-106595165D01*
X155607883Y-106250518D02*
X155638613Y-106469902D01*
X155554277Y-106040092D02*
X155607883Y-106250518D01*
X155488821Y-105697512D02*
X155554277Y-106040092D01*
X155375959Y-105201004D02*
X155488821Y-105697512D01*
X155321113Y-105085525D02*
X155375959Y-105201004D01*
X155277567Y-105055484D02*
X155321113Y-105085525D01*
X155275639Y-105020196D02*
X155275500Y-105020206D01*
X155349502Y-105064569D02*
X155275639Y-105020196D01*
X155409309Y-105189281D02*
X155349502Y-105064569D01*
X155523686Y-105691576D02*
X155409309Y-105189281D01*
X155588867Y-106032641D02*
X155523686Y-105691576D01*
X155640819Y-106237693D02*
X155588867Y-106032641D01*
X155673617Y-106473613D02*
X155640819Y-106237693D01*
X155625799Y-106610452D02*
X155673617Y-106473613D01*
X155526856Y-106785601D02*
X155625799Y-106610452D01*
X155297412Y-107066031D02*
X155526856Y-106785601D01*
X155247803Y-107094280D02*
X155297412Y-107066031D01*
X155196264Y-107080776D02*
X155247803Y-107094280D01*
X155093463Y-106905489D02*
X155196264Y-107080776D01*
X155092496Y-106905913D02*
X155093463Y-106905489D01*
X155085192Y-106891581D02*
X155092496Y-106905913D01*
X155001908Y-106695352D02*
X155085192Y-106891581D01*
X154975088Y-106528881D02*
X155001908Y-106695352D01*
X155006360Y-106373501D02*
X154975088Y-106528881D01*
X155094839Y-106211519D02*
X155006360Y-106373501D01*
X155309813Y-105828976D02*
X155094839Y-106211519D01*
X155319574Y-105687669D02*
X155309813Y-105828976D01*
X155282941Y-105505964D02*
X155319574Y-105687669D01*
X155216795Y-105154014D02*
X155282941Y-105505964D01*
X155225476Y-105061410D02*
X155216795Y-105154014D01*
X155275500Y-105020206D02*
X155225476Y-105061410D01*
X143964575Y-104556770D02*
X143964575Y-104556771D01*
X143937152Y-104566968D02*
X143964575Y-104556770D01*
X143897051Y-104641106D02*
X143937152Y-104566968D01*
X143792871Y-105060444D02*
X143897051Y-104641106D01*
X143712670Y-105372431D02*
X143792871Y-105060444D01*
X143632192Y-105561636D02*
X143712670Y-105372431D01*
X143552955Y-105749325D02*
X143632192Y-105561636D01*
X143571696Y-105886852D02*
X143552955Y-105749325D01*
X143625853Y-106092594D02*
X143571696Y-105886852D01*
X143693377Y-106289928D02*
X143625853Y-106092594D01*
X143749463Y-106401963D02*
X143693377Y-106289928D01*
X143775232Y-106419877D02*
X143749463Y-106401963D01*
X143792182Y-106404168D02*
X143775232Y-106419877D01*
X143952336Y-106127751D02*
X143792182Y-106404168D01*
X144027826Y-105941560D02*
X143952336Y-106127751D01*
X144034877Y-105783394D02*
X144027826Y-105941560D01*
X143987863Y-105587405D02*
X144034877Y-105783394D01*
X143936838Y-105312768D02*
X143987863Y-105587405D01*
X143955893Y-104941380D02*
X143936838Y-105312768D01*
X143973532Y-104651718D02*
X143955893Y-104941380D01*
X143968709Y-104572205D02*
X143973532Y-104651718D01*
X143964575Y-104556771D02*
X143968709Y-104572205D01*
X143974772Y-104520663D02*
X143974772Y-104520667D01*
X143995994Y-104539404D02*
X143974772Y-104520663D01*
X144003435Y-104566276D02*
X143995994Y-104539404D01*
X144008810Y-104651576D02*
X144003435Y-104566276D01*
X143991033Y-104944961D02*
X144008810Y-104651576D01*
X143971700Y-105310124D02*
X143991033Y-104944961D01*
X144021763Y-105577344D02*
X143971700Y-105310124D01*
X144069830Y-105779807D02*
X144021763Y-105577344D01*
X144062140Y-105949826D02*
X144069830Y-105779807D01*
X143983932Y-106143993D02*
X144062140Y-105949826D01*
X143822361Y-106422494D02*
X143983932Y-106143993D01*
X143775508Y-106455153D02*
X143822361Y-106422494D01*
X143723418Y-106425663D02*
X143775508Y-106455153D01*
X143719835Y-106418636D02*
X143723418Y-106425663D01*
X143660580Y-106302881D02*
X143719835Y-106418636D01*
X143592091Y-106102790D02*
X143660580Y-106302881D01*
X143537245Y-105894431D02*
X143592091Y-106102790D01*
X143517815Y-105746843D02*
X143537245Y-105894431D01*
X143604494Y-105539862D02*
X143517815Y-105746843D01*
X143679045Y-105361820D02*
X143604494Y-105539862D01*
X143758420Y-105053415D02*
X143679045Y-105361820D01*
X143864116Y-104628705D02*
X143758420Y-105053415D01*
X143911796Y-104542302D02*
X143864116Y-104628705D01*
X143974772Y-104520667D02*
X143911796Y-104542302D01*
X145478349Y-104422550D02*
X145478350Y-104422550D01*
X145424881Y-104425995D02*
X145478349Y-104422550D01*
X145333380Y-104470368D02*
X145424881Y-104425995D01*
X145092774Y-104667978D02*
X145333380Y-104470368D01*
X144853685Y-104869447D02*
X145092774Y-104667978D01*
X144607154Y-104915061D02*
X144853685Y-104869447D01*
X144363655Y-104958331D02*
X144607154Y-104915061D01*
X144206283Y-105090071D02*
X144363655Y-104958331D01*
X144124262Y-105332319D02*
X144206283Y-105090071D01*
X144150335Y-105670086D02*
X144124262Y-105332319D01*
X144183683Y-105814643D02*
X144150335Y-105670086D01*
X144339402Y-105788322D02*
X144183683Y-105814643D01*
X144597398Y-105724036D02*
X144339402Y-105788322D01*
X144771004Y-105627918D02*
X144597398Y-105724036D01*
X144876150Y-105489192D02*
X144771004Y-105627918D01*
X144928100Y-105293193D02*
X144876150Y-105489192D01*
X144972629Y-105117979D02*
X144928100Y-105293193D01*
X145058566Y-104946631D02*
X144972629Y-105117979D01*
X145341373Y-104634906D02*
X145058566Y-104946631D01*
X145484137Y-104485251D02*
X145341373Y-104634906D01*
X145496264Y-104442532D02*
X145484137Y-104485251D01*
X145478350Y-104422550D02*
X145496264Y-104442532D01*
X154630992Y-104398140D02*
X154631000Y-104398155D01*
X154609494Y-104453262D02*
X154630992Y-104398140D01*
X154641051Y-104781924D02*
X154609494Y-104453262D01*
X154674262Y-105025286D02*
X154641051Y-104781924D01*
X154674403Y-105197816D02*
X154674262Y-105025286D01*
X154599989Y-105663316D02*
X154674403Y-105197816D01*
X154669028Y-105928588D02*
X154599989Y-105663316D01*
X154752675Y-106105666D02*
X154669028Y-105928588D01*
X154824609Y-106208743D02*
X154752675Y-106105666D01*
X154824750Y-106209025D02*
X154824609Y-106208743D01*
X154824890Y-106209034D02*
X154824750Y-106209025D01*
X154886763Y-106245001D02*
X154824890Y-106209034D01*
X154926589Y-106236870D02*
X154886763Y-106245001D01*
X155002105Y-106059380D02*
X154926589Y-106236870D01*
X155029886Y-105634710D02*
X155002105Y-106059380D01*
X154937062Y-105211610D02*
X155029886Y-105634710D01*
X154782860Y-104699807D02*
X154937062Y-105211610D01*
X154718919Y-104468848D02*
X154782860Y-104699807D01*
X154670687Y-104399671D02*
X154718919Y-104468848D01*
X154631000Y-104398155D02*
X154670687Y-104399671D01*
X145492399Y-104390309D02*
X145492400Y-104390300D01*
X145531122Y-104437162D02*
X145492399Y-104390309D01*
X145515137Y-104502205D02*
X145531122Y-104437162D01*
X145363415Y-104662333D02*
X145515137Y-104502205D01*
X145088605Y-104965265D02*
X145363415Y-104662333D01*
X145005744Y-105130301D02*
X145088605Y-104965265D01*
X144963095Y-105297608D02*
X145005744Y-105130301D01*
X144907643Y-105504362D02*
X144963095Y-105297608D01*
X144793734Y-105654933D02*
X144907643Y-105504362D01*
X144609921Y-105757230D02*
X144793734Y-105654933D01*
X144345322Y-105823192D02*
X144609921Y-105757230D01*
X144330852Y-105825675D02*
X144345322Y-105823192D01*
X144330844Y-105825527D02*
X144330852Y-105825675D01*
X144156798Y-105855017D02*
X144330844Y-105825527D01*
X144115870Y-105678078D02*
X144156798Y-105855017D01*
X144088277Y-105328502D02*
X144115870Y-105678078D01*
X144118551Y-105183561D02*
X144088277Y-105328502D01*
X144178157Y-105068573D02*
X144118551Y-105183561D01*
X144349447Y-104926084D02*
X144178157Y-105068573D01*
X144606037Y-104879782D02*
X144349447Y-104926084D01*
X144837685Y-104838027D02*
X144606037Y-104879782D01*
X145067818Y-104643172D02*
X144837685Y-104838027D01*
X145314900Y-104440325D02*
X145067818Y-104643172D01*
X145414400Y-104392225D02*
X145314900Y-104440325D01*
X145492400Y-104390300D02*
X145414400Y-104392225D01*
X154684742Y-104367279D02*
X154684725Y-104367299D01*
X154751852Y-104455887D02*
X154684742Y-104367279D01*
X154817171Y-104691807D02*
X154751852Y-104455887D01*
X154969995Y-105198787D02*
X154817171Y-104691807D01*
X155065387Y-105631951D02*
X154969995Y-105198787D01*
X155036417Y-106067364D02*
X155065387Y-105631951D01*
X154948222Y-106264699D02*
X155036417Y-106067364D01*
X154878632Y-106279306D02*
X154948222Y-106264699D01*
X154808076Y-106239343D02*
X154878632Y-106279306D01*
X154805042Y-106238518D02*
X154808076Y-106239343D01*
X154802425Y-106236175D02*
X154805042Y-106238518D01*
X154802289Y-106236192D02*
X154802425Y-106236175D01*
X154721949Y-106122917D02*
X154802289Y-106236192D01*
X154636235Y-105941567D02*
X154721949Y-106122917D01*
X154564715Y-105663067D02*
X154636235Y-105941567D01*
X154639818Y-105191090D02*
X154564715Y-105663067D01*
X154639113Y-105028205D02*
X154639818Y-105191090D01*
X154606315Y-104788565D02*
X154639113Y-105028205D01*
X154574482Y-104448465D02*
X154606315Y-104788565D01*
X154609209Y-104370468D02*
X154574482Y-104448465D01*
X154684725Y-104367299D02*
X154609209Y-104370468D01*
X153113627Y-104363544D02*
X153113625Y-104363578D01*
X153078763Y-104384766D02*
X153113627Y-104363544D01*
X153086342Y-104403783D02*
X153078763Y-104384766D01*
X153126581Y-104460007D02*
X153086342Y-104403783D01*
X153305450Y-104644250D02*
X153126581Y-104460007D01*
X153305451Y-104644408D02*
X153305450Y-104644250D01*
X153538836Y-104892770D02*
X153305451Y-104644408D01*
X153678898Y-105190523D02*
X153538836Y-104892770D01*
X153778536Y-105418187D02*
X153678898Y-105190523D01*
X153876922Y-105566316D02*
X153778536Y-105418187D01*
X153998311Y-105663890D02*
X153876922Y-105566316D01*
X154170030Y-105740500D02*
X153998311Y-105663890D01*
X154171681Y-105741064D02*
X154170030Y-105740500D01*
X154351790Y-105793981D02*
X154171681Y-105741064D01*
X154448528Y-105783094D02*
X154351790Y-105793981D01*
X154497035Y-105698482D02*
X154448528Y-105783094D01*
X154520187Y-105511896D02*
X154497035Y-105698482D01*
X154511936Y-105226552D02*
X154520187Y-105511896D01*
X154437091Y-105040194D02*
X154511936Y-105226552D01*
X154277899Y-104925074D02*
X154437091Y-105040194D01*
X154011691Y-104856777D02*
X154277899Y-104925074D01*
X153731702Y-104786110D02*
X154011691Y-104856777D01*
X153488451Y-104600049D02*
X153731702Y-104786110D01*
X153199064Y-104387969D02*
X153488451Y-104600049D01*
X153113625Y-104363578D02*
X153199064Y-104387969D01*
X153112541Y-104328301D02*
X153112525Y-104328300D01*
X153214240Y-104356137D02*
X153112541Y-104328301D01*
X153512172Y-104573867D02*
X153214240Y-104356137D01*
X153746376Y-104755452D02*
X153512172Y-104573867D01*
X154017085Y-104821914D02*
X153746376Y-104755452D01*
X154292567Y-104892925D02*
X154017085Y-104821914D01*
X154464947Y-105018560D02*
X154292567Y-104892925D01*
X154546694Y-105219784D02*
X154464947Y-105018560D01*
X154555347Y-105514102D02*
X154546694Y-105219784D01*
X154531231Y-105707303D02*
X154555347Y-105514102D01*
X154467979Y-105812585D02*
X154531231Y-105707303D01*
X154346299Y-105828846D02*
X154467979Y-105812585D01*
X154194990Y-105784611D02*
X154346299Y-105828846D01*
X154196090Y-105787645D02*
X154194990Y-105784611D01*
X154160262Y-105774416D02*
X154196090Y-105787645D01*
X154159697Y-105774275D02*
X154160262Y-105774416D01*
X154159556Y-105774275D02*
X154159697Y-105774275D01*
X153980725Y-105694410D02*
X154159556Y-105774275D01*
X153850601Y-105589894D02*
X153980725Y-105694410D01*
X153747193Y-105434727D02*
X153850601Y-105589894D01*
X153645962Y-105203354D02*
X153747193Y-105434727D01*
X153510257Y-104912086D02*
X153645962Y-105203354D01*
X153281334Y-104670054D02*
X153510257Y-104912086D01*
X153099295Y-104482503D02*
X153281334Y-104670054D01*
X153055198Y-104420491D02*
X153099295Y-104482503D01*
X153046516Y-104370744D02*
X153055198Y-104420491D01*
X153112525Y-104328300D02*
X153046516Y-104370744D01*
D11*
X71024285Y-96410714D02*
X71095714Y-96482142D01*
X71310000Y-96553571D01*
X71452857Y-96553571D01*
X71667142Y-96482142D01*
X71810000Y-96339285D01*
X71881428Y-96196428D01*
X71952857Y-95910714D01*
X71952857Y-95696428D01*
X71881428Y-95410714D01*
X71810000Y-95267857D01*
X71667142Y-95125000D01*
X71452857Y-95053571D01*
X71310000Y-95053571D01*
X71095714Y-95125000D01*
X71024285Y-95196428D01*
X69524285Y-96553571D02*
X70024285Y-95839285D01*
X70381428Y-96553571D02*
X70381428Y-95053571D01*
X69810000Y-95053571D01*
X69667142Y-95125000D01*
X69595714Y-95196428D01*
X69524285Y-95339285D01*
X69524285Y-95553571D01*
X69595714Y-95696428D01*
X69667142Y-95767857D01*
X69810000Y-95839285D01*
X70381428Y-95839285D01*
X68952857Y-95196428D02*
X68881428Y-95125000D01*
X68738571Y-95053571D01*
X68381428Y-95053571D01*
X68238571Y-95125000D01*
X68167142Y-95196428D01*
X68095714Y-95339285D01*
X68095714Y-95482142D01*
X68167142Y-95696428D01*
X69024285Y-96553571D01*
X68095714Y-96553571D01*
X67167142Y-95053571D02*
X67024285Y-95053571D01*
X66881428Y-95125000D01*
X66810000Y-95196428D01*
X66738571Y-95339285D01*
X66667142Y-95625000D01*
X66667142Y-95982142D01*
X66738571Y-96267857D01*
X66810000Y-96410714D01*
X66881428Y-96482142D01*
X67024285Y-96553571D01*
X67167142Y-96553571D01*
X67310000Y-96482142D01*
X67381428Y-96410714D01*
X67452857Y-96267857D01*
X67524285Y-95982142D01*
X67524285Y-95625000D01*
X67452857Y-95339285D01*
X67381428Y-95196428D01*
X67310000Y-95125000D01*
X67167142Y-95053571D01*
X66167142Y-95053571D02*
X65238571Y-95053571D01*
X65738571Y-95625000D01*
X65524285Y-95625000D01*
X65381428Y-95696428D01*
X65310000Y-95767857D01*
X65238571Y-95910714D01*
X65238571Y-96267857D01*
X65310000Y-96410714D01*
X65381428Y-96482142D01*
X65524285Y-96553571D01*
X65952857Y-96553571D01*
X66095714Y-96482142D01*
X66167142Y-96410714D01*
X64667142Y-95196428D02*
X64595714Y-95125000D01*
X64452857Y-95053571D01*
X64095714Y-95053571D01*
X63952857Y-95125000D01*
X63881428Y-95196428D01*
X63810000Y-95339285D01*
X63810000Y-95482142D01*
X63881428Y-95696428D01*
X64738571Y-96553571D01*
X63810000Y-96553571D01*
X68452857Y-97603571D02*
X67524285Y-97603571D01*
X68024285Y-98175000D01*
X67810000Y-98175000D01*
X67667142Y-98246428D01*
X67595714Y-98317857D01*
X67524285Y-98460714D01*
X67524285Y-98817857D01*
X67595714Y-98960714D01*
X67667142Y-99032142D01*
X67810000Y-99103571D01*
X68238571Y-99103571D01*
X68381428Y-99032142D01*
X68452857Y-98960714D01*
X67095714Y-97603571D02*
X66595714Y-99103571D01*
X66095714Y-97603571D01*
X71274285Y-100867857D02*
X71774285Y-100867857D01*
X71774285Y-101653571D02*
X71774285Y-100153571D01*
X71060000Y-100153571D01*
X70202857Y-100153571D02*
X69917142Y-100153571D01*
X69774285Y-100225000D01*
X69631428Y-100367857D01*
X69560000Y-100653571D01*
X69560000Y-101153571D01*
X69631428Y-101439285D01*
X69774285Y-101582142D01*
X69917142Y-101653571D01*
X70202857Y-101653571D01*
X70345714Y-101582142D01*
X70488571Y-101439285D01*
X70560000Y-101153571D01*
X70560000Y-100653571D01*
X70488571Y-100367857D01*
X70345714Y-100225000D01*
X70202857Y-100153571D01*
X68060000Y-101653571D02*
X68560000Y-100939285D01*
X68917142Y-101653571D02*
X68917142Y-100153571D01*
X68345714Y-100153571D01*
X68202857Y-100225000D01*
X68131428Y-100296428D01*
X68060000Y-100439285D01*
X68060000Y-100653571D01*
X68131428Y-100796428D01*
X68202857Y-100867857D01*
X68345714Y-100939285D01*
X68917142Y-100939285D01*
X65417142Y-101653571D02*
X65917142Y-100939285D01*
X66274285Y-101653571D02*
X66274285Y-100153571D01*
X65702857Y-100153571D01*
X65560000Y-100225000D01*
X65488571Y-100296428D01*
X65417142Y-100439285D01*
X65417142Y-100653571D01*
X65488571Y-100796428D01*
X65560000Y-100867857D01*
X65702857Y-100939285D01*
X66274285Y-100939285D01*
X64988571Y-100153571D02*
X64131428Y-100153571D01*
X64560000Y-101653571D02*
X64560000Y-100153571D01*
X62774285Y-101510714D02*
X62845714Y-101582142D01*
X63060000Y-101653571D01*
X63202857Y-101653571D01*
X63417142Y-101582142D01*
X63560000Y-101439285D01*
X63631428Y-101296428D01*
X63702857Y-101010714D01*
X63702857Y-100796428D01*
X63631428Y-100510714D01*
X63560000Y-100367857D01*
X63417142Y-100225000D01*
X63202857Y-100153571D01*
X63060000Y-100153571D01*
X62845714Y-100225000D01*
X62774285Y-100296428D01*
D12*
X129895600Y-109931200D02*
X128879600Y-109931200D01*
D13*
X125693600Y-109650640D02*
X125209200Y-109650640D01*
X125209200Y-109650640D02*
X125209200Y-109274530D01*
X125209200Y-108898350D02*
X125874200Y-108898350D01*
X125874200Y-108898350D02*
X126539200Y-108898350D01*
X125209200Y-109274530D02*
X125209200Y-108898350D01*
X125209200Y-110934020D02*
X125694300Y-110934020D01*
X126177300Y-109650710D02*
X125693600Y-109650640D01*
X126228400Y-111011440D02*
X126263401Y-111054630D01*
X126100300Y-110947950D02*
X126228400Y-111011440D01*
X125209200Y-111310130D02*
X125209200Y-110934020D01*
X126538500Y-111686310D02*
X125874200Y-111686310D01*
X125874200Y-111686310D02*
X125209200Y-111686310D01*
X125694300Y-110934020D02*
X126100300Y-110947950D01*
X125209200Y-111686310D02*
X125209200Y-111310130D01*
X129899900Y-112925380D02*
X131582000Y-112925380D01*
X127344900Y-108175459D02*
X127289600Y-107907430D01*
X131582000Y-107615040D02*
X129899900Y-107615040D01*
X127289600Y-112659870D02*
X127305700Y-112394360D01*
X123882000Y-110270210D02*
X123882000Y-112925380D01*
X127289600Y-107907430D02*
X127289600Y-107615040D01*
X127289600Y-107615040D02*
X125585800Y-107615040D01*
X129899900Y-107924860D02*
X129880300Y-108234610D01*
X133263401Y-107615040D02*
X131582000Y-107615040D01*
X133263401Y-110270210D02*
X133263401Y-107615040D01*
X125585800Y-112925380D02*
X127289600Y-112925380D01*
X123882000Y-107615040D02*
X123882000Y-110270210D01*
X131582000Y-112925380D02*
X133263401Y-112925380D01*
X129899900Y-112637680D02*
X129899900Y-112925380D01*
X123882000Y-112925380D02*
X125585800Y-112925380D01*
X133263401Y-112925380D02*
X133263401Y-110270210D01*
X127289600Y-112925380D02*
X127289600Y-112659870D01*
X129899900Y-107615040D02*
X129899900Y-107924860D01*
X129876800Y-112350050D02*
X129899900Y-112637680D01*
X125585800Y-107615040D02*
X123882000Y-107615040D01*
X134959500Y-112272630D02*
X135205900Y-111619880D01*
X136536600Y-107612730D02*
X135890500Y-107624979D01*
X138529500Y-107758890D02*
X138529500Y-107615040D01*
X134723600Y-108286200D02*
X134723600Y-107615040D01*
X133440500Y-110270210D02*
X133440500Y-112925380D01*
X133440500Y-107615040D02*
X133440500Y-110270210D01*
X138529500Y-107615040D02*
X137919800Y-107615040D01*
X134076800Y-112925380D02*
X134713100Y-112925380D01*
X134082400Y-107615040D02*
X133440500Y-107615040D01*
X137614600Y-110414060D02*
X138529500Y-107758890D01*
X134723600Y-107615040D02*
X134082400Y-107615040D01*
X135208701Y-112272630D02*
X135210800Y-112925380D01*
X133440500Y-112925380D02*
X134076800Y-112925380D01*
X136560400Y-109598630D02*
X136548501Y-108605680D01*
X135244400Y-107637160D02*
X135009200Y-108271919D01*
X135009200Y-108271919D02*
X134748800Y-108932020D01*
X135210800Y-112925380D02*
X135954900Y-112925380D01*
X134748800Y-108932020D02*
X134723600Y-108286200D01*
X136699701Y-112925380D02*
X137614600Y-110414060D01*
X135954900Y-112925380D02*
X136699701Y-112925380D01*
X134713100Y-112925380D02*
X134959500Y-112272630D01*
X135890500Y-107624979D02*
X135244400Y-107637160D01*
X136934900Y-108606870D02*
X136560400Y-109598630D01*
X137309400Y-107615040D02*
X136934900Y-108606870D01*
X135205900Y-111619880D02*
X135208701Y-112272630D01*
X136548501Y-108605680D02*
X136536600Y-107612730D01*
X137919800Y-107615040D02*
X137309400Y-107615040D01*
X126028201Y-113051660D02*
X125595600Y-113505050D01*
X128816300Y-115329390D02*
X129456100Y-115241260D01*
X128590900Y-114009610D02*
X127868500Y-113948150D01*
X131715000Y-114496390D02*
X131862700Y-114603700D01*
X131372000Y-114491630D02*
X131582700Y-114370180D01*
X130090301Y-115073960D02*
X131372000Y-114491630D01*
X128484500Y-115330650D02*
X128816300Y-115329390D01*
X125870700Y-114537270D02*
X126558100Y-114913520D01*
X129346900Y-113911960D02*
X128590900Y-114009610D01*
X130670600Y-113123060D02*
X130787500Y-113276570D01*
X131440600Y-112969620D02*
X130553700Y-112969620D01*
X132022300Y-114061270D02*
X132247000Y-113253680D01*
X132328201Y-112969620D02*
X131440600Y-112969620D01*
X126558100Y-114913520D02*
X127320401Y-115163560D01*
X131862700Y-114603700D02*
X132022300Y-114061270D01*
X130553700Y-112969620D02*
X130670600Y-113123060D01*
X131582700Y-114370180D02*
X131715000Y-114496390D01*
X127320401Y-115163560D02*
X128484500Y-115330650D01*
X127162201Y-113724080D02*
X126453800Y-113333900D01*
X125595600Y-113505050D02*
X125163001Y-113958510D01*
X127868500Y-113948150D02*
X127162201Y-113724080D01*
X130015400Y-113686420D02*
X129346900Y-113911960D01*
X130787500Y-113276570D02*
X130613200Y-113391930D01*
X129456100Y-115241260D02*
X130090301Y-115073960D01*
X126453800Y-113333900D02*
X126028201Y-113051660D01*
X130613200Y-113391930D02*
X130015400Y-113686420D01*
X132247000Y-113253680D02*
X132328201Y-112969620D01*
X125307901Y-114109430D02*
X125870700Y-114537270D01*
X128816300Y-115329390D02*
X128816300Y-115329390D01*
X125163001Y-113958510D02*
X125307901Y-114109430D01*
X127974900Y-110513600D02*
X127881100Y-110464600D01*
X129960100Y-110004700D02*
X129703900Y-109442250D01*
X118615900Y-105264440D02*
X138529500Y-105264440D01*
X138529500Y-105264440D02*
X138529500Y-115335480D01*
X128260500Y-109935260D02*
X127998000Y-109996860D01*
X118615900Y-115335480D02*
X118615900Y-105264440D01*
X130951545Y-110242350D02*
G75*
G03*
X130951545Y-110242350I-2401945J0D01*
G01*
X138529500Y-115335480D02*
X118615900Y-115335480D01*
X127541600Y-106700000D02*
X127976300Y-106600180D01*
X119279500Y-109686340D02*
X119728200Y-110900770D01*
X122421800Y-109650640D02*
X120850300Y-109650640D01*
X123085400Y-112925380D02*
X123704900Y-112925380D01*
X129745200Y-105376230D02*
X129262900Y-105281939D01*
X131467200Y-107184680D02*
X131906800Y-106702380D01*
X122465900Y-110978260D02*
X122465900Y-111951820D01*
X126476200Y-107418900D02*
X126360000Y-107267000D01*
X129634600Y-106703570D02*
X130322000Y-106992109D01*
X126950800Y-106924979D02*
X127541600Y-106700000D01*
X130697200Y-105744150D02*
X129745200Y-105376230D01*
X130909300Y-107350440D02*
X131143801Y-107528799D01*
X129262900Y-105281939D02*
X128630100Y-105264510D01*
X128630100Y-105264510D02*
X127946201Y-105295940D01*
X130322000Y-106992109D02*
X130909300Y-107350440D01*
X119972500Y-110966220D02*
X121117700Y-110978260D01*
X121117700Y-110978260D02*
X122465900Y-110978260D01*
X126481800Y-107181110D02*
X126950800Y-106924979D01*
X122465900Y-112925380D02*
X123085400Y-112925380D01*
X126591700Y-107570800D02*
X126476200Y-107418900D01*
X126360000Y-107267000D02*
X126481800Y-107181110D01*
X120850300Y-109650640D02*
X119279500Y-109686340D01*
X125718801Y-107570800D02*
X126591700Y-107570800D01*
X125531200Y-106182280D02*
X125447900Y-106057960D01*
X124981000Y-107558970D02*
X125718801Y-107570800D01*
X124865500Y-107493380D02*
X124981000Y-107558970D01*
X128595100Y-106580090D02*
X129213900Y-106598990D01*
X132023000Y-106564060D02*
X131636600Y-106288610D01*
X125447900Y-106057960D02*
X125339400Y-105933570D01*
X123704900Y-112925380D02*
X123704900Y-110270210D01*
X127976300Y-106600180D02*
X128595100Y-106580090D01*
X122465900Y-111951820D02*
X122465900Y-112925380D01*
X125339400Y-105933570D02*
X124865500Y-107493380D01*
X126111500Y-105889680D02*
X125531200Y-106182280D01*
X126768801Y-105588260D02*
X126111500Y-105889680D01*
X127352600Y-105397090D02*
X126768801Y-105588260D01*
X129213900Y-106598990D02*
X129634600Y-106703570D01*
X119728200Y-110900770D02*
X119972500Y-110966220D01*
X127946201Y-105295940D02*
X127352600Y-105397090D01*
X131636600Y-106288610D02*
X130697200Y-105744150D01*
X131906800Y-106702380D02*
X132023000Y-106564060D01*
X131143801Y-107528799D02*
X131467200Y-107184680D01*
X130584500Y-108898350D02*
X131282400Y-108898350D01*
X131980300Y-111686310D02*
X131277500Y-111686310D01*
X131980300Y-110978260D02*
X131980300Y-111332250D01*
X131277500Y-111686310D02*
X130575400Y-111686310D01*
X123704900Y-107615040D02*
X121160400Y-107615040D01*
X131460200Y-109650220D02*
X130940100Y-109649800D01*
X131980300Y-109650640D02*
X131460200Y-109650220D01*
X122421800Y-109274530D02*
X122421800Y-109650640D01*
X131980300Y-111332250D02*
X131980300Y-111686310D01*
X122421800Y-108898350D02*
X122421800Y-109274530D01*
X120701900Y-108898350D02*
X122421800Y-108898350D01*
X118982000Y-108898350D02*
X120701900Y-108898350D01*
X118798600Y-108378390D02*
X118982000Y-108898350D01*
X131980300Y-109274530D02*
X131980300Y-109650640D01*
X118615900Y-107615040D02*
X118615900Y-107736770D01*
X121160400Y-107615040D02*
X118615900Y-107615040D01*
X131980300Y-108898350D02*
X131980300Y-109274530D01*
X131282400Y-108898350D02*
X131980300Y-108898350D01*
X131453900Y-110978260D02*
X131980300Y-110978260D01*
X118615900Y-107736770D02*
X118798600Y-108378390D01*
X123704900Y-110270210D02*
X123704900Y-107615040D01*
X130928201Y-110978260D02*
X131453900Y-110978260D01*
X129901300Y-109652459D02*
X129901300Y-109652459D01*
X128306701Y-110753490D02*
X127919601Y-110988060D01*
X129148101Y-111135060D02*
X128871601Y-110998840D01*
X128871601Y-110998840D02*
X128285000Y-110678380D01*
X128788300Y-110858910D02*
X129148101Y-111135060D01*
X127998000Y-109996860D02*
X128378100Y-110292330D01*
X127855200Y-110516330D02*
X128081301Y-110622100D01*
X127475101Y-111182660D02*
X127253900Y-111146400D01*
X127253900Y-111146400D02*
X127253900Y-111146400D01*
X128285000Y-110678380D02*
X128285000Y-110678380D01*
X128593700Y-110579960D02*
X128429200Y-110602079D01*
X128285000Y-110678380D02*
X127974900Y-110513600D01*
X130046201Y-109820810D02*
X129901300Y-109652459D01*
X130100101Y-109816959D02*
X130046201Y-109820810D01*
X130121800Y-109745700D02*
X130100101Y-109816959D01*
X127919601Y-110988060D02*
X127475101Y-111182660D01*
X128378100Y-110292330D02*
X128758200Y-110557840D01*
X127528300Y-110691610D02*
X127855200Y-110516330D01*
X128429200Y-110602079D02*
X128788300Y-110858910D01*
X130023800Y-109522190D02*
X130121800Y-109745700D01*
X129867000Y-109351670D02*
X130023800Y-109522190D01*
X128081301Y-110622100D02*
X128306701Y-110753490D01*
X129815200Y-109417470D02*
X129867000Y-109351670D01*
X129901300Y-109652459D02*
X129815200Y-109417470D01*
X128758200Y-110557840D02*
X128593700Y-110579960D01*
X128378100Y-109080630D02*
X128334700Y-109219230D01*
X128717600Y-112013840D02*
X128807901Y-111884060D01*
X127676000Y-111828200D02*
X127810400Y-111878319D01*
X128567100Y-112040300D02*
X128717600Y-112013840D01*
X127570300Y-111734540D02*
X127676000Y-111828200D01*
X127168500Y-110933390D02*
X127195801Y-111165160D01*
X128260500Y-109935260D02*
X128191901Y-109913560D01*
X127400901Y-110017300D02*
X127320401Y-109944220D01*
X127286801Y-109650710D02*
X127660601Y-109805550D01*
X128329801Y-109429440D02*
X128238100Y-109465489D01*
X127732000Y-111154870D02*
X128061001Y-110967620D01*
X128997600Y-111129740D02*
X129205500Y-111290320D01*
X127660601Y-109805550D02*
X127486300Y-109828230D01*
X127648700Y-109469969D02*
X127281200Y-109482920D01*
X127253900Y-111146400D02*
X127200700Y-110980080D01*
X128468400Y-111387550D02*
X128443200Y-111460420D01*
X128807901Y-111884060D02*
X128807901Y-111884060D01*
X127567500Y-111562550D02*
X127570300Y-111734540D01*
X127358200Y-111243770D02*
X127533900Y-111322520D01*
X127015900Y-110017300D02*
X126837400Y-110125660D01*
X127895801Y-110218900D02*
X128081301Y-110334189D01*
X128247900Y-109706010D02*
X128260500Y-109935260D01*
X128350800Y-108985220D02*
X128378100Y-109080630D01*
X128439700Y-109385130D02*
X128329801Y-109429440D01*
X128334700Y-109219230D02*
X128372500Y-109340890D01*
X126913001Y-109495800D02*
X127286801Y-109650710D01*
X127414901Y-110299750D02*
X127400901Y-110017300D01*
X126829700Y-110432820D02*
X126975300Y-110517030D01*
X126804500Y-110281620D02*
X126829700Y-110432820D01*
X127486300Y-109828230D02*
X127311300Y-109850980D01*
X128191901Y-109913560D02*
X127878300Y-109657290D01*
X128372500Y-109340890D02*
X128439700Y-109385130D01*
X126837400Y-110125660D02*
X126804500Y-110281620D01*
X128736500Y-111023550D02*
X128997600Y-111129740D01*
X128205200Y-111711160D02*
X128345200Y-111885600D01*
X127771201Y-110506110D02*
X127437300Y-110654160D01*
X127969300Y-111792500D02*
X128205200Y-111711160D01*
X127878300Y-109657290D02*
X127648700Y-109469969D01*
X127510800Y-109977330D02*
X127895801Y-110218900D01*
X127260900Y-110855480D02*
X127528300Y-110691610D01*
X127200700Y-110980080D02*
X127260900Y-110855480D01*
X128419400Y-112015170D02*
X128567100Y-112040300D01*
X127195801Y-111165160D02*
X127358200Y-111243770D01*
X127533900Y-111322520D02*
X127567500Y-111562550D01*
X127810400Y-111878319D02*
X127969300Y-111792500D01*
X127157300Y-110656190D02*
X127168500Y-110933390D01*
X127281200Y-109482920D02*
X126913001Y-109495800D01*
X128212900Y-111398050D02*
X128212900Y-111398050D01*
X128418700Y-111057500D02*
X128468400Y-111387550D01*
X128081301Y-110334189D02*
X127771201Y-110506110D01*
X128443200Y-111460420D02*
X128212900Y-111398050D01*
X128390000Y-110804870D02*
X128418700Y-111057500D01*
X128061001Y-110967620D02*
X128390000Y-110804870D01*
X128212900Y-111398050D02*
X127732000Y-111154870D01*
X128717600Y-111462940D02*
X128690301Y-111254830D01*
X127320401Y-109944220D02*
X127015900Y-110017300D01*
X129205500Y-111290320D02*
X128717600Y-111462940D01*
X127437300Y-110654160D02*
X127414901Y-110299750D01*
X128238100Y-109465489D02*
X128247900Y-109706010D01*
X128690301Y-111254830D02*
X128736500Y-111023550D01*
X128345200Y-111885600D02*
X128419400Y-112015170D01*
X126975300Y-110517030D02*
X127157300Y-110656190D01*
X127311300Y-109850980D02*
X127510800Y-109977330D01*
X128771500Y-109340890D02*
X128833100Y-109325350D01*
X128815600Y-110640300D02*
X128863200Y-110584370D01*
X130043400Y-111274360D02*
X130120401Y-111157600D01*
X129580700Y-111608750D02*
X129621300Y-111484360D01*
X128833100Y-109325350D02*
X128798800Y-109180590D01*
X128821201Y-109429440D02*
X128705700Y-109385130D01*
X129871201Y-110613070D02*
X129769000Y-110582270D01*
X129293700Y-111177830D02*
X129217400Y-111150320D01*
X127946900Y-108955120D02*
X128127500Y-108930899D01*
X129533800Y-110930940D02*
X129293700Y-111177830D01*
X127992400Y-108640470D02*
X127960900Y-108782920D01*
X128080600Y-108595810D02*
X127992400Y-108640470D01*
X129621300Y-111484360D02*
X129677300Y-111466160D01*
X128223400Y-108640050D02*
X128080600Y-108595810D01*
X128995500Y-110947670D02*
X128768700Y-110746980D01*
X128803000Y-108984310D02*
X128997600Y-108877490D01*
X129715100Y-110625110D02*
X129533800Y-110930940D01*
X128330500Y-108599660D02*
X128267500Y-108666160D01*
X128548901Y-108498930D02*
X128330500Y-108599660D01*
X129275501Y-109710630D02*
X128875101Y-109925459D01*
X129036801Y-108702070D02*
X128791101Y-108586150D01*
X129570200Y-111742380D02*
X129580700Y-111608750D01*
X128875101Y-109925459D02*
X128905900Y-109677450D01*
X128807901Y-111884060D02*
X128956301Y-111707870D01*
X129173300Y-108780610D02*
X129036801Y-108702070D01*
X129727700Y-109374069D02*
X129275501Y-109710630D01*
X129769000Y-110582270D02*
X129715100Y-110625110D01*
X130196000Y-110433170D02*
X130210000Y-110113550D01*
X129960100Y-110004700D02*
X130018900Y-110052789D01*
X129217400Y-111150320D02*
X128995500Y-110947670D01*
X129640900Y-111304320D02*
X129871201Y-111276319D01*
X130154001Y-111019280D02*
X130083301Y-110888940D01*
X127960900Y-108782920D02*
X127946900Y-108955120D01*
X128791101Y-108586150D02*
X128548901Y-108498930D01*
X130083301Y-110888940D02*
X129988800Y-110713590D01*
X130018900Y-110052789D02*
X130032901Y-110248090D01*
X128905900Y-109677450D02*
X128917800Y-109461220D01*
X129934900Y-109321710D02*
X129803300Y-109260040D01*
X128705700Y-109385130D02*
X128771500Y-109340890D01*
X129988800Y-110713590D02*
X129871201Y-110613070D01*
X128267500Y-108666160D02*
X128223400Y-108640050D01*
X128997600Y-108877490D02*
X129173300Y-108780610D01*
X128798800Y-109180590D02*
X128803000Y-108984310D01*
X129450501Y-111825120D02*
X129570200Y-111742380D01*
X129803300Y-109260040D02*
X129727700Y-109374069D01*
X128768700Y-110746980D02*
X128815600Y-110640300D01*
X130120401Y-111157600D02*
X130154001Y-111019280D01*
X130210000Y-110113550D02*
X130143500Y-109612700D01*
X130121800Y-110491480D02*
X130196000Y-110433170D01*
X130032901Y-110248090D02*
X130048300Y-110449970D01*
X129598200Y-111347929D02*
X129640900Y-111304320D01*
X129159300Y-111785780D02*
X129303500Y-111869990D01*
X129632501Y-111397349D02*
X129598200Y-111347929D01*
X128917800Y-109461220D02*
X128821201Y-109429440D01*
X128956301Y-111707870D02*
X129159300Y-111785780D01*
X130048300Y-110449970D02*
X130121800Y-110491480D01*
X129303500Y-111869990D02*
X129450501Y-111825120D01*
X128863200Y-110584370D02*
X129960100Y-110004700D01*
X129871201Y-111276319D02*
X130043400Y-111274360D01*
X128280800Y-108927330D02*
X128350800Y-108985220D01*
X130143500Y-109612700D02*
X129934900Y-109321710D01*
X129677300Y-111466160D02*
X129632501Y-111397349D01*
X128127500Y-108930899D02*
X128280800Y-108927330D01*
X127569601Y-111747560D02*
X127564000Y-111734820D01*
X127573800Y-111749940D02*
X127569601Y-111747560D01*
X127577300Y-111754839D02*
X127573800Y-111750010D01*
X127573800Y-111749449D02*
X127568900Y-111743500D01*
X127568900Y-111743500D02*
X127573800Y-111749940D01*
X127573800Y-111750010D02*
X127573800Y-111749730D01*
X127573800Y-111749730D02*
X127573800Y-111749449D01*
D14*
X152425276Y-118184380D02*
X152425276Y-117184380D01*
X152044323Y-117184380D01*
X151949085Y-117232000D01*
X151901466Y-117279619D01*
X151853847Y-117374857D01*
X151853847Y-117517714D01*
X151901466Y-117612952D01*
X151949085Y-117660571D01*
X152044323Y-117708190D01*
X152425276Y-117708190D01*
X151234800Y-117184380D02*
X151044323Y-117184380D01*
X150949085Y-117232000D01*
X150853847Y-117327238D01*
X150806228Y-117517714D01*
X150806228Y-117851047D01*
X150853847Y-118041523D01*
X150949085Y-118136761D01*
X151044323Y-118184380D01*
X151234800Y-118184380D01*
X151330038Y-118136761D01*
X151425276Y-118041523D01*
X151472895Y-117851047D01*
X151472895Y-117517714D01*
X151425276Y-117327238D01*
X151330038Y-117232000D01*
X151234800Y-117184380D01*
X150472895Y-117184380D02*
X150234800Y-118184380D01*
X150044323Y-117470095D01*
X149853847Y-118184380D01*
X149615752Y-117184380D01*
X149234800Y-117660571D02*
X148901466Y-117660571D01*
X148758609Y-118184380D02*
X149234800Y-118184380D01*
X149234800Y-117184380D01*
X148758609Y-117184380D01*
X147758609Y-118184380D02*
X148091942Y-117708190D01*
X148330038Y-118184380D02*
X148330038Y-117184380D01*
X147949085Y-117184380D01*
X147853847Y-117232000D01*
X147806228Y-117279619D01*
X147758609Y-117374857D01*
X147758609Y-117517714D01*
X147806228Y-117612952D01*
X147853847Y-117660571D01*
X147949085Y-117708190D01*
X148330038Y-117708190D01*
X145996704Y-118184380D02*
X146330038Y-117708190D01*
X146568133Y-118184380D02*
X146568133Y-117184380D01*
X146187180Y-117184380D01*
X146091942Y-117232000D01*
X146044323Y-117279619D01*
X145996704Y-117374857D01*
X145996704Y-117517714D01*
X146044323Y-117612952D01*
X146091942Y-117660571D01*
X146187180Y-117708190D01*
X146568133Y-117708190D01*
X145615752Y-117898666D02*
X145139561Y-117898666D01*
X145710990Y-118184380D02*
X145377657Y-117184380D01*
X145044323Y-118184380D01*
X144710990Y-118184380D02*
X144710990Y-117184380D01*
X144139561Y-118184380D01*
X144139561Y-117184380D01*
X143091942Y-118089142D02*
X143139561Y-118136761D01*
X143282419Y-118184380D01*
X143377657Y-118184380D01*
X143520514Y-118136761D01*
X143615752Y-118041523D01*
X143663371Y-117946285D01*
X143710990Y-117755809D01*
X143710990Y-117612952D01*
X143663371Y-117422476D01*
X143615752Y-117327238D01*
X143520514Y-117232000D01*
X143377657Y-117184380D01*
X143282419Y-117184380D01*
X143139561Y-117232000D01*
X143091942Y-117279619D01*
X142663371Y-118184380D02*
X142663371Y-117184380D01*
X142663371Y-117660571D02*
X142091942Y-117660571D01*
X142091942Y-118184380D02*
X142091942Y-117184380D01*
X141615752Y-117660571D02*
X141282419Y-117660571D01*
X141139561Y-118184380D02*
X141615752Y-118184380D01*
X141615752Y-117184380D01*
X141139561Y-117184380D01*
X140139561Y-118184380D02*
X140472895Y-117708190D01*
X140710990Y-118184380D02*
X140710990Y-117184380D01*
X140330038Y-117184380D01*
X140234800Y-117232000D01*
X140187180Y-117279619D01*
X140139561Y-117374857D01*
X140139561Y-117517714D01*
X140187180Y-117612952D01*
X140234800Y-117660571D01*
X140330038Y-117708190D01*
X140710990Y-117708190D01*
X139758609Y-118136761D02*
X139615752Y-118184380D01*
X139377657Y-118184380D01*
X139282419Y-118136761D01*
X139234800Y-118089142D01*
X139187180Y-117993904D01*
X139187180Y-117898666D01*
X139234800Y-117803428D01*
X139282419Y-117755809D01*
X139377657Y-117708190D01*
X139568133Y-117660571D01*
X139663371Y-117612952D01*
X139710990Y-117565333D01*
X139758609Y-117470095D01*
X139758609Y-117374857D01*
X139710990Y-117279619D01*
X139663371Y-117232000D01*
X139568133Y-117184380D01*
X139330038Y-117184380D01*
X139187180Y-117232000D01*
X137425276Y-118089142D02*
X137472895Y-118136761D01*
X137615752Y-118184380D01*
X137710990Y-118184380D01*
X137853847Y-118136761D01*
X137949085Y-118041523D01*
X137996704Y-117946285D01*
X138044323Y-117755809D01*
X138044323Y-117612952D01*
X137996704Y-117422476D01*
X137949085Y-117327238D01*
X137853847Y-117232000D01*
X137710990Y-117184380D01*
X137615752Y-117184380D01*
X137472895Y-117232000D01*
X137425276Y-117279619D01*
X137044323Y-117898666D02*
X136568133Y-117898666D01*
X137139561Y-118184380D02*
X136806228Y-117184380D01*
X136472895Y-118184380D01*
X136139561Y-118184380D02*
X136139561Y-117184380D01*
X135758609Y-117184380D01*
X135663371Y-117232000D01*
X135615752Y-117279619D01*
X135568133Y-117374857D01*
X135568133Y-117517714D01*
X135615752Y-117612952D01*
X135663371Y-117660571D01*
X135758609Y-117708190D01*
X136139561Y-117708190D01*
X135187180Y-118136761D02*
X135044323Y-118184380D01*
X134806228Y-118184380D01*
X134710990Y-118136761D01*
X134663371Y-118089142D01*
X134615752Y-117993904D01*
X134615752Y-117898666D01*
X134663371Y-117803428D01*
X134710990Y-117755809D01*
X134806228Y-117708190D01*
X134996704Y-117660571D01*
X135091942Y-117612952D01*
X135139561Y-117565333D01*
X135187180Y-117470095D01*
X135187180Y-117374857D01*
X135139561Y-117279619D01*
X135091942Y-117232000D01*
X134996704Y-117184380D01*
X134758609Y-117184380D01*
X134615752Y-117232000D01*
X134330038Y-117184380D02*
X133758609Y-117184380D01*
X134044323Y-118184380D02*
X134044323Y-117184380D01*
X133234800Y-117184380D02*
X133044323Y-117184380D01*
X132949085Y-117232000D01*
X132853847Y-117327238D01*
X132806228Y-117517714D01*
X132806228Y-117851047D01*
X132853847Y-118041523D01*
X132949085Y-118136761D01*
X133044323Y-118184380D01*
X133234800Y-118184380D01*
X133330038Y-118136761D01*
X133425276Y-118041523D01*
X133472895Y-117851047D01*
X133472895Y-117517714D01*
X133425276Y-117327238D01*
X133330038Y-117232000D01*
X133234800Y-117184380D01*
X132377657Y-118184380D02*
X132377657Y-117184380D01*
X131806228Y-118184380D01*
X131806228Y-117184380D01*
X131330038Y-117660571D02*
X130996704Y-117660571D01*
X130853847Y-118184380D02*
X131330038Y-118184380D01*
X131330038Y-117184380D01*
X130853847Y-117184380D01*
X129139561Y-117232000D02*
X129234800Y-117184380D01*
X129377657Y-117184380D01*
X129520514Y-117232000D01*
X129615752Y-117327238D01*
X129663371Y-117422476D01*
X129710990Y-117612952D01*
X129710990Y-117755809D01*
X129663371Y-117946285D01*
X129615752Y-118041523D01*
X129520514Y-118136761D01*
X129377657Y-118184380D01*
X129282419Y-118184380D01*
X129139561Y-118136761D01*
X129091942Y-118089142D01*
X129091942Y-117755809D01*
X129282419Y-117755809D01*
X128091942Y-118184380D02*
X128425276Y-117708190D01*
X128663371Y-118184380D02*
X128663371Y-117184380D01*
X128282419Y-117184380D01*
X128187180Y-117232000D01*
X128139561Y-117279619D01*
X128091942Y-117374857D01*
X128091942Y-117517714D01*
X128139561Y-117612952D01*
X128187180Y-117660571D01*
X128282419Y-117708190D01*
X128663371Y-117708190D01*
X127472895Y-117184380D02*
X127282419Y-117184380D01*
X127187180Y-117232000D01*
X127091942Y-117327238D01*
X127044323Y-117517714D01*
X127044323Y-117851047D01*
X127091942Y-118041523D01*
X127187180Y-118136761D01*
X127282419Y-118184380D01*
X127472895Y-118184380D01*
X127568133Y-118136761D01*
X127663371Y-118041523D01*
X127710990Y-117851047D01*
X127710990Y-117517714D01*
X127663371Y-117327238D01*
X127568133Y-117232000D01*
X127472895Y-117184380D01*
X126615752Y-117184380D02*
X126615752Y-117993904D01*
X126568133Y-118089142D01*
X126520514Y-118136761D01*
X126425276Y-118184380D01*
X126234800Y-118184380D01*
X126139561Y-118136761D01*
X126091942Y-118089142D01*
X126044323Y-117993904D01*
X126044323Y-117184380D01*
X125568133Y-118184380D02*
X125568133Y-117184380D01*
X125187180Y-117184380D01*
X125091942Y-117232000D01*
X125044323Y-117279619D01*
X124996704Y-117374857D01*
X124996704Y-117517714D01*
X125044323Y-117612952D01*
X125091942Y-117660571D01*
X125187180Y-117708190D01*
X125568133Y-117708190D01*
X153163371Y-120484380D02*
X152972895Y-120484380D01*
X152877657Y-120532000D01*
X152782419Y-120627238D01*
X152734800Y-120817714D01*
X152734800Y-121151047D01*
X152782419Y-121341523D01*
X152877657Y-121436761D01*
X152972895Y-121484380D01*
X153163371Y-121484380D01*
X153258609Y-121436761D01*
X153353847Y-121341523D01*
X153401466Y-121151047D01*
X153401466Y-120817714D01*
X153353847Y-120627238D01*
X153258609Y-120532000D01*
X153163371Y-120484380D01*
X152449085Y-120484380D02*
X152115752Y-121484380D01*
X151782419Y-120484380D01*
X151449085Y-120960571D02*
X151115752Y-120960571D01*
X150972895Y-121484380D02*
X151449085Y-121484380D01*
X151449085Y-120484380D01*
X150972895Y-120484380D01*
X150544323Y-121484380D02*
X150544323Y-120484380D01*
X149972895Y-121484380D01*
X149972895Y-120484380D01*
X148163371Y-121389142D02*
X148210990Y-121436761D01*
X148353847Y-121484380D01*
X148449085Y-121484380D01*
X148591942Y-121436761D01*
X148687180Y-121341523D01*
X148734800Y-121246285D01*
X148782419Y-121055809D01*
X148782419Y-120912952D01*
X148734800Y-120722476D01*
X148687180Y-120627238D01*
X148591942Y-120532000D01*
X148449085Y-120484380D01*
X148353847Y-120484380D01*
X148210990Y-120532000D01*
X148163371Y-120579619D01*
X147544323Y-120484380D02*
X147353847Y-120484380D01*
X147258609Y-120532000D01*
X147163371Y-120627238D01*
X147115752Y-120817714D01*
X147115752Y-121151047D01*
X147163371Y-121341523D01*
X147258609Y-121436761D01*
X147353847Y-121484380D01*
X147544323Y-121484380D01*
X147639561Y-121436761D01*
X147734800Y-121341523D01*
X147782419Y-121151047D01*
X147782419Y-120817714D01*
X147734800Y-120627238D01*
X147639561Y-120532000D01*
X147544323Y-120484380D01*
X146687180Y-121484380D02*
X146687180Y-120484380D01*
X146115752Y-121484380D01*
X146115752Y-120484380D01*
X145782419Y-120484380D02*
X145210990Y-120484380D01*
X145496704Y-121484380D02*
X145496704Y-120484380D01*
X144306228Y-121484380D02*
X144639561Y-121008190D01*
X144877657Y-121484380D02*
X144877657Y-120484380D01*
X144496704Y-120484380D01*
X144401466Y-120532000D01*
X144353847Y-120579619D01*
X144306228Y-120674857D01*
X144306228Y-120817714D01*
X144353847Y-120912952D01*
X144401466Y-120960571D01*
X144496704Y-121008190D01*
X144877657Y-121008190D01*
X143687180Y-120484380D02*
X143496704Y-120484380D01*
X143401466Y-120532000D01*
X143306228Y-120627238D01*
X143258609Y-120817714D01*
X143258609Y-121151047D01*
X143306228Y-121341523D01*
X143401466Y-121436761D01*
X143496704Y-121484380D01*
X143687180Y-121484380D01*
X143782419Y-121436761D01*
X143877657Y-121341523D01*
X143925276Y-121151047D01*
X143925276Y-120817714D01*
X143877657Y-120627238D01*
X143782419Y-120532000D01*
X143687180Y-120484380D01*
X142353847Y-121484380D02*
X142830038Y-121484380D01*
X142830038Y-120484380D01*
X141258609Y-120960571D02*
X140925276Y-120960571D01*
X140782419Y-121484380D02*
X141258609Y-121484380D01*
X141258609Y-120484380D01*
X140782419Y-120484380D01*
X139877657Y-121484380D02*
X140353847Y-121484380D01*
X140353847Y-120484380D01*
X139544323Y-120960571D02*
X139210990Y-120960571D01*
X139068133Y-121484380D02*
X139544323Y-121484380D01*
X139544323Y-120484380D01*
X139068133Y-120484380D01*
X138639561Y-121484380D02*
X138639561Y-120484380D01*
X138306228Y-121198666D01*
X137972895Y-120484380D01*
X137972895Y-121484380D01*
X137496704Y-120960571D02*
X137163371Y-120960571D01*
X137020514Y-121484380D02*
X137496704Y-121484380D01*
X137496704Y-120484380D01*
X137020514Y-120484380D01*
X136591942Y-121484380D02*
X136591942Y-120484380D01*
X136020514Y-121484380D01*
X136020514Y-120484380D01*
X135687180Y-120484380D02*
X135115752Y-120484380D01*
X135401466Y-121484380D02*
X135401466Y-120484380D01*
X134830038Y-121436761D02*
X134687180Y-121484380D01*
X134449085Y-121484380D01*
X134353847Y-121436761D01*
X134306228Y-121389142D01*
X134258609Y-121293904D01*
X134258609Y-121198666D01*
X134306228Y-121103428D01*
X134353847Y-121055809D01*
X134449085Y-121008190D01*
X134639561Y-120960571D01*
X134734800Y-120912952D01*
X134782419Y-120865333D01*
X134830038Y-120770095D01*
X134830038Y-120674857D01*
X134782419Y-120579619D01*
X134734800Y-120532000D01*
X134639561Y-120484380D01*
X134401466Y-120484380D01*
X134258609Y-120532000D01*
X132496704Y-121389142D02*
X132544323Y-121436761D01*
X132687180Y-121484380D01*
X132782419Y-121484380D01*
X132925276Y-121436761D01*
X133020514Y-121341523D01*
X133068133Y-121246285D01*
X133115752Y-121055809D01*
X133115752Y-120912952D01*
X133068133Y-120722476D01*
X133020514Y-120627238D01*
X132925276Y-120532000D01*
X132782419Y-120484380D01*
X132687180Y-120484380D01*
X132544323Y-120532000D01*
X132496704Y-120579619D01*
X131877657Y-120484380D02*
X131687180Y-120484380D01*
X131591942Y-120532000D01*
X131496704Y-120627238D01*
X131449085Y-120817714D01*
X131449085Y-121151047D01*
X131496704Y-121341523D01*
X131591942Y-121436761D01*
X131687180Y-121484380D01*
X131877657Y-121484380D01*
X131972895Y-121436761D01*
X132068133Y-121341523D01*
X132115752Y-121151047D01*
X132115752Y-120817714D01*
X132068133Y-120627238D01*
X131972895Y-120532000D01*
X131877657Y-120484380D01*
X131020514Y-121484380D02*
X131020514Y-120484380D01*
X130449085Y-121484380D01*
X130449085Y-120484380D01*
X130115752Y-120484380D02*
X129544323Y-120484380D01*
X129830038Y-121484380D02*
X129830038Y-120484380D01*
X128639561Y-121484380D02*
X128972895Y-121008190D01*
X129210990Y-121484380D02*
X129210990Y-120484380D01*
X128830038Y-120484380D01*
X128734800Y-120532000D01*
X128687180Y-120579619D01*
X128639561Y-120674857D01*
X128639561Y-120817714D01*
X128687180Y-120912952D01*
X128734800Y-120960571D01*
X128830038Y-121008190D01*
X129210990Y-121008190D01*
X128020514Y-120484380D02*
X127830038Y-120484380D01*
X127734800Y-120532000D01*
X127639561Y-120627238D01*
X127591942Y-120817714D01*
X127591942Y-121151047D01*
X127639561Y-121341523D01*
X127734800Y-121436761D01*
X127830038Y-121484380D01*
X128020514Y-121484380D01*
X128115752Y-121436761D01*
X128210990Y-121341523D01*
X128258609Y-121151047D01*
X128258609Y-120817714D01*
X128210990Y-120627238D01*
X128115752Y-120532000D01*
X128020514Y-120484380D01*
X126687180Y-121484380D02*
X127163371Y-121484380D01*
X127163371Y-120484380D01*
X125877657Y-121484380D02*
X126353847Y-121484380D01*
X126353847Y-120484380D01*
X125544323Y-120960571D02*
X125210990Y-120960571D01*
X125068133Y-121484380D02*
X125544323Y-121484380D01*
X125544323Y-120484380D01*
X125068133Y-120484380D01*
X124068133Y-121484380D02*
X124401466Y-121008190D01*
X124639561Y-121484380D02*
X124639561Y-120484380D01*
X124258609Y-120484380D01*
X124163371Y-120532000D01*
X124115752Y-120579619D01*
X124068133Y-120674857D01*
X124068133Y-120817714D01*
X124115752Y-120912952D01*
X124163371Y-120960571D01*
X124258609Y-121008190D01*
X124639561Y-121008190D01*
X152044323Y-124689142D02*
X152091942Y-124736761D01*
X152234800Y-124784380D01*
X152330038Y-124784380D01*
X152472895Y-124736761D01*
X152568133Y-124641523D01*
X152615752Y-124546285D01*
X152663371Y-124355809D01*
X152663371Y-124212952D01*
X152615752Y-124022476D01*
X152568133Y-123927238D01*
X152472895Y-123832000D01*
X152330038Y-123784380D01*
X152234800Y-123784380D01*
X152091942Y-123832000D01*
X152044323Y-123879619D01*
X151663371Y-124498666D02*
X151187180Y-124498666D01*
X151758609Y-124784380D02*
X151425276Y-123784380D01*
X151091942Y-124784380D01*
X150282419Y-124784380D02*
X150758609Y-124784380D01*
X150758609Y-123784380D01*
X150091942Y-123784380D02*
X149758609Y-124784380D01*
X149425276Y-123784380D01*
X149091942Y-124784380D02*
X149091942Y-123784380D01*
X148615752Y-124784380D02*
X148615752Y-123784380D01*
X148044323Y-124784380D01*
X148044323Y-123784380D01*
X146806228Y-124784380D02*
X146806228Y-123784380D01*
X146568133Y-123784380D01*
X146425276Y-123832000D01*
X146330038Y-123927238D01*
X146282419Y-124022476D01*
X146234800Y-124212952D01*
X146234800Y-124355809D01*
X146282419Y-124546285D01*
X146330038Y-124641523D01*
X146425276Y-124736761D01*
X146568133Y-124784380D01*
X146806228Y-124784380D01*
X145806228Y-124260571D02*
X145472895Y-124260571D01*
X145330038Y-124784380D02*
X145806228Y-124784380D01*
X145806228Y-123784380D01*
X145330038Y-123784380D01*
X144901466Y-124784380D02*
X144901466Y-123784380D01*
X144330038Y-124784380D02*
X144758609Y-124212952D01*
X144330038Y-123784380D02*
X144901466Y-124355809D01*
X143710990Y-123784380D02*
X143520514Y-123784380D01*
X143425276Y-123832000D01*
X143330038Y-123927238D01*
X143282419Y-124117714D01*
X143282419Y-124451047D01*
X143330038Y-124641523D01*
X143425276Y-124736761D01*
X143520514Y-124784380D01*
X143710990Y-124784380D01*
X143806228Y-124736761D01*
X143901466Y-124641523D01*
X143949085Y-124451047D01*
X143949085Y-124117714D01*
X143901466Y-123927238D01*
X143806228Y-123832000D01*
X143710990Y-123784380D01*
X142996704Y-123784380D02*
X142425276Y-123784380D01*
X142710990Y-124784380D02*
X142710990Y-123784380D01*
X142091942Y-124260571D02*
X141758609Y-124260571D01*
X141615752Y-124784380D02*
X142091942Y-124784380D01*
X142091942Y-123784380D01*
X141615752Y-123784380D01*
X140615752Y-124784380D02*
X140949085Y-124308190D01*
X141187180Y-124784380D02*
X141187180Y-123784380D01*
X140806228Y-123784380D01*
X140710990Y-123832000D01*
X140663371Y-123879619D01*
X140615752Y-123974857D01*
X140615752Y-124117714D01*
X140663371Y-124212952D01*
X140710990Y-124260571D01*
X140806228Y-124308190D01*
X141187180Y-124308190D01*
X140139561Y-124736761D02*
X140139561Y-124784380D01*
X140187180Y-124879619D01*
X140234800Y-124927238D01*
X138996704Y-123879619D02*
X138949085Y-123832000D01*
X138853847Y-123784380D01*
X138615752Y-123784380D01*
X138520514Y-123832000D01*
X138472895Y-123879619D01*
X138425276Y-123974857D01*
X138425276Y-124070095D01*
X138472895Y-124212952D01*
X139044323Y-124784380D01*
X138425276Y-124784380D01*
X137806228Y-123784380D02*
X137710990Y-123784380D01*
X137615752Y-123832000D01*
X137568133Y-123879619D01*
X137520514Y-123974857D01*
X137472895Y-124165333D01*
X137472895Y-124403428D01*
X137520514Y-124593904D01*
X137568133Y-124689142D01*
X137615752Y-124736761D01*
X137710990Y-124784380D01*
X137806228Y-124784380D01*
X137901466Y-124736761D01*
X137949085Y-124689142D01*
X137996704Y-124593904D01*
X138044323Y-124403428D01*
X138044323Y-124165333D01*
X137996704Y-123974857D01*
X137949085Y-123879619D01*
X137901466Y-123832000D01*
X137806228Y-123784380D01*
X137091942Y-123879619D02*
X137044323Y-123832000D01*
X136949085Y-123784380D01*
X136710990Y-123784380D01*
X136615752Y-123832000D01*
X136568133Y-123879619D01*
X136520514Y-123974857D01*
X136520514Y-124070095D01*
X136568133Y-124212952D01*
X137139561Y-124784380D01*
X136520514Y-124784380D01*
X136139561Y-123879619D02*
X136091942Y-123832000D01*
X135996704Y-123784380D01*
X135758609Y-123784380D01*
X135663371Y-123832000D01*
X135615752Y-123879619D01*
X135568133Y-123974857D01*
X135568133Y-124070095D01*
X135615752Y-124212952D01*
X136187180Y-124784380D01*
X135568133Y-124784380D01*
X135139561Y-124403428D02*
X134377657Y-124403428D01*
X133710990Y-123784380D02*
X133615752Y-123784380D01*
X133520514Y-123832000D01*
X133472895Y-123879619D01*
X133425276Y-123974857D01*
X133377657Y-124165333D01*
X133377657Y-124403428D01*
X133425276Y-124593904D01*
X133472895Y-124689142D01*
X133520514Y-124736761D01*
X133615752Y-124784380D01*
X133710990Y-124784380D01*
X133806228Y-124736761D01*
X133853847Y-124689142D01*
X133901466Y-124593904D01*
X133949085Y-124403428D01*
X133949085Y-124165333D01*
X133901466Y-123974857D01*
X133853847Y-123879619D01*
X133806228Y-123832000D01*
X133710990Y-123784380D01*
X132996704Y-123879619D02*
X132949085Y-123832000D01*
X132853847Y-123784380D01*
X132615752Y-123784380D01*
X132520514Y-123832000D01*
X132472895Y-123879619D01*
X132425276Y-123974857D01*
X132425276Y-124070095D01*
X132472895Y-124212952D01*
X133044323Y-124784380D01*
X132425276Y-124784380D01*
X131996704Y-124403428D02*
X131234800Y-124403428D01*
X130234800Y-124784380D02*
X130806228Y-124784380D01*
X130520514Y-124784380D02*
X130520514Y-123784380D01*
X130615752Y-123927238D01*
X130710990Y-124022476D01*
X130806228Y-124070095D01*
X129901466Y-123784380D02*
X129282419Y-123784380D01*
X129615752Y-124165333D01*
X129472895Y-124165333D01*
X129377657Y-124212952D01*
X129330038Y-124260571D01*
X129282419Y-124355809D01*
X129282419Y-124593904D01*
X129330038Y-124689142D01*
X129377657Y-124736761D01*
X129472895Y-124784380D01*
X129758609Y-124784380D01*
X129853847Y-124736761D01*
X129901466Y-124689142D01*
X128806228Y-124736761D02*
X128806228Y-124784380D01*
X128853847Y-124879619D01*
X128901466Y-124927238D01*
X127758609Y-123784380D02*
X127425276Y-124784380D01*
X127091942Y-123784380D01*
X126806228Y-123879619D02*
X126758609Y-123832000D01*
X126663371Y-123784380D01*
X126425276Y-123784380D01*
X126330038Y-123832000D01*
X126282419Y-123879619D01*
X126234800Y-123974857D01*
X126234800Y-124070095D01*
X126282419Y-124212952D01*
X126853847Y-124784380D01*
X126234800Y-124784380D01*
X125806228Y-124689142D02*
X125758609Y-124736761D01*
X125806228Y-124784380D01*
X125853847Y-124736761D01*
X125806228Y-124689142D01*
X125806228Y-124784380D01*
X124806228Y-124784380D02*
X125377657Y-124784380D01*
X125091942Y-124784380D02*
X125091942Y-123784380D01*
X125187180Y-123927238D01*
X125282419Y-124022476D01*
X125377657Y-124070095D01*
X144544323Y-127179619D02*
X144496704Y-127132000D01*
X144401466Y-127084380D01*
X144163371Y-127084380D01*
X144068133Y-127132000D01*
X144020514Y-127179619D01*
X143972895Y-127274857D01*
X143972895Y-127370095D01*
X144020514Y-127512952D01*
X144591942Y-128084380D01*
X143972895Y-128084380D01*
X143591942Y-127179619D02*
X143544323Y-127132000D01*
X143449085Y-127084380D01*
X143210990Y-127084380D01*
X143115752Y-127132000D01*
X143068133Y-127179619D01*
X143020514Y-127274857D01*
X143020514Y-127370095D01*
X143068133Y-127512952D01*
X143639561Y-128084380D01*
X143020514Y-128084380D01*
X142163371Y-127084380D02*
X142353847Y-127084380D01*
X142449085Y-127132000D01*
X142496704Y-127179619D01*
X142591942Y-127322476D01*
X142639561Y-127512952D01*
X142639561Y-127893904D01*
X142591942Y-127989142D01*
X142544323Y-128036761D01*
X142449085Y-128084380D01*
X142258609Y-128084380D01*
X142163371Y-128036761D01*
X142115752Y-127989142D01*
X142068133Y-127893904D01*
X142068133Y-127655809D01*
X142115752Y-127560571D01*
X142163371Y-127512952D01*
X142258609Y-127465333D01*
X142449085Y-127465333D01*
X142544323Y-127512952D01*
X142591942Y-127560571D01*
X142639561Y-127655809D01*
X141639561Y-127703428D02*
X140877657Y-127703428D01*
X139972895Y-127084380D02*
X140163371Y-127084380D01*
X140258609Y-127132000D01*
X140306228Y-127179619D01*
X140401466Y-127322476D01*
X140449085Y-127512952D01*
X140449085Y-127893904D01*
X140401466Y-127989142D01*
X140353847Y-128036761D01*
X140258609Y-128084380D01*
X140068133Y-128084380D01*
X139972895Y-128036761D01*
X139925276Y-127989142D01*
X139877657Y-127893904D01*
X139877657Y-127655809D01*
X139925276Y-127560571D01*
X139972895Y-127512952D01*
X140068133Y-127465333D01*
X140258609Y-127465333D01*
X140353847Y-127512952D01*
X140401466Y-127560571D01*
X140449085Y-127655809D01*
X139496704Y-127179619D02*
X139449085Y-127132000D01*
X139353847Y-127084380D01*
X139115752Y-127084380D01*
X139020514Y-127132000D01*
X138972895Y-127179619D01*
X138925276Y-127274857D01*
X138925276Y-127370095D01*
X138972895Y-127512952D01*
X139544323Y-128084380D01*
X138925276Y-128084380D01*
X138591942Y-127084380D02*
X137925276Y-127084380D01*
X138353847Y-128084380D01*
X137544323Y-127703428D02*
X136782419Y-127703428D01*
X136258609Y-128084380D02*
X136068133Y-128084380D01*
X135972895Y-128036761D01*
X135925276Y-127989142D01*
X135830038Y-127846285D01*
X135782419Y-127655809D01*
X135782419Y-127274857D01*
X135830038Y-127179619D01*
X135877657Y-127132000D01*
X135972895Y-127084380D01*
X136163371Y-127084380D01*
X136258609Y-127132000D01*
X136306228Y-127179619D01*
X136353847Y-127274857D01*
X136353847Y-127512952D01*
X136306228Y-127608190D01*
X136258609Y-127655809D01*
X136163371Y-127703428D01*
X135972895Y-127703428D01*
X135877657Y-127655809D01*
X135830038Y-127608190D01*
X135782419Y-127512952D01*
X134925276Y-127417714D02*
X134925276Y-128084380D01*
X135163371Y-127036761D02*
X135401466Y-127751047D01*
X134782419Y-127751047D01*
X134210990Y-127084380D02*
X134115752Y-127084380D01*
X134020514Y-127132000D01*
X133972895Y-127179619D01*
X133925276Y-127274857D01*
X133877657Y-127465333D01*
X133877657Y-127703428D01*
X133925276Y-127893904D01*
X133972895Y-127989142D01*
X134020514Y-128036761D01*
X134115752Y-128084380D01*
X134210990Y-128084380D01*
X134306228Y-128036761D01*
X134353847Y-127989142D01*
X134401466Y-127893904D01*
X134449085Y-127703428D01*
X134449085Y-127465333D01*
X134401466Y-127274857D01*
X134353847Y-127179619D01*
X134306228Y-127132000D01*
X134210990Y-127084380D01*
X133020514Y-127084380D02*
X133210990Y-127084380D01*
X133306228Y-127132000D01*
X133353847Y-127179619D01*
X133449085Y-127322476D01*
X133496704Y-127512952D01*
X133496704Y-127893904D01*
X133449085Y-127989142D01*
X133401466Y-128036761D01*
X133306228Y-128084380D01*
X133115752Y-128084380D01*
X133020514Y-128036761D01*
X132972895Y-127989142D01*
X132925276Y-127893904D01*
X132925276Y-127655809D01*
X132972895Y-127560571D01*
X133020514Y-127512952D01*
X133115752Y-127465333D01*
X133306228Y-127465333D01*
X133401466Y-127512952D01*
X133449085Y-127560571D01*
X133496704Y-127655809D01*
D15*
%TO.C,J9*%
X58547000Y-52558010D02*
G75*
G03*
X58547000Y-52558010I-381000J0D01*
G01*
%TO.C,B1*%
X82424001Y-112522000D02*
G75*
G03*
X82424001Y-112522000I-381000J0D01*
G01*
X89535000Y-104311557D02*
X89535000Y-110744000D01*
X73533000Y-95377888D02*
X73533000Y-87122000D01*
X84915741Y-87122000D02*
X89535000Y-87122000D01*
X79170261Y-110744000D02*
X73533000Y-110744000D01*
X89535000Y-110744000D02*
X84915741Y-110744000D01*
X89535000Y-87122000D02*
X89535000Y-93554443D01*
X73533000Y-87122000D02*
X79170261Y-87122000D01*
X73533000Y-110744000D02*
X73533000Y-102488112D01*
%TO.C,J1*%
X155702000Y-93689800D02*
G75*
G03*
X155702000Y-93689800I-381000J0D01*
G01*
%TO.C,J8*%
X162269800Y-135890000D02*
G75*
G03*
X162269800Y-135890000I-381000J0D01*
G01*
%TO.C,B1*%
D14*
X81971572Y-98528238D02*
X82019191Y-98671095D01*
X82066810Y-98718714D01*
X82162048Y-98766333D01*
X82304905Y-98766333D01*
X82400143Y-98718714D01*
X82447762Y-98671095D01*
X82495381Y-98575857D01*
X82495381Y-98194904D01*
X81495381Y-98194904D01*
X81495381Y-98528238D01*
X81543001Y-98623476D01*
X81590620Y-98671095D01*
X81685858Y-98718714D01*
X81781096Y-98718714D01*
X81876334Y-98671095D01*
X81923953Y-98623476D01*
X81971572Y-98528238D01*
X81971572Y-98194904D01*
X82495381Y-99718714D02*
X82495381Y-99147285D01*
X82495381Y-99433000D02*
X81495381Y-99433000D01*
X81638239Y-99337761D01*
X81733477Y-99242523D01*
X81781096Y-99147285D01*
X80986380Y-98933000D02*
X81224476Y-98933000D01*
X81129238Y-98694904D02*
X81224476Y-98933000D01*
X81129238Y-99171095D01*
X81414952Y-98790142D02*
X81224476Y-98933000D01*
X81414952Y-99075857D01*
%TD*%
%LPC*%
D16*
X34972000Y-42100000D02*
G75*
G03*
X34972000Y-42100000I-1000000J0D01*
G01*
X157400000Y-42100000D02*
G75*
G03*
X157400000Y-42100000I-1000000J0D01*
G01*
X157200000Y-122000000D02*
G75*
G03*
X157200000Y-122000000I-1000000J0D01*
G01*
X35100000Y-122000000D02*
G75*
G03*
X35100000Y-122000000I-1000000J0D01*
G01*
D17*
%TO.C,IC1*%
X51435000Y-78613000D03*
X53975000Y-78613000D03*
X97155000Y-76073000D03*
X86995000Y-63373000D03*
D18*
X66405000Y-65823000D03*
X64405000Y-65823000D03*
X66405000Y-67823000D03*
X66405000Y-69823000D03*
X64405000Y-67823000D03*
X64405000Y-69823000D03*
D17*
X56515000Y-78613000D03*
X59055000Y-78613000D03*
X61595000Y-78613000D03*
X64135000Y-78613000D03*
X66675000Y-78613000D03*
X69215000Y-78613000D03*
X71755000Y-78613000D03*
X74295000Y-78613000D03*
X76835000Y-78613000D03*
X79375000Y-78613000D03*
X81915000Y-78613000D03*
X84455000Y-78613000D03*
X86995000Y-78613000D03*
X84455000Y-63373000D03*
X81915000Y-63373000D03*
X79375000Y-63373000D03*
X76835000Y-63373000D03*
X74295000Y-63373000D03*
X71755000Y-63373000D03*
X69215000Y-63373000D03*
X66675000Y-63373000D03*
X64135000Y-63373000D03*
X61595000Y-63373000D03*
X59055000Y-63373000D03*
X56515000Y-63373000D03*
X53975000Y-63373000D03*
X51435000Y-63373000D03*
X89535000Y-78613000D03*
X92075000Y-78613000D03*
X94615000Y-78613000D03*
X97155000Y-78613000D03*
X99695000Y-78613000D03*
X102235000Y-78613000D03*
X104775000Y-78613000D03*
X107315000Y-78613000D03*
X109855000Y-78613000D03*
X109855000Y-63373000D03*
X107315000Y-63373000D03*
X104775000Y-63373000D03*
X102235000Y-63373000D03*
X99695000Y-63373000D03*
X97155000Y-63373000D03*
X94615000Y-63373000D03*
X92075000Y-63373000D03*
X89535000Y-63373000D03*
%TD*%
D19*
%TO.C,J2*%
X145542000Y-76073000D03*
X151742000Y-76073000D03*
G36*
G01*
X150242000Y-72373000D02*
X147242000Y-72373000D01*
G75*
G02*
X146242000Y-71373000I0J1000000D01*
G01*
X146242000Y-71373000D01*
G75*
G02*
X147242000Y-70373000I1000000J0D01*
G01*
X150242000Y-70373000D01*
G75*
G02*
X151242000Y-71373000I0J-1000000D01*
G01*
X151242000Y-71373000D01*
G75*
G02*
X150242000Y-72373000I-1000000J0D01*
G01*
G37*
%TD*%
D20*
%TO.C,J6*%
X134874000Y-40767000D03*
X132334000Y-40767000D03*
D21*
X129794000Y-40767000D03*
%TD*%
D20*
%TO.C,J4*%
X62611000Y-40767000D03*
X62611000Y-43307000D03*
X65151000Y-40767000D03*
X65151000Y-43307000D03*
X67691000Y-40767000D03*
X67691000Y-43307000D03*
X70231000Y-40767000D03*
X70231000Y-43307000D03*
X72771000Y-40767000D03*
X72771000Y-43307000D03*
X75311000Y-40767000D03*
X75311000Y-43307000D03*
X77851000Y-40767000D03*
X77851000Y-43307000D03*
X80391000Y-40767000D03*
X80391000Y-43307000D03*
X82931000Y-40767000D03*
X82931000Y-43307000D03*
X85471000Y-40767000D03*
X85471000Y-43307000D03*
X88011000Y-40767000D03*
X88011000Y-43307000D03*
X90551000Y-40767000D03*
D21*
X90551000Y-43307000D03*
%TD*%
D20*
%TO.C,J3*%
X124714000Y-40767000D03*
X122174000Y-40767000D03*
X119634000Y-40767000D03*
X117094000Y-40767000D03*
X124714000Y-43307000D03*
X122174000Y-43307000D03*
X119634000Y-43307000D03*
D21*
X117094000Y-43307000D03*
%TD*%
D22*
%TO.C,J9*%
X51308000Y-58908010D03*
X48768000Y-58908010D03*
X46228000Y-58908010D03*
X43688000Y-58908010D03*
X52578000Y-56368010D03*
X50038000Y-56368010D03*
X47498000Y-56368010D03*
X44958000Y-56368010D03*
D23*
X54458000Y-44918010D03*
X51918000Y-46638010D03*
X44348000Y-44938010D03*
X41808000Y-46638010D03*
D24*
X53848000Y-49998010D03*
X42418000Y-49998010D03*
D25*
X56007998Y-53048010D03*
X40258002Y-53048010D03*
%TD*%
D26*
%TO.C,U3*%
X132715000Y-72390000D03*
X117475000Y-62230000D03*
X130175000Y-72390000D03*
X120015000Y-62230000D03*
X127635000Y-72390000D03*
X122555000Y-62230000D03*
X125095000Y-72390000D03*
X125095000Y-62230000D03*
X122555000Y-72390000D03*
X127635000Y-62230000D03*
X120015000Y-72390000D03*
X130175000Y-62230000D03*
X117475000Y-72390000D03*
D27*
X132715000Y-62230000D03*
%TD*%
D28*
%TO.C,RV1*%
X127635000Y-60299600D03*
X130175000Y-57759600D03*
X132715000Y-60299600D03*
%TD*%
%TO.C,RV2*%
X121920000Y-57150000D03*
X119380000Y-59690000D03*
X116840000Y-57150000D03*
%TD*%
D20*
%TO.C,J5*%
X40259000Y-105664000D03*
X42799000Y-105664000D03*
X40259000Y-103124000D03*
X42799000Y-103124000D03*
X40259000Y-100584000D03*
X42799000Y-100584000D03*
X40259000Y-98044000D03*
X42799000Y-98044000D03*
X40259000Y-95504000D03*
X42799000Y-95504000D03*
X40259000Y-92964000D03*
X42799000Y-92964000D03*
X40259000Y-90424000D03*
X42799000Y-90424000D03*
X40259000Y-87884000D03*
X42799000Y-87884000D03*
X40259000Y-85344000D03*
X42799000Y-85344000D03*
X40259000Y-82804000D03*
D21*
X42799000Y-82804000D03*
%TD*%
D20*
%TO.C,J10*%
X40259000Y-114300000D03*
X42799000Y-114300000D03*
X40259000Y-111760000D03*
X42799000Y-111760000D03*
X40259000Y-109220000D03*
D21*
X42799000Y-109220000D03*
%TD*%
D20*
%TO.C,J11*%
X147675600Y-40894000D03*
D21*
X145135600Y-40894000D03*
%TD*%
D29*
%TO.C,B1*%
X82043001Y-98933000D03*
D30*
X82043001Y-87948000D03*
X82043001Y-109918000D03*
%TD*%
D31*
%TO.C,J1*%
X155321000Y-84281000D03*
X155321000Y-89281000D03*
%TD*%
D21*
%TO.C,J7*%
X144208500Y-66929000D03*
D20*
X144208500Y-64389000D03*
X144208500Y-61849000D03*
%TD*%
D32*
%TO.C,K1*%
X84588000Y-124982200D03*
X106588000Y-124982200D03*
X81788000Y-136982200D03*
X109388000Y-136982200D03*
%TD*%
%TO.C,K2*%
X70002400Y-136956800D03*
X42402400Y-136956800D03*
X67202400Y-124956800D03*
X45202400Y-124956800D03*
%TD*%
D33*
%TO.C,PS1*%
X124460000Y-90170000D03*
X134620000Y-90170000D03*
X144780000Y-135890000D03*
D34*
X124460000Y-135890000D03*
%TD*%
D31*
%TO.C,J8*%
X152480000Y-135890000D03*
X157480000Y-135890000D03*
%TD*%
D35*
%TO.C,U10*%
X95375800Y-110820200D03*
X88915800Y-117280200D03*
%TD*%
M02*
