%TF.GenerationSoftware,KiCad,Pcbnew,(5.1.8)-1*%
%TF.CreationDate,2022-02-24T01:16:36-05:00*%
%TF.ProjectId,OCE_L,4f43455f-4c2e-46b6-9963-61645f706362,rev?*%
%TF.SameCoordinates,Original*%
%TF.FileFunction,Soldermask,Bot*%
%TF.FilePolarity,Negative*%
%FSLAX46Y46*%
G04 Gerber Fmt 4.6, Leading zero omitted, Abs format (unit mm)*
G04 Created by KiCad (PCBNEW (5.1.8)-1) date 2022-02-24 01:16:36*
%MOMM*%
%LPD*%
G01*
G04 APERTURE LIST*
%ADD10C,3.000000*%
%ADD11C,1.308000*%
%ADD12C,1.208000*%
%ADD13O,2.000000X5.000000*%
%ADD14O,1.700000X1.700000*%
%ADD15R,1.700000X1.700000*%
%ADD16C,1.397000*%
%ADD17C,1.549400*%
%ADD18C,3.759200*%
%ADD19C,2.108200*%
%ADD20O,1.600000X1.600000*%
%ADD21R,1.600000X1.600000*%
%ADD22C,1.219200*%
%ADD23C,17.780001*%
%ADD24R,5.080000X2.794000*%
%ADD25C,1.803400*%
%ADD26C,2.500000*%
%ADD27C,2.030000*%
%ADD28R,2.030000X2.030000*%
%ADD29C,1.524000*%
G04 APERTURE END LIST*
D10*
X34972000Y-42100000D02*
G75*
G03*
X34972000Y-42100000I-1000000J0D01*
G01*
X157400000Y-42100000D02*
G75*
G03*
X157400000Y-42100000I-1000000J0D01*
G01*
X157200000Y-122000000D02*
G75*
G03*
X157200000Y-122000000I-1000000J0D01*
G01*
X35100000Y-122000000D02*
G75*
G03*
X35100000Y-122000000I-1000000J0D01*
G01*
D11*
%TO.C,IC1*%
X51435000Y-78613000D03*
X53975000Y-78613000D03*
X97155000Y-76073000D03*
X86995000Y-63373000D03*
D12*
X66405000Y-65823000D03*
X64405000Y-65823000D03*
X66405000Y-67823000D03*
X66405000Y-69823000D03*
X64405000Y-67823000D03*
X64405000Y-69823000D03*
D11*
X56515000Y-78613000D03*
X59055000Y-78613000D03*
X61595000Y-78613000D03*
X64135000Y-78613000D03*
X66675000Y-78613000D03*
X69215000Y-78613000D03*
X71755000Y-78613000D03*
X74295000Y-78613000D03*
X76835000Y-78613000D03*
X79375000Y-78613000D03*
X81915000Y-78613000D03*
X84455000Y-78613000D03*
X86995000Y-78613000D03*
X84455000Y-63373000D03*
X81915000Y-63373000D03*
X79375000Y-63373000D03*
X76835000Y-63373000D03*
X74295000Y-63373000D03*
X71755000Y-63373000D03*
X69215000Y-63373000D03*
X66675000Y-63373000D03*
X64135000Y-63373000D03*
X61595000Y-63373000D03*
X59055000Y-63373000D03*
X56515000Y-63373000D03*
X53975000Y-63373000D03*
X51435000Y-63373000D03*
X89535000Y-78613000D03*
X92075000Y-78613000D03*
X94615000Y-78613000D03*
X97155000Y-78613000D03*
X99695000Y-78613000D03*
X102235000Y-78613000D03*
X104775000Y-78613000D03*
X107315000Y-78613000D03*
X109855000Y-78613000D03*
X109855000Y-63373000D03*
X107315000Y-63373000D03*
X104775000Y-63373000D03*
X102235000Y-63373000D03*
X99695000Y-63373000D03*
X97155000Y-63373000D03*
X94615000Y-63373000D03*
X92075000Y-63373000D03*
X89535000Y-63373000D03*
%TD*%
D13*
%TO.C,J2*%
X145542000Y-76073000D03*
X151742000Y-76073000D03*
G36*
G01*
X150242000Y-72373000D02*
X147242000Y-72373000D01*
G75*
G02*
X146242000Y-71373000I0J1000000D01*
G01*
X146242000Y-71373000D01*
G75*
G02*
X147242000Y-70373000I1000000J0D01*
G01*
X150242000Y-70373000D01*
G75*
G02*
X151242000Y-71373000I0J-1000000D01*
G01*
X151242000Y-71373000D01*
G75*
G02*
X150242000Y-72373000I-1000000J0D01*
G01*
G37*
%TD*%
D14*
%TO.C,J6*%
X134874000Y-40767000D03*
X132334000Y-40767000D03*
D15*
X129794000Y-40767000D03*
%TD*%
D14*
%TO.C,J4*%
X62611000Y-40767000D03*
X62611000Y-43307000D03*
X65151000Y-40767000D03*
X65151000Y-43307000D03*
X67691000Y-40767000D03*
X67691000Y-43307000D03*
X70231000Y-40767000D03*
X70231000Y-43307000D03*
X72771000Y-40767000D03*
X72771000Y-43307000D03*
X75311000Y-40767000D03*
X75311000Y-43307000D03*
X77851000Y-40767000D03*
X77851000Y-43307000D03*
X80391000Y-40767000D03*
X80391000Y-43307000D03*
X82931000Y-40767000D03*
X82931000Y-43307000D03*
X85471000Y-40767000D03*
X85471000Y-43307000D03*
X88011000Y-40767000D03*
X88011000Y-43307000D03*
X90551000Y-40767000D03*
D15*
X90551000Y-43307000D03*
%TD*%
D14*
%TO.C,J3*%
X124714000Y-40767000D03*
X122174000Y-40767000D03*
X119634000Y-40767000D03*
X117094000Y-40767000D03*
X124714000Y-43307000D03*
X122174000Y-43307000D03*
X119634000Y-43307000D03*
D15*
X117094000Y-43307000D03*
%TD*%
D16*
%TO.C,J9*%
X51308000Y-58908010D03*
X48768000Y-58908010D03*
X46228000Y-58908010D03*
X43688000Y-58908010D03*
X52578000Y-56368010D03*
X50038000Y-56368010D03*
X47498000Y-56368010D03*
X44958000Y-56368010D03*
D17*
X54458000Y-44918010D03*
X51918000Y-46638010D03*
X44348000Y-44938010D03*
X41808000Y-46638010D03*
D18*
X53848000Y-49998010D03*
X42418000Y-49998010D03*
D19*
X56007998Y-53048010D03*
X40258002Y-53048010D03*
%TD*%
D20*
%TO.C,U3*%
X132715000Y-72390000D03*
X117475000Y-62230000D03*
X130175000Y-72390000D03*
X120015000Y-62230000D03*
X127635000Y-72390000D03*
X122555000Y-62230000D03*
X125095000Y-72390000D03*
X125095000Y-62230000D03*
X122555000Y-72390000D03*
X127635000Y-62230000D03*
X120015000Y-72390000D03*
X130175000Y-62230000D03*
X117475000Y-72390000D03*
D21*
X132715000Y-62230000D03*
%TD*%
D22*
%TO.C,RV1*%
X127635000Y-60299600D03*
X130175000Y-57759600D03*
X132715000Y-60299600D03*
%TD*%
%TO.C,RV2*%
X121920000Y-57150000D03*
X119380000Y-59690000D03*
X116840000Y-57150000D03*
%TD*%
D14*
%TO.C,J5*%
X40259000Y-105664000D03*
X42799000Y-105664000D03*
X40259000Y-103124000D03*
X42799000Y-103124000D03*
X40259000Y-100584000D03*
X42799000Y-100584000D03*
X40259000Y-98044000D03*
X42799000Y-98044000D03*
X40259000Y-95504000D03*
X42799000Y-95504000D03*
X40259000Y-92964000D03*
X42799000Y-92964000D03*
X40259000Y-90424000D03*
X42799000Y-90424000D03*
X40259000Y-87884000D03*
X42799000Y-87884000D03*
X40259000Y-85344000D03*
X42799000Y-85344000D03*
X40259000Y-82804000D03*
D15*
X42799000Y-82804000D03*
%TD*%
D14*
%TO.C,J10*%
X40259000Y-114300000D03*
X42799000Y-114300000D03*
X40259000Y-111760000D03*
X42799000Y-111760000D03*
X40259000Y-109220000D03*
D15*
X42799000Y-109220000D03*
%TD*%
D14*
%TO.C,J11*%
X147675600Y-40894000D03*
D15*
X145135600Y-40894000D03*
%TD*%
D23*
%TO.C,B1*%
X82043001Y-98933000D03*
D24*
X82043001Y-87948000D03*
X82043001Y-109918000D03*
%TD*%
D25*
%TO.C,J1*%
X155321000Y-84281000D03*
X155321000Y-89281000D03*
%TD*%
D15*
%TO.C,J7*%
X144208500Y-66929000D03*
D14*
X144208500Y-64389000D03*
X144208500Y-61849000D03*
%TD*%
D26*
%TO.C,K1*%
X84588000Y-124982200D03*
X106588000Y-124982200D03*
X81788000Y-136982200D03*
X109388000Y-136982200D03*
%TD*%
%TO.C,K2*%
X70002400Y-136956800D03*
X42402400Y-136956800D03*
X67202400Y-124956800D03*
X45202400Y-124956800D03*
%TD*%
D27*
%TO.C,PS1*%
X124460000Y-90170000D03*
X134620000Y-90170000D03*
X144780000Y-135890000D03*
D28*
X124460000Y-135890000D03*
%TD*%
D25*
%TO.C,J8*%
X152480000Y-135890000D03*
X157480000Y-135890000D03*
%TD*%
D29*
%TO.C,U10*%
X95375800Y-110820200D03*
X88915800Y-117280200D03*
%TD*%
M02*
